<?xml version="1.0" encoding="utf-8"?>
<!-- Generator: Adobe Illustrator 24.3.0, SVG Export Plug-In . SVG Version: 6.00 Build 0)  -->
<svg version="1.1" id="Layer_1" xmlns="http://www.w3.org/2000/svg" xmlns:xlink="http://www.w3.org/1999/xlink" x="0px" y="0px"
	 viewBox="0 0 28 28" style="enable-background:new 0 0 28 28;" xml:space="preserve">
<style type="text/css">
	.st0{fill:#FFFFFF;}
</style>
<g id="Group_13943" transform="translate(-114 -224.684)">
	<path id="Path_41185" class="st0" d="M140,234.03c-0.19,0.78-0.38,1.56-0.56,2.34c-0.39,1.69-0.78,3.39-1.17,5.08
		c-0.16,0.85-0.92,1.46-1.78,1.42c-2.91,0-5.81,0-8.72,0c-1.58,0-3.16-0.01-4.73,0c-0.43-0.05-0.82,0.25-0.87,0.68
		c-0.01,0.09-0.01,0.19,0.02,0.28c0.06,0.33,0.33,0.57,0.66,0.6c0.12,0.01,0.23,0.01,0.35,0.01h13.64c0.07,0,0.14,0,0.21,0
		c0.32,0,0.61,0.21,0.7,0.52c0.08,0.31-0.06,0.64-0.34,0.8c-0.03,0.02-0.05,0.03-0.1,0.06c0.3,0.63,0.32,1.35,0.06,2
		c-0.18,0.46-0.5,0.86-0.91,1.13c-0.84,0.56-1.94,0.55-2.78-0.03c-0.95-0.67-1.21-1.6-0.85-3.06h-4.38c0.52,1.11,0.13,2.42-0.9,3.08
		c-0.79,0.6-1.88,0.6-2.68,0.02c-1.06-0.65-1.46-2-0.93-3.12c-0.34,0-0.65,0-0.97,0c-1.21,0.03-2.21-0.93-2.24-2.14
		c-0.03-1.14,0.82-2.1,1.95-2.23c0.05-0.01,0.11-0.01,0.18-0.02c-0.02-0.09-0.03-0.17-0.06-0.25c-1.03-3.82-2.06-7.65-3.09-11.47
		c-0.08-0.31-0.14-0.35-0.45-0.35c-0.78,0-1.56-0.01-2.34,0c-0.39,0.05-0.77-0.18-0.9-0.55v-0.33c0.1-0.32,0.41-0.54,0.74-0.53
		c0.87,0,1.75-0.01,2.62,0.01c0.79-0.02,1.48,0.53,1.65,1.3c0.26,0.94,0.51,1.88,0.76,2.82c0.04,0.17,0.11,0.22,0.28,0.22
		c3.19,0.01,6.39,0.02,9.58,0.04c2.29,0.01,4.58,0.02,6.87,0.03c0.68-0.04,1.3,0.43,1.44,1.1c0.01,0.03,0.02,0.06,0.04,0.08
		L140,234.03z M123.09,236.91h2.71c0-0.07,0-0.15,0-0.22c-0.12-0.94-0.25-1.87-0.37-2.81c-0.02-0.17-0.13-0.15-0.23-0.15
		c-0.73-0.01-1.45-0.01-2.18-0.01c-0.25,0-0.51,0-0.78,0L123.09,236.91z M131.34,236.9c0.03,0.01,0.07,0.01,0.1,0.02
		c0.8,0,1.61,0,2.41,0.01c0.16,0,0.17-0.08,0.19-0.2c0.08-0.69,0.18-1.38,0.27-2.06c0.04-0.29,0.07-0.58,0.11-0.89h-3.07
		L131.34,236.9z M127.24,236.9h2.67v-3.15h-3.09L127.24,236.9z M135.44,236.91h2.43l0.72-3.13c-0.89,0-1.76,0-2.62,0.01
		c-0.05,0-0.13,0.11-0.14,0.18c-0.08,0.55-0.15,1.1-0.23,1.65C135.55,236.04,135.5,236.46,135.44,236.91L135.44,236.91z
		 M123.48,238.33c0.02,0.1,0.03,0.16,0.05,0.22c0.19,0.71,0.39,1.43,0.58,2.14c0.21,0.78,0.13,0.8,1.01,0.79
		c0.43-0.01,0.85,0,1.29,0c0-0.05,0-0.1,0-0.14c-0.13-0.96-0.25-1.92-0.38-2.87c-0.02-0.06-0.07-0.1-0.12-0.12
		C125.11,238.33,124.31,238.33,123.48,238.33L123.48,238.33z M131.34,238.34v3.13c0.67,0,1.32,0,1.97-0.01
		c0.04,0,0.11-0.1,0.11-0.16c0.1-0.69,0.19-1.37,0.28-2.06c0.04-0.3,0.07-0.59,0.11-0.9L131.34,238.34z M129.91,241.46v-3.12h-2.48
		l0.42,3.12H129.91z M134.84,241.47c0.55,0,1.08,0,1.61,0c0.29,0,0.39-0.09,0.45-0.37c0.2-0.85,0.39-1.7,0.59-2.55
		c0.02-0.06,0.02-0.13,0.03-0.22c-0.74,0-1.45,0-2.17,0.01c-0.05,0-0.12,0.12-0.13,0.2c-0.08,0.56-0.16,1.13-0.23,1.69
		C134.95,240.63,134.89,241.04,134.84,241.47L134.84,241.47z M126.19,247.96c0.58,0,1.06-0.47,1.06-1.05c0,0,0,0,0,0
		c-0.01-0.58-0.48-1.05-1.06-1.05c-0.57,0.01-1.04,0.47-1.04,1.05c-0.01,0.57,0.45,1.05,1.02,1.06
		C126.17,247.96,126.18,247.96,126.19,247.96z M135.08,247.96c0.58,0,1.05-0.46,1.05-1.04c0-0.01,0-0.01,0-0.02
		c0-0.58-0.47-1.05-1.05-1.05c-0.58,0-1.05,0.47-1.05,1.05c-0.01,0.58,0.46,1.05,1.03,1.06
		C135.06,247.96,135.07,247.96,135.08,247.96L135.08,247.96z"/>
</g>
</svg>
