<svg id="change-password" xmlns="http://www.w3.org/2000/svg" width="12" height="16" viewBox="0 0 12 16">
  <path id="Path_43806" data-name="Path 43806" d="M10.5,202h-9A1.5,1.5,0,0,1,0,200.5v-7A1.5,1.5,0,0,1,1.5,192h9a1.5,1.5,0,0,1,1.5,1.5v7A1.5,1.5,0,0,1,10.5,202Zm-9-9a.5.5,0,0,0-.5.5v7a.5.5,0,0,0,.5.5h9a.5.5,0,0,0,.5-.5v-7a.5.5,0,0,0-.5-.5Zm0,0" transform="translate(0 -186)" fill="#087cb9"/>
  <path id="Path_43807" data-name="Path 43807" d="M71.5,7a.5.5,0,0,1-.5-.5V4a3,3,0,0,0-6,0V6.5a.5.5,0,0,1-1,0V4a4,4,0,0,1,8,0V6.5A.5.5,0,0,1,71.5,7Zm0,0" transform="translate(-62)" fill="#087cb9"/>
</svg>
