<svg xmlns="http://www.w3.org/2000/svg" width="17.917" height="18.673" viewBox="0 0 17.917 18.673">
  <g id="coupon-icon-grey" transform="translate(-10.359 0.002)">
    <g id="Group_14727" data-name="Group 14727" transform="translate(10.359 -0.002)">
      <g id="Group_14726" data-name="Group 14726" transform="translate(0 0)">
        <path id="Path_36761" data-name="Path 36761" d="M27.412,9.576a.547.547,0,0,1,0-.484l.7-1.425a1.621,1.621,0,0,0-.7-2.153l-1.4-.743a.547.547,0,0,1-.284-.391L25.45,2.819a1.621,1.621,0,0,0-1.831-1.33l-1.57.222a.547.547,0,0,1-.46-.149l-1.14-1.1a1.621,1.621,0,0,0-2.263,0l-1.14,1.1a.547.547,0,0,1-.46.149l-1.57-.222a1.621,1.621,0,0,0-1.831,1.33l-.274,1.562a.547.547,0,0,1-.284.391l-1.4.743a1.621,1.621,0,0,0-.7,2.153l.7,1.425a.547.547,0,0,1,0,.484L10.526,11a1.621,1.621,0,0,0,.7,2.153l1.4.743a.547.547,0,0,1,.284.391l.274,1.562a1.62,1.62,0,0,0,1.6,1.347,1.665,1.665,0,0,0,.233-.016l1.57-.222a.547.547,0,0,1,.46.149l1.14,1.1a1.621,1.621,0,0,0,2.263,0l1.14-1.1a.548.548,0,0,1,.46-.149l1.57.222a1.621,1.621,0,0,0,1.831-1.33l.274-1.562a.547.547,0,0,1,.284-.391l1.4-.743a1.621,1.621,0,0,0,.7-2.153ZM26.9,12.2l-1.4.743a1.617,1.617,0,0,0-.84,1.157l-.274,1.562a.548.548,0,0,1-.62.45l-1.57-.222a1.617,1.617,0,0,0-1.36.442l-1.14,1.1a.548.548,0,0,1-.766,0l-1.14-1.1a1.616,1.616,0,0,0-1.128-.458,1.653,1.653,0,0,0-.232.016l-1.57.222a.549.549,0,0,1-.62-.45L13.972,14.1a1.617,1.617,0,0,0-.84-1.157l-1.4-.743a.548.548,0,0,1-.237-.728l.7-1.425a1.617,1.617,0,0,0,0-1.43l-.7-1.425a.548.548,0,0,1,.237-.728l1.4-.743a1.617,1.617,0,0,0,.84-1.157L14.246,3a.548.548,0,0,1,.62-.45l1.57.222a1.617,1.617,0,0,0,1.36-.442l1.14-1.1a.548.548,0,0,1,.766,0l1.14,1.1a1.617,1.617,0,0,0,1.36.442l1.57-.222a.548.548,0,0,1,.62.45l.274,1.562a1.617,1.617,0,0,0,.84,1.157l1.4.743a.548.548,0,0,1,.237.728l-.7,1.425a1.617,1.617,0,0,0,0,1.43l.7,1.425A.548.548,0,0,1,26.9,12.2Z" transform="translate(-10.359 0.002)"/>
      </g>
    </g>
    <g id="Group_14729" data-name="Group 14729" transform="translate(15.225 5.242)">
      <g id="Group_14728" data-name="Group 14728" transform="translate(0)">
        <path id="Path_36762" data-name="Path 36762" d="M151.818,143.949a.538.538,0,0,0-.762,0l-7.107,7.108a.538.538,0,1,0,.761.762l7.107-7.108A.538.538,0,0,0,151.818,143.949Z" transform="translate(-143.792 -143.792)"/>
      </g>
    </g>
    <g id="Group_14731" data-name="Group 14731" transform="translate(15.189 4.488)">
      <g id="Group_14730" data-name="Group 14730" transform="translate(0)">
        <path id="Path_36763" data-name="Path 36763" d="M144.776,123.116a1.974,1.974,0,1,0,1.974,1.974A1.977,1.977,0,0,0,144.776,123.116Zm0,2.872a.9.9,0,1,1,.9-.9A.9.9,0,0,1,144.776,125.988Z" transform="translate(-142.802 -123.116)"/>
      </g>
    </g>
    <g id="Group_14733" data-name="Group 14733" transform="translate(19.497 10.232)">
      <g id="Group_14732" data-name="Group 14732" transform="translate(0)">
        <path id="Path_36764" data-name="Path 36764" d="M262.9,280.61a1.974,1.974,0,1,0,1.974,1.974A1.977,1.977,0,0,0,262.9,280.61Zm0,2.872a.9.9,0,1,1,.9-.9A.9.9,0,0,1,262.9,283.482Z" transform="translate(-260.922 -280.61)"/>
      </g>
    </g>
  </g>
</svg>
