<svg xmlns="http://www.w3.org/2000/svg" width="62" height="62" viewBox="0 0 62 62">
  <g id="deals-discounts" transform="translate(-306.325 -238.655)">
    <g id="Group_38055" data-name="Group 38055" transform="translate(306.325 238.655)">
      <g id="Group_38050" data-name="Group 38050" transform="translate(0)">
        <path id="Path_43770" data-name="Path 43770" d="M368.325,269.655c0,2.67-2.655,4.956-3.314,7.419-.681,2.548.456,5.852-.835,8.083-1.31,2.263-4.752,2.923-6.588,4.76s-2.5,5.279-4.76,6.589c-2.231,1.291-5.535.154-8.083.835-2.463.658-4.749,3.314-7.419,3.314s-4.957-2.656-7.42-3.314c-2.548-.681-5.852.456-8.083-.835-2.264-1.309-2.922-4.751-4.76-6.588s-5.279-2.5-6.589-4.76c-1.291-2.231-.154-5.535-.835-8.083-.658-2.463-3.314-4.749-3.314-7.419s2.656-4.956,3.314-7.419c.681-2.548-.456-5.852.835-8.084,1.309-2.263,4.751-2.923,6.588-4.759s2.5-5.279,4.76-6.588c2.231-1.291,5.535-.154,8.083-.835,2.463-.658,4.749-3.314,7.42-3.314s4.956,2.656,7.419,3.314c2.549.681,5.853-.456,8.083.835,2.264,1.31,2.923,4.751,4.76,6.588s5.279,2.5,6.588,4.76c1.291,2.231.154,5.535.835,8.083C365.67,264.7,368.325,266.984,368.325,269.655Z" transform="translate(-306.325 -238.655)" fill="#087cb9"/>
        <path id="Path_43793" data-name="Path 43793" d="M22.059-.449A22.48,22.48,0,1,1-.43,22.021,22.512,22.512,0,0,1,22.059-.449Z" transform="translate(2.224 18.986) rotate(-22.291)" fill="#fff"/>
        <path id="Path_43771" data-name="Path 43771" d="M352.338,309.281a.236.236,0,0,1,0-.472c.259,0,.521-.011.778-.023a.236.236,0,1,1,.021.471c-.262.012-.529.02-.793.023Zm-1.727-.036H350.6c-.262-.014-.528-.033-.791-.056a.236.236,0,1,1,.041-.47c.258.022.519.041.776.055a.236.236,0,0,1-.013.471Zm4.235-.124a.236.236,0,0,1-.027-.47c.256-.029.516-.063.771-.1a.236.236,0,1,1,.069.466c-.261.039-.526.073-.786.1Zm-6.733-.142a.219.219,0,0,1-.037,0c-.261-.041-.524-.087-.781-.136a.236.236,0,0,1,.089-.463c.253.048.511.093.766.134a.236.236,0,0,1-.036.468Zm9.212-.271a.236.236,0,0,1-.05-.466c.252-.055.507-.115.757-.179a.236.236,0,1,1,.116.457c-.255.065-.515.126-.772.182A.217.217,0,0,1,357.324,308.708Zm-11.671-.247a.228.228,0,0,1-.061-.008c-.254-.067-.511-.139-.763-.215a.236.236,0,1,1,.135-.452c.247.074.5.145.749.211a.236.236,0,0,1-.06.464Zm14.095-.417a.236.236,0,0,1-.074-.46c.245-.081.492-.167.735-.255a.236.236,0,1,1,.162.443c-.248.091-.5.178-.749.26A.226.226,0,0,1,359.747,308.045Zm-16.488-.351a.238.238,0,0,1-.083-.015c-.247-.094-.5-.192-.739-.293a.236.236,0,1,1,.181-.435c.238.1.483.2.725.287a.236.236,0,0,1-.083.456Zm18.829-.557a.236.236,0,0,1-.1-.451c.235-.105.472-.216.7-.328a.236.236,0,1,1,.206.424c-.236.115-.477.227-.717.335A.241.241,0,0,1,362.088,307.137Zm-21.134-.453a.233.233,0,0,1-.105-.025c-.235-.117-.472-.241-.7-.367a.236.236,0,0,1,.224-.414c.229.123.461.244.692.36a.236.236,0,0,1-.106.447Zm23.37-.688a.236.236,0,0,1-.118-.44c.222-.129.447-.262.667-.4a.236.236,0,1,1,.248.4c-.224.139-.453.276-.68.406A.232.232,0,0,1,364.324,306Zm-25.56-.551a.235.235,0,0,1-.126-.037c-.223-.141-.446-.289-.663-.437a.236.236,0,0,1,.265-.39c.213.145.432.289.651.428a.236.236,0,0,1-.127.435Zm27.669-.812a.235.235,0,0,1-.138-.427c.209-.151.419-.307.624-.464a.236.236,0,0,1,.288.374c-.209.16-.423.319-.636.473A.239.239,0,0,1,366.433,304.634Zm-29.72-.642a.236.236,0,0,1-.146-.051c-.206-.163-.413-.331-.615-.5a.236.236,0,1,1,.3-.361c.2.166.4.332.6.491a.236.236,0,0,1-.146.421Zm31.682-.927a.233.233,0,0,1-.176-.079.236.236,0,0,1,.02-.333c.193-.171.386-.348.574-.525a.236.236,0,1,1,.324.342c-.191.181-.388.361-.585.536A.236.236,0,0,1,368.394,303.064Zm-33.575-.726a.235.235,0,0,1-.164-.066c-.19-.184-.379-.372-.562-.56a.236.236,0,0,1,.338-.329c.179.185.364.369.551.55a.236.236,0,0,1-.164.405Zm35.368-1.034a.236.236,0,0,1-.174-.4c.176-.191.35-.386.518-.581a.236.236,0,0,1,.357.308c-.171.2-.349.4-.528.592A.235.235,0,0,1,370.188,301.3Zm-37.084-.8a.234.234,0,0,1-.18-.084c-.17-.2-.339-.407-.5-.614a.236.236,0,0,1,.37-.293c.16.2.326.4.492.6a.235.235,0,0,1-.028.332A.233.233,0,0,1,333.1,300.5Zm38.691-1.13a.236.236,0,0,1-.188-.377c.155-.207.309-.419.457-.631a.236.236,0,1,1,.386.271c-.151.215-.308.432-.466.642A.236.236,0,0,1,371.794,299.372Zm-40.212-.868a.234.234,0,0,1-.194-.1c-.149-.218-.3-.44-.437-.66a.236.236,0,0,1,.4-.254c.138.217.282.435.428.648a.236.236,0,0,1-.194.369Zm41.617-1.219a.235.235,0,0,1-.2-.357c.133-.222.265-.448.391-.674a.236.236,0,0,1,.412.23c-.129.23-.263.461-.4.687A.235.235,0,0,1,373.2,297.285Zm-42.928-.923a.235.235,0,0,1-.207-.123c-.126-.231-.249-.467-.367-.7a.236.236,0,1,1,.421-.212c.116.229.237.461.36.688a.236.236,0,0,1-.207.349Zm44.112-1.3a.236.236,0,0,1-.213-.336c.111-.235.218-.474.321-.711a.236.236,0,1,1,.433.187c-.1.242-.214.486-.327.725A.236.236,0,0,1,374.383,295.066Zm-45.2-.966a.236.236,0,0,1-.218-.145c-.1-.241-.2-.488-.293-.734a.236.236,0,0,1,.441-.168c.092.241.189.483.288.72a.236.236,0,0,1-.217.327Zm46.151-1.363a.237.237,0,0,1-.223-.314c.086-.245.169-.495.246-.741a.236.236,0,0,1,.45.142c-.079.251-.163.505-.25.755A.237.237,0,0,1,375.336,292.737Zm-47-1a.236.236,0,0,1-.226-.167c-.076-.253-.15-.509-.217-.763a.236.236,0,0,1,.455-.122c.067.249.138.5.213.748a.236.236,0,0,1-.157.294A.241.241,0,0,1,328.336,291.738Zm47.709-1.414a.236.236,0,0,1-.23-.291c.06-.25.117-.506.169-.76a.236.236,0,0,1,.462.095c-.053.259-.11.519-.171.775A.236.236,0,0,1,376.045,290.323ZM327.731,289.3a.236.236,0,0,1-.231-.191c-.05-.259-.1-.522-.138-.781a.236.236,0,0,1,.465-.075c.041.254.087.512.136.766a.236.236,0,0,1-.186.276A.243.243,0,0,1,327.731,289.3Zm48.772-1.446-.031,0a.236.236,0,0,1-.2-.265c.034-.255.065-.515.09-.773a.236.236,0,0,1,.469.047c-.026.263-.057.528-.092.788A.236.236,0,0,1,376.5,287.852Zm-49.124-1.042a.236.236,0,0,1-.235-.215c-.023-.262-.043-.528-.058-.791a.236.236,0,0,1,.471-.028c.015.258.034.519.057.776a.236.236,0,0,1-.214.256Zm49.329-1.463H376.7a.236.236,0,0,1-.228-.243c.008-.257.012-.519.012-.778a.236.236,0,1,1,.471,0c0,.264,0,.531-.012.793A.235.235,0,0,1,376.707,285.348ZM327.28,284.3h0a.236.236,0,0,1-.233-.238c0-.263.01-.53.021-.793a.236.236,0,1,1,.471.02c-.011.258-.018.519-.02.778A.236.236,0,0,1,327.28,284.3Zm49.411-.936a.236.236,0,0,1-.235-.225c-.012-.257-.029-.518-.049-.776a.236.236,0,1,1,.47-.037c.021.263.038.529.05.791a.236.236,0,0,1-.224.247Zm-49.259-1.572h-.027a.236.236,0,0,1-.208-.26c.029-.262.063-.527.1-.787a.236.236,0,0,1,.467.067c-.037.255-.07.514-.1.772A.235.235,0,0,1,327.432,281.791Zm49.012-.929a.236.236,0,0,1-.233-.2c-.038-.257-.081-.515-.128-.767a.236.236,0,1,1,.464-.085c.047.257.091.52.13.782a.236.236,0,0,1-.2.268Zm-48.607-1.55a.232.232,0,0,1-.05-.006.236.236,0,0,1-.181-.28c.055-.257.116-.517.18-.772a.236.236,0,0,1,.457.114c-.062.25-.122.505-.177.757A.236.236,0,0,1,327.838,279.312Zm48.107-.912a.235.235,0,0,1-.228-.177c-.065-.251-.134-.5-.206-.75a.236.236,0,0,1,.453-.132c.073.252.144.509.21.765a.236.236,0,0,1-.229.295Zm-47.451-1.514a.228.228,0,0,1-.073-.012.236.236,0,0,1-.151-.3c.082-.25.169-.5.259-.752a.236.236,0,1,1,.443.161c-.088.244-.174.493-.254.738A.235.235,0,0,1,328.494,276.886ZM375.2,276a.236.236,0,0,1-.221-.154c-.09-.243-.184-.487-.281-.726a.236.236,0,0,1,.437-.178c.1.244.2.492.286.74a.236.236,0,0,1-.221.317Zm-45.8-1.465a.236.236,0,0,1-.215-.331c.107-.24.219-.483.334-.721a.236.236,0,0,1,.425.205c-.113.234-.223.472-.328.708A.236.236,0,0,1,329.4,274.536Zm44.812-.843a.236.236,0,0,1-.212-.132c-.113-.231-.232-.463-.352-.691a.236.236,0,1,1,.417-.221c.123.232.244.469.36.7a.236.236,0,0,1-.212.34Zm-43.674-1.4a.232.232,0,0,1-.117-.031.236.236,0,0,1-.087-.322c.131-.229.268-.459.406-.683a.236.236,0,1,1,.4.247c-.135.22-.27.445-.4.67A.235.235,0,0,1,330.534,272.292Zm42.456-.793a.236.236,0,0,1-.2-.111c-.136-.218-.278-.437-.422-.652a.236.236,0,1,1,.392-.262c.147.219.291.443.43.665a.236.236,0,0,1-.2.361Zm-41.1-1.323a.236.236,0,0,1-.192-.373c.154-.214.312-.428.473-.638a.236.236,0,0,1,.374.287c-.158.206-.314.416-.463.626A.235.235,0,0,1,331.894,270.176Zm39.661-.738a.235.235,0,0,1-.187-.092c-.158-.2-.321-.408-.486-.607a.236.236,0,1,1,.364-.3c.168.2.334.411.5.619a.236.236,0,0,1-.186.38Zm-38.094-1.229a.236.236,0,0,1-.177-.392c.175-.2.354-.395.534-.586a.236.236,0,0,1,.343.323c-.177.187-.353.381-.524.575A.236.236,0,0,1,333.46,268.209Zm36.458-.677a.234.234,0,0,1-.171-.073c-.179-.188-.362-.374-.545-.555a.236.236,0,0,1,.331-.336c.187.185.374.375.555.566a.236.236,0,0,1-.17.4Zm-34.7-1.121a.236.236,0,0,1-.16-.409c.193-.179.392-.357.59-.529a.236.236,0,0,1,.309.356c-.2.169-.39.343-.58.519A.234.234,0,0,1,335.217,266.411ZM368.1,265.8a.234.234,0,0,1-.154-.057c-.2-.168-.4-.336-.6-.5a.236.236,0,0,1,.3-.367c.205.165.411.336.61.507a.236.236,0,0,1-.154.415Zm-30.951-1a.236.236,0,0,1-.142-.424c.209-.158.424-.315.64-.467a.236.236,0,0,1,.272.385c-.212.149-.423.3-.629.458A.235.235,0,0,1,337.145,264.8Zm28.963-.54a.235.235,0,0,1-.134-.042c-.213-.149-.431-.295-.646-.435a.236.236,0,1,1,.257-.4c.22.143.441.292.659.443a.236.236,0,0,1-.135.429Zm-26.883-.867a.236.236,0,0,1-.123-.437c.224-.135.454-.27.684-.4a.236.236,0,0,1,.231.411c-.225.127-.451.258-.671.391A.234.234,0,0,1,339.225,263.394Zm24.749-.463a.236.236,0,0,1-.114-.03c-.227-.126-.458-.25-.688-.367a.236.236,0,1,1,.216-.419c.234.12.469.246.7.374a.236.236,0,0,1-.114.442Zm-22.538-.725a.236.236,0,0,1-.1-.449c.237-.112.479-.222.72-.327a.236.236,0,1,1,.188.432c-.236.1-.474.211-.706.321A.236.236,0,0,1,341.436,262.206Zm20.278-.382a.228.228,0,0,1-.092-.019c-.238-.1-.481-.2-.722-.3a.236.236,0,0,1,.171-.439c.246.1.494.2.736.3a.236.236,0,0,1-.093.453Zm-17.959-.574a.236.236,0,0,1-.078-.458c.248-.088.5-.173.752-.253a.236.236,0,1,1,.143.449c-.246.078-.495.162-.738.247A.231.231,0,0,1,343.755,261.25Zm15.6-.3a.237.237,0,0,1-.07-.011c-.247-.077-.5-.15-.746-.219a.236.236,0,0,1,.125-.454c.253.07.509.145.761.224a.236.236,0,0,1-.07.461Zm-13.188-.42a.236.236,0,0,1-.055-.465c.257-.062.517-.12.774-.174a.236.236,0,1,1,.1.462c-.252.053-.507.11-.759.171A.249.249,0,0,1,346.164,260.535Zm10.754-.2a.21.21,0,0,1-.047-.005c-.254-.051-.511-.1-.765-.142a.236.236,0,0,1,.078-.465c.26.044.522.093.78.145a.236.236,0,0,1-.046.467Zm-8.285-.262a.236.236,0,0,1-.032-.469c.261-.036.527-.068.787-.095a.236.236,0,0,1,.049.469c-.256.027-.516.058-.772.093Zm5.8-.109h-.023c-.256-.025-.517-.046-.776-.063a.236.236,0,0,1,.031-.47c.264.018.529.039.79.065a.236.236,0,0,1-.023.47Zm-3.3-.1a.236.236,0,0,1-.008-.472c.264-.009.531-.014.793-.014h0a.236.236,0,0,1,0,.471c-.258,0-.519.006-.778.014Z" transform="translate(-320.999 -253.327)" fill="#fff"/>
        <path id="Path_43772" data-name="Path 43772" d="M386.753,305.01a14.074,14.074,0,1,1-14.074-14.075A14.074,14.074,0,0,1,386.753,305.01Z" transform="translate(-341.604 -273.935)" fill="#eb1d21"/>
        <g id="Group_38057" data-name="Group 38057" transform="translate(-105.698 -141)">
          <path id="Path_43794" data-name="Path 43794" d="M228.133,254.224H218.7a1.284,1.284,0,0,1-.02-.161q0-2.712,0-5.423a1.468,1.468,0,0,1,.074-.253l1.048,1.156.831-.749-1.195-1.019.052-.072h9.993a1.766,1.766,0,0,1,.025.2q0,2.436,0,4.871a1.044,1.044,0,0,1-.039.254A1.607,1.607,0,0,1,228.133,254.224Z" transform="translate(-84.134 -76.388)" fill="#fff" fill-rule="evenodd"/>
          <path id="Path_43795" data-name="Path 43795" d="M228.287,166a1.9,1.9,0,0,1,1.042.464,1.5,1.5,0,0,1,.463,1.1c-.006.79,0,1.581,0,2.371,0,.105-.01.21-.016.331h-8.2a1.935,1.935,0,0,0-.305-2.287,1.876,1.876,0,0,0-2.283-.272V166Z" transform="translate(-84.418)" fill="#fff" fill-rule="evenodd"/>
          <path id="Path_43796" data-name="Path 43796" d="M130.083,254.183a1.6,1.6,0,0,1-1.345-1.19,1.064,1.064,0,0,1-.039-.254q0-2.435,0-4.871a1.982,1.982,0,0,1,.023-.209H132.7l-1.142,1.106.878.783,1.074-1.13a1.674,1.674,0,0,1,.042.246q0,2.679,0,5.358a1.445,1.445,0,0,1-.018.161Z" transform="translate(0 -76.348)" fill="#fff" fill-rule="evenodd"/>
          <path id="Path_43797" data-name="Path 43797" d="M133.586,166v1.706a1.921,1.921,0,0,0-2.29.273,1.866,1.866,0,0,0-.293,2.278h-2.244c0-.918,0-1.826,0-2.733a1.41,1.41,0,0,1,.752-1.276A3.932,3.932,0,0,1,130.2,166Z" transform="translate(-0.056)" fill="#fff" fill-rule="evenodd"/>
          <path id="Path_43798" data-name="Path 43798" d="M176.92,205.864a12.114,12.114,0,0,1-1.268-.211.9.9,0,0,1-.587-.971.788.788,0,0,1,.742-.686.851.851,0,0,1,.919.647C176.814,205,176.846,205.377,176.92,205.864Z" transform="translate(-43.345 -35.521)" fill="#fff" fill-rule="evenodd"/>
          <path id="Path_43799" data-name="Path 43799" d="M217.923,205.729a13.077,13.077,0,0,1,.278-1.308.827.827,0,0,1,.93-.435.742.742,0,0,1,.648.668.838.838,0,0,1-.506.953,9.541,9.541,0,0,1-1.224.231Z" transform="translate(-83.423 -35.503)" fill="#fff" fill-rule="evenodd"/>
        </g>
      </g>
      <g id="Group_38052" data-name="Group 38052" transform="translate(16.91 42.618)">
        <g id="Group_38051" data-name="Group 38051">
          <path id="Path_43773" data-name="Path 43773" d="M360.994,375.474l.564,1.736h1.825l-1.476,1.073.564,1.736-1.477-1.073-1.477,1.073.564-1.736-1.477-1.073h1.825Z" transform="translate(-358.604 -375.474)" fill="#eb1d21"/>
          <path id="Path_43774" data-name="Path 43774" d="M440.08,376.811l.564,1.736h1.825l-1.477,1.073.564,1.736-1.476-1.073-1.477,1.073.564-1.736-1.476-1.073h1.825Z" transform="translate(-414.616 -376.421)" fill="#eb1d21"/>
          <path id="Path_43775" data-name="Path 43775" d="M401.047,391.42l.564,1.736h1.825l-1.477,1.073.564,1.736-1.476-1.073-1.477,1.073.564-1.736-1.477-1.073h1.825Z" transform="translate(-386.971 -386.767)" fill="#eb1d21"/>
        </g>
      </g>
      <g id="Group_38054" data-name="Group 38054" transform="translate(11.811 10.777)">
        <g id="Group_38053" data-name="Group 38053">
          <path id="Path_43776" data-name="Path 43776" d="M341.4,323a1.64,1.64,0,1,1,3.22.549l-.284,1.669-.046-.008.01-.058a.3.3,0,0,0-.239-.344l-2.576-.439a.288.288,0,0,0-.313.248l-.01.058-.046-.007Zm2.918,1.14.1-.569c.112-.659-.359-1.162-1.231-1.31s-1.487.17-1.6.828l-.1.569Z" transform="translate(-341.12 -307.256)" fill="#313332"/>
          <path id="Path_43777" data-name="Path 43777" d="M348.021,311.6l-.892,2.246-.043-.018.022-.055a.3.3,0,0,0-.163-.387l-2.419-.96a.3.3,0,0,0-.369.175l-.022.055-.043-.016.66-1.663a2.039,2.039,0,0,0,.127-.549l.759.3-.018.043-.051-.02a.445.445,0,0,0-.611.248l-.29.73,1.262.5.228-.575a.39.39,0,0,0-.225-.516l-.038-.015.016-.043,1,.4-.017.042-.038-.015a.389.389,0,0,0-.515.215l-.231.581,1.221.485.226-.57a.936.936,0,0,0-.363-1.127l.017-.043Z" transform="translate(-343.225 -299.425)" fill="#313332"/>
          <path id="Path_43778" data-name="Path 43778" d="M354.3,303.278a.461.461,0,0,0,.442-.19l.021-.033.04.025-.8,1.253-.039-.025.022-.034a.2.2,0,0,0-.15-.31l-.609-.117-.589.923.358.511a.2.2,0,0,0,.343.007l.022-.035.039.025-.539.843-.039-.025.022-.035a.457.457,0,0,0-.01-.472l-1.475-2.222a3.255,3.255,0,0,0-.392-.523l.023-.035Zm-1.281.53-1.212-.232.708,1.02Z" transform="translate(-348.092 -294.032)" fill="#313332"/>
          <path id="Path_43779" data-name="Path 43779" d="M359.973,294.37l-1.659,1.758-.034-.033.041-.043a.3.3,0,0,0-.008-.419l-1.882-1.776a.3.3,0,0,0-.419.016l-.041.043-.034-.031.974-1.031.033.032-.04.043a.3.3,0,0,0,.008.419l1.985,1.872.42-.446a.936.936,0,0,0,.079-1.181l.032-.034Z" transform="translate(-351.614 -286.981)" fill="#313332"/>
          <path id="Path_43780" data-name="Path 43780" d="M367.26,285.514a.82.82,0,0,1,.8.364c.344.5.2,1.064-.4,1.515a1.482,1.482,0,0,1-.953.366,1.122,1.122,0,0,1-.39-.7l.033-.025a.811.811,0,0,0,1.232.169.567.567,0,0,0,.2-.808c-.114-.151-.288-.178-.589-.159l-.974.061a.873.873,0,0,1-.862-.4.886.886,0,0,1,.29-1.245,6.008,6.008,0,0,1,.536-.345l.233-.177.366.584-.036.027a.572.572,0,0,0-.849-.031.535.535,0,0,0-.216.727c.1.153.289.166.521.149Z" transform="translate(-358.181 -280.806)" fill="#313332"/>
          <path id="Path_43781" data-name="Path 43781" d="M382.809,279.4a2.139,2.139,0,0,1-1.261.324,1.74,1.74,0,0,1-.767.548c-.664.269-1.6.385-1.905-.368a.894.894,0,0,1,.32-1.039,1.188,1.188,0,0,1-.434-.524c-.216-.532.2-.979.735-1.2a1.2,1.2,0,0,1,.979-.038l.1.684-.041.016c-.16-.388-.457-.683-.849-.525a.518.518,0,0,0-.287.707c.136.336.5.5,1.144.719.248.085.633.221.9.305a1.111,1.111,0,0,0-.32-.707.312.312,0,0,0-.345-.09l-.065.026-.018-.043,1.012-.41.017.043-.061.025c-.133.052-.118.153-.061.29a1.956,1.956,0,0,1,.183.984,2.729,2.729,0,0,0,1.009.224Zm-1.94.623a.876.876,0,0,0,.429-.356c-.381-.107-.87-.268-1.088-.343a5.387,5.387,0,0,1-.764-.308.833.833,0,0,0,.078.524A1,1,0,0,0,380.87,280.023Z" transform="translate(-367.738 -275.764)" fill="#313332"/>
          <path id="Path_43782" data-name="Path 43782" d="M396.737,272.919a1.641,1.641,0,1,1,.275,3.257l-1.688.143,0-.047.059,0a.3.3,0,0,0,.273-.317l-.22-2.606a.289.289,0,0,0-.319-.241l-.059,0,0-.046Zm-.374,3.112.575-.049c.668-.056,1.035-.639.961-1.52s-.538-1.4-1.2-1.342l-.576.048Z" transform="translate(-379.315 -272.855)" fill="#313332"/>
          <path id="Path_43783" data-name="Path 43783" d="M409.847,276.1l-1.413-.116,0-.046.059,0a.3.3,0,0,0,.322-.268l.212-2.581a.3.3,0,0,0-.274-.315l-.059,0,0-.046,1.413.116,0,.046-.059,0a.3.3,0,0,0-.322.265l-.212,2.582a.3.3,0,0,0,.274.317l.059,0Z" transform="translate(-388.794 -272.724)" fill="#313332"/>
          <path id="Path_43784" data-name="Path 43784" d="M416.666,275.668a.818.818,0,0,1,.245.845c-.157.588-.682.841-1.41.682a1.484,1.484,0,0,1-.9-.486,1.123,1.123,0,0,1,.277-.751l.04.009a.811.811,0,0,0,.673,1.046c.4.079.68-.09.742-.375.041-.185-.052-.334-.262-.55l-.68-.7a.875.875,0,0,1-.258-.913.887.887,0,0,1,1.134-.589,6.218,6.218,0,0,1,.611.182l.286.063-.206.657-.044-.01c.068-.317-.142-.581-.528-.665-.359-.078-.628.066-.693.309-.05.177.062.327.225.493Z" transform="translate(-393.159 -273.523)" fill="#313332"/>
          <path id="Path_43785" data-name="Path 43785" d="M427.453,280l-.275.756a1.411,1.411,0,0,1-1.452.057,1.71,1.71,0,1,1,1.352-3.117,2.556,2.556,0,0,1,.966.69l-.307.74-.035-.015a1.046,1.046,0,0,0-.659-1.215c-.68-.292-1.321.054-1.682.9s-.189,1.55.443,1.841c.66.282,1.117.139,1.613-.647Z" transform="translate(-400.173 -276.092)" fill="#313332"/>
          <path id="Path_43786" data-name="Path 43786" d="M439.211,286.842a1.842,1.842,0,1,1-.46-2.459A1.649,1.649,0,0,1,439.211,286.842Zm-.615-.457c.553-.744.565-1.452.038-1.844s-1.2-.177-1.756.567-.565,1.452-.037,1.844S438.043,287.129,438.6,286.385Z" transform="translate(-408.244 -280.669)" fill="#313332"/>
          <path id="Path_43787" data-name="Path 43787" d="M450.55,294.186l-.035.03-.049-.058a.238.238,0,0,0-.328-.047l-1.393,1.168a1.2,1.2,0,0,1-1.82-.227c-.642-.766-.611-1.473-.027-1.963l1.391-1.166a.237.237,0,0,0,.019-.338l-.049-.058.036-.03.863,1.031-.035.03-.049-.058a.237.237,0,0,0-.33-.045l-1.366,1.145a.929.929,0,0,0-.243,1.386.906.906,0,0,0,1.375.057l1.411-1.183a.237.237,0,0,0,.014-.333l-.049-.058.036-.03Z" transform="translate(-415.72 -286.019)" fill="#313332"/>
          <path id="Path_43788" data-name="Path 43788" d="M456.667,307l-.042.02-.039-.077a.289.289,0,0,0-.379-.132l-2.154,1.083a3.059,3.059,0,0,0-.508.316l-.019-.038.947-3.115-1.655.832a.289.289,0,0,0-.122.384l.039.077-.042.022-.635-1.264.041-.02.039.077a.288.288,0,0,0,.382.13l2.166-1.089a2.854,2.854,0,0,0,.5-.31l.02.041-.948,3.112,1.648-.829a.288.288,0,0,0,.123-.384l-.039-.077.042-.022Z" transform="translate(-419.691 -294.798)" fill="#313332"/>
          <path id="Path_43789" data-name="Path 43789" d="M461.439,319.932l-.011-.046.053-.014a.447.447,0,0,0,.345-.571l-.157-.607-2.653.684a.3.3,0,0,0-.206.362l.015.057-.045.013-.354-1.374.046-.011.014.057a.3.3,0,0,0,.352.218l2.656-.684-.157-.608a.446.446,0,0,0-.578-.333l-.053.013-.013-.045.787-.2a2.052,2.052,0,0,0,.056.557l.469,1.819a2.034,2.034,0,0,0,.22.515Z" transform="translate(-424.201 -303.968)" fill="#313332"/>
          <path id="Path_43790" data-name="Path 43790" d="M462.1,331.6a.818.818,0,0,1-.74.476c-.608.017-1-.412-1.056-1.157a1.481,1.481,0,0,1,.209-1,1.123,1.123,0,0,1,.8.051l0,.041a.811.811,0,0,0-.81.944c.038.4.28.626.572.6.188-.014.305-.146.453-.408l.477-.852a.873.873,0,0,1,.8-.509.886.886,0,0,1,.889.918,5.9,5.9,0,0,1,0,.638l.022.292-.689-.009,0-.045c.323-.025.516-.3.486-.7-.028-.366-.243-.583-.494-.575-.184,0-.3.153-.408.357Z" transform="translate(-425.527 -313.143)" fill="#313332"/>
        </g>
      </g>
    </g>
  </g>
</svg>
