<svg id="deleted-red" xmlns="http://www.w3.org/2000/svg" width="22.073" height="22.073" viewBox="0 0 22.073 22.073">
  <path id="Path_43692" data-name="Path 43692" d="M11.036,0A11.036,11.036,0,1,1,0,11.036,11.036,11.036,0,0,1,11.036,0Z" transform="translate(0 0)" fill="#d63838"/>
  <g id="Group_17521" data-name="Group 17521" transform="translate(5.97 4.799)">
    <path id="Path_43693" data-name="Path 43693" d="M262.691,154.7a.292.292,0,0,0-.292.292v5.522a.292.292,0,1,0,.584,0V155A.292.292,0,0,0,262.691,154.7Z" transform="translate(-255.901 -150.183)" fill="#fff"/>
    <path id="Path_43694" data-name="Path 43694" d="M144.691,154.7a.292.292,0,0,0-.292.292v5.522a.292.292,0,1,0,.584,0V155A.292.292,0,0,0,144.691,154.7Z" transform="translate(-141.349 -150.183)" fill="#fff"/>
    <path id="Path_43695" data-name="Path 43695" d="M40.827,3.713v7.2a1.612,1.612,0,0,0,.429,1.112,1.439,1.439,0,0,0,1.044.451h5.528a1.438,1.438,0,0,0,1.044-.451,1.612,1.612,0,0,0,.429-1.112v-7.2a1.116,1.116,0,0,0-.286-2.195h-1.5V1.153A1.148,1.148,0,0,0,46.361,0H43.767a1.148,1.148,0,0,0-1.157,1.154v.365h-1.5a1.116,1.116,0,0,0-.286,2.195Zm7,8.177H42.3a.925.925,0,0,1-.888-.979V3.739h7.3v7.173A.925.925,0,0,1,47.828,11.89ZM43.194,1.153a.563.563,0,0,1,.573-.57h2.594a.563.563,0,0,1,.573.57v.365h-3.74Zm-2.08.95h7.9a.526.526,0,1,1,0,1.052h-7.9a.526.526,0,1,1,0-1.052Z" transform="translate(-39.997 0.001)" fill="#fff"/>
    <path id="Path_43696" data-name="Path 43696" d="M203.691,154.7a.292.292,0,0,0-.292.292v5.522a.292.292,0,1,0,.584,0V155A.292.292,0,0,0,203.691,154.7Z" transform="translate(-198.625 -150.183)" fill="#fff"/>
  </g>
</svg>
