<svg xmlns="http://www.w3.org/2000/svg" width="11.991" height="14.764" viewBox="0 0 11.991 14.764">
  <g id="delete-grey" transform="translate(0.003 0.002)">
    <path id="Path_36971" data-name="Path 36971" d="M222.744,154.7a.346.346,0,0,0-.346.346v6.535a.346.346,0,0,0,.692,0v-6.535A.346.346,0,0,0,222.744,154.7Zm0,0" transform="translate(-214.711 -149.355)" fill="#b2b2b2"/>
    <path id="Path_36972" data-name="Path 36972" d="M104.744,154.7a.346.346,0,0,0-.346.346v6.535a.346.346,0,0,0,.692,0v-6.535A.346.346,0,0,0,104.744,154.7Zm0,0" transform="translate(-100.791 -149.355)" fill="#b2b2b2"/>
    <path id="Path_36973" data-name="Path 36973" d="M.979,4.394v8.519a1.908,1.908,0,0,0,.507,1.316,1.7,1.7,0,0,0,1.235.534H9.263a1.7,1.7,0,0,0,1.235-.534,1.908,1.908,0,0,0,.507-1.316V4.394a1.321,1.321,0,0,0-.339-2.6H8.9V1.364A1.358,1.358,0,0,0,7.528,0H4.457A1.358,1.358,0,0,0,3.088,1.364V1.8H1.318a1.321,1.321,0,0,0-.339,2.6Zm8.285,9.677H2.721A1.1,1.1,0,0,1,1.67,12.913V4.424h8.644v8.489a1.1,1.1,0,0,1-1.051,1.158ZM3.779,1.364A.666.666,0,0,1,4.457.69h3.07a.666.666,0,0,1,.678.674V1.8H3.779ZM1.318,2.488h9.35a.622.622,0,0,1,0,1.245H1.318a.622.622,0,0,1,0-1.245Zm0,0" transform="translate(0 0)" fill="#b2b2b2"/>
    <path id="Path_36974" data-name="Path 36974" d="M163.744,154.7a.346.346,0,0,0-.346.346v6.535a.346.346,0,0,0,.692,0v-6.535A.346.346,0,0,0,163.744,154.7Zm0,0" transform="translate(-157.751 -149.355)" fill="#b2b2b2"/>
  </g>
</svg>
