<svg id="edit-green" xmlns="http://www.w3.org/2000/svg" width="22.073" height="22.073" viewBox="0 0 22.073 22.073">
  <path id="Path_43692" data-name="Path 43692" d="M11.036,0A11.036,11.036,0,1,1,0,11.036,11.036,11.036,0,0,1,11.036,0Z" transform="translate(0 0)" fill="#0a8830"/>
  <g id="_61456_1_" data-name="61456 (1)" transform="translate(6.199 5.871)">
    <path id="Path_42015" data-name="Path 42015" d="M6.7,3.079,8.894,5.271,3.345,10.82,1.154,8.628Zm3.856-.529L9.58,1.572a.97.97,0,0,0-1.37,0l-.937.937L9.465,4.7l1.092-1.092A.747.747,0,0,0,10.558,2.55ZM.007,11.709a.249.249,0,0,0,.3.3l2.443-.592L.56,9.221Z" transform="translate(-0.001 -1.289)" fill="#fff"/>
  </g>
</svg>
