<svg xmlns="http://www.w3.org/2000/svg" width="62" height="62" viewBox="0 0 62 62">
  <g id="freeshipping" transform="translate(-306.325 -238.655)">
    <g id="Group_38040" data-name="Group 38040" transform="translate(306.325 238.655)">
      <g id="Group_38035" data-name="Group 38035" transform="translate(0 0)">
        <path id="Path_43730" data-name="Path 43730" d="M368.325,269.655c0,2.67-2.655,4.956-3.314,7.419-.681,2.548.456,5.852-.835,8.083-1.31,2.263-4.752,2.923-6.588,4.759s-2.5,5.279-4.76,6.589c-2.231,1.291-5.535.154-8.083.835-2.463.658-4.749,3.314-7.419,3.314s-4.957-2.656-7.42-3.314c-2.548-.681-5.852.456-8.083-.835-2.264-1.309-2.922-4.751-4.76-6.588s-5.279-2.5-6.589-4.76c-1.291-2.231-.154-5.535-.835-8.083-.658-2.463-3.314-4.749-3.314-7.419s2.656-4.956,3.314-7.419c.681-2.548-.456-5.852.835-8.084,1.309-2.263,4.751-2.923,6.588-4.759s2.5-5.279,4.76-6.588c2.231-1.291,5.535-.154,8.083-.835,2.463-.658,4.749-3.314,7.42-3.314s4.956,2.656,7.419,3.314c2.549.681,5.852-.456,8.083.835,2.264,1.31,2.923,4.751,4.76,6.588s5.279,2.5,6.588,4.76c1.291,2.231.154,5.535.835,8.083C365.67,264.7,368.325,266.984,368.325,269.655Z" transform="translate(-306.325 -238.655)" fill="#087cb9"/>
        <path id="Path_43792" data-name="Path 43792" d="M22.139-.351A22.473,22.473,0,1,1-.339,22.116,22.493,22.493,0,0,1,22.139-.351Z" transform="translate(2.119 18.931) rotate(-22.291)" fill="#fff"/>
        <path id="Path_43731" data-name="Path 43731" d="M352.261,309.13a.235.235,0,0,1,0-.47c.258,0,.52-.011.776-.022a.235.235,0,1,1,.021.469c-.261.012-.527.02-.791.023Zm-1.722-.036h-.013c-.261-.014-.527-.033-.788-.056a.235.235,0,1,1,.041-.468c.257.022.518.041.774.055a.235.235,0,0,1-.013.47Zm4.222-.123a.235.235,0,0,1-.027-.469c.255-.029.514-.063.769-.1a.235.235,0,1,1,.069.465c-.26.038-.524.073-.784.1Zm-6.712-.141a.211.211,0,0,1-.037,0c-.26-.041-.522-.086-.779-.135a.235.235,0,0,1,.088-.462c.252.048.509.093.764.133a.235.235,0,0,1-.036.467Zm9.184-.27a.235.235,0,0,1-.05-.465c.251-.055.505-.115.755-.178a.235.235,0,1,1,.115.456c-.254.065-.514.126-.769.182A.217.217,0,0,1,357.232,308.559Zm-11.636-.246a.226.226,0,0,1-.06-.008c-.253-.067-.509-.139-.761-.215a.235.235,0,1,1,.135-.451c.247.074.5.145.746.21a.236.236,0,0,1-.06.463Zm14.052-.415a.235.235,0,0,1-.074-.459c.244-.08.491-.166.733-.255a.235.235,0,1,1,.162.441c-.247.091-.5.178-.747.26A.226.226,0,0,1,359.648,307.9Zm-16.438-.35a.236.236,0,0,1-.083-.015c-.247-.093-.494-.192-.737-.292a.235.235,0,1,1,.18-.434c.238.1.481.2.723.286a.235.235,0,0,1-.083.455Zm18.772-.555a.235.235,0,0,1-.1-.45c.234-.1.47-.215.7-.327a.235.235,0,1,1,.206.422c-.235.114-.476.227-.715.334A.24.24,0,0,1,361.982,306.993Zm-21.071-.451a.232.232,0,0,1-.105-.025c-.234-.117-.47-.24-.7-.366a.235.235,0,1,1,.224-.413c.228.123.46.243.69.359a.235.235,0,0,1-.105.445Zm23.3-.686a.235.235,0,0,1-.118-.439c.222-.128.446-.261.665-.4a.235.235,0,1,1,.247.4c-.224.139-.452.275-.677.4A.232.232,0,0,1,364.211,305.856Zm-25.483-.549a.234.234,0,0,1-.126-.037c-.222-.141-.445-.288-.661-.435a.235.235,0,1,1,.264-.388c.212.145.431.288.649.427a.235.235,0,0,1-.127.434Zm27.585-.809a.235.235,0,0,1-.137-.426c.208-.15.417-.306.622-.463a.235.235,0,0,1,.287.373c-.208.16-.422.318-.634.472A.238.238,0,0,1,366.314,304.5Zm-29.631-.64a.234.234,0,0,1-.145-.051c-.206-.162-.412-.33-.614-.5a.235.235,0,1,1,.3-.36c.2.166.4.331.6.49a.235.235,0,0,1-.146.42Zm31.586-.924a.235.235,0,0,1-.156-.411c.193-.171.385-.347.572-.523a.235.235,0,1,1,.323.341c-.191.18-.387.36-.583.534A.235.235,0,0,1,368.269,302.932Zm-33.473-.724a.235.235,0,0,1-.163-.066c-.19-.183-.378-.371-.56-.558a.235.235,0,0,1,.337-.328c.178.184.363.368.549.548a.235.235,0,0,1-.164.4Zm35.261-1.03a.235.235,0,0,1-.173-.394c.175-.19.349-.385.517-.579a.235.235,0,0,1,.356.307c-.171.2-.348.4-.527.59A.235.235,0,0,1,370.057,301.178Zm-36.972-.8a.233.233,0,0,1-.18-.084c-.169-.2-.338-.406-.5-.612a.235.235,0,0,1,.368-.292c.16.2.325.4.491.6a.235.235,0,0,1-.028.331A.232.232,0,0,1,333.085,300.378Zm38.574-1.127a.235.235,0,0,1-.188-.376c.155-.207.308-.418.456-.629a.235.235,0,1,1,.385.27c-.15.215-.307.43-.464.64A.235.235,0,0,1,371.659,299.251Zm-40.091-.865a.234.234,0,0,1-.194-.1c-.149-.217-.3-.439-.436-.658a.235.235,0,0,1,.4-.253c.138.216.281.433.427.646a.235.235,0,0,1-.194.368Zm41.491-1.215a.235.235,0,0,1-.2-.356c.133-.221.264-.447.39-.672a.235.235,0,0,1,.411.229c-.129.229-.262.46-.4.685A.234.234,0,0,1,373.059,297.171Zm-42.8-.92a.235.235,0,0,1-.206-.123c-.125-.23-.249-.465-.366-.7a.235.235,0,1,1,.42-.212c.115.229.236.46.359.686a.235.235,0,0,1-.206.348Zm43.979-1.292a.235.235,0,0,1-.213-.335c.11-.234.217-.473.32-.709a.235.235,0,1,1,.431.186c-.1.241-.213.484-.326.722A.235.235,0,0,1,374.24,294.958Zm-45.061-.963a.236.236,0,0,1-.217-.144c-.1-.241-.2-.487-.292-.732a.235.235,0,0,1,.439-.168c.092.24.188.482.287.718a.235.235,0,0,1-.217.326Zm46.011-1.359a.236.236,0,0,1-.222-.313c.086-.245.168-.493.245-.739a.235.235,0,0,1,.448.141c-.079.25-.163.5-.25.753A.236.236,0,0,1,375.19,292.636Zm-46.858-1a.236.236,0,0,1-.225-.167c-.076-.252-.149-.508-.217-.761a.235.235,0,0,1,.454-.122c.066.248.138.5.213.746a.235.235,0,0,1-.156.293A.238.238,0,0,1,328.332,291.64Zm47.565-1.41a.236.236,0,0,1-.229-.29c.06-.249.116-.5.168-.757a.235.235,0,0,1,.46.094c-.053.258-.11.518-.171.772A.235.235,0,0,1,375.9,290.23Zm-48.168-1.021a.235.235,0,0,1-.23-.19c-.05-.258-.1-.52-.138-.778a.235.235,0,1,1,.464-.075c.041.253.086.51.135.764a.235.235,0,0,1-.186.276A.247.247,0,0,1,327.729,289.208Zm48.624-1.442-.031,0a.235.235,0,0,1-.2-.264c.034-.254.065-.513.09-.77a.235.235,0,0,1,.468.047c-.026.262-.057.526-.092.785A.235.235,0,0,1,376.353,287.766Zm-48.975-1.038a.235.235,0,0,1-.234-.214c-.023-.261-.043-.526-.058-.788a.235.235,0,0,1,.47-.027c.015.257.034.517.057.773a.235.235,0,0,1-.213.255Zm49.179-1.458h-.007a.235.235,0,0,1-.228-.242c.008-.256.012-.518.012-.776a.235.235,0,1,1,.47,0c0,.263,0,.529-.012.79A.234.234,0,0,1,376.557,285.269Zm-49.278-1.045h0a.235.235,0,0,1-.233-.237c0-.263.01-.528.021-.79a.235.235,0,1,1,.47.02c-.011.257-.017.518-.02.775A.235.235,0,0,1,327.279,284.224Zm49.262-.933a.235.235,0,0,1-.235-.224c-.012-.257-.029-.517-.049-.774a.235.235,0,1,1,.469-.037c.021.262.038.527.05.789a.235.235,0,0,1-.224.246Zm-49.11-1.567H327.4a.235.235,0,0,1-.208-.26c.029-.262.063-.525.1-.784a.235.235,0,0,1,.466.067c-.037.254-.07.513-.1.769A.235.235,0,0,1,327.431,281.724Zm48.864-.926a.235.235,0,0,1-.233-.2c-.038-.256-.081-.513-.127-.765a.235.235,0,0,1,.463-.085c.047.257.091.519.13.78a.236.236,0,0,1-.2.268A.227.227,0,0,1,376.295,280.8Zm-48.46-1.546a.228.228,0,0,1-.05-.006.235.235,0,0,1-.18-.279c.055-.257.116-.516.18-.77a.235.235,0,0,1,.456.114c-.062.249-.122.5-.176.755A.235.235,0,0,1,327.835,279.252Zm47.962-.909a.235.235,0,0,1-.227-.177c-.064-.25-.133-.5-.205-.748a.235.235,0,0,1,.451-.132c.073.251.143.508.209.763a.235.235,0,0,1-.169.286A.238.238,0,0,1,375.8,278.342Zm-47.308-1.51a.229.229,0,0,1-.073-.012.235.235,0,0,1-.15-.3c.081-.25.168-.5.258-.75a.235.235,0,1,1,.442.16c-.088.243-.173.491-.253.735A.234.234,0,0,1,328.489,276.833Zm46.562-.882a.236.236,0,0,1-.22-.154c-.089-.242-.184-.485-.28-.723a.235.235,0,0,1,.435-.177c.1.243.195.491.286.738a.235.235,0,0,1-.22.316Zm-45.662-1.461a.235.235,0,0,1-.215-.33c.107-.24.219-.482.333-.719a.235.235,0,1,1,.423.2c-.113.233-.223.47-.327.706A.235.235,0,0,1,329.389,274.49Zm44.676-.841a.236.236,0,0,1-.211-.132c-.113-.23-.231-.462-.351-.689a.235.235,0,1,1,.415-.22c.122.231.243.468.359.7a.235.235,0,0,1-.211.339Zm-43.542-1.4a.232.232,0,0,1-.117-.031.235.235,0,0,1-.087-.321c.131-.229.267-.457.4-.681a.235.235,0,1,1,.4.246c-.135.219-.269.444-.4.668A.235.235,0,0,1,330.523,272.253Zm42.327-.791a.235.235,0,0,1-.2-.111c-.135-.217-.277-.436-.42-.65a.235.235,0,1,1,.391-.261c.146.218.29.441.429.663a.235.235,0,0,1-.2.359Zm-40.972-1.319a.235.235,0,0,1-.191-.372c.153-.213.311-.427.471-.636a.235.235,0,0,1,.373.286c-.157.205-.313.415-.462.624A.234.234,0,0,1,331.879,270.143Zm39.541-.736a.234.234,0,0,1-.186-.091c-.157-.2-.32-.407-.484-.6a.235.235,0,1,1,.363-.3c.167.2.333.41.494.617a.235.235,0,0,1-.186.379Zm-37.979-1.225a.235.235,0,0,1-.176-.391c.174-.2.353-.394.533-.585a.235.235,0,0,1,.342.322c-.176.187-.352.38-.523.573A.235.235,0,0,1,333.441,268.183Zm36.347-.675a.233.233,0,0,1-.17-.073c-.178-.187-.361-.373-.544-.554a.235.235,0,0,1,.33-.335c.186.184.373.374.553.564a.235.235,0,0,1-.17.4Zm-34.6-1.117a.235.235,0,0,1-.16-.407c.193-.178.391-.356.589-.528a.235.235,0,0,1,.308.355c-.195.168-.389.342-.578.518A.233.233,0,0,1,335.192,266.39Zm32.78-.609a.233.233,0,0,1-.153-.057c-.2-.168-.4-.335-.6-.5a.235.235,0,0,1,.295-.366c.2.165.409.335.608.506a.235.235,0,0,1-.153.414Zm-30.857-1a.235.235,0,0,1-.141-.423c.208-.157.423-.314.638-.465a.235.235,0,0,1,.271.384c-.211.149-.422.3-.627.456A.235.235,0,0,1,337.114,264.785Zm28.875-.538a.234.234,0,0,1-.134-.042c-.213-.148-.43-.294-.644-.434a.235.235,0,1,1,.256-.394c.219.142.44.291.657.442a.235.235,0,0,1-.135.428Zm-26.8-.865a.235.235,0,0,1-.122-.436c.224-.135.453-.269.682-.4a.235.235,0,0,1,.23.41c-.225.126-.45.257-.669.39A.233.233,0,0,1,339.188,263.382Zm24.674-.462a.235.235,0,0,1-.114-.03c-.226-.126-.457-.249-.686-.366a.235.235,0,1,1,.215-.418c.233.12.468.245.7.373a.235.235,0,0,1-.114.441Zm-22.47-.723a.235.235,0,0,1-.1-.447c.236-.112.478-.222.718-.326a.235.235,0,1,1,.187.431c-.235.1-.472.21-.7.32A.235.235,0,0,1,341.392,262.2Zm20.217-.381a.228.228,0,0,1-.092-.019c-.237-.1-.479-.2-.72-.294a.235.235,0,0,1,.171-.438c.246.1.493.2.734.3a.235.235,0,0,1-.093.451Zm-17.9-.572a.235.235,0,0,1-.078-.456c.247-.088.5-.172.75-.252a.235.235,0,0,1,.142.448c-.246.078-.493.161-.736.247A.229.229,0,0,1,343.7,261.244Zm15.55-.295a.236.236,0,0,1-.07-.011c-.246-.076-.5-.15-.744-.219a.235.235,0,1,1,.125-.453c.253.07.508.145.759.223a.235.235,0,0,1-.069.46Zm-13.148-.418a.235.235,0,0,1-.055-.464c.256-.062.515-.12.771-.174a.235.235,0,1,1,.1.46c-.251.053-.506.11-.757.171A.245.245,0,0,1,346.106,260.531Zm10.721-.2a.211.211,0,0,1-.046-.005c-.253-.051-.509-.1-.763-.141a.235.235,0,0,1,.078-.464c.259.044.52.092.778.144a.235.235,0,0,1-.046.465Zm-8.259-.262a.235.235,0,0,1-.031-.468c.261-.036.525-.067.785-.094a.235.235,0,0,1,.049.468c-.255.026-.514.057-.77.092Zm5.782-.108h-.023c-.256-.025-.516-.046-.773-.063a.235.235,0,0,1,.031-.469c.263.017.527.039.788.065a.235.235,0,0,1-.022.469Zm-3.286-.1a.235.235,0,0,1-.008-.47c.263-.009.529-.014.791-.014h0a.235.235,0,0,1,0,.47c-.257,0-.518.006-.776.014Z" transform="translate(-320.923 -253.251)" fill="#fff"/>
        <path id="Path_43732" data-name="Path 43732" d="M387.1,305.185a14.25,14.25,0,1,1-14.25-14.25A14.25,14.25,0,0,1,387.1,305.185Z" transform="translate(-341.854 -274.185)" fill="#eb1d21"/>
        <g id="truck" transform="translate(22.358 23.94)">
          <g id="Group_38042" data-name="Group 38042">
            <path id="Path_43748" data-name="Path 43748" d="M16.767,67.53H14.119V64H1.765A1.764,1.764,0,0,0,0,65.765v9.707H1.765a2.647,2.647,0,1,0,5.295,0h5.295a2.647,2.647,0,1,0,5.295,0h1.765V71.06ZM4.412,76.8a1.324,1.324,0,1,1,1.324-1.324A1.322,1.322,0,0,1,4.412,76.8ZM15,76.8a1.324,1.324,0,1,1,1.324-1.324A1.322,1.322,0,0,1,15,76.8Zm-.882-5.736V68.854h2.206L18.06,71.06Z" transform="translate(0 -64)" fill="#fff"/>
          </g>
        </g>
      </g>
      <g id="Group_38037" data-name="Group 38037" transform="translate(16.737 42.525)">
        <g id="Group_38036" data-name="Group 38036">
          <path id="Path_43733" data-name="Path 43733" d="M361.024,375.474l.571,1.758h1.848l-1.495,1.086.571,1.758-1.495-1.086-1.5,1.086.571-1.758-1.5-1.086h1.848Z" transform="translate(-358.604 -375.474)" fill="#eb1d21"/>
          <path id="Path_43734" data-name="Path 43734" d="M440.11,376.811l.571,1.758h1.848l-1.5,1.086.571,1.758-1.495-1.086-1.495,1.086.571-1.758-1.495-1.086h1.848Z" transform="translate(-414.328 -376.416)" fill="#eb1d21"/>
          <path id="Path_43735" data-name="Path 43735" d="M401.076,391.42l.571,1.758H403.5L402,394.264l.571,1.757-1.495-1.086-1.5,1.086.571-1.757-1.5-1.086h1.848Z" transform="translate(-386.825 -386.709)" fill="#eb1d21"/>
        </g>
      </g>
      <g id="Group_38039" data-name="Group 38039" transform="translate(13.845 10.586)">
        <g id="Group_38038" data-name="Group 38038">
          <path id="Path_43736" data-name="Path 43736" d="M350.623,300.557l-.042-.026a.433.433,0,0,0-.631.136l-.427.686,1.167.727.331-.532a.4.4,0,0,0-.132-.554l-.035-.022.024-.039.927.578-.025.039-.035-.022a.4.4,0,0,0-.552.121l-.334.537,1.009.628a.3.3,0,0,0,.412-.1l.032-.051.041.024-.759,1.219-.04-.026.032-.051a.3.3,0,0,0-.092-.414l-2.238-1.393a.3.3,0,0,0-.4.108l-.032.051-.04-.024.958-1.539a2.04,2.04,0,0,0,.225-.524l.68.423Z" transform="translate(-348.785 -291.974)" fill="#313332"/>
          <path id="Path_43737" data-name="Path 43737" d="M355.917,292.554c.388-.422.933-.67,1.417-.224a.859.859,0,0,1,.137,1.177,1.016,1.016,0,0,1,.635-.072c.027.005.549.1.833.12a.691.691,0,0,0,.66-.188l.035.032-.311.339a1.135,1.135,0,0,1-1.113.486c-.225-.051-.714-.211-.863-.258a.477.477,0,0,0-.451.02l-.033-.031.1-.106a.592.592,0,0,0,0-.809.992.992,0,0,0-.157-.168c-.346-.292-.649-.261-.864-.037-.089.088-.2.22-.244.263l2.03,1.866a.3.3,0,0,0,.424-.023l.04-.043.035.031-.973,1.058-.034-.032.04-.044a.3.3,0,0,0-.013-.422l-1.93-1.775a.3.3,0,0,0-.423.021l-.041.045-.035-.031Z" transform="translate(-353.037 -286.337)" fill="#313332"/>
          <path id="Path_43738" data-name="Path 43738" d="M368.024,285.811l-1.967,1.454-.027-.038.048-.035a.3.3,0,0,0,.067-.419l-1.565-2.118a.3.3,0,0,0-.411-.047l-.048.035-.029-.038,1.457-1.076a2.044,2.044,0,0,0,.4-.4l.491.664-.038.028-.033-.045a.451.451,0,0,0-.657-.113l-.64.472.817,1.106.5-.372a.4.4,0,0,0,.082-.564l-.025-.033.037-.028.649.879-.038.027-.025-.033a.394.394,0,0,0-.558-.091l-.508.376.79,1.069.5-.369a.948.948,0,0,0,.291-1.162l.038-.028Z" transform="translate(-359.57 -280.016)" fill="#313332"/>
          <path id="Path_43739" data-name="Path 43739" d="M377.185,280.656l-2.193,1.084-.02-.043.053-.026a.3.3,0,0,0,.14-.4L374,278.908a.3.3,0,0,0-.4-.119l-.054.026-.021-.042,1.624-.8a2.057,2.057,0,0,0,.468-.327l.366.741-.043.021-.025-.05a.451.451,0,0,0-.627-.228l-.713.352.609,1.233.562-.278a.394.394,0,0,0,.18-.54l-.018-.037.041-.021.484.979-.042.02-.018-.037a.394.394,0,0,0-.534-.188l-.567.28.589,1.192.556-.275a.948.948,0,0,0,.492-1.093l.042-.021Z" transform="translate(-366.217 -276.156)" fill="#313332"/>
          <path id="Path_43740" data-name="Path 43740" d="M391.173,275.223a.83.83,0,0,1,.585.672c.107.607-.267,1.063-1,1.228a1.5,1.5,0,0,1-1.032-.063,1.136,1.136,0,0,1-.066-.808l.041-.009a.822.822,0,0,0,1.065.674c.4-.1.586-.373.521-.661-.042-.187-.191-.285-.476-.394l-.924-.354a.884.884,0,0,1-.627-.729.9.9,0,0,1,.79-1.026,6.326,6.326,0,0,1,.639-.094l.289-.065.092.692-.044.01a.58.58,0,0,0-.77-.385c-.363.081-.549.329-.5.579.029.184.2.275.418.357Z" transform="translate(-377.293 -273.304)" fill="#313332"/>
          <path id="Path_43741" data-name="Path 43741" d="M401.257,275.943V275.9h.06a.3.3,0,0,0,.3-.3l-.026-1.206-1.532.033.026,1.2a.3.3,0,0,0,.309.291h.06l0,.047-1.435.03v-.047h.06a.3.3,0,0,0,.3-.3l-.056-2.618a.3.3,0,0,0-.309-.291h-.06l0-.047,1.435-.03v.047h-.06a.305.305,0,0,0-.3.3l.026,1.217,1.531-.033-.026-1.217a.308.308,0,0,0-.309-.291h-.06v-.047l1.435-.031v.047h-.06a.3.3,0,0,0-.3.3l.056,2.618a.3.3,0,0,0,.309.291h.06l0,.047Z" transform="translate(-384.128 -272.606)" fill="#313332"/>
          <path id="Path_43742" data-name="Path 43742" d="M413.852,276.611l-1.418-.219.008-.047.059.009a.3.3,0,0,0,.344-.247l.4-2.59a.3.3,0,0,0-.254-.338l-.059-.009.007-.047,1.418.219-.008.046-.059-.009a.3.3,0,0,0-.344.245l-.4,2.591a.3.3,0,0,0,.254.34l.059.009Z" transform="translate(-393.632 -272.97)" fill="#313332"/>
          <path id="Path_43743" data-name="Path 43743" d="M420.731,274.775c.773.24.992.715.855,1.213a.962.962,0,0,1-1.7.34l.013-.043a.708.708,0,0,0,.861-.3,1.01,1.01,0,0,0,.112-.263.6.6,0,0,0-.383-.816l-.3-.094-.819,2.641a.3.3,0,0,0,.2.373l.058.018-.014.045-1.372-.426.014-.045.057.018a.3.3,0,0,0,.378-.194l.784-2.527a.288.288,0,0,0-.208-.349l-.057-.018.013-.045Z" transform="translate(-397.725 -273.805)" fill="#313332"/>
          <path id="Path_43744" data-name="Path 43744" d="M430.656,278.867c.715.377.844.884.617,1.349a.962.962,0,0,1-1.729.024l.021-.04a.708.708,0,0,0,.9-.135,1.012,1.012,0,0,0,.158-.238.6.6,0,0,0-.228-.872l-.279-.147-1.289,2.445a.3.3,0,0,0,.129.4l.053.028-.021.043-1.271-.67.023-.041.053.028a.3.3,0,0,0,.406-.122l1.232-2.339a.288.288,0,0,0-.14-.381l-.053-.027.022-.042Z" transform="translate(-404.401 -276.5)" fill="#313332"/>
          <path id="Path_43745" data-name="Path 43745" d="M437.612,287.341l-1.162-.844.029-.038.048.035a.3.3,0,0,0,.42-.062l1.541-2.122a.3.3,0,0,0-.072-.417l-.048-.035.027-.039,1.162.844-.028.038-.048-.035a.3.3,0,0,0-.418.06l-1.542,2.122a.3.3,0,0,0,.071.418l.048.035Z" transform="translate(-410.553 -280.507)" fill="#313332"/>
          <path id="Path_43746" data-name="Path 43746" d="M446.14,291.312l-.035.032-.06-.063a.292.292,0,0,0-.406-.014l-1.759,1.7a3.062,3.062,0,0,0-.4.458l-.03-.031-.022-3.3-1.351,1.3a.292.292,0,0,0,0,.408l.061.063-.034.033-.995-1.031.035-.032.061.063a.292.292,0,0,0,.409.011l1.768-1.705a2.9,2.9,0,0,0,.387-.45l.033.033.02,3.3,1.345-1.3a.292.292,0,0,0,0-.409l-.061-.063.034-.033Z" transform="translate(-413.838 -283.984)" fill="#313332"/>
          <path id="Path_43747" data-name="Path 43747" d="M454.666,305.142a.2.2,0,0,0-.3-.095l-.673.4a2.068,2.068,0,0,1-1.318-1.042,1.722,1.722,0,1,1,2.98-1.719,3.154,3.154,0,0,1,.44,1.253l-.695.419-.02-.034a1.086,1.086,0,0,0,.176-1.414c-.392-.666-1.1-.728-1.933-.241-.787.462-1.1,1.088-.746,1.689a.829.829,0,0,0,.809.454l.623-.366a.209.209,0,0,0,.063-.318l-.038-.065.041-.024.672,1.144-.04.024Z" transform="translate(-421.562 -293.116)" fill="#313332"/>
        </g>
      </g>
    </g>
  </g>
</svg>
