<svg xmlns="http://www.w3.org/2000/svg" width="130" height="130" viewBox="0 0 130 130">
  <g id="Group_38065" data-name="Group 38065" transform="translate(-123 -133)">
    <circle id="Ellipse_490" data-name="Ellipse 490" cx="65" cy="65" r="65" transform="translate(123 133)" fill="#087cb9"/>
    <g id="Group_38064" data-name="Group 38064" transform="translate(21.093 30.099)">
      <path id="Path_43808" data-name="Path 43808" d="M228.557,149.209a23.428,23.428,0,0,1-2.1,8.908c-3.642,9.152-8.594,17.621-13.733,25.978a5.367,5.367,0,0,1-9.167.21c-5.833-9.421-11.5-18.946-15.09-29.529-3.669-10.8,4.262-23.744,16.877-25.448a20.659,20.659,0,0,1,22.974,17.044C228.472,147.29,228.478,148.232,228.557,149.209Zm-12.247-.835a8.262,8.262,0,0,0-16.522-.293,8.262,8.262,0,1,0,16.522.293Z" transform="translate(-41.248 0)" fill="#fff" fill-rule="evenodd"/>
      <path id="Path_43809" data-name="Path 43809" d="M165.711,330.58c-9.39-.364-17.847-1.088-25.862-4.182a30.77,30.77,0,0,1-7.434-4.049c-4.459-3.375-4.437-8.375-.218-12.019a20.857,20.857,0,0,1,2.624-1.889c1.574-.979,2.88-.8,3.594.415.691,1.173.238,2.271-1.287,3.259a17.731,17.731,0,0,0-2.261,1.638c-1.888,1.7-1.916,3.268-.056,5,2.475,2.3,5.579,3.447,8.73,4.382,9.864,2.929,19.968,3.435,30.172,2.793a62.475,62.475,0,0,0,18.816-3.673,25.658,25.658,0,0,0,5.9-3.226c2.395-1.765,2.291-3.679,0-5.558-.717-.587-1.54-1.046-2.309-1.57a2.174,2.174,0,1,1,2.265-3.687,22.25,22.25,0,0,1,3.225,2.306c3.938,3.508,3.874,8.234-.133,11.688a27.485,27.485,0,0,1-10.32,5.127C182.564,329.933,173.727,330.539,165.711,330.58Z" transform="translate(0 -125.931)" fill="#fff" fill-rule="evenodd"/>
      <path id="Path_43810" data-name="Path 43810" d="M186.793,303.712c-3.5.9-7.083,1.195-10.234,3.671a11.688,11.688,0,0,0,2.521,1.424c3.4.866,6.809,2.027,10.272,2.279a109.786,109.786,0,0,0,15.867,0c3.463-.252,6.868-1.42,10.273-2.279a12.279,12.279,0,0,0,2.513-1.377c-3.108-2.541-6.722-2.826-10.246-3.7.687-1.183,1.246-2.271,1.941-3.264a1.379,1.379,0,0,1,1.2-.454c2.862.951,5.886,1.644,8.491,3.084,3.9,2.153,3.772,6.136.014,8.579a24.991,24.991,0,0,1-9.969,3.308,70.223,70.223,0,0,1-26.916-.589,27.006,27.006,0,0,1-7.592-2.969c-3.576-2.114-3.47-5.869-.036-8.24a22.478,22.478,0,0,1,8.768-3.178,1.449,1.449,0,0,1,1.2.473C185.559,301.47,186.119,302.556,186.793,303.712Z" transform="translate(-30.477 -120.424)" fill="#fff" fill-rule="evenodd"/>
    </g>
  </g>
</svg>
