<svg xmlns="http://www.w3.org/2000/svg" width="15.387" height="15.396" viewBox="0 0 15.387 15.396">
  <g id="logout-menu" transform="translate(-328.69 -204.985)">
    <path id="Path_36788" data-name="Path 36788" d="M343.827,229.422c-.015,5.248-4.065,8.707-8.655,8.018a7.555,7.555,0,0,1-6.223-6.949,7.477,7.477,0,0,1,2.323-5.9,2.956,2.956,0,0,1,.236-.216.755.755,0,0,1,1.048.031.79.79,0,0,1-.06,1.051,12.544,12.544,0,0,0-1.117,1.3,6,6,0,1,0,10.874,4.475,5.917,5.917,0,0,0-1.8-5.606c-.029-.028-.059-.054-.088-.081-.413-.388-.483-.821-.186-1.156s.771-.3,1.2.093A7.217,7.217,0,0,1,343.827,229.422Z" transform="translate(0 -17.406)" fill="#087cb9" stroke="#fff" stroke-width="0.5" fill-rule="evenodd"/>
    <path id="Path_36789" data-name="Path 36789" d="M414.355,208.986c0,.945,0,1.889,0,2.834,0,.569-.276.887-.747.876-.449-.01-.705-.322-.706-.876q0-2.854,0-5.708c0-.567.279-.888.746-.877.447.011.7.327.705.877,0,.958,0,1.916,0,2.874Z" transform="translate(-77.243)" fill="#087cb9" stroke="#fff" stroke-width="0.5" fill-rule="evenodd"/>
  </g>
</svg>
