<svg xmlns="http://www.w3.org/2000/svg" width="13.8" height="9.2" viewBox="0 0 13.8 9.2">
  <g id="mail-blue" transform="translate(0 -85.333)">
    <g id="Group_14779" data-name="Group 14779" transform="translate(0 85.333)">
      <path id="Path_36787" data-name="Path 36787" d="M13.093,85.333H.708A.71.71,0,0,0,0,86.041v7.785a.71.71,0,0,0,.708.708H13.093a.71.71,0,0,0,.708-.708V86.041A.71.71,0,0,0,13.093,85.333Zm-.266.531L7.307,90a.74.74,0,0,1-.814,0l-5.52-4.14ZM9.878,90.277l3.008,3.715.01.01H.9l.01-.01,3.008-3.715a.265.265,0,0,0-.413-.334L.531,93.622V86.2l5.644,4.233a1.267,1.267,0,0,0,1.451,0L13.269,86.2v7.427l-2.978-3.679a.265.265,0,0,0-.413.334Z" transform="translate(0 -85.333)" fill="#006ca5"/>
    </g>
  </g>
</svg>
