<svg xmlns="http://www.w3.org/2000/svg" width="38" height="38" viewBox="0 0 38 38">
  <g id="mail" transform="translate(-268 -819)">
    <circle id="Ellipse_489" data-name="Ellipse 489" cx="19" cy="19" r="19" transform="translate(268 819)" fill="#087cb9"/>
    <path id="envelope_2_" data-name="envelope (2)" d="M14.73,59.882H1.524A1.525,1.525,0,0,0,0,61.406v9.142a1.525,1.525,0,0,0,1.524,1.524H14.73a1.525,1.525,0,0,0,1.524-1.524V61.406A1.525,1.525,0,0,0,14.73,59.882Zm0,1.016a.5.5,0,0,1,.195.039l-6.8,5.891-6.8-5.891a.506.506,0,0,1,.195-.039Zm0,10.158H1.524a.508.508,0,0,1-.508-.508V62.01l6.778,5.874a.509.509,0,0,0,.666,0l6.778-5.874v8.538A.508.508,0,0,1,14.73,71.056Z" transform="translate(279 772.118)" fill="#fff"/>
  </g>
</svg>
