<svg xmlns="http://www.w3.org/2000/svg" width="18.001" height="12.001" viewBox="0 0 18.001 12.001">
  <g id="mail-icon" transform="translate(0 -85.333)">
    <g id="Group_14779" data-name="Group 14779" transform="translate(0 85.333)">
      <path id="Path_36787" data-name="Path 36787" d="M17.078,85.333H.923A.926.926,0,0,0,0,86.256V96.411a.926.926,0,0,0,.923.923H17.078A.926.926,0,0,0,18,96.411V86.256A.926.926,0,0,0,17.078,85.333Zm-.346.692-7.2,5.4a.965.965,0,0,1-1.062,0l-7.2-5.4Zm-3.846,5.757,3.923,4.846.013.013H1.179l.013-.013,3.923-4.846a.346.346,0,0,0-.538-.436l-3.885,4.8V86.458l7.362,5.521a1.652,1.652,0,0,0,1.892,0l7.362-5.521v9.687l-3.885-4.8a.346.346,0,0,0-.538.436Z" transform="translate(0 -85.333)" fill="#087cb9"/>
    </g>
  </g>
</svg>
