<svg xmlns="http://www.w3.org/2000/svg" width="12.999" height="13" viewBox="0 0 12.999 13">
  <path id="menu-home-icon" d="M13.15,5.654h0L7.846.35a1.2,1.2,0,0,0-1.693,0l-5.3,5.3-.005.005a1.2,1.2,0,0,0,.8,2.039l.037,0h.211v3.9a1.4,1.4,0,0,0,1.4,1.4H5.368a.381.381,0,0,0,.381-.381V9.559a.64.64,0,0,1,.639-.639H7.611a.64.64,0,0,1,.639.639v3.06A.381.381,0,0,0,8.631,13h2.075a1.4,1.4,0,0,0,1.4-1.4V7.7h.2a1.2,1.2,0,0,0,.847-2.043ZM12.61,6.807a.432.432,0,0,1-.308.128h-.577a.381.381,0,0,0-.381.381V11.6a.64.64,0,0,1-.639.639H9.012V9.559a1.4,1.4,0,0,0-1.4-1.4H6.388a1.4,1.4,0,0,0-1.4,1.4v2.679H3.293a.64.64,0,0,1-.639-.639V7.316a.381.381,0,0,0-.381-.381H1.688a.435.435,0,0,1-.3-.742h0l5.3-5.3a.435.435,0,0,1,.615,0l5.3,5.3,0,0a.436.436,0,0,1,0,.615Zm0,0" transform="translate(-0.5 0.001)" fill="#087cb9"/>
</svg>
