<svg xmlns="http://www.w3.org/2000/svg" width="13.418" height="13.415" viewBox="0 0 13.418 13.415">
  <path id="menu-store-icon" d="M12.745,7.63v4.723a1.119,1.119,0,0,1-1.118,1.118H1.789A1.119,1.119,0,0,1,.671,12.353V7.63a.224.224,0,0,1,.447,0v4.723a.672.672,0,0,0,.671.671H4.221V9.251A1.119,1.119,0,0,1,5.339,8.133H8.077A1.119,1.119,0,0,1,9.2,9.251V12.13a.224.224,0,1,1-.447,0V9.251a.672.672,0,0,0-.671-.671H5.339a.672.672,0,0,0-.671.671v3.773H6.484V9.5a.224.224,0,1,1,.447,0v3.522h4.7a.672.672,0,0,0,.671-.671V7.63a.224.224,0,0,1,.447,0Zm-11.291-4a.224.224,0,0,0,.224.224c12.165,0,11.562.022,11.651-.046a.222.222,0,0,0,.085-.146c.012-.09.093.131-1.469-3.474a.224.224,0,0,0-.205-.135H1.677a.224.224,0,0,0-.205.135L.019,3.545A7.593,7.593,0,0,0,0,5.021,1.844,1.844,0,0,0,3.465,5.9a1.845,1.845,0,0,0,3.243,0,1.845,1.845,0,0,0,3.242,0,1.844,1.844,0,0,0,3.466-.88.224.224,0,1,0-.447,0,1.4,1.4,0,1,1-2.795,0,.224.224,0,1,0-.447,0,1.4,1.4,0,0,1-2.795,0,.224.224,0,1,0-.447,0,1.4,1.4,0,1,1-2.795-.011.224.224,0,0,0-.447,0A1.4,1.4,0,1,1,.447,5.02V3.68L1.824.5h9.768l1.26,2.907H1.677a.224.224,0,0,0-.224.224Z" transform="translate(0.001 -0.056)" fill="#087cb9"/>
</svg>
