<svg xmlns="http://www.w3.org/2000/svg" width="14.488" height="14.039" viewBox="0 0 14.488 14.039">
  <g id="my-orders" transform="translate(-22.678 -292.898)">
    <path id="Path_36884" data-name="Path 36884" d="M247.6,216.063v.345a.212.212,0,1,0,.424,0v-.345a.212.212,0,0,0-.424,0Z" transform="translate(-217.918 82.931)" fill="#087cb9"/>
    <path id="Path_36885" data-name="Path 36885" d="M374.478,216.063v.345a.212.212,0,1,0,.424,0v-.345a.212.212,0,0,0-.424,0Z" transform="translate(-341.203 82.931)" fill="#087cb9"/>
    <path id="Path_36886" data-name="Path 36886" d="M295.315,227.751a.415.415,0,0,1-.626,0,.212.212,0,1,0-.32.279.839.839,0,0,0,1.266,0,.212.212,0,1,0-.32-.279Z" transform="translate(-263.31 71.438)" fill="#087cb9"/>
    <path id="Path_36887" data-name="Path 36887" d="M377.946,413.167a.783.783,0,1,0,.783.783A.784.784,0,0,0,377.946,413.167Zm0,1.142a.359.359,0,1,1,.359-.359A.359.359,0,0,1,377.946,414.309Z" transform="translate(-343.812 -108.802)" fill="#087cb9"/>
    <path id="Path_36888" data-name="Path 36888" d="M184.925,413.167a.783.783,0,1,0,.783.783A.784.784,0,0,0,184.925,413.167Zm0,1.142a.359.359,0,1,1,.359-.359A.359.359,0,0,1,184.925,414.309Z" transform="translate(-156.253 -108.802)" fill="#087cb9"/>
    <path id="Path_36889" data-name="Path 36889" d="M403.054,50.921h.868a.212.212,0,1,0,0-.424h-.868a.212.212,0,1,0,0,.424Z" transform="translate(-368.765 243.606)" fill="#087cb9"/>
    <path id="Path_36890" data-name="Path 36890" d="M403.054,77.1h.868a.212.212,0,1,0,0-.424h-.868a.212.212,0,1,0,0,.424Z" transform="translate(-368.765 218.171)" fill="#087cb9"/>
    <path id="Path_36891" data-name="Path 36891" d="M1,12.228H2.427a.267.267,0,0,1,.261.214L3.7,17.057a2.611,2.611,0,0,0,1.206,1.7,1.789,1.789,0,1,0,2.54.38H10a1.789,1.789,0,1,0,2.813-.121A1,1,0,0,0,12.6,17.17l.549-2.046a.212.212,0,0,0-.41-.11l-.569,2.119H6.26a.611.611,0,0,1-.594-.486l-.2-.927a.212.212,0,1,0-.415.091l.2.925a1.035,1.035,0,0,0,1.01.822h6.076a.578.578,0,0,1,.127,1.143,1.789,1.789,0,0,0-2.033.014H7.021a1.775,1.775,0,0,0-1.027-.324,1.8,1.8,0,0,0-.648.122,2.191,2.191,0,0,1-1.228-1.544L3.1,12.354a.693.693,0,0,0-.676-.55H1a.578.578,0,0,1,0-1.157H2.427a1.855,1.855,0,0,1,1.808,1.47c.006.031.625,2.842.626,2.845a.213.213,0,0,0,.252.162h0a.212.212,0,0,0,.162-.253l-.351-1.6h8.285l-.239.89a.212.212,0,0,0,.41.11l.272-1.015a1,1,0,0,0,.046-1.969V9.26a1.007,1.007,0,0,0-1.006-1.006H9.182A1.1,1.1,0,0,0,8.4,7.93H6.71a1.1,1.1,0,0,0-1.1,1.1v.707l-1.356,1.4a2.279,2.279,0,0,0-1.824-.921H1a1,1,0,0,0,0,2.005Zm4.991,9.316a1.365,1.365,0,0,1,0-2.729h0a1.365,1.365,0,0,1,0,2.729Zm5.462,0A1.365,1.365,0,1,1,12.82,20.18,1.366,1.366,0,0,1,11.456,21.545ZM10.392,11.27h-2.2l1.1-1.138ZM5.909,10.039H8.792L7.6,11.27H4.719Zm8.155,2.234a.579.579,0,0,1-.578.578H4.831l-.17-.775a2.562,2.562,0,0,0-.108-.382h8.933A.579.579,0,0,1,14.064,12.273ZM13.273,9.26v2.01H10.982l-.164-.17V9.26a.582.582,0,0,1,.581-.581h1.293A.582.582,0,0,1,13.273,9.26ZM9.447,8.679h1.132a1,1,0,0,0-.185.581v1.4L9.5,9.741V9.034h0A1.115,1.115,0,0,0,9.447,8.679Zm-3.416.354a.68.68,0,0,1,.679-.679H8.4a.68.68,0,0,1,.679.679v.581H6.031Z" transform="translate(22.678 284.968)" fill="#087cb9"/>
  </g>
</svg>
