<svg xmlns="http://www.w3.org/2000/svg" width="182.823" height="159.003" viewBox="0 0 182.823 159.003">
  <g id="no-adress" transform="translate(-98.139 -183.214)">
    <path id="Path_36962" data-name="Path 36962" d="M1000.777,207.737l-7.107.339,3.714-4.086a.284.284,0,0,0-.42-.381l-3.714,4.087-.4-8.342a.378.378,0,0,0-.755.036l.4,8.342-4.992-4.537a.284.284,0,0,0-.382.42l4.993,4.537-7.107.339a.378.378,0,0,0,.036.755l7.107-.339-3.714,4.087a.284.284,0,1,0,.42.381l3.714-4.086.4,8.342a.378.378,0,1,0,.755-.036l-.4-8.342,4.992,4.537a.284.284,0,0,0,.382-.42l-4.993-4.537,7.107-.339a.378.378,0,1,0-.036-.756Z" transform="translate(-809.095 -15.779)" fill="#eb1d21"/>
    <path id="Path_36966" data-name="Path 36966" d="M993.548,203.818l-3.922.187,2.049-2.255a.156.156,0,0,0-.232-.21l-2.049,2.255-.22-4.6a.209.209,0,0,0-.417.02l.22,4.6-2.755-2.5a.156.156,0,1,0-.211.232l2.755,2.5-3.921.187a.209.209,0,1,0,.02.417l3.921-.187-2.049,2.255a.156.156,0,1,0,.232.21l2.049-2.255.22,4.6a.209.209,0,1,0,.417-.02l-.22-4.6,2.755,2.5a.156.156,0,0,0,.21-.232l-2.755-2.5,3.921-.187a.209.209,0,1,0-.02-.417Z" transform="translate(-716.804 80.831)" fill="#eb1d21"/>
    <g id="Group_14951" data-name="Group 14951" transform="translate(22.634 22.861)">
      <path id="Path_36963" data-name="Path 36963" d="M423.719,262.947a2.6,2.6,0,1,1-2.787-2.395A2.6,2.6,0,0,1,423.719,262.947Z" transform="translate(-165.399 -55.051)" fill="#eb1d21"/>
      <path id="Path_36964" data-name="Path 36964" d="M140.386,458.534a2.6,2.6,0,1,1-2.788-2.395A2.6,2.6,0,0,1,140.386,458.534Z" transform="translate(-59.692 -184.227)" fill="#eb1d21"/>
      <path id="Path_36965" data-name="Path 36965" d="M131.971,176.329a3.21,3.21,0,1,1-3.443-2.958A3.21,3.21,0,0,1,131.971,176.329Z" transform="translate(-6.766 -7.845)" fill="#eb1d21"/>
    </g>
    <g id="delivery-man_1_" data-name="delivery-man (1)" transform="translate(122.637 203.432)">
      <path id="Path_36975" data-name="Path 36975" d="M125,51.12H102.613a7.016,7.016,0,0,0-7.006,7.01V83.894H87.235a19.233,19.233,0,0,0,.525-6.009h0c-.182-9.812-1.962-18.082-5.293-24.58a26.374,26.374,0,0,0-8.193-9.877,17.93,17.93,0,0,0,4.8-12.7,16.407,16.407,0,1,0-32.808,0A1.934,1.934,0,0,0,48.2,32.664h1.314a13.615,13.615,0,0,0-.185,2.228A13.426,13.426,0,0,0,60.111,48.045a32.59,32.59,0,0,0-.962,8.411L54.326,60.6l-11.735.949L29.055,57.078c-1.241-.413-2.647-.879-3.867,0a3.434,3.434,0,0,0-1.2,2.885V70.029a1.934,1.934,0,0,0,1.934,1.934h2.3l-3.531,12.2a1.934,1.934,0,0,0,3.715,1.075l3.842-13.276h5.5c-6.837,20.851-2.936,34.768,3.061,48.853H37.33L22.852,104.628l3.061-10.576A1.934,1.934,0,0,0,22.2,92.977l-2.928,10.116A19.45,19.45,0,0,0,.049,118.169,1.934,1.934,0,0,0,1.5,120.487l2.745.632a14.795,14.795,0,0,0,28.592,6.58l2.166.5a2.525,2.525,0,0,0,1.869-.1,2.22,2.22,0,0,0,1.089-1.484,19.236,19.236,0,0,0,.312-1.925H78.715a16.477,16.477,0,0,0,32.611,0H112.8l.36,0a2.648,2.648,0,0,0,2.008-.729,2.479,2.479,0,0,0,.684-1.88,21.92,21.92,0,0,0-.792-5.238c1.54-9.351.058-15.046-2.139-19.5a5.091,5.091,0,0,0,2.31-4.261V87.761H125A7.016,7.016,0,0,0,132,80.752V58.129A7.015,7.015,0,0,0,125,51.12ZM24.772,131.8a10.846,10.846,0,0,1-8.247,1.39h0A10.956,10.956,0,0,1,8.054,122l20.975,4.827a10.87,10.87,0,0,1-4.257,4.975Zm9.676-7.7L4.369,117.179a15.572,15.572,0,0,1,15.4-10.2L34.5,123.452Q34.479,123.778,34.447,124.1ZM63.655,90.4c-.561,1.48-.561,3.306-.561,5.832v7.3H56.013V93.522c0-11.318,6.177-13.335,8.949-13.668H83.919c-.076,2.569-.656,4.395-1.756,5.553-1.282,1.35-3.477,2.008-6.709,2.012l-6.941.007c-2.475,0-4.11,1-4.859,2.977Zm-.561,17v4.617H49.3a5.51,5.51,0,0,1,1.333-3.307,4.771,4.771,0,0,1,3.442-1.31Zm20.74-31.412H66.248a72.205,72.205,0,0,1-1.853-7.156l5.346-3.47c2.919-1.9,4.437-4.573,4.166-7.348a6.837,6.837,0,0,0-4.259-5.6,6.98,6.98,0,0,0-6.49.715,22.831,22.831,0,0,1,.934-4.9,13.63,13.63,0,0,0,2.447-.483,16.019,16.019,0,0,0,4.514-1.789c3.724,2.225,11.915,9.442,12.782,30.029ZM50.271,28.8A12.519,12.519,0,0,1,75.2,30.73c0,5.768-2.766,10.418-7.226,12.464V33.02A3.847,3.847,0,0,0,64.091,28.8Q64,28.8,63.916,28.8Zm2.921,6.1a9.629,9.629,0,0,1,.258-2.228H63.821c.119.013.207.027.269.039a2.3,2.3,0,0,1,.019.316V44.332a9.564,9.564,0,0,1-1.388.1h-.013a9.545,9.545,0,0,1-9.517-9.542ZM50.685,64.779l4.58-.37a1.935,1.935,0,0,0,1.106-.461l8.266-7.109h0a3.841,3.841,0,0,1,2.483-1.042,2.977,2.977,0,0,1,2.938,2.594c.128,1.306-.733,2.631-2.422,3.728L58.425,68.1h-7.74V64.779Zm-8.172.661,4.3-.348v3h-5c-.648,0-.806-.539-.825-.991A1.535,1.535,0,0,1,42.513,65.44ZM37.936,64.1a5.586,5.586,0,0,0-.712,3.975c0,.005,0,.011,0,.016H27.854V60.755l10.09,3.335C37.941,64.1,37.939,64.1,37.936,64.1Zm3.89,7.858H59a1.933,1.933,0,0,0,1.053-.312l.875-.568c.421,1.861.9,3.672,1.423,5.382-3.944,1.164-10.2,4.926-10.2,17.057v10.2a8.07,8.07,0,0,0-4.3,2.311,9.432,9.432,0,0,0-2.417,5.979h-3.9c-3.931-11.328-5.426-23.383.3-40.054Zm3.187,48.846c-.715-1.644-1.4-3.281-2.052-4.925H63.039c2.6,0,3.921-1.185,3.921-3.521V98.17H82.223a1.934,1.934,0,1,0,0-3.867H66.974a8.753,8.753,0,0,1,.3-2.527c.1-.258.182-.481,1.244-.481l6.943-.007c4.348,0,7.459-1.056,9.51-3.216.095-.1.185-.2.275-.309h26.123v5.314a1.241,1.241,0,0,1-1.223,1.226H90.891a1.934,1.934,0,0,0,0,3.867H109a22.83,22.83,0,0,1,2.821,11.944,20.985,20.985,0,0,0-31.962-2.5,21.3,21.3,0,0,0-6.079,13.2ZM95.02,134.918a12.741,12.741,0,0,1-12.376-10.234H107.4A12.742,12.742,0,0,1,95.02,134.918Zm14.573-14.1H77.669a17.345,17.345,0,0,1,17.11-15.566,17.157,17.157,0,0,1,16.455,12.295c.007.023.014.045.022.068a17.848,17.848,0,0,1,.638,3.2Zm18.544-40.064A3.144,3.144,0,0,1,125,83.894H99.475V73.909h28.662Zm0-10.711H99.475V65.929h28.662Zm0-7.98H99.475V58.129a3.144,3.144,0,0,1,3.138-3.142H125a3.144,3.144,0,0,1,3.138,3.142Z" transform="translate(0)" fill="#087cb9"/>
    </g>
  </g>
</svg>
