<svg xmlns="http://www.w3.org/2000/svg" width="178.824" height="165.227" viewBox="0 0 178.824 165.227">
  <g id="no-orders" transform="translate(-98.139 -183.214)">
    <path id="Path_36962" data-name="Path 36962" d="M1000.777,207.737l-7.107.339,3.714-4.086a.284.284,0,0,0-.42-.381l-3.714,4.087-.4-8.342a.378.378,0,0,0-.755.036l.4,8.342-4.992-4.537a.284.284,0,0,0-.382.42l4.993,4.537-7.107.339a.378.378,0,0,0,.036.755l7.107-.339-3.714,4.087a.284.284,0,1,0,.42.381l3.714-4.086.4,8.342a.378.378,0,1,0,.755-.036l-.4-8.342,4.992,4.537a.284.284,0,0,0,.382-.42l-4.993-4.537,7.107-.339a.378.378,0,1,0-.036-.756Z" transform="translate(-809.095 -15.779)" fill="#eb1d21"/>
    <path id="Path_36966" data-name="Path 36966" d="M993.548,203.818l-3.922.187,2.049-2.255a.156.156,0,0,0-.232-.21l-2.049,2.255-.22-4.6a.209.209,0,0,0-.417.02l.22,4.6-2.755-2.5a.156.156,0,1,0-.211.232l2.755,2.5-3.921.187a.209.209,0,1,0,.02.417l3.921-.187-2.049,2.255a.156.156,0,1,0,.232.21l2.049-2.255.22,4.6a.209.209,0,1,0,.417-.02l-.22-4.6,2.755,2.5a.156.156,0,0,0,.21-.232l-2.755-2.5,3.921-.187a.209.209,0,1,0-.02-.417Z" transform="translate(-716.804 80.831)" fill="#eb1d21"/>
    <g id="Group_14951" data-name="Group 14951" transform="translate(22.634 22.861)">
      <path id="Path_36963" data-name="Path 36963" d="M423.719,262.947a2.6,2.6,0,1,1-2.787-2.395A2.6,2.6,0,0,1,423.719,262.947Z" transform="translate(-200.399 -36.051)" fill="#eb1d21"/>
      <path id="Path_36964" data-name="Path 36964" d="M140.386,458.534a2.6,2.6,0,1,1-2.788-2.395A2.6,2.6,0,0,1,140.386,458.534Z" transform="translate(-59.692 -184.227)" fill="#eb1d21"/>
      <path id="Path_36965" data-name="Path 36965" d="M131.971,176.329a3.21,3.21,0,1,1-3.443-2.958A3.21,3.21,0,0,1,131.971,176.329Z" transform="translate(1.234 20.155)" fill="#eb1d21"/>
    </g>
    <g id="Group_38020" data-name="Group 38020" transform="translate(-182.429 56.935)">
      <path id="Path_36900" data-name="Path 36900" d="M319,283.955c.461-2.976.974-5.945,1.373-8.929,1.373-10.255,2.7-20.516,4.055-30.773,1.167-8.857,2.321-17.716,3.518-26.569,1.544-11.415,3.082-22.831,4.717-34.234.471-3.285,2.5-4.837,5.858-4.854,4.471-.023,8.942-.005,13.765-.005,0-2.678-.013-5.162,0-7.645.044-7.272,4.516-11.763,11.775-11.7,3.6.031,7.286-.174,10.778.516,4.951.979,7.946,5.29,7.957,10.289.006,2.744,0,5.487,0,8.541,4.46,0,8.526,0,12.592,0,4.476,0,6.2,1.263,6.868,5.641,1.326,8.675,2.48,17.376,3.68,26.069q1.769,12.81,3.49,25.627c1.36,10.017,2.675,20.041,4.09,30.05.848,6,1.849,11.987,2.782,17.978v2.834c-1.387,3.165-3.757,4.347-7.243,4.336q-41.419-.137-82.838.009c-3.523.014-5.84-1.187-7.221-4.345Zm15.059-92.567c-3.828,28.991-7.636,57.839-11.463,86.819h89.958l-11.835-86.819Zm78.722,89.841H322.433c-1.594,6.006-.691,7.2,5.289,7.2q40.494,0,80.989,0c4.417,0,5.48-1.333,4.508-5.634C413.1,282.272,412.932,281.763,412.78,281.229Zm-12.754-92.76c-.312-6.534-.415-7.324-6.229-7.268-11.947.115-23.9.035-35.843.035-6.289,0-12.577.019-18.865-.011-1.693-.008-3.27.277-3.775,2.09a42.392,42.392,0,0,0-.795,5.154Zm-19.9-9.968c0-3.232.392-6.541-.094-9.717-.686-4.478-3.905-6.829-8.471-6.9-2.833-.047-5.67-.076-8.5.01-3.983.121-7.508,2.874-7.963,6.712a85.3,85.3,0,0,0-.078,9.9Z" fill="#087cb9" fill-rule="evenodd"/>
      <path id="Path_36901" data-name="Path 36901" d="M319,429.246c1.381,3.157,3.7,4.359,7.221,4.345q41.418-.161,82.838-.009c3.486.011,5.856-1.171,7.243-4.336v4.715q-48.651,0-97.3,0Z" transform="translate(0 -142.457)" fill="#087cb9" fill-rule="evenodd"/>
      <path id="Path_36902" data-name="Path 36902" d="M409.885,336.166c2.823,0,5.649-.074,8.466.054.655.029,1.279.74,1.917,1.137-.623.412-1.241,1.171-1.871,1.181q-8.7.137-17.405,0c-.6-.01-1.191-.814-1.787-1.25.581-.373,1.15-1.046,1.743-1.069C403.924,336.106,406.906,336.166,409.885,336.166Z" transform="translate(-42.317 -93.337)" fill="#087cb9" fill-rule="evenodd"/>
      <path id="Path_36903" data-name="Path 36903" d="M405.849,302.854a3.317,3.317,0,0,1-3.133,3.206,3.253,3.253,0,0,1-3.152-3.182,3.005,3.005,0,0,1,3.124-3.111A3.063,3.063,0,0,1,405.849,302.854Z" transform="translate(-42.506 -74.144)" fill="#087cb9" fill-rule="evenodd"/>
      <path id="Path_36904" data-name="Path 36904" d="M437.127,302.975a3.159,3.159,0,0,1-3.156,3.092,3.349,3.349,0,0,1-3.044-3.286,3.116,3.116,0,0,1,3.231-3.007A2.979,2.979,0,0,1,437.127,302.975Z" transform="translate(-59.052 -74.147)" fill="#087cb9" fill-rule="evenodd"/>
    </g>
  </g>
</svg>
