<svg xmlns="http://www.w3.org/2000/svg" width="182.823" height="161.561" viewBox="0 0 182.823 161.561">
  <g id="no-products" transform="translate(-98.139 -183.214)">
    <g id="open-box" transform="translate(107.988 207.33)">
      <path id="Path_36956" data-name="Path 36956" d="M38.212,101.737a2.2,2.2,0,0,1-2.2-2.2V39.4a2.2,2.2,0,1,1,4.409,0V96.517l53.107-16.9V42.013a2.2,2.2,0,0,1,4.409,0V81.23a2.2,2.2,0,0,1-1.543,2.1l-57.52,18.3a2.226,2.226,0,0,1-.657.11Z" transform="translate(40.943 35.708)" fill="#087cb9"/>
      <path id="Path_36957" data-name="Path 36957" d="M56.513,72.768a2.2,2.2,0,0,1-1.558-.646l-18.3-18.3a2.2,2.2,0,0,1,.725-3.6L94.9,26.682a2.2,2.2,0,0,1,2.464.558l17.427,19.178a2.2,2.2,0,0,1-.811,3.527L57.329,72.61a2.2,2.2,0,0,1-.816.159ZM42.115,53.04l14.93,14.93,52.348-20.941L95.14,31.351Z" transform="translate(40.949 22.852)" fill="#087cb9"/>
      <path id="Path_36958" data-name="Path 36958" d="M60.859,72.772a2.2,2.2,0,0,1-.82-.159L3.395,49.942a2.2,2.2,0,0,1-.811-3.527L20.011,27.237a2.2,2.2,0,0,1,2.464-.558L80,50.217a2.2,2.2,0,0,1,.725,3.6l-18.3,18.3a2.2,2.2,0,0,1-1.565.659ZM7.982,47.028,60.33,67.969,75.258,53.043,22.235,31.353Z" transform="translate(0 22.848)" fill="#087cb9"/>
      <path id="Path_36959" data-name="Path 36959" d="M69.638,101.737a2.227,2.227,0,0,1-.661-.1l-57.52-18.3a2.2,2.2,0,0,1-1.543-2.1V42.013a2.2,2.2,0,0,1,4.409,0V79.619l53.111,16.9V39.4a2.2,2.2,0,1,1,4.409,0V99.532A2.2,2.2,0,0,1,69.638,101.737Z" transform="translate(9.517 35.708)" fill="#087cb9"/>
      <path id="Path_36960" data-name="Path 36960" d="M95.725,53.78a2.2,2.2,0,0,1-.833-.163L37.381,30.085a2.2,2.2,0,0,1-.725-3.6l18.3-18.3A2.2,2.2,0,0,1,57.33,7.7l56.651,22.669a2.2,2.2,0,0,1,.811,3.527L97.365,53.076a2.2,2.2,0,0,1-1.64.7ZM42.118,27.259,95.143,48.95l14.249-15.675L57.044,12.334Z" transform="translate(40.945 0)" fill="#087cb9"/>
      <path id="Path_36961" data-name="Path 36961" d="M21.642,53.777a2.2,2.2,0,0,1-1.631-.721L2.583,33.9a2.2,2.2,0,0,1,.811-3.527L60.046,7.7a2.2,2.2,0,0,1,2.378.487l18.3,18.3a2.2,2.2,0,0,1-.725,3.6L22.486,53.614a2.2,2.2,0,0,1-.844.163ZM7.975,33.277,22.228,48.954,75.251,27.263,60.328,12.327Z" transform="translate(0 0.002)" fill="#087cb9"/>
    </g>
    <path id="Path_36962" data-name="Path 36962" d="M1000.777,207.737l-7.107.339,3.714-4.086a.284.284,0,0,0-.42-.381l-3.714,4.087-.4-8.342a.378.378,0,0,0-.755.036l.4,8.342-4.992-4.537a.284.284,0,0,0-.382.42l4.993,4.537-7.107.339a.378.378,0,0,0,.036.755l7.107-.339-3.714,4.087a.284.284,0,1,0,.42.381l3.714-4.086.4,8.342a.378.378,0,1,0,.755-.036l-.4-8.342,4.992,4.537a.284.284,0,0,0,.382-.42l-4.993-4.537,7.107-.339a.378.378,0,1,0-.036-.756Z" transform="translate(-809.095 -15.779)" fill="#eb1d21"/>
    <path id="Path_36966" data-name="Path 36966" d="M993.548,203.818l-3.922.187,2.049-2.255a.156.156,0,0,0-.232-.21l-2.049,2.255-.22-4.6a.209.209,0,0,0-.417.02l.22,4.6-2.755-2.5a.156.156,0,1,0-.211.232l2.755,2.5-3.921.187a.209.209,0,1,0,.02.417l3.921-.187-2.049,2.255a.156.156,0,1,0,.232.21l2.049-2.255.22,4.6a.209.209,0,1,0,.417-.02l-.22-4.6,2.755,2.5a.156.156,0,0,0,.21-.232l-2.755-2.5,3.921-.187a.209.209,0,1,0-.02-.417Z" transform="translate(-716.804 80.831)" fill="#eb1d21"/>
    <g id="Group_14951" data-name="Group 14951" transform="translate(22.634 22.861)">
      <path id="Path_36963" data-name="Path 36963" d="M423.719,262.947a2.6,2.6,0,1,1-2.787-2.395A2.6,2.6,0,0,1,423.719,262.947Z" transform="translate(-165.399 -55.051)" fill="#eb1d21"/>
      <path id="Path_36964" data-name="Path 36964" d="M140.386,458.534a2.6,2.6,0,1,1-2.788-2.395A2.6,2.6,0,0,1,140.386,458.534Z" transform="translate(-59.692 -184.227)" fill="#eb1d21"/>
      <path id="Path_36965" data-name="Path 36965" d="M131.971,176.329a3.21,3.21,0,1,1-3.443-2.958A3.21,3.21,0,0,1,131.971,176.329Z" transform="translate(-6.766 -7.845)" fill="#eb1d21"/>
    </g>
  </g>
</svg>
