<svg xmlns="http://www.w3.org/2000/svg" width="13.364" height="16.797" viewBox="0 0 13.364 16.797">
  <path id="notification" d="M66.218,13.128a2.563,2.563,0,0,1-.779-1.061,12.273,12.273,0,0,1-.812-4.85c0-.006,0-.012,0-.019a4.681,4.681,0,0,0-2.755-4.245V1.838A1.838,1.838,0,0,0,60.037,0h-.152A1.838,1.838,0,0,0,58.05,1.838V2.954a4.681,4.681,0,0,0-2.756,4.264,12.273,12.273,0,0,1-.812,4.85,2.563,2.563,0,0,1-.779,1.061.47.47,0,0,0-.258.534.492.492,0,0,0,.485.378h3.543a2.488,2.488,0,0,0,4.976,0h3.543a.492.492,0,0,0,.485-.378A.47.47,0,0,0,66.218,13.128Zm-7.2-11.291a.87.87,0,0,1,.868-.87h.152a.87.87,0,0,1,.868.87v.8a4.681,4.681,0,0,0-1.888,0v-.8Zm.944,13.691a1.525,1.525,0,0,1-1.522-1.488h3.043A1.525,1.525,0,0,1,59.961,15.529Zm1.946-2.456H55.032a5.066,5.066,0,0,0,.253-.445,12.237,12.237,0,0,0,.976-5.41,3.7,3.7,0,1,1,7.4,0c0,.006,0,.012,0,.018a12.212,12.212,0,0,0,.976,5.39,5.07,5.07,0,0,0,.253.445Z" transform="translate(-53.279 0.15)" fill="#087cb9" stroke="#fff" stroke-width="0.3"/>
</svg>
