<svg xmlns="http://www.w3.org/2000/svg" width="16.622" height="16.654" viewBox="0 0 16.622 16.654">
  <g id="phone-call-grey" transform="translate(-0.119 0.502)">
    <g id="Group_37993" data-name="Group 37993" transform="translate(0.539 0)">
      <path id="Path_36941" data-name="Path 36941" d="M15.827,11.546l-2.2-2.2A1.46,1.46,0,0,0,11.2,9.9a1.494,1.494,0,0,1-1.725.941A6.77,6.77,0,0,1,5.4,6.763a1.421,1.421,0,0,1,.941-1.725,1.46,1.46,0,0,0,.549-2.431l-2.2-2.2a1.566,1.566,0,0,0-2.117,0L1.086,1.9C-.4,3.47,1.242,7.626,4.928,11.311s7.841,5.41,9.409,3.842l1.49-1.49A1.566,1.566,0,0,0,15.827,11.546Z" transform="translate(-0.539 0)" fill="none" stroke="#949494" stroke-width="0.8"/>
    </g>
  </g>
</svg>
