<?xml version="1.0" encoding="utf-8"?>
<!-- Generator: Adobe Illustrator 24.3.0, SVG Export Plug-In . SVG Version: 6.00 Build 0)  -->
<svg version="1.1" id="Layer_1" xmlns="http://www.w3.org/2000/svg" xmlns:xlink="http://www.w3.org/1999/xlink" x="0px" y="0px"
	 viewBox="0 0 28 28" style="enable-background:new 0 0 28 28;" xml:space="preserve">
<style type="text/css">
	.st0{fill:#3A3A3A;}
</style>
<g>
	<path class="st0" d="M14.56,1c0.52,0.11,1.05,0.18,1.55,0.34c2.98,0.96,4.98,3.9,4.73,6.95c-0.26,3.25-2.59,5.82-5.75,6.33
		c-3.89,0.63-7.51-2.15-7.91-6.08c-0.38-3.73,2.34-7.1,6.06-7.5c0.07-0.01,0.13-0.03,0.2-0.04C13.81,1,14.19,1,14.56,1z"/>
	<path class="st0" d="M14,27c-3.5,0-7,0-10.51,0c-0.64,0-0.93-0.29-0.92-0.93c0.06-4.82,3.62-8.94,8.4-9.72
		c0.43-0.07,0.87-0.1,1.31-0.11c1.1-0.02,2.2-0.02,3.3,0c4.42,0.04,8.32,3.06,9.48,7.32c0.23,0.83,0.35,1.67,0.36,2.53
		C25.43,26.7,25.14,27,24.53,27C21.02,27,17.51,27,14,27z"/>
</g>
</svg>
