<svg xmlns="http://www.w3.org/2000/svg" width="62" height="62" viewBox="0 0 62 62">
  <g id="quality-products" transform="translate(-306.325 -238.655)">
    <g id="Group_38048" data-name="Group 38048" transform="translate(306.325 238.655)">
      <g id="Group_38043" data-name="Group 38043" transform="translate(0 0)">
        <path id="Path_43749" data-name="Path 43749" d="M368.325,269.655c0,2.67-2.655,4.956-3.314,7.419-.681,2.548.456,5.852-.835,8.083-1.31,2.263-4.752,2.923-6.588,4.759s-2.5,5.279-4.76,6.589c-2.231,1.291-5.535.154-8.083.835-2.463.658-4.749,3.314-7.419,3.314s-4.957-2.656-7.42-3.314c-2.548-.681-5.852.456-8.083-.835-2.264-1.309-2.922-4.751-4.76-6.588s-5.279-2.5-6.589-4.76c-1.291-2.231-.154-5.535-.835-8.083-.658-2.463-3.314-4.749-3.314-7.419s2.656-4.956,3.314-7.419c.681-2.548-.456-5.852.835-8.084,1.309-2.263,4.751-2.923,6.588-4.759s2.5-5.279,4.76-6.588c2.231-1.291,5.535-.154,8.083-.835,2.463-.658,4.749-3.314,7.42-3.314s4.956,2.656,7.419,3.314c2.549.681,5.853-.456,8.083.835,2.264,1.31,2.923,4.751,4.76,6.588s5.279,2.5,6.588,4.76c1.291,2.231.154,5.535.835,8.083C365.67,264.7,368.325,266.984,368.325,269.655Z" transform="translate(-306.325 -238.655)" fill="#087cb9"/>
        <path id="Path_43791" data-name="Path 43791" d="M22.382-.059A22.44,22.44,0,1,1-.058,22.381,22.441,22.441,0,0,1,22.382-.059Z" transform="translate(1.802 18.781) rotate(-22.291)" fill="#fff"/>
        <path id="Path_43750" data-name="Path 43750" d="M352.034,308.682a.233.233,0,0,1,0-.466c.256,0,.515-.011.769-.022a.233.233,0,1,1,.021.465c-.259.012-.522.019-.784.023Zm-1.707-.036h-.013c-.259-.014-.522-.033-.781-.055a.233.233,0,1,1,.04-.464c.255.022.513.04.767.055a.233.233,0,0,1-.013.465Zm4.184-.122a.233.233,0,0,1-.026-.464c.253-.029.509-.062.762-.1a.233.233,0,1,1,.068.461c-.258.038-.519.072-.777.1Zm-6.652-.14a.213.213,0,0,1-.037,0c-.258-.04-.518-.086-.772-.134a.233.233,0,0,1,.087-.458c.25.048.5.092.757.132a.233.233,0,0,1-.036.463Zm9.1-.268a.233.233,0,0,1-.05-.461c.249-.054.5-.114.748-.176a.233.233,0,1,1,.114.451c-.252.064-.509.124-.763.18A.217.217,0,0,1,356.96,308.116Zm-11.531-.244a.226.226,0,0,1-.06-.008c-.251-.066-.5-.138-.754-.213a.233.233,0,1,1,.134-.446c.244.074.493.143.74.209a.233.233,0,0,1-.06.459Zm13.925-.411a.233.233,0,0,1-.073-.454c.242-.08.486-.165.726-.252a.233.233,0,1,1,.16.437c-.245.09-.494.176-.74.257A.223.223,0,0,1,359.355,307.46Zm-16.29-.347a.233.233,0,0,1-.082-.015c-.244-.092-.49-.19-.73-.29a.233.233,0,1,1,.179-.43c.235.1.477.193.716.284a.233.233,0,0,1-.082.451Zm18.6-.55a.233.233,0,0,1-.1-.445c.232-.1.466-.213.695-.324a.233.233,0,1,1,.2.419c-.233.113-.471.225-.708.331A.238.238,0,0,1,361.667,306.564Zm-20.881-.447a.23.23,0,0,1-.1-.025c-.232-.116-.466-.238-.7-.362a.233.233,0,0,1,.222-.409c.226.122.456.241.683.355a.233.233,0,0,1-.1.441Zm23.089-.679a.233.233,0,0,1-.116-.435c.22-.127.441-.259.659-.394a.233.233,0,0,1,.245.4c-.222.138-.448.272-.671.4A.23.23,0,0,1,363.876,305.437Zm-25.253-.544a.232.232,0,0,1-.125-.036c-.22-.14-.441-.285-.655-.431a.233.233,0,0,1,.262-.385c.21.143.427.285.643.423a.233.233,0,0,1-.125.43Zm27.337-.8a.233.233,0,0,1-.136-.422c.206-.149.414-.3.616-.459a.233.233,0,0,1,.284.37c-.206.158-.418.315-.628.467A.236.236,0,0,1,365.96,304.091Zm-29.364-.635a.232.232,0,0,1-.144-.05c-.2-.161-.408-.327-.608-.495a.233.233,0,1,1,.3-.357c.2.164.4.328.6.485a.233.233,0,0,1-.145.416Zm31.3-.916a.231.231,0,0,1-.174-.078.233.233,0,0,1,.02-.329c.191-.169.382-.344.567-.519a.233.233,0,0,1,.32.338c-.189.179-.384.357-.578.529A.233.233,0,0,1,367.9,302.54Zm-33.172-.718a.232.232,0,0,1-.162-.066c-.188-.182-.374-.368-.555-.553a.233.233,0,0,1,.334-.325c.177.182.36.365.544.543a.233.233,0,0,1-.162.4ZM369.67,300.8a.233.233,0,0,1-.171-.391c.174-.188.346-.382.512-.574a.233.233,0,0,1,.353.3c-.169.2-.345.393-.522.585A.233.233,0,0,1,369.67,300.8Zm-36.639-.793a.231.231,0,0,1-.178-.083c-.168-.2-.335-.4-.5-.606a.233.233,0,0,1,.365-.289c.158.2.322.4.486.595a.232.232,0,0,1-.028.328A.23.23,0,0,1,333.03,300.009Zm38.227-1.117a.233.233,0,0,1-.186-.373c.153-.2.305-.414.452-.623a.233.233,0,1,1,.381.268c-.149.213-.3.426-.46.635A.233.233,0,0,1,371.257,298.892Zm-39.73-.858a.231.231,0,0,1-.192-.1c-.147-.215-.293-.435-.432-.653a.233.233,0,1,1,.393-.251c.137.214.279.429.423.64a.233.233,0,0,1-.192.365Zm41.117-1.2a.232.232,0,0,1-.2-.353c.132-.219.262-.443.386-.666a.233.233,0,0,1,.407.227c-.128.227-.26.455-.394.679A.232.232,0,0,1,372.644,296.83Zm-42.412-.912a.233.233,0,0,1-.2-.122c-.124-.228-.246-.461-.363-.692a.233.233,0,1,1,.416-.21c.114.227.234.455.356.679a.233.233,0,0,1-.2.344Zm43.583-1.281a.233.233,0,0,1-.211-.332c.109-.232.215-.468.317-.7a.233.233,0,1,1,.427.184c-.1.239-.211.48-.323.716A.233.233,0,0,1,373.815,294.638Zm-44.655-.955a.233.233,0,0,1-.215-.143c-.1-.238-.2-.482-.29-.725a.233.233,0,0,1,.435-.166c.091.238.187.478.285.712a.233.233,0,0,1-.215.323Zm45.6-1.347a.234.234,0,0,1-.22-.31c.085-.243.167-.489.243-.732a.233.233,0,0,1,.444.14c-.078.248-.161.5-.247.746A.234.234,0,0,1,374.757,292.336Zm-46.436-.987a.234.234,0,0,1-.223-.165c-.075-.25-.148-.5-.215-.754a.233.233,0,0,1,.45-.12c.066.246.137.494.211.739a.233.233,0,0,1-.155.29A.237.237,0,0,1,328.32,291.349Zm47.136-1.4a.236.236,0,0,1-.054-.006.233.233,0,0,1-.172-.281c.059-.247.115-.5.167-.75a.233.233,0,0,1,.456.094c-.052.256-.109.513-.169.765A.233.233,0,0,1,375.457,289.952Zm-47.734-1.012a.233.233,0,0,1-.228-.189c-.049-.256-.1-.516-.137-.771a.233.233,0,0,1,.46-.074c.04.251.086.506.134.757a.233.233,0,0,1-.184.273A.242.242,0,0,1,327.723,288.939Zm48.186-1.429-.031,0a.233.233,0,0,1-.2-.262c.034-.252.064-.509.089-.763a.233.233,0,0,1,.463.047c-.026.26-.057.521-.091.778A.233.233,0,0,1,375.909,287.51Zm-48.534-1.029a.233.233,0,0,1-.232-.212c-.023-.259-.043-.522-.058-.781a.233.233,0,1,1,.465-.027c.014.255.034.513.057.766a.233.233,0,0,1-.211.253Zm48.736-1.445H376.1a.233.233,0,0,1-.226-.24c.008-.254.012-.513.012-.769a.233.233,0,1,1,.466,0c0,.261,0,.524-.012.783A.232.232,0,0,1,376.111,285.036ZM327.277,284h0a.233.233,0,0,1-.23-.235c0-.26.01-.524.02-.783a.233.233,0,1,1,.465.02c-.01.255-.017.513-.02.768A.233.233,0,0,1,327.277,284Zm48.818-.925a.233.233,0,0,1-.233-.222c-.012-.254-.028-.512-.049-.767a.233.233,0,0,1,.464-.037c.021.259.037.523.05.782a.233.233,0,0,1-.222.244Zm-48.667-1.553H327.4a.233.233,0,0,1-.206-.257c.029-.259.062-.521.1-.777a.233.233,0,0,1,.461.066c-.036.252-.069.508-.1.763A.233.233,0,0,1,327.428,281.522Zm48.424-.918a.233.233,0,0,1-.23-.2c-.038-.254-.08-.509-.126-.758a.233.233,0,1,1,.459-.084c.046.254.09.514.129.773a.233.233,0,0,1-.2.265A.226.226,0,0,1,375.851,280.6Zm-48.023-1.532a.226.226,0,0,1-.049-.006.233.233,0,0,1-.179-.277c.055-.254.115-.511.178-.763a.233.233,0,1,1,.452.113c-.061.247-.12.5-.175.748A.233.233,0,0,1,327.828,279.072Zm47.53-.9a.233.233,0,0,1-.225-.175c-.064-.248-.132-.5-.2-.741a.233.233,0,0,1,.447-.13c.072.249.142.5.207.756a.233.233,0,0,1-.226.291Zm-46.882-1.5a.227.227,0,0,1-.073-.011.233.233,0,0,1-.149-.294c.081-.247.167-.5.256-.743a.233.233,0,1,1,.438.159c-.087.241-.172.487-.251.729A.232.232,0,0,1,328.476,276.676Zm46.142-.874a.234.234,0,0,1-.218-.152c-.089-.24-.182-.481-.277-.717a.233.233,0,0,1,.431-.175c.1.241.193.487.283.731a.233.233,0,0,1-.218.314Zm-45.251-1.447a.233.233,0,0,1-.213-.327c.106-.238.217-.477.33-.713a.233.233,0,0,1,.42.2c-.112.231-.221.466-.324.7A.233.233,0,0,1,329.368,274.354Zm44.274-.833a.233.233,0,0,1-.209-.13c-.112-.228-.229-.458-.348-.683a.233.233,0,1,1,.412-.218c.121.229.241.463.355.7a.233.233,0,0,1-.209.336Zm-43.15-1.384a.23.23,0,0,1-.116-.031.233.233,0,0,1-.086-.318c.129-.226.264-.453.4-.674a.233.233,0,1,1,.4.244c-.134.217-.266.44-.393.662A.232.232,0,0,1,330.492,272.137Zm41.946-.784a.233.233,0,0,1-.2-.11c-.134-.215-.275-.432-.417-.644a.233.233,0,1,1,.387-.259c.145.216.288.438.425.657a.233.233,0,0,1-.2.356Zm-40.6-1.307a.233.233,0,0,1-.189-.369c.152-.211.308-.423.467-.63a.233.233,0,1,1,.37.283c-.156.2-.31.411-.458.618A.232.232,0,0,1,331.835,270.046Zm39.185-.729a.232.232,0,0,1-.184-.091c-.156-.2-.317-.4-.48-.6a.233.233,0,1,1,.359-.3c.166.2.33.406.489.611a.233.233,0,0,1-.184.376ZM333.383,268.1a.233.233,0,0,1-.175-.387c.173-.2.35-.39.528-.579a.233.233,0,0,1,.339.319c-.175.185-.349.376-.518.568A.233.233,0,0,1,333.383,268.1Zm36.02-.669a.231.231,0,0,1-.169-.073c-.176-.185-.358-.37-.539-.549a.233.233,0,0,1,.327-.331c.185.182.369.37.548.559a.233.233,0,0,1-.168.394Zm-34.285-1.107a.233.233,0,0,1-.158-.4c.191-.177.387-.352.583-.523a.233.233,0,1,1,.306.352c-.193.167-.385.339-.573.513A.231.231,0,0,1,335.118,266.327Zm32.484-.6a.231.231,0,0,1-.152-.057c-.193-.166-.392-.331-.591-.492a.233.233,0,0,1,.292-.363c.2.163.406.332.6.5a.233.233,0,0,1-.152.41Zm-30.579-.988a.233.233,0,0,1-.14-.419c.206-.156.419-.311.632-.461a.233.233,0,0,1,.269.381c-.209.148-.418.3-.621.452A.233.233,0,0,1,337.024,264.736Zm28.615-.533a.232.232,0,0,1-.133-.042c-.211-.147-.426-.291-.638-.43a.233.233,0,1,1,.254-.391c.217.141.436.288.651.438a.233.233,0,0,1-.133.424Zm-26.56-.857a.233.233,0,0,1-.121-.432c.222-.134.449-.266.676-.394a.233.233,0,0,1,.228.406c-.223.125-.446.255-.663.387A.232.232,0,0,1,339.079,263.346Zm24.451-.458a.233.233,0,0,1-.113-.029c-.224-.125-.453-.247-.679-.363a.233.233,0,1,1,.213-.414c.231.119.464.243.692.37a.233.233,0,0,1-.113.437Zm-22.267-.716a.233.233,0,0,1-.1-.443c.234-.111.473-.22.712-.323a.233.233,0,1,1,.186.427c-.233.1-.468.209-.7.317A.233.233,0,0,1,341.263,262.172Zm20.034-.377a.226.226,0,0,1-.091-.019c-.235-.1-.475-.2-.714-.292a.233.233,0,0,1,.169-.434c.243.095.489.2.727.3a.233.233,0,0,1-.092.447Zm-17.743-.567a.233.233,0,0,1-.078-.452c.245-.087.495-.171.743-.25a.233.233,0,0,1,.141.444c-.243.078-.489.16-.729.244A.227.227,0,0,1,343.554,261.228Zm15.41-.292a.235.235,0,0,1-.069-.011c-.244-.076-.492-.149-.737-.217a.233.233,0,1,1,.124-.449c.25.069.5.143.752.221a.233.233,0,0,1-.069.455Zm-13.03-.415a.233.233,0,0,1-.055-.459c.254-.061.511-.119.764-.172a.233.233,0,1,1,.1.456c-.249.052-.5.109-.75.169A.244.244,0,0,1,345.934,260.521Zm10.625-.2a.211.211,0,0,1-.046,0c-.251-.05-.5-.1-.756-.14a.233.233,0,0,1,.077-.459c.257.044.516.091.771.143a.233.233,0,0,1-.046.461Zm-8.185-.259a.233.233,0,0,1-.031-.463c.258-.036.52-.067.778-.094a.233.233,0,0,1,.048.463c-.253.026-.51.057-.763.091Zm5.73-.107h-.023c-.253-.025-.511-.046-.767-.063a.233.233,0,0,1,.031-.465c.26.017.523.039.781.064a.233.233,0,0,1-.022.465Zm-3.256-.1a.233.233,0,0,1-.008-.466c.261-.009.524-.014.784-.014h0a.233.233,0,0,1,0,.466c-.255,0-.513.006-.769.014Z" transform="translate(-320.699 -253.027)" fill="#fff"/>
        <path id="Path_43751" data-name="Path 43751" d="M388.148,305.707a14.772,14.772,0,1,1-14.772-14.772A14.772,14.772,0,0,1,388.148,305.707Z" transform="translate(-342.376 -274.707)" fill="#eb1d21"/>
        <text id="_100_" data-name="100%" transform="translate(31.221 30.212)" fill="#fff" font-size="9" font-family="Impact"><tspan x="-9.657" y="0">100%</tspan></text>
        <text id="Satisfaction" transform="translate(31.221 35.267)" fill="#fff" font-size="4.5" font-family="Antonio-Regular, Antonio"><tspan x="-10.048" y="0">Satisfaction</tspan></text>
        <text id="GUARANTEED" transform="translate(31.221 39.304)" fill="#fff" font-size="3" font-family="Antonio-Bold, Antonio" font-weight="700" letter-spacing="0.208em"><tspan x="-9.686" y="0">GUARANTEED</tspan></text>
      </g>
      <g id="Group_38045" data-name="Group 38045" transform="translate(16.226 42.25)">
        <g id="Group_38044" data-name="Group 38044">
          <path id="Path_43752" data-name="Path 43752" d="M361.112,375.474l.592,1.822h1.915l-1.55,1.126.592,1.822-1.55-1.126-1.55,1.126.592-1.822L358.6,377.3h1.916Z" transform="translate(-358.604 -375.474)" fill="#eb1d21"/>
          <path id="Path_43753" data-name="Path 43753" d="M440.2,376.811l.592,1.822h1.916l-1.55,1.126.592,1.822-1.55-1.126-1.55,1.126.592-1.822-1.55-1.126h1.916Z" transform="translate(-413.472 -376.402)" fill="#eb1d21"/>
          <path id="Path_43754" data-name="Path 43754" d="M401.165,391.42l.592,1.822h1.915l-1.55,1.126.592,1.822-1.55-1.126-1.55,1.126.592-1.822-1.55-1.126h1.916Z" transform="translate(-386.392 -386.537)" fill="#eb1d21"/>
        </g>
      </g>
      <g id="Group_38047" data-name="Group 38047" transform="translate(10.995 10.54)">
        <g id="Group_38046" data-name="Group 38046">
          <path id="Path_43755" data-name="Path 43755" d="M346.136,315.512c.745.174,1.186,1.364.214,2.677-.485.65-1.117,1.12-1.281,1.719a1.789,1.789,0,1,1-1.425-2.227A1.647,1.647,0,0,1,345.1,319.2a9.392,9.392,0,0,1,.748-1.4,2.3,2.3,0,0,0,.26-2.259Zm-1.264,4.332c.117-.68-.4-1.21-1.363-1.375s-1.627.159-1.745.839.4,1.213,1.362,1.378S344.754,320.525,344.872,319.844Z" transform="translate(-341.52 -302.409)" fill="#313332"/>
          <path id="Path_43756" data-name="Path 43756" d="M345.113,307.647l.045.019-.031.074a.25.25,0,0,0,.116.327l1.763.726a1.259,1.259,0,0,1,.674,1.8c-.4.97-1.072,1.285-1.81.981l-1.761-.725a.249.249,0,0,0-.323.147l-.03.074-.045-.019.537-1.3.045.018-.03.074a.248.248,0,0,0,.119.328l1.728.712a.975.975,0,0,0,1.407-.449.951.951,0,0,0-.616-1.305l-1.786-.735a.249.249,0,0,0-.316.149l-.031.074-.045-.019Z" transform="translate(-343.04 -296.953)" fill="#313332"/>
          <path id="Path_43757" data-name="Path 43757" d="M355.408,301.953a.483.483,0,0,0,.469-.187l.023-.034.041.027-.876,1.292-.04-.027.024-.036a.209.209,0,0,0-.148-.329l-.636-.14-.645.951.36.547a.206.206,0,0,0,.36.018l.024-.036.04.027-.59.869-.041-.027.025-.037a.48.48,0,0,0,0-.5l-1.483-2.375a3.45,3.45,0,0,0-.4-.56l.025-.036Zm-1.361.518-1.265-.279.714,1.091Z" transform="translate(-348.736 -292.594)" fill="#313332"/>
          <path id="Path_43758" data-name="Path 43758" d="M361.284,293.335l-1.791,1.8-.034-.035.043-.044a.314.314,0,0,0,0-.44l-1.924-1.917a.314.314,0,0,0-.44,0l-.043.044-.036-.034,1.051-1.055.034.035-.044.044a.314.314,0,0,0,0,.44l2.028,2.021.454-.456a.983.983,0,0,0,.116-1.237l.035-.035Z" transform="translate(-352.303 -285.859)" fill="#313332"/>
          <path id="Path_43759" data-name="Path 43759" d="M368.228,287.371l-1.186.9-.029-.04.049-.038a.314.314,0,0,0,.064-.435l-1.643-2.166a.313.313,0,0,0-.435-.054l-.05.037-.03-.039,1.186-.9.029.039-.05.037a.314.314,0,0,0-.065.433l1.644,2.167a.314.314,0,0,0,.436.056l.049-.037Z" transform="translate(-357.788 -280.99)" fill="#313332"/>
          <path id="Path_43760" data-name="Path 43760" d="M373.524,278.882l-.044.023-.028-.051a.468.468,0,0,0-.67-.2l-.577.317,1.384,2.519a.314.314,0,0,0,.421.115l.054-.03.025.043-1.3.717-.023-.043.054-.03a.313.313,0,0,0,.13-.414l-1.385-2.522-.577.317a.468.468,0,0,0-.188.674l.027.051-.043.024-.411-.748a2.131,2.131,0,0,0,.552-.2l1.727-.948a2.131,2.131,0,0,0,.466-.358Z" transform="translate(-361.534 -276.477)" fill="#313332"/>
          <path id="Path_43761" data-name="Path 43761" d="M384.782,273.917l.014.047-.065.021a.626.626,0,0,0-.385.42l-.465,1.753.357,1.147a.314.314,0,0,0,.391.2l.059-.018.015.047-1.421.442-.014-.047.059-.018a.314.314,0,0,0,.209-.385l-.359-1.152-1.348-1.191a.616.616,0,0,0-.548-.124l-.066.02-.015-.047,1.548-.482.015.047-.059.018a.207.207,0,0,0-.074.341l1.045,1.009.318-1.433a.208.208,0,0,0-.254-.238l-.059.018-.014-.047Z" transform="translate(-369.051 -273.552)" fill="#313332"/>
          <path id="Path_43762" data-name="Path 43762" d="M400.913,272.8c.838-.034,1.217.355,1.256.889a1,1,0,0,1-1.539.92l0-.046a.734.734,0,0,0,.737-.589,1.054,1.054,0,0,0,.018-.3c-.03-.417-.266-.68-.658-.665l-.327.013.115,2.865a.313.313,0,0,0,.326.3l.062,0,0,.049-1.488.06v-.049l.062,0a.314.314,0,0,0,.3-.32l-.11-2.74a.3.3,0,0,0-.324-.269l-.062,0,0-.049Z" transform="translate(-381.592 -272.775)" fill="#313332"/>
          <path id="Path_43763" data-name="Path 43763" d="M411.909,273.009c.585.1,1.107.436.991,1.108a.89.89,0,0,1-.948.781,1.048,1.048,0,0,1,.419.513c.01.026.221.535.364.793.162.3.283.422.534.469l-.008.048-.47-.081c-.528-.091-.892-.271-1.047-.7-.082-.225-.217-.74-.26-.9-.059-.218-.149-.338-.271-.382l.008-.046.147.025a.614.614,0,0,0,.706-.453,1.015,1.015,0,0,0,.058-.231c.06-.465-.137-.712-.453-.774-.127-.028-.306-.053-.366-.065l-.485,2.816a.314.314,0,0,0,.258.357l.06.01-.007.048-1.468-.253.009-.048.061.011a.314.314,0,0,0,.361-.248l.461-2.678a.313.313,0,0,0-.256-.356l-.061-.011.007-.048Z" transform="translate(-388.801 -272.724)" fill="#313332"/>
          <path id="Path_43764" data-name="Path 43764" d="M425.8,279.087a1.934,1.934,0,1,1-1.145-2.365A1.732,1.732,0,0,1,425.8,279.087Zm-.749-.294c.356-.906.173-1.628-.47-1.88s-1.267.153-1.623,1.059-.173,1.627.471,1.88S424.692,279.7,425.048,278.794Z" transform="translate(-397.397 -275.374)" fill="#313332"/>
          <path id="Path_43765" data-name="Path 43765" d="M435.982,282.137a1.722,1.722,0,1,1-1.961,2.813l-1.458-1.017.028-.04.051.035a.314.314,0,0,0,.433-.073l1.569-2.251a.3.3,0,0,0-.1-.409l-.051-.036.027-.04Zm-2.388,2.261.5.347c.576.4,1.264.179,1.794-.583s.5-1.489-.071-1.889l-.5-.347Z" transform="translate(-404.683 -278.55)" fill="#313332"/>
          <path id="Path_43766" data-name="Path 43766" d="M449.3,292.658l-.037.033-.053-.059a.25.25,0,0,0-.345-.037l-1.417,1.278a1.26,1.26,0,0,1-1.917-.169c-.7-.779-.7-1.522-.1-2.058l1.414-1.276a.249.249,0,0,0,.007-.355l-.054-.059.036-.033.946,1.048-.036.033-.054-.059a.249.249,0,0,0-.348-.034l-1.389,1.253a.976.976,0,0,0-.2,1.463.951.951,0,0,0,1.444.008l1.435-1.3a.25.25,0,0,0,0-.35l-.054-.059.036-.033Z" transform="translate(-413.307 -284.656)" fill="#313332"/>
          <path id="Path_43767" data-name="Path 43767" d="M455.21,306.528l-.712.455a1.483,1.483,0,0,1-1.247-.879,1.8,1.8,0,1,1,3.116-1.738,2.687,2.687,0,0,1,.367,1.192l-.729.421-.02-.036a1.1,1.1,0,0,0,.226-1.433c-.381-.678-1.136-.8-1.975-.326s-1.146,1.172-.805,1.818c.37.657.844.829,1.759.489Z" transform="translate(-418.807 -293.895)" fill="#313332"/>
          <path id="Path_43768" data-name="Path 43768" d="M460.62,316.559l-.015-.047.055-.018a.469.469,0,0,0,.327-.619l-.2-.627-2.737.878a.314.314,0,0,0-.194.392l.019.059-.047.016-.454-1.418.047-.014.019.059a.314.314,0,0,0,.381.207l2.741-.879-.2-.627a.468.468,0,0,0-.626-.314l-.055.017-.016-.047.813-.261a2.1,2.1,0,0,0,.093.58l.6,1.876a2.1,2.1,0,0,0,.262.526Z" transform="translate(-421.895 -300.886)" fill="#313332"/>
          <path id="Path_43769" data-name="Path 43769" d="M461.806,328.17a.86.86,0,0,1-.746.545c-.636.056-1.074-.37-1.179-1.147a1.553,1.553,0,0,1,.156-1.06,1.177,1.177,0,0,1,.84,0l.006.043a.852.852,0,0,0-.79,1.04c.065.421.332.638.637.6.2-.026.311-.172.449-.456l.447-.922a.916.916,0,0,1,.808-.583.93.93,0,0,1,.988.907,6.286,6.286,0,0,1,.039.668l.042.3-.723.033-.006-.047c.337-.046.522-.349.466-.76-.051-.382-.291-.6-.552-.572-.193.014-.3.178-.406.4Z" transform="translate(-423.62 -309.844)" fill="#313332"/>
        </g>
      </g>
    </g>
  </g>
</svg>
