<svg xmlns="http://www.w3.org/2000/svg" width="20" height="17.578" viewBox="0 0 20 17.578">
  <g id="shopping-cart" transform="translate(0 0)">
    <path id="Path_43697" data-name="Path 43697" d="M6.444,12.51H17.07a.593.593,0,0,0,.563-.454L19.977,3.3a.66.66,0,0,0-.1-.548.574.574,0,0,0-.468-.249H5.092L4.673.49A.6.6,0,0,0,4.1,0H.586A.607.607,0,0,0,0,.626a.607.607,0,0,0,.586.625H3.631L5.747,11.414a1.886,1.886,0,0,0-1.06,1.722,1.822,1.822,0,0,0,1.758,1.876H17.07a.627.627,0,0,0,0-1.251H6.445a.627.627,0,0,1,0-1.251ZM18.637,3.753l-2.009,7.506H6.915L5.353,3.753Zm0,0" fill="#087cb9"/>
    <path id="Path_43698" data-name="Path 43698" d="M150,361.283A1.283,1.283,0,1,0,151.283,360,1.285,1.285,0,0,0,150,361.283Zm1.283-.428a.428.428,0,1,1-.428.428A.428.428,0,0,1,151.283,360.855Zm0,0" transform="translate(-143.803 -344.988)" fill="#087cb9"/>
    <path id="Path_43699" data-name="Path 43699" d="M362,361.283A1.283,1.283,0,1,0,363.283,360,1.285,1.285,0,0,0,362,361.283Zm1.283-.428a.428.428,0,1,1-.428.428A.428.428,0,0,1,363.283,360.855Zm0,0" transform="translate(-346.278 -344.988)" fill="#087cb9"/>
  </g>
</svg>
