<svg xmlns="http://www.w3.org/2000/svg" width="13.911" height="13.913" viewBox="0 0 13.911 13.913">
  <g id="sort-by" transform="translate(-0.027)">
    <g id="Group_37997" data-name="Group 37997" transform="translate(2.925)">
      <g id="Group_37996" data-name="Group 37996">
        <path id="Path_36967" data-name="Path 36967" d="M106.967,0a.29.29,0,0,0-.29.29V13.623a.29.29,0,0,0,.58,0V.29A.29.29,0,0,0,106.967,0Z" transform="translate(-106.677)"/>
      </g>
    </g>
    <g id="Group_37999" data-name="Group 37999" transform="translate(0.027 0)">
      <g id="Group_37998" data-name="Group 37998">
        <path id="Path_36968" data-name="Path 36968" d="M6.319,3,3.42.1a.29.29,0,0,0-.41,0L.112,3a.29.29,0,1,0,.41.41L3.215.715,5.908,3.409A.29.29,0,1,0,6.319,3Z" transform="translate(-0.027 -0.016)"/>
      </g>
    </g>
    <g id="Group_38001" data-name="Group 38001" transform="translate(10.461)">
      <g id="Group_38000" data-name="Group 38000">
        <path id="Path_36969" data-name="Path 36969" d="M384.3,0a.29.29,0,0,0-.29.29V13.623a.29.29,0,0,0,.58,0V.29A.29.29,0,0,0,384.3,0Z" transform="translate(-384.01)"/>
      </g>
    </g>
    <g id="Group_38003" data-name="Group 38003" transform="translate(7.562 10.435)">
      <g id="Group_38002" data-name="Group 38002">
        <path id="Path_36970" data-name="Path 36970" d="M283.628,384.1a.29.29,0,0,0-.41,0l-2.693,2.693-2.693-2.693a.29.29,0,1,0-.41.41l2.9,2.9a.291.291,0,0,0,.205.085.286.286,0,0,0,.2-.085l2.9-2.9A.29.29,0,0,0,283.628,384.1Z" transform="translate(-277.337 -384.016)"/>
      </g>
    </g>
  </g>
</svg>
