<svg xmlns="http://www.w3.org/2000/svg" xmlns:xlink="http://www.w3.org/1999/xlink" width="294.132" height="294.956" viewBox="0 0 294.132 294.956">
  <defs>
    <linearGradient id="linear-gradient" x1="0.5" x2="0.5" y2="1" gradientUnits="objectBoundingBox">
      <stop offset="0" stop-color="#c5f4ff"/>
      <stop offset="1" stop-color="#087cb9"/>
    </linearGradient>
  </defs>
  <g id="successful" transform="translate(-41.868 -119.856)">
    <path id="Path_36187" data-name="Path 36187" d="M129,54c76.215,0,106.667,70.451,106.667,146.667s1.549,108-74.667,108S0,214.215,0,138,52.785,54,129,54Z" transform="translate(31.564 111.815) rotate(-11)" opacity="0.21" fill="url(#linear-gradient)"/>
    <g id="Group_14482" data-name="Group 14482" transform="translate(0 -26)">
      <circle id="Ellipse_31" data-name="Ellipse 31" cx="7" cy="7" r="7" transform="translate(109 146)" fill="#d5eaf4"/>
      <circle id="Ellipse_32" data-name="Ellipse 32" cx="7" cy="7" r="7" transform="translate(322 319)" fill="#d5eaf4"/>
      <circle id="Ellipse_33" data-name="Ellipse 33" cx="5" cy="5" r="5" transform="translate(130 410)" fill="#d5eaf4"/>
    </g>
    <g id="Group_14536" data-name="Group 14536" transform="translate(54 157.651)">
      <g id="Group_14533" data-name="Group 14533" transform="translate(51.269 11.269)">
        <path id="Path_27140" data-name="Path 27140" d="M231.157,25.808V38.885H120V25.808A9.81,9.81,0,0,1,129.808,16h91.541A9.811,9.811,0,0,1,231.157,25.808Z" transform="translate(-93.845 -16)" fill="#83d8f4"/>
        <path id="Path_27141" data-name="Path 27141" d="M231.157,214V319.436a9.81,9.81,0,0,1-9.808,9.808H129.808A9.81,9.81,0,0,1,120,319.436V214.817Z" transform="translate(-93.845 -133.084)" fill="#83d8f4"/>
        <path id="Path_27142" data-name="Path 27142" d="M242.093,29.077H203.269L200,16h45.771Z" transform="translate(-141.152 -16)" fill="#57565c"/>
        <path id="Path_27143" data-name="Path 27143" d="M385.04,104.693H352.347L336,72h22.885Z" transform="translate(-221.574 -49.115)" fill="#d80027"/>
        <path id="Path_27144" data-name="Path 27144" d="M319.232,104.693H286.539L280,72h22.885Z" transform="translate(-188.459 -49.115)" fill="#e0e0e2"/>
        <path id="Path_27145" data-name="Path 27145" d="M248.693,104.693H216L222.539,72h19.616Z" transform="translate(-150.614 -49.115)" fill="#d80027"/>
        <path id="Path_27146" data-name="Path 27146" d="M105.04,72,88.693,104.693H56L82.155,72Z" transform="translate(-56 -49.115)" fill="#d80027"/>
        <path id="Path_27147" data-name="Path 27147" d="M248.693,152v19.616a13.082,13.082,0,0,1-13.077,13.077h-6.539A13.077,13.077,0,0,1,216,171.616V152Z" transform="translate(-150.614 -96.422)" fill="#ab2300"/>
        <path id="Path_27148" data-name="Path 27148" d="M88.693,152v19.616a13.083,13.083,0,0,1-13.077,13.077H69.077A13.077,13.077,0,0,1,56,171.616V152Z" transform="translate(-56 -96.422)" fill="#ab2300"/>
        <path id="Path_27149" data-name="Path 27149" d="M168.693,152v19.616a13.068,13.068,0,0,1-13.059,13.077h-6.557A13.06,13.06,0,0,1,136,171.651V152Z" transform="translate(-103.307 -96.422)" fill="#acabb1"/>
        <path id="Path_27150" data-name="Path 27150" d="M408.693,152v19.616a13.077,13.077,0,0,1-13.077,13.077h-6.539a13.029,13.029,0,0,1-6.539-1.749,13.183,13.183,0,0,1-5.055-5.272A13.015,13.015,0,0,1,376,171.616V152Z" transform="translate(-245.227 -96.422)" fill="#ab2300"/>
        <path id="Path_27151" data-name="Path 27151" d="M328.693,152v19.616a13.062,13.062,0,0,1-13.046,13.077h-6.57A13.077,13.077,0,0,1,296,171.616V152Z" transform="translate(-197.92 -96.422)" fill="#acabb1"/>
        <path id="Path_27152" data-name="Path 27152" d="M175.232,72l-6.539,32.693H136L152.347,72Z" transform="translate(-103.307 -49.115)" fill="#e0e0e2"/>
        <path id="Path_27153" data-name="Path 27153" d="M247.232,330.155H208V304h42.5Z" transform="translate(-145.883 -186.304)" fill="#ffda44"/>
      </g>
      <g id="Group_14535" data-name="Group 14535" transform="translate(48 8)">
        <path id="Path_27154" data-name="Path 27154" d="M216.906,64.326,191.85,33.006V21.077A13.09,13.09,0,0,0,178.773,8H87.232A13.09,13.09,0,0,0,74.155,21.077V33.006L48.715,64.8a.094.094,0,0,1-.012.02,3.263,3.263,0,0,0-.7,2.023V86.464A16.363,16.363,0,0,0,64.347,102.81h6.539a16.572,16.572,0,0,0,3.269-.327v95.137A13.09,13.09,0,0,0,87.232,210.7h91.541a13.09,13.09,0,0,0,13.077-13.077V102.483a16.572,16.572,0,0,0,3.269.327h6.539A16.347,16.347,0,0,0,218,86.464V66.623A2.688,2.688,0,0,0,216.906,64.326Zm-8.974-.748h-23.87L170.984,37.424h16.024Zm-55.313,6.539h26.155V86.464a9.821,9.821,0,0,1-9.808,9.808h-6.539a9.821,9.821,0,0,1-9.808-9.808Zm-.588-6.539L146.8,37.424h16.878l13.077,26.155Zm-.458-49.04-1.839,6.539H115.941l-1.635-6.539ZM80.693,21.077a6.547,6.547,0,0,1,6.539-6.539h20.331l2.652,10.6a3.269,3.269,0,0,0,3.171,2.477H152.21a3.269,3.269,0,0,0,3.147-2.383l3.008-10.695h20.409a6.547,6.547,0,0,1,6.539,6.539v9.808H80.693Zm65.386,49.04V86.464a9.821,9.821,0,0,1-9.808,9.808h-6.539a9.821,9.821,0,0,1-9.808-9.808V70.117Zm-25.435-6.539,5.231-26.155H140.13l5.231,26.155Zm-31.394,0,13.077-26.155h16.878l-5.231,26.155Zm24.136,6.539V86.464a9.821,9.821,0,0,1-9.808,9.808H97.04a9.821,9.821,0,0,1-9.808-9.808V70.117ZM79,37.424H95.021L81.944,63.579H58.074ZM70.885,96.272H64.347a9.821,9.821,0,0,1-9.808-9.808V70.117H80.693V86.464A9.821,9.821,0,0,1,70.885,96.272ZM185.312,197.621a6.547,6.547,0,0,1-6.539,6.539H87.232a6.547,6.547,0,0,1-6.539-6.539V99.533a16.53,16.53,0,0,0,3.269-3.273A16.325,16.325,0,0,0,97.04,102.81h6.539a16.325,16.325,0,0,0,13.077-6.551,16.325,16.325,0,0,0,13.077,6.551h6.539a16.325,16.325,0,0,0,13.077-6.551,16.325,16.325,0,0,0,13.077,6.551h6.539a16.347,16.347,0,0,0,13.073-6.543,16.562,16.562,0,0,0,3.273,3.273ZM211.466,86.464a9.821,9.821,0,0,1-9.808,9.808H195.12a9.821,9.821,0,0,1-9.808-9.808V70.117h26.155Z" transform="translate(-48 -8)"/>
        <path id="Path_27155" data-name="Path 27155" d="M173.424,455H147.269a3.269,3.269,0,1,0,0,6.539h26.155a3.269,3.269,0,0,0,0-6.539Z" transform="translate(-104.768 -272.327)"/>
        <path id="Path_27156" data-name="Path 27156" d="M238.539,455h-3.269a3.269,3.269,0,0,0,0,6.539h3.269a3.269,3.269,0,0,0,0-6.539Z" transform="translate(-156.806 -272.327)"/>
        <g id="Group_14534" data-name="Group 14534" transform="translate(52.309 107.888)">
          <path id="Path_27157" data-name="Path 27157" d="M228.309,314.5a3.269,3.269,0,0,0,3.245-2.865l3.269-26.155a3.268,3.268,0,0,0-3.245-3.674H192.347v-6.539A3.27,3.27,0,0,0,189.077,272h-9.808a3.269,3.269,0,1,0,0,6.539h6.539v42.5a3.269,3.269,0,0,0,3.269,3.269h39.232a3.269,3.269,0,1,0,0-6.539H192.347V314.5Zm-35.963-26.155h35.529l-2.452,19.616H192.347Z" transform="translate(-176 -272)"/>
          <circle id="Ellipse_442" data-name="Ellipse 442" cx="4" cy="4" r="4" transform="translate(14.691 55.461)"/>
          <circle id="Ellipse_443" data-name="Ellipse 443" cx="4" cy="4" r="4" transform="translate(42.691 55.461)"/>
        </g>
      </g>
    </g>
  </g>
</svg>
