<svg xmlns="http://www.w3.org/2000/svg" width="12.8" height="12.8" viewBox="0 0 12.8 12.8">
  <g id="user-blue" transform="translate(0)">
    <g id="Group_3253" data-name="Group 3253" transform="translate(0)">
      <path id="Path_19297" data-name="Path 19297" d="M10.925,8.275A6.375,6.375,0,0,0,8.493,6.749a3.7,3.7,0,1,0-4.187,0A6.41,6.41,0,0,0,0,12.8H1a5.4,5.4,0,0,1,10.8,0h1A6.358,6.358,0,0,0,10.925,8.275ZM6.4,6.4A2.7,2.7,0,1,1,9.1,3.7,2.7,2.7,0,0,1,6.4,6.4Z" transform="translate(0 0)" fill="#087cb9"/>
    </g>
  </g>
</svg>
