<svg xmlns="http://www.w3.org/2000/svg" width="18.665" height="13.998" viewBox="0 0 18.665 13.998">
  <g id="visibility-blue" transform="translate(0 -64.008)">
    <g id="Group_14828" data-name="Group 14828" transform="translate(7.019 68.694)">
      <g id="Group_14827" data-name="Group 14827" transform="translate(0 0)">
        <path id="Path_36871" data-name="Path 36871" d="M197.063,192.656a.389.389,0,0,0-.55.55,2.333,2.333,0,1,1-3.3,3.3.389.389,0,1,0-.55.55,3.11,3.11,0,1,0,4.4-4.4Z" transform="translate(-192.55 -192.542)" fill="#087cb9"/>
      </g>
    </g>
    <g id="Group_14830" data-name="Group 14830" transform="translate(6.221 67.896)">
      <g id="Group_14829" data-name="Group 14829" transform="translate(0 0)">
        <path id="Path_36872" data-name="Path 36872" d="M174.321,170.713a3.08,3.08,0,0,0-3.653,3.057,3.043,3.043,0,0,0,.054.542.389.389,0,0,0,.382.321.346.346,0,0,0,.068-.006.389.389,0,0,0,.315-.45,2.255,2.255,0,0,1-.042-.407,2.305,2.305,0,0,1,2.74-2.292.389.389,0,1,0,.135-.765Z" transform="translate(-170.668 -170.659)" fill="#087cb9"/>
      </g>
    </g>
    <g id="Group_14832" data-name="Group 14832" transform="translate(4.864 66.649)">
      <g id="Group_14831" data-name="Group 14831" transform="translate(0 0)">
        <path id="Path_36873" data-name="Path 36873" d="M147.144,140.568a18.891,18.891,0,0,0-5.093-4.063.389.389,0,1,0-.357.691,18.275,18.275,0,0,1,4.631,3.623c-.927,1-4.575,4.666-8.421,4.666a8.967,8.967,0,0,1-3.91-.937.389.389,0,1,0-.338.7,9.725,9.725,0,0,0,4.248,1.015c4.792,0,9.061-4.981,9.241-5.193A.389.389,0,0,0,147.144,140.568Z" transform="translate(-133.435 -136.461)" fill="#087cb9"/>
      </g>
    </g>
    <g id="Group_14834" data-name="Group 14834" transform="translate(0 65.563)">
      <g id="Group_14833" data-name="Group 14833" transform="translate(0)">
        <path id="Path_36874" data-name="Path 36874" d="M11.884,107.107a8.03,8.03,0,0,0-2.552-.448c-4.792,0-9.061,4.981-9.241,5.193a.389.389,0,0,0-.022.474,14.437,14.437,0,0,0,3.567,3.382.386.386,0,0,0,.538-.11.388.388,0,0,0-.109-.538,14.222,14.222,0,0,1-3.175-2.936c.9-.972,4.568-4.687,8.441-4.687a7.279,7.279,0,0,1,2.3.407.384.384,0,0,0,.492-.244A.388.388,0,0,0,11.884,107.107Z" transform="translate(0 -106.659)" fill="#087cb9"/>
      </g>
    </g>
    <g id="Group_14836" data-name="Group 14836" transform="translate(2.333 64.008)">
      <g id="Group_14835" data-name="Group 14835" transform="translate(0 0)">
        <path id="Path_36875" data-name="Path 36875" d="M77.881,64.122a.389.389,0,0,0-.55,0L64.11,77.343a.389.389,0,0,0,.55.55L77.881,64.672A.389.389,0,0,0,77.881,64.122Z" transform="translate(-63.996 -64.008)" fill="#087cb9"/>
      </g>
    </g>
  </g>
</svg>
