<svg xmlns="http://www.w3.org/2000/svg" width="38" height="38" viewBox="0 0 38 38">
  <g id="watsapp" transform="translate(-216 -819)">
    <circle id="Ellipse_488" data-name="Ellipse 488" cx="19" cy="19" r="19" transform="translate(216 819)" fill="#4caf50"/>
    <path id="whatsapp_4_" data-name="whatsapp (4)" d="M16.729,2.817A9.606,9.606,0,0,0,1.612,14.405L.25,19.382l5.091-1.336a9.594,9.594,0,0,0,4.59,1.169h0a9.608,9.608,0,0,0,6.794-16.4ZM9.935,17.593h0a7.973,7.973,0,0,1-4.063-1.113l-.291-.173L2.556,17.1l.806-2.946-.19-.3a7.983,7.983,0,1,1,6.762,3.741Zm4.379-5.979c-.24-.12-1.42-.7-1.64-.781s-.38-.12-.54.12-.62.781-.76.941-.28.18-.52.06a6.555,6.555,0,0,1-1.93-1.191A7.239,7.239,0,0,1,7.589,9.1c-.14-.24,0-.358.105-.49a6.788,6.788,0,0,0,.6-.821.441.441,0,0,0-.02-.42c-.06-.12-.54-1.3-.74-1.782s-.393-.4-.54-.412-.3-.008-.46-.008a.881.881,0,0,0-.64.3,2.692,2.692,0,0,0-.84,2,4.668,4.668,0,0,0,.98,2.482,10.7,10.7,0,0,0,4.1,3.623,13.736,13.736,0,0,0,1.368.506,3.29,3.29,0,0,0,1.511.1,2.472,2.472,0,0,0,1.62-1.141,2.005,2.005,0,0,0,.14-1.141c-.06-.1-.22-.16-.46-.28Zm0,0" transform="translate(225.464 828.425)" fill="#fff" fill-rule="evenodd"/>
  </g>
</svg>
