<svg xmlns="http://www.w3.org/2000/svg" width="15" height="13.345" viewBox="0 0 15 13.345">
  <path id="wish-list" d="M7.5,13.346a.88.88,0,0,1-.58-.218c-.606-.53-1.19-1.028-1.706-1.467l0,0a31.721,31.721,0,0,1-3.724-3.5A5.583,5.583,0,0,1,0,4.508a4.688,4.688,0,0,1,1.19-3.2A4.034,4.034,0,0,1,4.191,0,3.773,3.773,0,0,1,6.547.814a4.822,4.822,0,0,1,.953.995A4.822,4.822,0,0,1,8.453.814,3.773,3.773,0,0,1,10.81,0a4.034,4.034,0,0,1,3,1.306A4.688,4.688,0,0,1,15,4.508a5.583,5.583,0,0,1-1.488,3.655,31.718,31.718,0,0,1-3.724,3.5c-.516.44-1.1.939-1.709,1.47a.88.88,0,0,1-.58.218ZM4.191.879A3.165,3.165,0,0,0,1.836,1.9,3.814,3.814,0,0,0,.879,4.508,4.7,4.7,0,0,0,2.164,7.6,31.216,31.216,0,0,0,5.782,10.99l0,0c.517.441,1.1.941,1.714,1.475.614-.535,1.2-1.035,1.72-1.477A31.224,31.224,0,0,0,12.836,7.6a4.7,4.7,0,0,0,1.286-3.094A3.814,3.814,0,0,0,13.164,1.9,3.164,3.164,0,0,0,10.81.879a2.914,2.914,0,0,0-1.819.63A4.264,4.264,0,0,0,7.977,2.682a.555.555,0,0,1-.953,0A4.26,4.26,0,0,0,6.01,1.509,2.914,2.914,0,0,0,4.191.879Zm0,0" transform="translate(0 0)" fill="#087cb9"/>
</svg>
