<svg xmlns="http://www.w3.org/2000/svg" width="34" height="34" viewBox="0 0 34 34">
  <g id="about_us" transform="translate(-0.095 0.217)">
    <g id="Group_38034" data-name="Group 38034">
      <rect id="Rectangle_6914" data-name="Rectangle 6914" width="34" height="34" rx="8" transform="translate(0.095 -0.217)" fill="none"/>
    </g>
    <g id="_151776" data-name="151776" transform="translate(10.095 0.783)">
      <path id="Path_45149" data-name="Path 45149" d="M44.517,27.845l-.436,1.783q-1.963.775-3.132,1.18a8.261,8.261,0,0,1-2.716.406,5.422,5.422,0,0,1-3.695-1.159,3.75,3.75,0,0,1-1.318-2.944,10.414,10.414,0,0,1,.1-1.417q.1-.725.319-1.635l1.635-5.787q.218-.831.368-1.576a6.849,6.849,0,0,0,.149-1.356,2.1,2.1,0,0,0-.458-1.547,2.585,2.585,0,0,0-1.749-.437,4.583,4.583,0,0,0-1.3.2c-.445.131-.825.258-1.144.377l.437-1.784q1.607-.654,3.074-1.12a9.2,9.2,0,0,1,2.78-.466A5.289,5.289,0,0,1,41.07,11.7a3.785,3.785,0,0,1,1.278,2.963c0,.251-.028.695-.088,1.328a8.883,8.883,0,0,1-.328,1.745L40.3,23.5a15.31,15.31,0,0,0-.358,1.588,8.173,8.173,0,0,0-.159,1.347A1.941,1.941,0,0,0,40.3,28a2.9,2.9,0,0,0,1.781.416,5.143,5.143,0,0,0,1.347-.208A7.531,7.531,0,0,0,44.517,27.845Zm.413-24.2a3.373,3.373,0,0,1-1.139,2.567,3.878,3.878,0,0,1-2.742,1.062,3.921,3.921,0,0,1-2.757-1.062,3.366,3.366,0,0,1-1.15-2.567,3.4,3.4,0,0,1,1.15-2.576,4.069,4.069,0,0,1,5.5,0A3.406,3.406,0,0,1,44.93,3.645Z" transform="translate(-31.139 0)" fill="#fff"/>
    </g>
  </g>
</svg>
