<svg xmlns="http://www.w3.org/2000/svg" width="22.005" height="31.296" viewBox="0 0 22.005 31.296">
  <g id="address_book" transform="translate(-6.093 -1.447)">
    <g id="Group_15337" data-name="Group 15337" transform="translate(6.093 1.447)">
      <path id="Path_37544" data-name="Path 37544" d="M87,0A11.011,11.011,0,0,0,76,11a10.85,10.85,0,0,0,1.65,5.776l8.606,14.084a.869.869,0,0,0,.624.422.913.913,0,0,0,.935-.44l8.631-14.213A10.851,10.851,0,0,0,98.005,11,11.011,11.011,0,0,0,87,0Zm0,16.5A5.5,5.5,0,1,1,92.5,11,5.494,5.494,0,0,1,87,16.5Z" transform="translate(-76 0)" fill="#fff"/>
    </g>
  </g>
</svg>
