<?xml version="1.0" encoding="utf-8"?>
<!-- Generator: Adobe Illustrator 24.3.0, SVG Export Plug-In . SVG Version: 6.00 Build 0)  -->
<svg version="1.1" id="Layer_1" xmlns="http://www.w3.org/2000/svg" xmlns:xlink="http://www.w3.org/1999/xlink" x="0px" y="0px"
	 viewBox="0 0 48 48" style="enable-background:new 0 0 48 48;" xml:space="preserve">
<style type="text/css">
	.st0{fill:#2BBA46;}
</style>
<g id="Group_13909" transform="translate(-395.657 -395.73)">
	<path id="Path_41155" d="M441.66,417.59c-0.14,0.31-0.32,0.6-0.52,0.87c-0.45,0.49-1.16,0.65-1.78,0.39
		c-0.64-0.22-1.09-0.81-1.12-1.49c-0.02-0.21,0-0.43,0-0.64c0-2.99,0-5.99,0-8.98c0.14-1.91-1.29-3.58-3.2-3.73
		c-0.17-0.01-0.35-0.01-0.52,0h-1.95c0,0.61,0.02,1.19,0,1.77c-0.02,0.94-0.8,1.69-1.75,1.67c-0.31-0.01-0.61-0.1-0.88-0.27
		c-0.5-0.3-0.81-0.85-0.8-1.44c-0.01-0.56,0-1.11,0-1.7h-7.82c0,0.44,0,0.88,0,1.32c0,1.29-0.65,2.08-1.71,2.08
		c-1.06,0.01-1.73-0.79-1.73-2.1c0-0.43,0-0.85,0-1.31h-7.73c0,0.55,0,1.12,0,1.68c0.01,0.95-0.75,1.72-1.69,1.73
		c-0.95,0.01-1.72-0.75-1.73-1.69l0,0c-0.02-0.57,0-1.14,0-1.79c-0.98-0.01-1.97,0.05-2.94,0.17c-1.53,0.33-2.63,1.67-2.64,3.24
		c0,0.11,0,0.24,0,0.34c0,8.76,0,17.53,0,26.29c-0.1,1.4,0.67,2.72,1.95,3.31c0.55,0.24,1.14,0.36,1.74,0.36
		c4.22,0.03,8.45,0.02,12.67,0.01c0.53-0.04,1.06,0.15,1.44,0.52c0.66,0.67,0.65,1.76-0.02,2.42c-0.14,0.13-0.3,0.25-0.47,0.33
		c-0.13,0.06-0.26,0.11-0.39,0.17h-14.28c-0.05-0.03-0.1-0.05-0.15-0.07c-3.49-0.51-6.05-3.54-5.96-7.07
		c0.04-8.76,0-17.52,0.02-26.28c-0.01-0.54,0.04-1.09,0.14-1.62c0.63-3.18,3.41-5.48,6.65-5.51c0.72-0.01,1.44,0,2.22,0
		c0-0.61-0.02-1.18,0-1.75c0.05-0.95,0.85-1.68,1.79-1.63c0.9,0.04,1.61,0.77,1.63,1.67c0.01,0.56,0,1.13,0,1.68h7.73
		c0-0.54,0-1.05,0-1.56c-0.08-0.95,0.62-1.78,1.57-1.86c0.95-0.08,1.78,0.62,1.86,1.57c0.01,0.1,0.01,0.19,0,0.29
		c0,0.51,0,1.02,0,1.55h7.82c0-0.52,0-1.02,0-1.52c-0.08-0.95,0.62-1.78,1.56-1.87c0.95-0.08,1.78,0.62,1.87,1.56
		c0.01,0.1,0.01,0.19,0,0.29c0,0.51,0,1.02,0,1.57c0.85,0,1.65-0.04,2.44,0c2.56,0.04,4.87,1.54,5.95,3.86
		c0.3,0.72,0.54,1.47,0.72,2.23L441.66,417.59z"/>
	<path id="Path_41156" class="st0" d="M430.4,441.13c-1-0.2-2-0.46-2.98-0.76c-4.51-1.78-7.17-6.44-6.42-11.23
		c0.9-5.67,6.22-9.53,11.88-8.63c4.59,0.73,8.14,4.42,8.69,9.04c0.02,0.11,0.05,0.22,0.08,0.33v1.72c-0.03,0.14-0.06,0.28-0.09,0.42
		c-0.44,3.88-3.07,7.17-6.76,8.46c-0.88,0.28-1.78,0.5-2.69,0.66L430.4,441.13z M431.24,437.69c3.85,0.02,6.99-3.09,7-6.94
		c0.02-3.85-3.09-6.98-6.94-7c-3.85-0.02-6.99,3.09-7,6.94c0,0,0,0.01,0,0.01C424.29,434.55,427.4,437.68,431.24,437.69
		L431.24,437.69z"/>
	<path id="Path_41157" d="M410.13,415.18c0,0.95-0.76,1.72-1.71,1.72c-0.95,0-1.72-0.76-1.72-1.71c0-0.94,0.76-1.71,1.7-1.72
		C409.35,413.46,410.12,414.23,410.13,415.18z"/>
	<path id="Path_41158" d="M417.6,415.2c-0.01,0.95-0.78,1.71-1.73,1.7c-0.95-0.01-1.71-0.78-1.7-1.73c0.01-0.94,0.78-1.71,1.72-1.7
		C416.84,413.48,417.6,414.25,417.6,415.2z"/>
	<path id="Path_41159" d="M423.36,413.47c0.95,0,1.71,0.77,1.71,1.72c0,0.95-0.77,1.71-1.72,1.71c-0.94,0-1.71-0.77-1.71-1.71
		C421.64,414.24,422.41,413.47,423.36,413.47z"/>
	<path id="Path_41160" d="M432.55,415.17c0.01,0.95-0.75,1.72-1.7,1.73c-0.95,0.01-1.72-0.75-1.73-1.7
		c-0.01-0.94,0.75-1.72,1.69-1.73C431.76,413.46,432.53,414.22,432.55,415.17z"/>
	<path id="Path_41161" d="M410.13,422.66c0,0.95-0.77,1.72-1.71,1.72c-0.95,0-1.72-0.77-1.72-1.71c0-0.94,0.76-1.71,1.7-1.72
		C409.35,420.94,410.12,421.71,410.13,422.66z"/>
	<path id="Path_41162" d="M417.6,422.68c-0.01,0.95-0.79,1.71-1.73,1.7c-0.95-0.01-1.71-0.79-1.7-1.73c0.01-0.94,0.78-1.7,1.72-1.7
		C416.84,420.95,417.61,421.73,417.6,422.68z"/>
	<path id="Path_41163" d="M410.13,430.15c-0.01,0.95-0.78,1.71-1.73,1.71c-0.95-0.01-1.71-0.78-1.71-1.73
		c0.01-0.94,0.77-1.71,1.72-1.71C409.36,428.43,410.13,429.2,410.13,430.15z"/>
	<path id="Path_41164" d="M415.88,431.85c-0.95,0-1.71-0.78-1.71-1.72c0-0.95,0.78-1.71,1.72-1.71c0.94,0,1.71,0.77,1.71,1.71
		C417.6,431.08,416.83,431.85,415.88,431.85z"/>
	<path id="Path_41165" class="st0" d="M432.98,429.02c0.34,0,0.61-0.01,0.88,0c0.92,0.05,1.63,0.82,1.62,1.73
		c0,0.9-0.71,1.65-1.62,1.68c-0.9,0.03-1.8,0.03-2.7,0c-0.87-0.03-1.57-0.74-1.59-1.61c-0.03-1.23-0.03-2.46,0-3.69
		c0.02-0.92,0.78-1.65,1.7-1.64c0.94,0,1.7,0.75,1.72,1.68C432.99,427.77,432.98,428.37,432.98,429.02z"/>
</g>
</svg>
