<svg xmlns="http://www.w3.org/2000/svg" width="34" height="34" viewBox="0 0 34 34">
  <g id="cart" transform="translate(14.905 -263.317)">
    <g id="Group_38039" data-name="Group 38039" transform="translate(0 0)">
      <g id="Group_38050" data-name="Group 38050" transform="translate(0 251.3)">
        <g id="Group_38034" data-name="Group 38034" transform="translate(-15 12)">
          <rect id="Rectangle_6914" data-name="Rectangle 6914" width="34" height="34" rx="8" transform="translate(0.095 0.017)" fill="none"/>
        </g>
        <g id="Group_38181" data-name="Group 38181" transform="translate(-13.906 17.279)">
          <path id="Path_41145" data-name="Path 41145" d="M796.982,375.666c-.206.682-.419,1.362-.616,2.047q-1.39,4.847-2.773,9.7a.889.889,0,0,1-1.02.767q-7.132,0-14.263-.007a.53.53,0,0,0-.571.353.873.873,0,0,0,.857,1.353h13.952a1.707,1.707,0,0,1,.365.022.845.845,0,0,1-.186,1.673c-.9.008-1.792,0-2.688,0-.081,0-.162.007-.28.012a2.615,2.615,0,0,1,2.113,2.827,2.548,2.548,0,0,1-5.058.03,2.613,2.613,0,0,1,2.111-2.857h-7.666A2.681,2.681,0,0,1,782.9,392.7a2.5,2.5,0,0,1,.378,1.971,2.547,2.547,0,0,1-5.014-.231c-.195-1.273.593-2.355,2.135-2.865-.655,0-1.246,0-1.838,0a2.533,2.533,0,0,1-2.341-3.772,1.459,1.459,0,0,0,.105-1.167q-1.951-6.744-3.866-13.5c-.021-.072-.046-.143-.079-.244h-.412c-.943,0-1.887-.02-2.83.008A1.074,1.074,0,0,1,768,372.27v-.453a.973.973,0,0,1,.914-.625c1.349.007,2.7,0,4.047,0a.849.849,0,0,1,.9.666c.113.369.211.743.318,1.114q.232.808.468,1.616h.37q10.427,0,20.855-.008a1.073,1.073,0,0,1,1.112.631Zm-21.852.636,2.9,10.16H792.1L795,376.3Zm6.511,17.823a.848.848,0,1,0-.846.843A.858.858,0,0,0,781.641,394.126Zm7.686-.853a.848.848,0,1,0,.861.828A.859.859,0,0,0,789.327,393.272Z" transform="translate(-768 -371.192)" fill="#fff"/>
        </g>
      </g>
    </g>
  </g>
</svg>
