<svg xmlns="http://www.w3.org/2000/svg" width="34" height="34" viewBox="0 0 34 34">
  <g id="conatct_us" transform="translate(-0.095 -0.26)">
    <g id="Group_38034" data-name="Group 38034">
      <rect id="Rectangle_6914" data-name="Rectangle 6914" width="34" height="34" rx="8" transform="translate(0.095 0.26)" fill="none"/>
    </g>
    <g id="_839961" data-name="839961" transform="translate(2.736 1.126)">
      <g id="Group_38041" data-name="Group 38041">
        <path id="Path_45148" data-name="Path 45148" d="M43.449,12.962h-.078v-1.9a11.061,11.061,0,0,0-22.121,0v1.9h-.466a3.161,3.161,0,0,0-3.027,3.26v4.851a3.066,3.066,0,0,0,2.987,3.143h2.912a.737.737,0,0,0,.7-.771q0-.022,0-.044V13.894c0-.466-.272-.931-.7-.931H22.8v-1.9a9.508,9.508,0,1,1,19.016,0v1.9h-.854c-.427,0-.7.466-.7.931V23.4a.737.737,0,0,0,.655.812l.044,0h.893l-.078.116a6.132,6.132,0,0,1-4.929,2.445,3.842,3.842,0,0,0-7.607.737,3.881,3.881,0,0,0,3.881,3.842,4,4,0,0,0,2.794-1.2,3.415,3.415,0,0,0,.931-1.863,7.684,7.684,0,0,0,6.171-3.066l.737-1.087a2.642,2.642,0,0,0,2.717-2.678V16.61C46.476,14.941,45.234,12.962,43.449,12.962ZM22.8,22.664H20.785a1.514,1.514,0,0,1-1.476-1.55c0-.014,0-.027,0-.041V16.222a1.609,1.609,0,0,1,1.475-1.708H22.8Zm11.992,6.4a2.29,2.29,0,0,1-1.669.737,2.367,2.367,0,0,1-2.329-2.29,2.29,2.29,0,0,1,4.579,0v0A2.057,2.057,0,0,1,34.795,29.068Zm10.129-7.607c0,1.048-1.009,1.2-1.475,1.2h-1.63v-8.15h1.63c.854,0,1.475,1.2,1.475,2.1Z" transform="translate(-17.756)" fill="#fff"/>
      </g>
    </g>
  </g>
</svg>
