<svg xmlns="http://www.w3.org/2000/svg" width="34" height="34" viewBox="0 0 34 34">
  <g id="home" transform="translate(-0.095 -0.174)">
    <g id="Group_38034" data-name="Group 38034" transform="translate(0)">
      <rect id="Rectangle_6914" data-name="Rectangle 6914" width="34" height="34" rx="8" transform="translate(0.095 0.174)" fill="none"/>
    </g>
    <path id="Path_37985" data-name="Path 37985" d="M165,55.632v-.764a3.874,3.874,0,0,1,1.278-1.952q5.271-5.168,10.517-10.361a3.978,3.978,0,0,1,2-1.278h.776a3.93,3.93,0,0,1,1.98,1.259q5.264,5.211,10.553,10.4a3.723,3.723,0,0,1,1.263,1.991v.655a.784.784,0,0,0-.048.125,2.578,2.578,0,0,1-2.578,2.117c-.134,0-.268,0-.417,0,0,.152,0,.26,0,.368,0,2.7.007,5.4-.006,8.1a2.982,2.982,0,0,1-2.13,2.794c-.174.053-.351.1-.527.143h-5.1a.967.967,0,0,1-.661-1.04c.013-2.081.007-4.162,0-6.243a1.39,1.39,0,0,0-1.52-1.491c-.784,0-1.568,0-2.352,0a1.4,1.4,0,0,0-1.577,1.544c0,2.063-.008,4.125.005,6.188a.969.969,0,0,1-.659,1.043h-5.1c-.023-.013-.046-.036-.07-.039a3.068,3.068,0,0,1-2.6-3.143c.037-2.628.01-5.256.01-7.885v-.339c-.193,0-.349.007-.5,0a2.549,2.549,0,0,1-2.247-1.4A5.7,5.7,0,0,1,165,55.632Z" transform="translate(-162.088 -38.155)" fill="none" stroke="#fff" stroke-width="1"/>
  </g>
</svg>
