<?xml version="1.0" encoding="utf-8"?>
<!-- Generator: Adobe Illustrator 24.3.0, SVG Export Plug-In . SVG Version: 6.00 Build 0)  -->
<svg version="1.1" id="Layer_1" xmlns="http://www.w3.org/2000/svg" xmlns:xlink="http://www.w3.org/1999/xlink" x="0px" y="0px"
	 viewBox="0 0 24 24" style="enable-background:new 0 0 24 24;" xml:space="preserve">
<style type="text/css">
	.st0{fill:#f7a456;}
	.st1{fill:#f7bd59;}
</style>
<g>
	<path class="st0" d="M5.87,9.87c0-0.09,0-0.18,0-0.27c0.01-0.96-0.02-1.92,0.02-2.88c0.14-2.86,2.2-5.23,5-5.8
		c3.54-0.72,6.93,1.6,7.5,5.15c0.06,0.39,0.08,0.79,0.08,1.18c0.01,0.79,0,1.58,0,2.37c0,0.08,0,0.17,0,0.23
		c0.28,0.06,0.53,0.1,0.77,0.18c0.84,0.3,1.33,1.06,1.34,2.03c0,1.05,0,2.09,0,3.14c0,1.93,0,3.86,0,5.79c0,0.9-0.36,1.6-1.19,1.99
		c-0.28,0.13-0.61,0.2-0.92,0.2c-4.2,0.01-8.41,0.01-12.61,0.01c-1.23,0-2.1-0.9-2.11-2.15c-0.01-1.23,0-2.45,0-3.68
		c0-1.77,0-3.54,0-5.3c0-1.04,0.57-1.83,1.51-2.09C5.46,9.93,5.64,9.91,5.87,9.87z M12.18,11.3c-2.05,0-4.09,0-6.14,0
		c-0.65,0-0.87,0.22-0.87,0.86c0,2.93,0,5.86,0,8.79c0,0.63,0.23,0.86,0.86,0.86c4.1,0,8.2,0,12.31,0c0.62,0,0.86-0.23,0.86-0.86
		c0-2.94,0-5.88,0-8.82c0-0.61-0.23-0.84-0.85-0.84C16.29,11.3,14.23,11.3,12.18,11.3z M17.07,9.89c0-1.03,0.03-2.03-0.01-3.03
		c-0.1-3.03-2.97-5.23-5.93-4.57C8.83,2.81,7.3,4.72,7.28,7.12c-0.01,0.85,0,1.69,0,2.54c0,0.07,0.01,0.15,0.01,0.23
		C10.56,9.89,13.8,9.89,17.07,9.89z"/>
	<path class="st1" d="M11.48,18.32c0-0.04,0-0.08,0-0.12c0.06-0.45-0.03-0.76-0.51-1.02c-0.83-0.46-1.11-1.55-0.75-2.48
		c0.34-0.88,1.28-1.43,2.22-1.29c1,0.15,1.69,0.83,1.82,1.8c0.13,0.94-0.35,1.77-1.25,2.2c-0.07,0.03-0.13,0.14-0.13,0.22
		c-0.01,0.44,0,0.88-0.01,1.33c0,0.47-0.27,0.75-0.71,0.74c-0.42-0.01-0.68-0.28-0.69-0.74C11.48,18.75,11.48,18.54,11.48,18.32z
		 M12.16,16.2c0.42,0.01,0.71-0.26,0.71-0.68c0.01-0.42-0.27-0.71-0.68-0.71c-0.41-0.01-0.71,0.27-0.71,0.69
		C11.47,15.91,11.75,16.19,12.16,16.2z"/>
</g>
</svg>
