<?xml version="1.0" encoding="utf-8"?>
<!-- Generator: Adobe Illustrator 24.3.0, SVG Export Plug-In . SVG Version: 6.00 Build 0)  -->
<svg version="1.1" id="Layer_1" xmlns="http://www.w3.org/2000/svg" xmlns:xlink="http://www.w3.org/1999/xlink" x="0px" y="0px"
	 viewBox="0 0 24 24" style="enable-background:new 0 0 24 24;" xml:space="preserve">
<style type="text/css">
	.st0{fill:#f7a456;}
	.st1{fill:#f7bd59;}
</style>
<g id="add_cash" transform="translate(-704 -284)">
	<path id="Path_45260" class="st0" d="M727.61,296.68c-0.06,0.45-0.11,0.9-0.18,1.34c-0.28,1.58-0.88,3.09-1.78,4.42
		c-0.27,0.42-0.83,0.54-1.25,0.27c-0.42-0.27-0.54-0.83-0.27-1.25c0.01-0.01,0.01-0.02,0.02-0.02c0.75-1.1,1.25-2.34,1.48-3.64
		c0.74-3.7-0.76-7.49-3.84-9.67c-1.78-1.36-4-2.04-6.24-1.9c-5.4,0.25-9.58,4.83-9.33,10.23c0.19,4.11,2.93,7.67,6.86,8.89
		c2.63,0.85,5.51,0.53,7.88-0.9c0.22-0.15,0.49-0.21,0.75-0.17c0.49,0.1,0.81,0.57,0.71,1.06c-0.05,0.26-0.21,0.48-0.44,0.61
		c-0.95,0.59-1.99,1.02-3.08,1.29c-0.66,0.15-1.34,0.23-2.01,0.34c-0.06,0.01-0.12,0.03-0.17,0.04h-1.45
		c-0.06-0.01-0.12-0.03-0.17-0.04c-0.54-0.08-1.1-0.12-1.63-0.24c-4.57-1.02-8.08-4.69-8.89-9.3c-0.07-0.43-0.12-0.87-0.18-1.3
		v-1.45c0.01-0.07,0.03-0.13,0.04-0.2c0.08-0.52,0.12-1.05,0.23-1.57c1.01-4.59,4.68-8.12,9.31-8.94c0.43-0.07,0.87-0.12,1.3-0.18
		h1.45c0.06,0.01,0.12,0.03,0.18,0.04c0.6,0.09,1.2,0.15,1.79,0.28c4.51,1.07,7.95,4.72,8.74,9.29c0.07,0.42,0.12,0.85,0.18,1.28
		V296.68z"/>
	<path id="Path_45261" class="st1" d="M715.09,295.09c0-1.07,0-2.11,0-3.16c0-0.5,0.41-0.9,0.91-0.9c0.5,0,0.9,0.41,0.9,0.91
		c0,0.95,0,1.9,0,2.86v0.29h3.1c0.5-0.04,0.94,0.33,0.98,0.83c0.04,0.5-0.33,0.94-0.83,0.98c-0.04,0-0.09,0-0.13,0
		c-0.94,0-1.89,0-2.83,0h-0.27v0.25c0,0.94,0,1.89,0,2.83c0.05,0.5-0.32,0.94-0.82,0.99c-0.5,0.05-0.94-0.32-0.99-0.82
		c-0.01-0.05-0.01-0.11,0-0.16c0-1.02,0-2.04,0-3.09h-0.25c-0.97,0-1.95,0-2.92,0c-0.42,0.01-0.79-0.29-0.89-0.7
		c-0.1-0.4,0.09-0.81,0.45-0.99c0.16-0.07,0.33-0.11,0.5-0.11c0.94-0.01,1.89,0,2.83,0L715.09,295.09z"/>
</g>
</svg>
