<?xml version="1.0" encoding="utf-8"?>
<!-- Generator: Adobe Illustrator 24.3.0, SVG Export Plug-In . SVG Version: 6.00 Build 0)  -->
<svg version="1.1" id="Layer_1" xmlns="http://www.w3.org/2000/svg" xmlns:xlink="http://www.w3.org/1999/xlink" x="0px" y="0px"
	 viewBox="0 0 24 24" style="enable-background:new 0 0 24 24;" xml:space="preserve">
<style type="text/css">
	.st0{fill:#f7a456;}
	.st1{fill:#f7bd59;}
</style>
<g>
	<path class="st0" d="M5.68,21.8c-0.2-0.06-0.42-0.11-0.61-0.19c-0.75-0.34-1.17-0.91-1.17-1.76c0-4.61,0-9.23,0-13.84
		c0-1.15,0.9-2.07,2.06-2.09c0.61-0.01,1.22,0,1.86,0c0-0.23,0-0.46,0-0.68c0-0.38,0.13-0.52,0.52-0.53c0.43-0.01,0.86-0.01,1.29,0
		c0.1,0,0.17-0.02,0.22-0.13c0.42-0.89,1.13-1.35,2.12-1.34c0.98,0.01,1.73,0.41,2.15,1.34c0.03,0.06,0.12,0.12,0.19,0.12
		c0.4,0.01,0.81,0,1.21,0.01c0.11,0,0.23,0.01,0.34,0.04c0.23,0.06,0.32,0.18,0.32,0.42c0,0.25,0,0.49,0,0.76c0.24,0,0.46,0,0.68,0
		c0.5,0.01,1.01-0.02,1.51,0.04c0.98,0.12,1.74,1,1.74,1.99c0,4.66,0,9.32,0,13.98c0,0.9-0.68,1.65-1.62,1.83
		c-0.05,0.01-0.1,0.03-0.15,0.04C14.11,21.8,9.89,21.8,5.68,21.8z M16.17,4.91c0,0.35,0,0.69,0,1.03c0,0.48-0.19,0.66-0.67,0.66
		c-2.34,0-4.68,0-7.02,0C8,6.61,7.83,6.43,7.83,5.95c0-0.35,0-0.69,0-1.04C7.76,4.9,7.72,4.89,7.68,4.89c-0.6,0-1.21-0.02-1.81,0.02
		C5.29,4.94,4.88,5.43,4.88,6.03c0,4.6,0,9.2,0,13.8c0,0.46,0.22,0.78,0.66,0.91c0.18,0.05,0.37,0.07,0.55,0.07
		c3.93,0,7.86,0,11.79,0c0.1,0,0.2,0,0.3-0.02c0.62-0.08,0.93-0.43,0.93-1.05c0-4.55,0-9.09,0-13.64c0-0.05,0-0.11,0-0.16
		c-0.02-0.53-0.42-1.01-0.94-1.04C17.52,4.88,16.87,4.91,16.17,4.91z M8.82,5.62c2.13,0,4.24,0,6.35,0c0-0.65,0-1.29,0-1.95
		c-0.41,0-0.82,0-1.22,0c-0.42,0-0.56-0.11-0.67-0.51c-0.19-0.67-0.81-1.09-1.47-1.02c-0.55,0.06-1.02,0.48-1.18,1.05
		c-0.1,0.36-0.26,0.48-0.63,0.48c-0.11,0-0.23,0-0.34,0c-0.28,0-0.56,0-0.84,0C8.82,4.34,8.82,4.97,8.82,5.62z"/>
	<path class="st1" d="M14.33,9.3c0.92,0,1.84,0,2.75,0c0.33,0,0.55,0.2,0.55,0.48c0,0.24-0.16,0.44-0.4,0.48
		c-0.07,0.01-0.13,0.01-0.2,0.01c-1.81,0-3.62,0-5.43,0c-0.35,0-0.55-0.15-0.58-0.42c-0.04-0.32,0.18-0.55,0.53-0.56
		C12.48,9.3,13.41,9.3,14.33,9.3z"/>
	<path class="st1" d="M14.34,17.14c0.9,0,1.81,0,2.71,0c0.23,0,0.42,0.07,0.53,0.29c0.14,0.28-0.02,0.61-0.32,0.68
		c-0.06,0.02-0.13,0.02-0.2,0.02c-1.83,0-3.66,0-5.49,0c-0.32,0-0.53-0.17-0.55-0.44c-0.03-0.32,0.19-0.54,0.54-0.55
		c0.71,0,1.42,0,2.13,0C13.92,17.14,14.13,17.14,14.34,17.14z"/>
	<path class="st1" d="M14.34,13.23c0.92,0,1.84,0,2.75,0c0.3,0,0.5,0.15,0.54,0.4c0.05,0.29-0.16,0.55-0.45,0.57
		c-0.09,0.01-0.19,0-0.28,0c-1.77,0-3.54,0-5.31,0c-0.34,0-0.55-0.18-0.57-0.46c-0.01-0.3,0.19-0.51,0.52-0.51
		c0.64-0.01,1.29,0,1.93,0C13.76,13.23,14.05,13.23,14.34,13.23z"/>
	<path class="st1" d="M7.89,13.6c0.48-0.45,0.97-0.93,1.48-1.4c0.22-0.21,0.48-0.23,0.69-0.07c0.26,0.2,0.28,0.51,0.02,0.76
		c-0.55,0.52-1.1,1.04-1.65,1.56c-0.09,0.08-0.17,0.17-0.26,0.25c-0.21,0.17-0.46,0.17-0.65-0.02c-0.34-0.33-0.67-0.67-1-1.02
		c-0.21-0.22-0.2-0.53-0.01-0.72c0.2-0.19,0.48-0.17,0.7,0.05C7.43,13.18,7.65,13.38,7.89,13.6z"/>
	<path class="st1" d="M7.87,9.7c0.5-0.48,1-0.95,1.5-1.43c0.22-0.21,0.46-0.24,0.67-0.09c0.26,0.18,0.31,0.51,0.08,0.73
		c-0.64,0.62-1.3,1.24-1.95,1.85c-0.2,0.19-0.46,0.17-0.65-0.02c-0.34-0.33-0.67-0.67-1-1.02C6.31,9.51,6.31,9.2,6.51,9.01
		C6.7,8.83,7,8.85,7.22,9.07c0.2,0.2,0.4,0.41,0.6,0.62C7.83,9.69,7.84,9.69,7.87,9.7z"/>
	<path class="st1" d="M7.89,17.52c0.48-0.46,0.98-0.94,1.49-1.41c0.22-0.21,0.47-0.23,0.69-0.06c0.23,0.19,0.27,0.49,0.06,0.7
		c-0.64,0.62-1.3,1.24-1.95,1.85c-0.21,0.19-0.46,0.18-0.66-0.03c-0.33-0.33-0.65-0.66-0.97-0.99c-0.22-0.23-0.23-0.54-0.03-0.74
		c0.19-0.19,0.5-0.16,0.73,0.06C7.44,17.11,7.65,17.31,7.89,17.52z"/>
</g>
</svg>
