<?xml version="1.0" encoding="utf-8"?>
<!-- Generator: Adobe Illustrator 24.3.0, SVG Export Plug-In . SVG Version: 6.00 Build 0)  -->
<svg version="1.1" id="Layer_1" xmlns="http://www.w3.org/2000/svg" xmlns:xlink="http://www.w3.org/1999/xlink" x="0px" y="0px"
	 viewBox="0 0 24 24" style="enable-background:new 0 0 24 24;" xml:space="preserve">
<style type="text/css">
	.st0{fill:#f7a456;}
	.st1{fill:#f7bd59;}
</style>
<g>
	<path class="st0" d="M1.69,22.24c0.04-0.64,0.04-1.26,0.12-1.87c0.47-3.56,2.56-6.02,5.8-7.68c0.47-0.24,0.96-0.44,1.45-0.64
		c0.1-0.04,0.25-0.03,0.35,0.02c2.04,0.98,4.08,0.98,6.13-0.01c0.08-0.04,0.2-0.08,0.28-0.05c0.95,0.35,1.88,0.72,2.68,1.33
		c0.22,0.17,0.28,0.38,0.18,0.6c-0.1,0.21-0.33,0.33-0.56,0.27c-0.1-0.02-0.2-0.08-0.29-0.14c-0.58-0.41-1.21-0.73-1.89-0.96
		c-0.1-0.03-0.24-0.04-0.33,0c-2.1,0.86-4.19,0.87-6.28,0c-0.07-0.03-0.19-0.04-0.26-0.01c-2.01,0.84-3.73,2.01-4.93,3.79
		c-0.87,1.29-1.29,2.72-1.39,4.24c0,0.04,0,0.08,0,0.15c0.11,0,0.21,0,0.31,0c3.31,0,6.62,0,9.93,0c0.09,0,0.19,0,0.28,0
		c0.28,0.02,0.48,0.21,0.48,0.46c0.01,0.27-0.19,0.47-0.48,0.5c-0.06,0.01-0.12,0-0.18,0c-3.7,0-7.4,0-11.1,0
		C1.92,22.24,1.83,22.24,1.69,22.24z"/>
	<path class="st0" d="M17.55,6.59c0,2.67-2.28,4.83-5.08,4.83c-2.8,0-5.07-2.18-5.06-4.85c0.01-2.67,2.28-4.82,5.1-4.82
		C15.29,1.76,17.55,3.93,17.55,6.59z M16.54,6.6c0-2.14-1.81-3.87-4.05-3.88c-2.25,0-4.06,1.72-4.07,3.86
		c0,2.14,1.81,3.87,4.05,3.88C14.71,10.46,16.53,8.73,16.54,6.6z"/>
	<path class="st1" d="M15.01,22.24c0-0.59,0-1.15,0-1.71c0-1.36-0.11-1.1,0.91-2.07c1.22-1.17,2.45-2.33,3.68-3.5
		c0.74-0.71,1.62-0.7,2.36,0c0.27,0.26,0.54,0.51,0.8,0.77c0.59,0.59,0.61,1.44,0.01,2.02c-1.46,1.41-2.93,2.81-4.41,4.2
		c-0.16,0.15-0.43,0.27-0.65,0.27C16.83,22.26,15.94,22.24,15.01,22.24z M16.03,21.28c0.53,0,1.03,0,1.53,0
		c0.07,0,0.16-0.05,0.21-0.1c1.41-1.34,2.82-2.68,4.23-4.03c0.27-0.26,0.26-0.52,0-0.78c-0.27-0.26-0.53-0.52-0.81-0.77
		c-0.27-0.25-0.55-0.25-0.82,0.01c-1.41,1.33-2.81,2.67-4.22,4c-0.05,0.05-0.12,0.13-0.12,0.2C16.02,20.28,16.03,20.76,16.03,21.28z
		"/>
</g>
</svg>
