<?xml version="1.0" encoding="utf-8"?>
<!-- Generator: Adobe Illustrator 24.3.0, SVG Export Plug-In . SVG Version: 6.00 Build 0)  -->
<svg version="1.1" id="Layer_1" xmlns="http://www.w3.org/2000/svg" xmlns:xlink="http://www.w3.org/1999/xlink" x="0px" y="0px"
	 viewBox="0 0 24 24" style="enable-background:new 0 0 24 24;" xml:space="preserve">
<style type="text/css">
	.st0{fill:#f7a456;}
	.st1{fill:#f7bd59;}
</style>
<g>
	<path class="st0" d="M22.93,9.69c-0.09,0.45-0.14,0.9-0.27,1.33c-0.15,0.5-0.34,1-0.55,1.48c-0.22,0.49-0.67,0.65-1.08,0.44
		c-0.44-0.22-0.58-0.72-0.36-1.19c0.38-0.79,0.63-1.62,0.63-2.51c0-1.38-0.51-2.57-1.36-3.63c-0.72-0.88-1.59-1.55-2.69-1.88
		c-1.13-0.34-2.14-0.11-3.05,0.62c-0.36,0.29-0.71,0.6-1.06,0.9c-0.71,0.61-1.55,0.62-2.27,0.01c-0.3-0.25-0.6-0.51-0.89-0.76
		C8.83,3.49,7.54,3.28,6.19,3.95C4.03,5.03,2.79,6.78,2.71,9.23c-0.04,1.21,0.44,2.3,1.07,3.31c0.73,1.17,1.68,2.14,2.67,3.08
		c1.7,1.6,3.55,3,5.43,4.36c0.12,0.09,0.2,0.07,0.3-0.02c0.25-0.21,0.53-0.34,0.87-0.23c0.3,0.1,0.49,0.3,0.55,0.6
		c0.06,0.31-0.01,0.59-0.26,0.79c-0.4,0.31-0.82,0.59-1.24,0.88c-0.04,0.03-0.14,0.02-0.18-0.02c-2.78-1.96-5.52-3.98-7.86-6.47
		c-0.8-0.85-1.53-1.77-2.06-2.82c-0.55-1.08-0.93-2.22-0.92-3.46c0.01-1.87,0.7-3.47,1.91-4.87C3.94,3.26,5.11,2.46,6.55,2.1
		c1.6-0.4,3.03-0.02,4.31,1c0.39,0.31,0.76,0.64,1.15,0.97c0.33-0.28,0.65-0.55,0.97-0.82c1.74-1.53,3.87-1.72,5.9-0.6
		c2.24,1.23,3.58,3.14,4.01,5.67c0.02,0.11,0.04,0.22,0.06,0.34C22.93,9,22.93,9.34,22.93,9.69z"/>
	<path class="st1" d="M22.93,17.86c-0.08,0.36-0.14,0.73-0.25,1.07c-0.69,2.04-2.58,3.28-4.77,3.11c-1.99-0.16-3.7-1.62-4.12-3.72
		c-0.51-2.6,1.33-5.12,3.96-5.44c2.55-0.31,4.82,1.46,5.14,4c0.01,0.04,0.03,0.08,0.04,0.12C22.93,17.29,22.93,17.58,22.93,17.86z
		 M15.33,17.47c0.02,1.69,1.36,3,3.05,2.97c1.64-0.02,2.94-1.38,2.93-3.03c-0.02-1.65-1.38-2.96-3.07-2.93
		C16.64,14.5,15.31,15.87,15.33,17.47z"/>
	<path class="st0" d="M17.5,16.65c0-0.28-0.01-0.52,0-0.77c0.02-0.46,0.39-0.81,0.84-0.8c0.44,0.01,0.78,0.36,0.79,0.82
		c0,0.16,0,0.33,0,0.49c0,0.07,0,0.14,0,0.26c0.27,0,0.53-0.01,0.79,0c0.38,0.02,0.67,0.26,0.75,0.62c0.11,0.46-0.18,0.91-0.65,0.98
		c-0.2,0.03-0.4,0.02-0.6,0.02c-0.09,0-0.18,0-0.29,0c0,0.25,0,0.48,0,0.71c-0.01,0.49-0.34,0.85-0.8,0.85
		c-0.47,0.01-0.82-0.35-0.83-0.85c0-0.23,0-0.45,0-0.71c-0.26,0-0.5,0.01-0.74,0c-0.33-0.01-0.59-0.15-0.74-0.46
		c-0.14-0.29-0.11-0.57,0.07-0.83c0.15-0.22,0.37-0.33,0.64-0.33C16.99,16.65,17.23,16.65,17.5,16.65z"/>
</g>
</svg>
