<?xml version="1.0" encoding="utf-8"?>
<!-- Generator: Adobe Illustrator 24.3.0, SVG Export Plug-In . SVG Version: 6.00 Build 0)  -->
<svg version="1.1" id="Layer_1" xmlns="http://www.w3.org/2000/svg" xmlns:xlink="http://www.w3.org/1999/xlink" x="0px" y="0px"
	 viewBox="0 0 24 24" style="enable-background:new 0 0 24 24;" xml:space="preserve">
<style type="text/css">
	.st0{fill:#f7a456;}
	.st1{fill:#f7bd59;}
</style>
<g>
	<path class="st0" d="M16.19,1.14c0.08,0.03,0.15,0.06,0.23,0.1c0.45,0.22,0.64,0.59,0.64,1.08c0,4.28,0,8.57,0,12.85
		c0,0.73-0.44,1.16-1.16,1.17c-0.66,0.01-1.33,0-1.99,0c-0.02,0-0.04-0.01-0.08-0.01c0-0.23,0-0.45,0-0.71c0.08,0,0.16,0,0.23,0
		c0.57,0,1.13,0,1.7,0c0.5,0,0.58-0.08,0.58-0.57c0-2.52,0-5.03,0-7.55c0-1.69,0-3.38,0-5.07c0-0.46-0.1-0.56-0.56-0.56
		c-2.53,0-5.06,0-7.59,0c-0.43,0-0.53,0.11-0.53,0.54c0,4.23,0,8.45,0,12.68c0,0.44,0.1,0.53,0.54,0.53c0.58,0,1.16,0,1.74,0
		c0.08,0,0.15,0,0.24,0c0,0.25,0,0.47,0,0.71c-0.07,0.01-0.13,0.01-0.19,0.01c-0.61,0-1.23,0-1.84,0c-0.77,0-1.2-0.43-1.21-1.21
		c0-4.25,0-8.51,0-12.76c0-0.63,0.3-1.02,0.87-1.22C10.6,1.14,13.4,1.14,16.19,1.14z"/>
	<path class="st0" d="M22.85,14.04c-0.03,0.06-0.05,0.11-0.08,0.17c-0.17,0.4-0.46,0.67-0.9,0.67c-1.34,0.02-2.68,0.01-4.03,0.01
		c-0.01,0-0.03-0.01-0.05-0.02c0-0.22,0-0.44,0-0.7c0.08,0,0.16,0,0.25,0c1.19,0,2.39,0,3.58,0c0.39,0,0.5-0.12,0.5-0.51
		c0-3.28,0-6.56,0-9.83c0-0.4-0.12-0.51-0.52-0.51c-1.19,0-2.37,0-3.56,0c-0.08,0-0.15,0-0.24,0c0-0.25,0-0.47,0-0.72
		c0.09,0,0.16,0,0.24,0c1.14,0,2.29,0.02,3.43-0.01c0.68-0.01,1.16,0.22,1.38,0.89C22.85,7,22.85,10.52,22.85,14.04z"/>
	<path class="st0" d="M10.91,20.04c0-0.14,0-0.22,0-0.31c0-1.33,0-2.66,0-3.99c0-0.49,0.17-0.89,0.63-1.11
		c0.66-0.32,1.44,0.11,1.53,0.84c0.03,0.23,0.02,0.47,0.02,0.7c0,0.42,0,0.85,0,1.29c0.21,0,0.41-0.03,0.6,0.01
		c0.17,0.03,0.32,0.19,0.48,0.19c0.16,0,0.31-0.15,0.48-0.2c0.3-0.09,0.59-0.03,0.85,0.14c0.1,0.07,0.16,0.07,0.26,0.01
		c0.74-0.47,1.66,0.02,1.68,0.9c0.02,1.31,0.01,2.61,0,3.92c0,0.28-0.14,0.42-0.42,0.42c-1.89,0-3.79,0-5.68,0
		c-0.11,0-0.24-0.05-0.33-0.12c-0.72-0.5-1.43-1.01-2.14-1.52c-0.49-0.36-0.61-0.93-0.31-1.4c0.3-0.46,0.91-0.61,1.42-0.33
		C10.27,19.65,10.57,19.84,10.91,20.04z M16.69,22.13c0-0.06,0.01-0.11,0.01-0.15c0-1.12,0-2.25,0-3.37c0-0.06,0-0.13-0.02-0.19
		c-0.05-0.16-0.16-0.27-0.34-0.27c-0.18,0-0.3,0.11-0.35,0.28c-0.01,0.05-0.02,0.1-0.03,0.15c-0.05,0.18-0.16,0.28-0.35,0.28
		c-0.19,0-0.3-0.11-0.34-0.29c-0.01-0.05-0.02-0.11-0.04-0.17c-0.05-0.17-0.18-0.26-0.35-0.26c-0.17,0-0.29,0.1-0.34,0.27
		c-0.01,0.05-0.02,0.1-0.03,0.14c-0.04,0.19-0.16,0.3-0.36,0.29c-0.18-0.01-0.3-0.11-0.34-0.29c-0.01-0.06-0.02-0.11-0.04-0.17
		c-0.05-0.16-0.17-0.25-0.33-0.25c-0.17,0-0.3,0.09-0.35,0.26c-0.02,0.07-0.02,0.16-0.05,0.23c-0.06,0.15-0.18,0.23-0.35,0.23
		c-0.16-0.01-0.28-0.1-0.32-0.26c-0.02-0.09-0.02-0.18-0.02-0.27c0-0.83,0-1.67,0-2.5c0-0.09,0-0.18-0.02-0.27
		c-0.04-0.18-0.19-0.3-0.36-0.29c-0.18,0.01-0.3,0.12-0.33,0.3c-0.01,0.09-0.02,0.18-0.02,0.27c0,1.55,0,3.11,0,4.66
		c0,0.18,0.01,0.38-0.18,0.49c-0.19,0.11-0.35,0.01-0.51-0.08c-0.42-0.25-0.83-0.5-1.25-0.75c-0.08-0.05-0.18-0.11-0.25-0.09
		c-0.12,0.04-0.25,0.11-0.31,0.21c-0.08,0.13,0.02,0.25,0.14,0.34c0.68,0.49,1.35,0.97,2.04,1.45c0.07,0.05,0.17,0.06,0.26,0.06
		c0.99,0,1.98,0,2.97,0C15.24,22.13,15.95,22.13,16.69,22.13z"/>
	<path class="st0" d="M6.19,14.17c0,0.25,0,0.48,0,0.71c-0.08,0-0.15,0.01-0.22,0.01c-1.21,0-2.42,0-3.62,0
		c-0.78,0-1.21-0.44-1.21-1.22c0-3.29,0-6.57,0-9.86c0-0.78,0.44-1.22,1.22-1.22c1.2,0,2.4,0,3.6,0c0.07,0,0.14,0,0.22,0
		c0,0.24,0,0.47,0,0.72c-0.08,0-0.16,0-0.23,0c-1.19,0-2.37,0-3.56,0c-0.41,0-0.53,0.12-0.53,0.53c0,3.27,0,6.54,0,9.81
		c0,0.4,0.11,0.51,0.52,0.51c1.19,0,2.37,0,3.56,0C6.01,14.17,6.09,14.17,6.19,14.17z"/>
	<path class="st1" d="M12.02,11.65c0.4,0,0.79-0.02,1.19,0.01c0.55,0.04,0.96,0.51,0.96,1.05c0,0.55-0.39,1.05-0.94,1.07
		c-0.82,0.04-1.64,0.04-2.46,0c-0.55-0.02-0.94-0.52-0.94-1.07c0-0.55,0.41-1.02,0.96-1.05C11.2,11.63,11.61,11.65,12.02,11.65z
		 M12.02,12.36c-0.35,0-0.69,0-1.04,0c-0.27,0-0.43,0.14-0.43,0.36c0,0.21,0.16,0.35,0.42,0.36c0.68,0.01,1.37,0.01,2.05,0
		c0.26,0,0.41-0.14,0.42-0.36c0-0.22-0.15-0.36-0.43-0.36C12.68,12.36,12.35,12.36,12.02,12.36z"/>
	<path class="st1" d="M6.2,11.64c-0.17,0-0.32,0-0.47,0c-0.56,0-1.12,0-1.67,0c-0.24,0-0.38,0.14-0.38,0.34
		c-0.01,0.19,0.11,0.33,0.31,0.36c0.08,0.01,0.15,0.01,0.23,0.01c0.57,0,1.14,0,1.72,0c0.08,0,0.15,0,0.25,0c0,0.24,0,0.47,0,0.7
		c-0.02,0.01-0.03,0.02-0.04,0.02c-0.74,0-1.48,0.02-2.22-0.02C3.35,13.04,2.95,12.56,2.95,12c0-0.56,0.4-1.03,0.97-1.06
		c0.71-0.04,1.43-0.02,2.14-0.02c0.05,0,0.13,0.08,0.13,0.13C6.21,11.23,6.2,11.41,6.2,11.64z"/>
	<path class="st1" d="M17.8,11.63c0-0.24,0-0.46,0-0.68c0.02-0.01,0.03-0.03,0.04-0.03c0.74,0,1.48-0.02,2.22,0.02
		c0.57,0.03,0.97,0.5,0.97,1.06c0,0.56-0.4,1.04-0.97,1.07c-0.75,0.03-1.51,0.01-2.27,0.01c0-0.23,0-0.46,0-0.7
		c0.09,0,0.16-0.01,0.24-0.01c0.59,0,1.17,0,1.76,0c0.08,0,0.17,0,0.25-0.02c0.17-0.04,0.26-0.16,0.26-0.34
		c0-0.18-0.09-0.3-0.26-0.34c-0.09-0.02-0.18-0.02-0.27-0.02c-0.58,0-1.16,0-1.74,0C17.96,11.64,17.89,11.63,17.8,11.63z"/>
	<path class="st1" d="M9.84,9.45c0-0.23,0-0.46,0-0.69c1.43,0,2.86,0,4.31,0c0,0.22,0,0.45,0,0.69C12.72,9.45,11.29,9.45,9.84,9.45z
		"/>
	<path class="st1" d="M14.15,2.97c0,0.24,0,0.46,0,0.69c-0.96,0-1.91,0-2.87,0c0-0.23,0-0.46,0-0.69
		C12.24,2.97,13.18,2.97,14.15,2.97z"/>
	<path class="st1" d="M10.56,10.2c0.96,0,1.91,0,2.86,0c0,0.24,0,0.46,0,0.7c-0.96,0-1.9,0-2.86,0
		C10.56,10.66,10.56,10.44,10.56,10.2z"/>
	<path class="st1" d="M11.65,8c0-0.23,0-0.46,0-0.7c0.83,0,1.66,0,2.5,0c0,0.23,0,0.46,0,0.7C13.32,8,12.49,8,11.65,8z"/>
	<path class="st1" d="M20.31,4.05c0,0.24,0,0.46,0,0.7c-0.83,0-1.66,0-2.5,0c0-0.23,0-0.46,0-0.7C18.64,4.05,19.46,4.05,20.31,4.05z
		"/>
	<path class="st1" d="M6.19,8.03c0,0.23,0,0.46,0,0.69c-0.71,0-1.42,0-2.14,0c0-0.23,0-0.45,0-0.69C4.76,8.03,5.47,8.03,6.19,8.03z"
		/>
	<path class="st1" d="M17.8,8.73c0-0.24,0-0.47,0-0.7c0.6,0,1.18,0,1.77,0c0,0.23,0,0.46,0,0.7C18.99,8.73,18.4,8.73,17.8,8.73z"/>
	<path class="st1" d="M11.65,4.77c0.24,0,0.46,0,0.7,0c0,0.48,0,0.95,0,1.43c-0.23,0-0.46,0-0.7,0C11.65,5.72,11.65,5.25,11.65,4.77
		z"/>
	<path class="st1" d="M9.45,6.2c-0.24,0-0.46,0-0.69,0c0-0.47,0-0.94,0-1.42c0.22,0,0.45,0,0.69,0C9.45,5.25,9.45,5.71,9.45,6.2z"/>
	<path class="st1" d="M14.55,4.77c0.23,0,0.45,0,0.69,0c0,0.48,0,0.94,0,1.42c-0.23,0-0.45,0-0.69,0
		C14.55,5.73,14.55,5.26,14.55,4.77z"/>
	<path class="st1" d="M10.2,4.77c0.24,0,0.46,0,0.69,0c0,0.47,0,0.94,0,1.42c-0.23,0-0.45,0-0.69,0C10.2,5.72,10.2,5.25,10.2,4.77z"
		/>
	<path class="st1" d="M13.79,6.2c-0.23,0-0.45,0-0.69,0c0-0.47,0-0.94,0-1.42c0.23,0,0.45,0,0.69,0C13.79,5.25,13.79,5.71,13.79,6.2
		z"/>
	<path class="st1" d="M6.19,9.48c0,0.23,0,0.46,0,0.69c-0.48,0-0.94,0-1.42,0c0-0.23,0-0.45,0-0.69C5.24,9.48,5.71,9.48,6.19,9.48z"
		/>
	<path class="st1" d="M3.29,6.92c-0.24,0-0.47,0-0.7,0c0-0.36,0-0.7,0-1.06c0.24,0,0.46,0,0.7,0C3.29,6.22,3.29,6.56,3.29,6.92z"/>
	<path class="st1" d="M19.95,6.92c-0.24,0-0.47,0-0.7,0c0-0.36,0-0.7,0-1.06c0.23,0,0.46,0,0.7,0C19.95,6.21,19.95,6.56,19.95,6.92z
		"/>
	<path class="st1" d="M21.4,5.86c0,0.36,0,0.7,0,1.06c-0.24,0-0.47,0-0.7,0c0-0.35,0-0.7,0-1.06C20.92,5.86,21.15,5.86,21.4,5.86z"
		/>
	<path class="st1" d="M6.2,5.86c0,0.36,0,0.69,0,1.05c-0.24,0-0.46,0-0.7,0c0-0.35,0-0.69,0-1.05C5.72,5.86,5.95,5.86,6.2,5.86z"/>
	<path class="st1" d="M4.74,6.92c-0.23,0-0.45,0-0.69,0c0-0.36,0-0.7,0-1.06c0.23,0,0.46,0,0.69,0C4.74,6.21,4.74,6.56,4.74,6.92z"
		/>
	<path class="st1" d="M17.8,6.92c0-0.35,0-0.7,0-1.06c0.23,0,0.46,0,0.7,0c0,0.35,0,0.7,0,1.06C18.27,6.92,18.04,6.92,17.8,6.92z"/>
	<path class="st1" d="M5.13,4.05c0.36,0,0.7,0,1.06,0c0,0.23,0,0.46,0,0.7c-0.35,0-0.7,0-1.06,0C5.13,4.51,5.13,4.29,5.13,4.05z"/>
	<path class="st1" d="M9.83,8c0-0.24,0-0.45,0-0.69c0.35,0,0.7,0,1.06,0c0,0.23,0,0.45,0,0.69C10.55,8,10.2,8,9.83,8z"/>
	<path class="st1" d="M18.86,10.18c-0.35,0-0.69,0-1.05,0c0-0.23,0-0.46,0-0.7c0.35,0,0.69,0,1.05,0
		C18.86,9.71,18.86,9.94,18.86,10.18z"/>
	<path class="st1" d="M10.54,2.97c0,0.24,0,0.47,0,0.7c-0.23,0-0.46,0-0.7,0c0-0.23,0-0.46,0-0.7C10.07,2.97,10.3,2.97,10.54,2.97z"
		/>
	<path class="st1" d="M4.39,4.05c0,0.24,0,0.45,0,0.69c-0.23,0-0.46,0-0.7,0c0-0.23,0-0.45,0-0.69C3.92,4.05,4.14,4.05,4.39,4.05z"
		/>
</g>
</svg>
