<?xml version="1.0" encoding="utf-8"?>
<!-- Generator: Adobe Illustrator 24.3.0, SVG Export Plug-In . SVG Version: 6.00 Build 0)  -->
<svg version="1.1" id="Layer_1" xmlns="http://www.w3.org/2000/svg" xmlns:xlink="http://www.w3.org/1999/xlink" x="0px" y="0px"
	 viewBox="0 0 24 24" style="enable-background:new 0 0 24 24;" xml:space="preserve">
<style type="text/css">
	.st0{fill:#f7a456;}
	.st1{fill:#f7bd59;}
</style>
<g>
	<path class="st0" d="M0.82,10.78C1.84,9.9,2.85,9.03,3.86,8.15C6.54,5.83,9.22,3.5,11.9,1.17c0.03-0.02,0.06-0.04,0.1-0.08
		c0.26,0.23,0.53,0.45,0.79,0.68c3.44,2.99,6.88,5.97,10.31,8.96c0.02,0.02,0.05,0.03,0.07,0.05c0,0.01,0,0.03,0,0.04
		c-0.33,0.37-0.66,0.74-0.98,1.1c-0.05,0.05-0.1,0.11-0.16,0.18c-0.34-0.29-0.67-0.58-1.04-0.9c0,0.13,0,0.21,0,0.3
		c0,2.73,0,5.46,0,8.19c0,1.2-0.67,2.18-1.75,2.55c-0.2,0.07-0.42,0.13-0.64,0.14c-1.03,0.02-2.07,0.01-3.1,0.01
		c-0.07,0-0.14,0-0.24,0c0.02-0.04,0.03-0.07,0.05-0.09c0.45-0.52,0.9-1.05,1.36-1.56c0.05-0.05,0.15-0.09,0.22-0.09
		c0.47-0.01,0.95,0,1.42-0.01c0.57,0,0.93-0.36,0.93-0.93c0-3.3,0-6.59-0.01-9.89c0-0.1-0.09-0.22-0.17-0.3
		c-1.81-1.58-3.62-3.15-5.43-4.73C13.09,4.34,12.55,3.88,12,3.4c-0.12,0.11-0.25,0.21-0.37,0.31C9.41,5.65,7.18,7.58,4.95,9.52
		C4.81,9.64,4.75,9.76,4.75,9.94c0.01,3.24,0,6.48,0,9.71c0,0.52,0.26,0.89,0.7,0.97c0.15,0.03,0.32,0.02,0.48,0.02
		c0.39,0,0.79,0,1.18,0c0.07,0,0.16,0.02,0.19,0.06c0.48,0.55,0.94,1.1,1.43,1.67c-0.07,0-0.14,0.01-0.21,0.01
		c-0.93,0-1.86,0-2.79,0c-1.59,0-2.72-1.13-2.72-2.73c0-2.72,0-5.44,0-8.16c0-0.08,0-0.16,0-0.3c-0.36,0.31-0.7,0.6-1.04,0.89
		c-0.39-0.43-0.77-0.85-1.15-1.28C0.82,10.81,0.82,10.79,0.82,10.78z"/>
	<path class="st1" d="M11.87,10.35c2.53,0.02,4.57,1.69,5.05,4.03c0.25,1.26,0.06,2.46-0.53,3.59c-0.8,1.54-1.95,2.8-3.2,3.97
		c-0.33,0.31-0.7,0.6-1.04,0.9c-0.09,0.08-0.15,0.1-0.26,0.02c-1.52-1.25-2.9-2.63-3.94-4.31c-0.82-1.32-1.2-2.73-0.82-4.27
		c0.51-2.05,1.82-3.32,3.88-3.81C11.32,10.39,11.67,10.38,11.87,10.35z M12,20.66c0.9-0.78,1.94-1.99,2.55-2.98
		c0.47-0.76,0.78-1.57,0.72-2.49c-0.11-1.73-1.57-3.12-3.29-3.09c-2.33,0.05-3.78,2.28-3.08,4.42c0.24,0.75,0.67,1.4,1.14,2.02
		C10.62,19.3,11.29,19.99,12,20.66z"/>
	<path class="st0" d="M12.01,16.67c-0.72,0.01-1.31-0.58-1.32-1.3c-0.01-0.71,0.58-1.31,1.3-1.32c0.71-0.01,1.31,0.59,1.32,1.3
		C13.31,16.07,12.73,16.67,12.01,16.67z"/>
</g>
</svg>
