<svg xmlns="http://www.w3.org/2000/svg" width="34" height="34" viewBox="0 0 34 34">
  <g id="search" transform="translate(14.905 -263.317)">
    <rect id="Rectangle_6914" data-name="Rectangle 6914" width="34" height="34" rx="8" transform="translate(-14.905 263.317)" fill="none"/>
    <path id="Path_37191" data-name="Path 37191" d="M824.529,402.989l2.112,2.108q2.711,2.71,5.423,5.418a1.085,1.085,0,0,1,.355,1.155,1.044,1.044,0,0,1-1.65.517,3.081,3.081,0,0,1-.262-.25q-3.607-3.606-7.211-7.214a1.784,1.784,0,0,1-.2-.294,11.588,11.588,0,1,1,1.429-1.44Zm-8.926,2.055a9.476,9.476,0,1,0-9.458-9.5A9.493,9.493,0,0,0,815.6,405.044Z" transform="translate(-816.161 -117.886)" fill="#fff"/>
  </g>
</svg>
