<svg xmlns="http://www.w3.org/2000/svg" width="34" height="34" viewBox="0 0 34 34">
  <g id="shop_by_category" transform="translate(-0.095 -0.117)">
    <g id="Group_38034" data-name="Group 38034" transform="translate(0)">
      <rect id="Rectangle_6914" data-name="Rectangle 6914" width="34" height="34" rx="8" transform="translate(0.095 0.117)" fill="none"/>
    </g>
    <g id="Group_38037" data-name="Group 38037" transform="translate(0.738 2.797)">
      <path id="Path_45123" data-name="Path 45123" d="M143.735,234.613v.639a.516.516,0,0,0-.046.115,4.586,4.586,0,0,1-2.537,3.605.4.4,0,0,0-.236.423q.008,6.792,0,13.583c0,.748-.293,1.042-1.042,1.042H114.854c-.754,0-1.043-.289-1.043-1.038q0-6.792,0-13.583a.423.423,0,0,0-.257-.444,4.606,4.606,0,0,1-2.48-3.335,2.182,2.182,0,0,1,.242-1.62c1.53-2.631,3.027-5.281,4.515-7.936a1.121,1.121,0,0,1,1.105-.638c1.5.017,3,.006,4.506.006q8.15,0,16.3-.008a1.2,1.2,0,0,1,1.175.688C140.513,228.954,142.128,231.781,143.735,234.613Zm-28.3,17.775h2.824v-.445c0-2.663-.005-5.327,0-7.99A2.768,2.768,0,0,1,121.224,241c.671,0,1.345-.034,2.013.012a3.649,3.649,0,0,1,1.292.285,2.65,2.65,0,0,1,1.559,2.576c.007,2.717,0,5.433,0,8.15v.356H139.3V239.5a4.774,4.774,0,0,1-4.154-2.06,4.712,4.712,0,0,1-7.761.02,4.762,4.762,0,0,1-7.8-.01,4.763,4.763,0,0,1-4.149,2.049Zm-2.069-18.673H141.37c-.033-.069-.048-.107-.068-.142q-1.8-3.164-3.59-6.331c-.11-.2-.255-.188-.426-.188q-9.923,0-19.845,0a.466.466,0,0,0-.472.276q-1.722,3.06-3.462,6.11C113.462,233.515,113.422,233.6,113.363,233.714Zm11.113,18.681c.007-.08.013-.122.013-.163q0-4.215,0-8.43a1.134,1.134,0,0,0-1.182-1.193c-.692-.01-1.384,0-2.075,0-.926,0-1.355.422-1.356,1.338q0,4.055,0,8.111v.34Zm-5.763-17.026h-6.029a3.065,3.065,0,0,0,6.029,0Zm1.754-.013a3.07,3.07,0,0,0,3.432,2.5,2.914,2.914,0,0,0,2.547-2.5Zm7.814,0a3.024,3.024,0,0,0,5.963,0Zm7.759.006a3.027,3.027,0,0,0,3.193,2.508,2.992,2.992,0,0,0,2.792-2.508Z" transform="translate(-111.021 -225.426)" fill="#fff"/>
      <path id="Path_45124" data-name="Path 45124" d="M313.335,419.163c-.692,0-1.385.006-2.077,0a2.2,2.2,0,0,1-2.329-2.319c-.01-1.065-.011-2.13,0-3.2a2.2,2.2,0,0,1,2.317-2.3q2.109-.008,4.218,0a2.2,2.2,0,0,1,2.313,2.307q.014,1.6,0,3.2a2.193,2.193,0,0,1-2.3,2.314C314.763,419.171,314.049,419.163,313.335,419.163Zm.02-1.607c.7,0,1.4,0,2.107,0,.486,0,.71-.22.712-.7q.008-1.6,0-3.193c0-.494-.228-.717-.73-.718q-2.091-.005-4.182,0c-.5,0-.725.225-.728.72q-.007,1.58,0,3.161c0,.519.216.726.745.729C311.971,417.559,312.663,417.557,313.355,417.557Z" transform="translate(-292.342 -395.766)" fill="#fff"/>
    </g>
  </g>
</svg>
