<svg xmlns="http://www.w3.org/2000/svg" width="24" height="24" viewBox="0 0 24 24">
  <g id="time" transform="translate(-216 -94.043)">
    <path id="Path_56385" data-name="Path 56385" d="M228.7,118.043H227.3a1.285,1.285,0,0,0-.181-.039,11.419,11.419,0,0,1-5.235-1.651,11.844,11.844,0,0,1-5.694-8.246c-.084-.45-.126-.907-.187-1.362v-1.406q.029-.253.057-.506A12.042,12.042,0,0,1,227.5,94.058a11.408,11.408,0,0,1,6.618,1.673,11.824,11.824,0,0,1,5.7,8.247c.084.45.126.908.187,1.362v1.406c-.019.169-.039.337-.057.506a12.037,12.037,0,0,1-9.876,10.6C229.615,117.936,229.158,117.981,228.7,118.043Zm-.71-1.864a10.137,10.137,0,1,0-10.129-10.137A10.144,10.144,0,0,0,227.993,116.179Z" transform="translate(0 0)" fill="#fff"/>
    <path id="Path_56386" data-name="Path 56386" d="M404.819,192.508c0-.893-.006-1.786,0-2.679a.92.92,0,0,1,1.246-.91.943.943,0,0,1,.594.952q0,1.628,0,3.256c0,.493.007.986,0,1.478a.369.369,0,0,0,.176.34c1.021.757,2.035,1.524,3.055,2.283a.917.917,0,1,1-1.038,1.51c-.581-.419-1.149-.856-1.723-1.286-.6-.452-1.2-.914-1.815-1.354a1.127,1.127,0,0,1-.5-1C404.826,194.232,404.819,193.37,404.819,192.508Z" transform="translate(-177.71 -89.188)" fill="#fff"/>
  </g>
</svg>
