<svg xmlns="http://www.w3.org/2000/svg" xmlns:xlink="http://www.w3.org/1999/xlink" width="550.93" height="550.93" viewBox="0 0 550.93 550.93">
  <defs>
    <linearGradient id="linear-gradient" x1="0.173" y1="-1.018" x2="1.319" y2="2.55" gradientUnits="objectBoundingBox">
      <stop offset="0" stop-color="#c29242"/>
      <stop offset="0.246" stop-color="#f2e7b3"/>
      <stop offset="0.543" stop-color="#b37f33"/>
      <stop offset="0.797" stop-color="#e2ca82"/>
      <stop offset="0.9" stop-color="#b78226"/>
      <stop offset="1" stop-color="#e6b169"/>
    </linearGradient>
    <linearGradient id="linear-gradient-2" x1="-2.846" y1="-1.159" x2="4.348" y2="2.408" xlink:href="#linear-gradient"/>
    <linearGradient id="linear-gradient-3" x1="-0.298" y1="-1.338" x2="1.154" y2="2.23" xlink:href="#linear-gradient"/>
    <linearGradient id="linear-gradient-4" x1="-0.106" y1="0.522" x2="1.186" y2="0.487" xlink:href="#linear-gradient"/>
    <linearGradient id="linear-gradient-5" x1="0" y1="0.5" x2="1" y2="0.5" xlink:href="#linear-gradient"/>
    <linearGradient id="linear-gradient-6" x1="0.457" y1="-0.563" x2="0.542" y2="2.313" xlink:href="#linear-gradient"/>
    <linearGradient id="linear-gradient-11" x1="0" y1="0.5" x2="1" y2="0.5" xlink:href="#linear-gradient"/>
    <linearGradient id="linear-gradient-12" x1="-4.558" y1="-16.181" x2="3.179" y2="9.335" xlink:href="#linear-gradient"/>
    <linearGradient id="linear-gradient-13" x1="-7.101" y1="-16.51" x2="4.274" y2="9.006" xlink:href="#linear-gradient"/>
    <linearGradient id="linear-gradient-14" x1="-4.752" y1="-16.819" x2="2.985" y2="8.697" xlink:href="#linear-gradient"/>
    <linearGradient id="linear-gradient-15" x1="-6.915" y1="-17.145" x2="3.71" y2="8.371" xlink:href="#linear-gradient"/>
    <linearGradient id="linear-gradient-16" x1="-7.513" y1="-17.433" x2="3.862" y2="8.083" xlink:href="#linear-gradient"/>
    <linearGradient id="linear-gradient-17" x1="-7.342" y1="-17.697" x2="3.588" y2="7.819" xlink:href="#linear-gradient"/>
    <linearGradient id="linear-gradient-18" x1="-0.107" y1="0.504" x2="1.186" y2="0.496" xlink:href="#linear-gradient"/>
    <linearGradient id="linear-gradient-20" y1="0.5" x2="1" y2="0.5" gradientUnits="objectBoundingBox">
      <stop offset="0" stop-color="#c29242"/>
      <stop offset="0.116" stop-color="#f2e7b3"/>
      <stop offset="0.397" stop-color="#b37f33"/>
      <stop offset="0.565" stop-color="#fcf3ac"/>
      <stop offset="0.83" stop-color="#b78226"/>
      <stop offset="1" stop-color="#e0c575"/>
    </linearGradient>
    <linearGradient id="linear-gradient-21" x1="-0.05" y1="0.362" x2="1.443" y2="0.894" xlink:href="#linear-gradient-20"/>
    <linearGradient id="linear-gradient-22" x1="-50.272" y1="115.281" x2="-49.265" y2="116.496" xlink:href="#linear-gradient-20"/>
    <linearGradient id="linear-gradient-23" x1="-158.746" y1="29.574" x2="-156.56" y2="30.09" xlink:href="#linear-gradient-20"/>
    <linearGradient id="linear-gradient-24" x1="-50.449" y1="118.682" x2="-49.444" y2="119.911" xlink:href="#linear-gradient-20"/>
    <linearGradient id="linear-gradient-25" x1="-163.086" y1="29.795" x2="-160.867" y2="30.309" xlink:href="#linear-gradient-20"/>
    <linearGradient id="linear-gradient-26" x1="-45.225" y1="132.117" x2="-44.234" y2="133.434" xlink:href="#linear-gradient-20"/>
    <linearGradient id="linear-gradient-27" x1="-188.763" y1="24.676" x2="-186.277" y2="25.178" xlink:href="#linear-gradient-20"/>
    <linearGradient id="linear-gradient-28" x1="-40.258" y1="133.185" x2="-39.266" y2="134.494" xlink:href="#linear-gradient-20"/>
    <linearGradient id="linear-gradient-29" x1="-204.187" y1="19.432" x2="-201.544" y2="19.929" xlink:href="#linear-gradient-20"/>
    <linearGradient id="linear-gradient-30" x1="-34.05" y1="118.15" x2="-33.036" y2="119.321" xlink:href="#linear-gradient-20"/>
    <linearGradient id="linear-gradient-31" x1="-197.158" y1="12.427" x2="-194.617" y2="12.927" xlink:href="#linear-gradient-20"/>
    <linearGradient id="linear-gradient-32" x1="-33.71" y1="115.34" x2="-32.677" y2="116.423" xlink:href="#linear-gradient-20"/>
    <linearGradient id="linear-gradient-33" x1="-196.705" y1="10.508" x2="-194.305" y2="11.014" xlink:href="#linear-gradient-20"/>
    <linearGradient id="linear-gradient-34" x1="-30.268" y1="103.57" x2="-29.202" y2="104.545" xlink:href="#linear-gradient-20"/>
    <linearGradient id="linear-gradient-35" x1="-180.907" y1="5.928" x2="-178.718" y2="6.445" xlink:href="#linear-gradient-20"/>
    <linearGradient id="linear-gradient-36" x1="-25.126" y1="85.13" x2="-23.987" y2="85.959" xlink:href="#linear-gradient-20"/>
    <linearGradient id="linear-gradient-37" x1="-152.426" y1="-1.446" x2="-150.566" y2="-0.903" xlink:href="#linear-gradient-20"/>
    <linearGradient id="linear-gradient-38" x1="-22.384" y1="77.032" x2="-21.187" y2="77.792" xlink:href="#linear-gradient-20"/>
    <linearGradient id="linear-gradient-39" x1="-139.198" y1="-6.134" x2="-137.506" y2="-5.568" xlink:href="#linear-gradient-20"/>
    <linearGradient id="linear-gradient-40" x1="-18.046" y1="65.137" x2="-16.74" y2="65.816" xlink:href="#linear-gradient-20"/>
    <linearGradient id="linear-gradient-41" x1="-120.308" y1="-13.933" x2="-118.82" y2="-13.325" xlink:href="#linear-gradient-20"/>
    <linearGradient id="linear-gradient-42" x1="-13.29" y1="55.583" x2="-11.804" y2="56.192" xlink:href="#linear-gradient-20"/>
    <linearGradient id="linear-gradient-43" x1="-106.92" y1="-26.075" x2="-105.611" y2="-25.398" xlink:href="#linear-gradient-20"/>
    <linearGradient id="linear-gradient-44" x1="-9.909" y1="50.661" x2="-8.3" y2="51.241" xlink:href="#linear-gradient-20"/>
    <linearGradient id="linear-gradient-45" x1="-100.422" y1="-34.335" x2="-99.188" y2="-33.608" xlink:href="#linear-gradient-20"/>
    <linearGradient id="linear-gradient-46" x1="-7.75" y1="49.121" x2="-6.061" y2="49.687" xlink:href="#linear-gradient-20"/>
    <linearGradient id="linear-gradient-47" x1="-99.346" y1="-40.71" x2="-98.149" y2="-39.951" xlink:href="#linear-gradient-20"/>
    <linearGradient id="linear-gradient-48" x1="-4.929" y1="47.37" x2="-3.146" y2="47.923" xlink:href="#linear-gradient-20"/>
    <linearGradient id="linear-gradient-49" x1="-98.29" y1="-48.719" x2="-97.128" y2="-47.921" xlink:href="#linear-gradient-20"/>
    <linearGradient id="linear-gradient-50" x1="-3.168" y1="47.856" x2="-1.329" y2="48.402" xlink:href="#linear-gradient-20"/>
    <linearGradient id="linear-gradient-51" x1="-100.684" y1="-55.216" x2="-99.54" y2="-54.395" xlink:href="#linear-gradient-20"/>
    <linearGradient id="linear-gradient-52" x1="-1.352" y1="48.636" x2="0.54" y2="49.176" xlink:href="#linear-gradient-20"/>
    <linearGradient id="linear-gradient-53" x1="-103.881" y1="-62.398" x2="-102.752" y2="-61.555" xlink:href="#linear-gradient-20"/>
    <linearGradient id="linear-gradient-54" x1="2.704" y1="46.531" x2="4.713" y2="47.061" xlink:href="#linear-gradient-20"/>
    <linearGradient id="linear-gradient-55" x1="-103.818" y1="-75.299" x2="-102.717" y2="-74.405" xlink:href="#linear-gradient-20"/>
    <linearGradient id="linear-gradient-56" x1="10.891" y1="36.508" x2="13.175" y2="37.019" xlink:href="#linear-gradient-20"/>
    <linearGradient id="linear-gradient-57" x1="-94.818" y1="-102.318" x2="-93.768" y2="-101.296" xlink:href="#linear-gradient-20"/>
    <linearGradient id="linear-gradient-58" x1="12.473" y1="41.522" x2="14.663" y2="42.039" xlink:href="#linear-gradient-20"/>
    <linearGradient id="linear-gradient-59" x1="-102.997" y1="-101.675" x2="-101.932" y2="-100.699" xlink:href="#linear-gradient-20"/>
    <linearGradient id="linear-gradient-60" x1="18.59" y1="33.431" x2="20.978" y2="33.938" xlink:href="#linear-gradient-20"/>
    <linearGradient id="linear-gradient-61" x1="-94.921" y1="-122.249" x2="-93.886" y2="-121.172" xlink:href="#linear-gradient-20"/>
    <linearGradient id="linear-gradient-62" x1="22.616" y1="20.863" x2="25.202" y2="21.361" xlink:href="#linear-gradient-20"/>
    <linearGradient id="linear-gradient-63" x1="-82.653" y1="-147.615" x2="-81.646" y2="-146.408" xlink:href="#linear-gradient-20"/>
    <linearGradient id="linear-gradient-64" x1="24.737" y1="16.866" x2="27.367" y2="17.363" xlink:href="#linear-gradient-20"/>
    <linearGradient id="linear-gradient-65" x1="-80.607" y1="-161.408" x2="-79.607" y2="-160.156" xlink:href="#linear-gradient-20"/>
    <linearGradient id="linear-gradient-66" x1="25.342" y1="13.962" x2="27.987" y2="14.458" xlink:href="#linear-gradient-20"/>
    <linearGradient id="linear-gradient-67" x1="-80.166" y1="-172.1" x2="-79.169" y2="-170.824" xlink:href="#linear-gradient-20"/>
    <linearGradient id="linear-gradient-68" x1="25.385" y1="14.078" x2="28.032" y2="14.574" xlink:href="#linear-gradient-20"/>
    <linearGradient id="linear-gradient-69" x1="-83.148" y1="-180.305" x2="-82.153" y2="-179.02" xlink:href="#linear-gradient-20"/>
    <linearGradient id="linear-gradient-70" x1="19.77" y1="-8.472" x2="22.281" y2="-7.971" xlink:href="#linear-gradient-20"/>
    <linearGradient id="linear-gradient-71" x1="-63.554" y1="-195.37" x2="-62.563" y2="-194.049" xlink:href="#linear-gradient-20"/>
    <linearGradient id="linear-gradient-72" x1="3.143" y1="-31.576" x2="5.31" y2="-31.058" xlink:href="#linear-gradient-20"/>
    <linearGradient id="linear-gradient-73" x1="-45.57" y1="-176.648" x2="-44.562" y2="-175.442" xlink:href="#linear-gradient-20"/>
    <linearGradient id="linear-gradient-74" x1="-11.068" y1="-50.607" x2="-9.151" y2="-50.07" xlink:href="#linear-gradient-20"/>
    <linearGradient id="linear-gradient-75" x1="-33.06" y1="-154.815" x2="-32.025" y2="-153.733" xlink:href="#linear-gradient-20"/>
    <linearGradient id="linear-gradient-76" x1="-34.991" y1="-87.209" x2="-33.427" y2="-86.62" xlink:href="#linear-gradient-20"/>
    <linearGradient id="linear-gradient-77" x1="-8.817" y1="-108.725" x2="-7.706" y2="-107.847" xlink:href="#linear-gradient-20"/>
    <linearGradient id="linear-gradient-78" x1="-47.965" y1="-103.57" x2="-46.492" y2="-102.959" xlink:href="#linear-gradient-20"/>
    <linearGradient id="linear-gradient-79" x1="-1.605" y1="-94.589" x2="-0.459" y2="-93.767" xlink:href="#linear-gradient-20"/>
    <linearGradient id="linear-gradient-80" x1="-21.187" y1="0.5" x2="-20.187" y2="0.5" xlink:href="#linear-gradient-20"/>
    <linearGradient id="linear-gradient-81" x1="-70.512" y1="0.362" x2="-69.019" y2="0.894" xlink:href="#linear-gradient-20"/>
    <linearGradient id="linear-gradient-82" x1="-40.236" y1="-60.59" x2="-39.23" y2="-59.375" xlink:href="#linear-gradient-20"/>
    <linearGradient id="linear-gradient-83" x1="-12.189" y1="7.002" x2="-10.003" y2="7.518" xlink:href="#linear-gradient-20"/>
    <linearGradient id="linear-gradient-84" x1="-42.24" y1="-65.581" x2="-41.235" y2="-64.353" xlink:href="#linear-gradient-20"/>
    <linearGradient id="linear-gradient-85" x1="-11.153" y1="7.611" x2="-8.934" y2="8.126" xlink:href="#linear-gradient-20"/>
    <linearGradient id="linear-gradient-86" x1="-47.654" y1="-75.291" x2="-46.662" y2="-73.974" xlink:href="#linear-gradient-20"/>
    <linearGradient id="linear-gradient-87" x1="-9.619" y1="11.935" x2="-7.132" y2="12.437" xlink:href="#linear-gradient-20"/>
    <linearGradient id="linear-gradient-88" x1="-54.579" y1="-80.009" x2="-53.586" y2="-78.7" xlink:href="#linear-gradient-20"/>
    <linearGradient id="linear-gradient-89" x1="-6.439" y1="17.218" x2="-3.796" y2="17.715" xlink:href="#linear-gradient-20"/>
    <linearGradient id="linear-gradient-90" x1="-63.533" y1="-74.826" x2="-62.52" y2="-73.654" xlink:href="#linear-gradient-20"/>
    <linearGradient id="linear-gradient-91" x1="-3.704" y1="23.547" x2="-1.163" y2="24.047" xlink:href="#linear-gradient-20"/>
    <linearGradient id="linear-gradient-92" x1="-73.704" y1="-73.113" x2="-72.671" y2="-72.03" xlink:href="#linear-gradient-20"/>
    <linearGradient id="linear-gradient-93" x1="-3.885" y1="29.633" x2="-1.486" y2="30.139" xlink:href="#linear-gradient-20"/>
    <linearGradient id="linear-gradient-94" x1="-82.705" y1="-66.949" x2="-81.64" y2="-65.974" xlink:href="#linear-gradient-20"/>
    <linearGradient id="linear-gradient-95" x1="-3.76" y1="35.264" x2="-1.571" y2="35.781" xlink:href="#linear-gradient-20"/>
    <linearGradient id="linear-gradient-96" x1="-98.778" y1="-54.849" x2="-97.64" y2="-54.02" xlink:href="#linear-gradient-20"/>
    <linearGradient id="linear-gradient-97" x1="-6.101" y1="45.566" x2="-4.242" y2="46.109" xlink:href="#linear-gradient-20"/>
    <linearGradient id="linear-gradient-98" x1="-112.402" y1="-49.358" x2="-111.206" y2="-48.598" xlink:href="#linear-gradient-20"/>
    <linearGradient id="linear-gradient-99" x1="-7.722" y1="53.895" x2="-6.03" y2="54.461" xlink:href="#linear-gradient-20"/>
    <linearGradient id="linear-gradient-100" x1="-134.535" y1="-41.23" x2="-133.228" y2="-40.552" xlink:href="#linear-gradient-20"/>
    <linearGradient id="linear-gradient-101" x1="-10.653" y1="67.17" x2="-9.164" y2="67.779" xlink:href="#linear-gradient-20"/>
    <linearGradient id="linear-gradient-102" x1="-176.49" y1="-34.214" x2="-175.004" y2="-33.605" xlink:href="#linear-gradient-20"/>
    <linearGradient id="linear-gradient-103" x1="-15.609" y1="91.027" x2="-14.301" y2="91.704" xlink:href="#linear-gradient-20"/>
    <linearGradient id="linear-gradient-104" x1="-205.372" y1="-30.243" x2="-203.763" y2="-29.663" xlink:href="#linear-gradient-20"/>
    <linearGradient id="linear-gradient-105" x1="-18.663" y1="107.721" x2="-17.428" y2="108.448" xlink:href="#linear-gradient-20"/>
    <linearGradient id="linear-gradient-106" x1="-229.907" y1="-28.517" x2="-228.218" y2="-27.95" xlink:href="#linear-gradient-20"/>
    <linearGradient id="linear-gradient-107" x1="-21.001" y1="122.012" x2="-19.803" y2="122.771" xlink:href="#linear-gradient-20"/>
    <linearGradient id="linear-gradient-108" x1="-259.48" y1="-26.256" x2="-257.697" y2="-25.703" xlink:href="#linear-gradient-20"/>
    <linearGradient id="linear-gradient-109" x1="-23.979" y1="139.368" x2="-22.817" y2="140.165" xlink:href="#linear-gradient-20"/>
    <linearGradient id="linear-gradient-110" x1="-285.364" y1="-25.596" x2="-283.525" y2="-25.05" xlink:href="#linear-gradient-20"/>
    <linearGradient id="linear-gradient-111" x1="-26.215" y1="154.748" x2="-25.071" y2="155.569" xlink:href="#linear-gradient-20"/>
    <linearGradient id="linear-gradient-112" x1="-314.434" y1="-25.101" x2="-312.542" y2="-24.561" xlink:href="#linear-gradient-20"/>
    <linearGradient id="linear-gradient-113" x1="-28.719" y1="172.144" x2="-27.591" y2="172.987" xlink:href="#linear-gradient-20"/>
    <linearGradient id="linear-gradient-114" x1="-360.578" y1="-22.155" x2="-358.569" y2="-21.625" xlink:href="#linear-gradient-20"/>
    <linearGradient id="linear-gradient-115" x1="-33.207" y1="200.118" x2="-32.107" y2="201.011" xlink:href="#linear-gradient-20"/>
    <linearGradient id="linear-gradient-116" x1="-450.352" y1="-13.238" x2="-448.067" y2="-12.726" xlink:href="#linear-gradient-20"/>
    <linearGradient id="linear-gradient-117" x1="-42.974" y1="257.643" x2="-41.924" y2="258.665" xlink:href="#linear-gradient-20"/>
    <linearGradient id="linear-gradient-118" x1="-438.682" y1="-18.569" x2="-436.492" y2="-18.052" xlink:href="#linear-gradient-20"/>
    <linearGradient id="linear-gradient-119" x1="-39.636" y1="248.375" x2="-38.571" y2="249.351" xlink:href="#linear-gradient-20"/>
    <linearGradient id="linear-gradient-120" x1="-500.017" y1="-10.156" x2="-497.629" y2="-9.65" xlink:href="#linear-gradient-20"/>
    <linearGradient id="linear-gradient-121" x1="-47.491" y1="291.802" x2="-46.456" y2="292.878" xlink:href="#linear-gradient-20"/>
    <linearGradient id="linear-gradient-122" x1="-567.386" y1="0.094" x2="-564.8" y2="0.593" xlink:href="#linear-gradient-20"/>
    <linearGradient id="linear-gradient-123" x1="-57.19" y1="349.422" x2="-56.182" y2="350.629" xlink:href="#linear-gradient-20"/>
    <linearGradient id="linear-gradient-124" x1="-598.753" y1="5.218" x2="-596.123" y2="5.715" xlink:href="#linear-gradient-20"/>
    <linearGradient id="linear-gradient-125" x1="-63.267" y1="379.214" x2="-62.267" y2="380.466" xlink:href="#linear-gradient-20"/>
    <linearGradient id="linear-gradient-126" x1="-625.874" y1="8.465" x2="-623.229" y2="8.962" xlink:href="#linear-gradient-20"/>
    <linearGradient id="linear-gradient-127" x1="-67.794" y1="404.514" x2="-66.798" y2="405.79" xlink:href="#linear-gradient-20"/>
    <linearGradient id="linear-gradient-128" x1="-652.115" y1="11.151" x2="-649.468" y2="11.648" xlink:href="#linear-gradient-20"/>
    <linearGradient id="linear-gradient-129" x1="-72.004" y1="426.549" x2="-71.009" y2="427.834" xlink:href="#linear-gradient-20"/>
    <linearGradient id="linear-gradient-130" x1="-641.513" y1="28.347" x2="-639.002" y2="28.848" xlink:href="#linear-gradient-20"/>
    <linearGradient id="linear-gradient-131" x1="-90.335" y1="460.86" x2="-89.344" y2="462.181" xlink:href="#linear-gradient-20"/>
    <linearGradient id="linear-gradient-132" x1="-571.162" y1="50.385" x2="-568.996" y2="50.903" xlink:href="#linear-gradient-20"/>
    <linearGradient id="linear-gradient-133" x1="-114.861" y1="438.368" x2="-113.853" y2="439.574" xlink:href="#linear-gradient-20"/>
    <linearGradient id="linear-gradient-134" x1="-521.718" y1="68.872" x2="-519.802" y2="69.409" xlink:href="#linear-gradient-20"/>
    <linearGradient id="linear-gradient-135" x1="-136.861" y1="408.132" x2="-135.826" y2="409.215" xlink:href="#linear-gradient-20"/>
    <linearGradient id="linear-gradient-136" x1="-429.308" y1="106.481" x2="-427.744" y2="107.07" xlink:href="#linear-gradient-20"/>
    <linearGradient id="linear-gradient-137" x1="-180.536" y1="333.74" x2="-179.425" y2="334.618" xlink:href="#linear-gradient-20"/>
    <linearGradient id="linear-gradient-138" x1="-422.147" y1="126.987" x2="-420.673" y2="127.599" xlink:href="#linear-gradient-20"/>
    <linearGradient id="linear-gradient-139" x1="-205.451" y1="327.445" x2="-204.305" y2="328.267" xlink:href="#linear-gradient-20"/>
  </defs>
  <g id="vip" transform="translate(-884.01 -376.587)">
    <g id="Group_42514" data-name="Group 42514" transform="translate(890.324 380.018)" opacity="0.5" style="mix-blend-mode: multiply;isolation: isolate">
      <ellipse id="Ellipse_3096" data-name="Ellipse 3096" cx="268.826" cy="268.826" rx="268.826" ry="268.826" transform="translate(0 0)"/>
    </g>
    <g id="Group_42584" data-name="Group 42584" transform="translate(884.01 376.587)">
      <path id="Path_53831" data-name="Path 53831" d="M275.465,0C427.6,0,550.93,123.33,550.93,275.465S427.6,550.93,275.465,550.93,0,427.6,0,275.465,123.33,0,275.465,0Z" transform="translate(0 0)" fill="#e98b32"/>
      <g id="Group_42515" data-name="Group 42515" transform="translate(12.816 12.815)">
        <path id="Path_53690" data-name="Path 53690" d="M1175.133,930.359a261.835,261.835,0,1,1,102.235-20.641A261,261,0,0,1,1175.133,930.359Zm0-523.645c-143.914,0-261,117.082-261,261s117.082,261,261,261,261-117.082,261-261S1319.046,406.714,1175.133,406.714Z" transform="translate(-912.484 -405.06)" fill="none" stroke="#ccffd6" stroke-width="2"/>
      </g>
      <g id="Group_42583" data-name="Group 42583" transform="translate(53.208 76.828)">
        <g id="Group_42582" data-name="Group 42582">
          <g id="Group_42519" data-name="Group 42519" transform="translate(103.206 59.854)">
            <g id="Group_42516" data-name="Group 42516" transform="translate(0 86.174)">
              <path id="Path_53691" data-name="Path 53691" d="M1273.837,978.59l-38.73-106.866h16.6l18.4,52.716c5.4,15.575,10.647,30.922,13.02,40.857h.309c2.241-8.925,8.034-24.93,13.569-40.374l19.169-53.2h15.916l-40,106.866Z" transform="translate(-1235.107 -871.724)" fill="url(#linear-gradient)"/>
              <path id="Path_53692" data-name="Path 53692" d="M1500.817,871.724V978.59h-15.454V871.724Z" transform="translate(-1372.725 -871.724)" fill="url(#linear-gradient-2)"/>
              <path id="Path_53693" data-name="Path 53693" d="M1583.423,871.724h41.1c21.078,0,35.472,11.781,35.472,31.381,0,21.166-15.367,32.15-36.283,32.15h-24.745V978.59h-15.541Zm15.541,50.678h23.726c14.071,0,21.433-6.713,21.433-18.924,0-12.736-8.741-18.9-20.882-18.9h-24.276Z" transform="translate(-1426.649 -871.724)" fill="url(#linear-gradient-3)"/>
            </g>
            <g id="Group_42517" data-name="Group 42517" transform="translate(68.247)">
              <path id="Path_53694" data-name="Path 53694" d="M1435.384,795.435c.051.1.1.2.151.3a24.148,24.148,0,0,1,2.453,7.591c8.936-5.37,39.814-6.742,52.442,0a24.074,24.074,0,0,1,2.442-7.564C1478.869,788.888,1445.751,789.956,1435.384,795.435Z" transform="translate(-1413.489 -741.138)" fill="url(#linear-gradient-4)"/>
              <path id="Path_53695" data-name="Path 53695" d="M1488.859,718.8c-4.318,4.4-11.785,11.578-17.144,8.7-5.743-3.084-4.854-18.222-4.527-24.318l-.064-.011c-.978,6.582-6.72,18.584-12.287,17.7-6.585-1.05-11.1-15.028-12.415-24.013h0c-.074,0-.148.008-.225.008s-.148,0-.223-.008h0c-1.31,8.986-5.829,22.964-12.416,24.013-5.577.889-11.329-11.16-12.291-17.734h0l-.06.014c.324,6.073,1.229,21.263-4.526,24.353-5.36,2.877-12.827-4.3-17.145-8.7a1.987,1.987,0,0,1-.181.176h0c4.348,5.577,13.473,15.564,18.016,24.711,10.367-5.48,43.487-6.548,57.489.329,4.486-9.237,13.777-19.4,18.178-25.041h0A2.419,2.419,0,0,1,1488.859,718.8Z" transform="translate(-1391.476 -689.385)" fill="url(#linear-gradient-5)"/>
              <path id="Path_53696" data-name="Path 53696" d="M1441.17,812.875c.03.259.051.514.067.767,5.206-3.083,17.775-4.2,26.154-4.2s20.948,1.121,26.154,4.2c.015-.254.037-.509.066-.768C1480.984,806.133,1450.105,807.5,1441.17,812.875Z" transform="translate(-1416.67 -750.682)" fill="url(#linear-gradient-6)"/>
              <path id="Path_53697" data-name="Path 53697" d="M1494.862,680.264a3.736,3.736,0,0,0-.223,7.466c.073,0,.148.008.223.008s.15,0,.224-.008a3.736,3.736,0,0,0-.224-7.466Z" transform="translate(-1444.141 -680.264)" fill="url(#linear-gradient-5)"/>
              <path id="Path_53698" data-name="Path 53698" d="M1439.141,698.527a2.8,2.8,0,1,0,0,5.6,2.765,2.765,0,0,0,.6-.066l.06-.014a2.8,2.8,0,0,0-.663-5.525Z" transform="translate(-1414.012 -690.307)" fill="url(#linear-gradient-5)"/>
              <path id="Path_53699" data-name="Path 53699" d="M1389.071,736.921a2.335,2.335,0,1,0,1.545,4.086c.063-.056.124-.115.181-.177a2.336,2.336,0,0,0-1.726-3.909Z" transform="translate(-1386.736 -711.42)" fill="url(#linear-gradient-5)"/>
              <path id="Path_53700" data-name="Path 53700" d="M1552.454,698.527a2.8,2.8,0,0,0-.482,5.563l.063.011a2.8,2.8,0,1,0,.418-5.573Z" transform="translate(-1476.325 -690.307)" fill="url(#linear-gradient-5)"/>
              <path id="Path_53701" data-name="Path 53701" d="M1604.078,736.921a2.336,2.336,0,0,0-1.726,3.91c.057.062.118.121.181.177a2.335,2.335,0,1,0,1.545-4.086Z" transform="translate(-1504.97 -711.42)" fill="url(#linear-gradient-11)"/>
            </g>
            <g id="Group_42518" data-name="Group 42518" transform="translate(71.479 220.101)">
              <path id="Path_53702" data-name="Path 53702" d="M1407.238,1177.872c0-2.958.026-5.866.091-7.45h-.073c-.639,2.273-3.492,9.454-5.372,14.332h-1.474c-1.416-3.862-4.371-11.88-5.073-14.358h-.055c.115,1.778.163,5.306.163,7.958v6.4h-1.527v-15.476h2.364c1.958,5.08,4.4,11.685,4.95,13.533h.041c.357-1.291,3.2-8.594,5.212-13.533h2.314v15.476h-1.56Z" transform="translate(-1393.917 -1169.278)" fill="url(#linear-gradient-12)"/>
              <path id="Path_53703" data-name="Path 53703" d="M1451.037,1177.317h-7.8v6.038h8.559l-.217,1.4h-9.9v-15.476h9.751v1.4h-8.188v5.238h7.8Z" transform="translate(-1420.177 -1169.278)" fill="url(#linear-gradient-13)"/>
              <path id="Path_53704" data-name="Path 53704" d="M1488.948,1177.872c0-2.958.026-5.866.093-7.45h-.073c-.639,2.273-3.491,9.454-5.372,14.332h-1.475c-1.417-3.862-4.371-11.88-5.072-14.358h-.056c.115,1.778.163,5.306.163,7.958v6.4h-1.528v-15.476h2.364c1.958,5.08,4.4,11.685,4.95,13.533h.042c.357-1.291,3.2-8.594,5.21-13.533h2.314v15.476h-1.56Z" transform="translate(-1438.851 -1169.278)" fill="url(#linear-gradient-14)"/>
              <path id="Path_53705" data-name="Path 53705" d="M1523.38,1169.278h5.641c3.1,0,4.663,1.639,4.663,3.832a3.364,3.364,0,0,1-2.313,3.378,3.869,3.869,0,0,1,2.845,3.771c0,3.015-2.278,4.5-5.082,4.5h-5.754Zm5.245,6.556c2.479,0,3.432-.943,3.432-2.608,0-1.456-1.025-2.575-3.034-2.575h-4.092v5.184Zm-3.694,7.549h4.116c1.993,0,3.537-.971,3.537-3.09,0-1.838-1.178-3.087-4.065-3.087h-3.587Z" transform="translate(-1465.11 -1169.278)" fill="url(#linear-gradient-15)"/>
              <path id="Path_53706" data-name="Path 53706" d="M1569.231,1177.317h-7.806v6.038h8.557l-.215,1.4h-9.905v-15.476h9.753v1.4h-8.189v5.238h7.806Z" transform="translate(-1485.172 -1169.278)" fill="url(#linear-gradient-16)"/>
              <path id="Path_53707" data-name="Path 53707" d="M1595.406,1177.711v7.043h-1.586v-15.476h5.774c3.11,0,4.76,1.677,4.76,4.1a3.512,3.512,0,0,1-2.781,3.632c1.444.36,2.521,1.354,2.521,4.01v.627a10.566,10.566,0,0,0,.2,3.1h-1.568a10.476,10.476,0,0,1-.239-3.271v-.367c0-2.389-.694-3.4-3.572-3.4Zm0-1.386h3.569c2.56,0,3.719-.958,3.719-2.86,0-1.787-1.163-2.8-3.434-2.8h-3.854Z" transform="translate(-1503.845 -1169.278)" fill="url(#linear-gradient-17)"/>
            </g>
            <path id="Path_53708" data-name="Path 53708" d="M1360.342,1183.934a2.411,2.411,0,1,1-2.412-2.412A2.412,2.412,0,0,1,1360.342,1183.934Z" transform="translate(-1301.323 -955.911)" fill="url(#linear-gradient-18)"/>
            <path id="Path_53709" data-name="Path 53709" d="M1655.511,1183.934a2.411,2.411,0,1,1-2.411-2.412A2.411,2.411,0,0,1,1655.511,1183.934Z" transform="translate(-1463.638 -955.911)" fill="url(#linear-gradient-18)"/>
          </g>
          <g id="Group_42550" data-name="Group 42550">
            <g id="Group_42520" data-name="Group 42520" transform="translate(24.468 8.778)">
              <path id="Path_53710" data-name="Path 53710" d="M1225.073,937.405a196.63,196.63,0,0,1-119.955-64.525A193.233,193.233,0,0,1,1089.263,637.3a196.017,196.017,0,0,1,84.377-70.52l.184.413c-70.941,31.051-116.779,100.77-116.779,177.618,0,96.087,72.263,178.69,168.091,192.143Z" transform="translate(-1056.59 -566.784)" fill="url(#linear-gradient-20)"/>
            </g>
            <path id="Path_53711" data-name="Path 53711" d="M1328.78,1327.574c-11.858,4.093-22.592-29.582-15.821-45.851C1327.081,1288.684,1341.032,1323.347,1328.78,1327.574Zm-44.76,21.666c16.23,6.869,49.965-3.664,45.945-15.546C1325.811,1321.416,1291.064,1335.16,1284.02,1349.24Z" transform="translate(-1157.188 -954.455)" fill="url(#linear-gradient-21)"/>
            <g id="Group_42521" data-name="Group 42521" transform="translate(98.988 320.93)">
              <path id="Path_53712" data-name="Path 53712" d="M1222.157,1376.346c14.3,8.364,47.012,2.624,44.7-8.937C1264.47,1355.464,1230.424,1364.074,1222.157,1376.346Z" transform="translate(-1222.157 -1319.36)" fill="url(#linear-gradient-22)"/>
              <path id="Path_53713" data-name="Path 53713" d="M1307.994,1311.185c11.261-3.488.681-34.976-13.494-43.542C1287.664,1280.767,1296.357,1314.792,1307.994,1311.185Z" transform="translate(-1260.612 -1267.643)" fill="url(#linear-gradient-23)"/>
            </g>
            <g id="Group_42522" data-name="Group 42522" transform="translate(76.107 309.292)">
              <path id="Path_53714" data-name="Path 53714" d="M1171.319,1346.533c13.724,8.288,45.467,3.176,43.387-8.045C1212.555,1326.894,1179.485,1334.766,1171.319,1346.533Z" transform="translate(-1171.319 -1291.835)" fill="url(#linear-gradient-24)"/>
              <path id="Path_53715" data-name="Path 53715" d="M1255.311,1284.112c10.946-3.225,1.132-33.844-12.471-42.328C1236.044,1254.4,1244,1287.445,1255.311,1284.112Z" transform="translate(-1209.268 -1241.784)" fill="url(#linear-gradient-25)"/>
            </g>
            <g id="Group_42523" data-name="Group 42523" transform="translate(53.331 293.519)">
              <path id="Path_53716" data-name="Path 53716" d="M1120.717,1302.7c12.167,9.6,43.238,8.524,42.594-2.491C1162.646,1288.825,1129.971,1292.392,1120.717,1302.7Z" transform="translate(-1120.717 -1254.266)" fill="url(#linear-gradient-26)"/>
              <path id="Path_53717" data-name="Path 53717" d="M1208.5,1248.851c10.89-1.775,5.165-32.333-6.864-42.11C1193.593,1218.019,1197.241,1250.686,1208.5,1248.851Z" transform="translate(-1162.832 -1206.741)" fill="url(#linear-gradient-27)"/>
            </g>
            <g id="Group_42524" data-name="Group 42524" transform="translate(35.641 277.405)">
              <path id="Path_53718" data-name="Path 53718" d="M1081.413,1254.151c10.4,10.767,40.281,13.75,41.089,3.124C1123.337,1246.295,1091.6,1245.485,1081.413,1254.151Z" transform="translate(-1081.413 -1212.813)" fill="url(#linear-gradient-28)"/>
              <path id="Path_53719" data-name="Path 53719" d="M1170.406,1210.682c10.652-.292,9.124-30.278-1.125-41.192C1160.129,1179.246,1159.4,1210.983,1170.406,1210.682Z" transform="translate(-1125.884 -1169.49)" fill="url(#linear-gradient-29)"/>
            </g>
            <g id="Group_42525" data-name="Group 42525" transform="translate(21.253 259.993)">
              <path id="Path_53720" data-name="Path 53720" d="M1049.447,1199.56c8.264,11.843,36.264,19.248,38.657,9.25C1090.577,1198.48,1060.475,1192.862,1049.447,1199.56Z" transform="translate(-1049.447 -1166.817)" fill="url(#linear-gradient-30)"/>
              <path id="Path_53721" data-name="Path 53721" d="M1136.783,1169.77c10.191,1.35,13.314-27.443,5.22-39.405C1131.8,1138.26,1126.252,1168.374,1136.783,1169.77Z" transform="translate(-1094.357 -1130.365)" fill="url(#linear-gradient-31)"/>
            </g>
            <g id="Group_42526" data-name="Group 42526" transform="translate(12.556 244.586)">
              <path id="Path_53722" data-name="Path 53722" d="M1030.123,1153.193c6.794,11.528,32.138,20.355,35.057,11.29C1068.2,1155.114,1040.786,1147.787,1030.123,1153.193Z" transform="translate(-1030.123 -1126.323)" fill="url(#linear-gradient-32)"/>
              <path id="Path_53723" data-name="Path 53723" d="M1110.627,1131.778c9.319,1.971,14.248-24.41,7.618-36.034C1108.259,1102.313,1101,1129.742,1110.627,1131.778Z" transform="translate(-1071.906 -1095.744)" fill="url(#linear-gradient-33)"/>
            </g>
            <g id="Group_42527" data-name="Group 42527" transform="translate(5.603 227.203)">
              <path id="Path_53724" data-name="Path 53724" d="M1014.675,1103.2c5.451,11.637,28.881,22.376,32.494,13.972C1050.9,1108.493,1025.361,1099,1014.675,1103.2Z" transform="translate(-1014.675 -1081.715)" fill="url(#linear-gradient-34)"/>
              <path id="Path_53725" data-name="Path 53725" d="M1090.65,1090.479c8.732,2.729,15.835-22.046,10.552-33.76C1091.056,1062.093,1081.629,1087.658,1090.65,1090.479Z" transform="translate(-1054.459 -1056.718)" fill="url(#linear-gradient-35)"/>
            </g>
            <g id="Group_42528" data-name="Group 42528" transform="translate(1.892 210.151)">
              <path id="Path_53726" data-name="Path 53726" d="M1006.431,1048.649c3.526,11.8,24.228,25.3,28.841,17.839C1040.039,1058.78,1017.156,1046.173,1006.431,1048.649Z" transform="translate(-1006.431 -1034.873)" fill="url(#linear-gradient-36)"/>
              <path id="Path_53727" data-name="Path 53727" d="M1075.628,1048.953c7.9,3.821,18.129-18.671,14.772-30.526C1080.021,1022.092,1067.47,1045.005,1075.628,1048.953Z" transform="translate(-1043.041 -1018.428)" fill="url(#linear-gradient-37)"/>
            </g>
            <g id="Group_42529" data-name="Group 42529" transform="translate(0 192.886)">
              <path id="Path_53728" data-name="Path 53728" d="M1002.227,1000.069c2.39,11.546,21.016,26.114,26.029,19.383C1033.435,1012.5,1012.657,998.593,1002.227,1000.069Z" transform="translate(-1002.227 -990.835)" fill="url(#linear-gradient-38)"/>
              <path id="Path_53729" data-name="Path 53729" d="M1065.607,1007.572c7.211,4.293,18.823-16.307,16.6-27.886C1072.007,982.325,1058.155,1003.136,1065.607,1007.572Z" transform="translate(-1035.918 -979.686)" fill="url(#linear-gradient-39)"/>
            </g>
            <g id="Group_42530" data-name="Group 42530" transform="translate(0.889 176.302)">
              <path id="Path_53730" data-name="Path 53730" d="M1004.2,949.74c.9,11.225,16.826,27.235,22.373,21.449C1032.307,965.208,1014.261,949.575,1004.2,949.74Z" transform="translate(-1004.202 -946.465)" fill="url(#linear-gradient-40)"/>
              <path id="Path_53731" data-name="Path 53731" d="M1059.913,966.93c6.326,4.922,19.766-13.227,19.028-24.463C1068.965,943.761,1053.375,961.844,1059.913,966.93Z" transform="translate(-1033.984 -942.467)" fill="url(#linear-gradient-41)"/>
            </g>
            <g id="Group_42531" data-name="Group 42531" transform="translate(5.534 159.162)">
              <path id="Path_53732" data-name="Path 53732" d="M1014.548,904.027c-.652,10.179,11.548,26.6,17.272,22.133C1037.735,921.544,1023.588,905.185,1014.548,904.027Z" transform="translate(-1014.523 -904.027)" fill="url(#linear-gradient-42)"/>
              <path id="Path_53733" data-name="Path 53733" d="M1058.889,929.935c5.033,5.233,19.439-9.291,20.237-19.461C1070.013,910.34,1053.688,924.527,1058.889,929.935Z" transform="translate(-1038.37 -907.572)" fill="url(#linear-gradient-43)"/>
            </g>
            <g id="Group_42532" data-name="Group 42532" transform="translate(9.248 142.034)">
              <path id="Path_53734" data-name="Path 53734" d="M1022.9,865.639c-1.375,9.572,8.929,26,14.673,22.206C1043.5,883.924,1031.355,867.408,1022.9,865.639Z" transform="translate(-1022.773 -865.639)" fill="url(#linear-gradient-44)"/>
              <path id="Path_53735" data-name="Path 53735" d="M1061.438,895.319c4.367,5.322,19.065-7.33,20.578-16.881C1073.415,877.63,1056.927,889.821,1061.438,895.319Z" transform="translate(-1043.613 -872.656)" fill="url(#linear-gradient-45)"/>
            </g>
            <g id="Group_42533" data-name="Group 42533" transform="translate(13.437 127.822)">
              <path id="Path_53736" data-name="Path 53736" d="M1032.295,833.782c-1.713,8.978,7.307,24.936,12.893,21.6C1050.961,851.938,1040.2,835.818,1032.295,833.782Z" transform="translate(-1032.082 -833.782)" fill="url(#linear-gradient-46)"/>
              <path id="Path_53737" data-name="Path 53737" d="M1066.731,864.539c3.892,5.213,18.317-6.1,20.159-15.049C1078.8,848.355,1062.71,859.151,1066.731,864.539Z" transform="translate(-1050.787 -842.374)" fill="url(#linear-gradient-47)"/>
            </g>
            <g id="Group_42534" data-name="Group 42534" transform="translate(18.978 113.012)">
              <path id="Path_53738" data-name="Path 53738" d="M1044.724,800.584c-2.034,8.366,5.7,23.8,11.114,20.929C1061.431,818.543,1052.067,802.871,1044.724,800.584Z" transform="translate(-1044.391 -800.584)" fill="url(#linear-gradient-48)"/>
              <path id="Path_53739" data-name="Path 53739" d="M1075.075,832.232c3.417,5.088,17.52-4.875,19.673-13.211C1087.192,817.573,1071.544,826.975,1075.075,832.232Z" transform="translate(-1060.983 -810.641)" fill="url(#linear-gradient-49)"/>
            </g>
            <g id="Group_42535" data-name="Group 42535" transform="translate(25.608 99.202)">
              <path id="Path_53740" data-name="Path 53740" d="M1059.518,769.624c-2.125,7.8,4.731,22.477,9.883,19.921C1074.725,786.9,1066.348,771.96,1059.518,769.624Z" transform="translate(-1059.121 -769.624)" fill="url(#linear-gradient-50)"/>
              <path id="Path_53741" data-name="Path 53741" d="M1086.9,800.668c3.073,4.862,16.561-4.119,18.8-11.883C1098.649,787.232,1083.726,795.645,1086.9,800.668Z" transform="translate(-1074.158 -780.058)" fill="url(#linear-gradient-51)"/>
            </g>
            <g id="Group_42536" data-name="Group 42536" transform="translate(32.184 86.85)">
              <path id="Path_53742" data-name="Path 53742" d="M1074.188,741.936c-2.172,7.231,3.881,21.109,8.755,18.844C1087.979,758.441,1080.512,744.282,1074.188,741.936Z" transform="translate(-1073.734 -741.936)" fill="url(#linear-gradient-52)"/>
              <path id="Path_53743" data-name="Path 53743" d="M1098.815,772.081c2.754,4.614,15.568-3.452,17.842-10.651C1110.109,759.81,1095.968,767.313,1098.815,772.081Z" transform="translate(-1087.32 -752.532)" fill="url(#linear-gradient-53)"/>
            </g>
            <g id="Group_42537" data-name="Group 42537" transform="translate(40.766 74.167)">
              <path id="Path_53744" data-name="Path 53744" d="M1093.416,713.505c-2.374,6.6,2.557,19.791,7.194,17.93C1105.4,729.513,1099.171,716,1093.416,713.505Z" transform="translate(-1092.8 -713.505)" fill="url(#linear-gradient-54)"/>
              <path id="Path_53745" data-name="Path 53745" d="M1114.438,743.649c2.329,4.421,14.625-2.431,17.094-9C1125.535,732.817,1112.033,739.081,1114.438,743.649Z" transform="translate(-1104.543 -724.952)" fill="url(#linear-gradient-55)"/>
            </g>
            <g id="Group_42538" data-name="Group 42538" transform="translate(49.442 63.722)">
              <path id="Path_53746" data-name="Path 53746" d="M1113.219,690.1c-2.913,5.8.148,18.448,4.61,17.255C1122.44,706.119,1118.224,693.021,1113.219,690.1Z" transform="translate(-1112.076 -690.096)" fill="url(#linear-gradient-56)"/>
              <path id="Path_53747" data-name="Path 53747" d="M1128.739,721.922c1.646,4.316,13.692-.607,16.688-6.364C1140.124,713.213,1127.039,717.461,1128.739,721.922Z" transform="translate(-1121.156 -703.731)" fill="url(#linear-gradient-57)"/>
            </g>
            <g id="Group_42539" data-name="Group 42539" transform="translate(56.697 54.93)">
              <path id="Path_53748" data-name="Path 53748" d="M1129.081,669.323c-2.578,5.709.879,17.789,5.135,16.46C1138.615,684.411,1134.027,671.945,1129.081,669.323Z" transform="translate(-1128.196 -669.323)" fill="url(#linear-gradient-58)"/>
              <path id="Path_53749" data-name="Path 53749" d="M1145.358,698.81c1.759,4.1,13.184-1.133,15.844-6.8C1155.994,689.956,1143.54,694.576,1145.358,698.81Z" transform="translate(-1137.534 -681.52)" fill="url(#linear-gradient-59)"/>
            </g>
            <g id="Group_42540" data-name="Group 42540" transform="translate(65.286 45.32)">
              <path id="Path_53750" data-name="Path 53750" d="M1148.616,647.972c-2.96,5.264-.666,17.16,3.535,16.246C1156.493,663.273,1153.143,650.911,1148.616,647.972Z" transform="translate(-1147.278 -647.972)" fill="url(#linear-gradient-60)"/>
              <path id="Path_53751" data-name="Path 53751" d="M1161.663,678.852c1.342,4.085,12.758.032,15.794-5.189C1172.631,671.251,1160.276,674.631,1161.663,678.852Z" transform="translate(-1155.129 -661.657)" fill="url(#linear-gradient-61)"/>
            </g>
            <g id="Group_42541" data-name="Group 42541" transform="translate(75.226 36.127)">
              <path id="Path_53752" data-name="Path 53752" d="M1171.469,627.549c-3.414,4.708-2.531,16.341,1.587,15.93C1177.313,643.055,1175.474,630.86,1171.469,627.549Z" transform="translate(-1169.362 -627.549)" fill="url(#linear-gradient-62)"/>
              <path id="Path_53753" data-name="Path 53753" d="M1180.812,659.773c.833,4.055,12.2,1.44,15.681-3.22C1192.141,653.714,1179.951,655.582,1180.812,659.773Z" transform="translate(-1175.634 -642.752)" fill="url(#linear-gradient-63)"/>
            </g>
            <g id="Group_42542" data-name="Group 42542" transform="translate(82.985 29.339)">
              <path id="Path_53754" data-name="Path 53754" d="M1189,612.467c-3.485,4.373-3.15,15.582.824,15.369C1193.934,627.616,1192.7,615.823,1189,612.467Z" transform="translate(-1186.599 -612.467)" fill="url(#linear-gradient-64)"/>
              <path id="Path_53755" data-name="Path 53755" d="M1196.8,644.205c.622,3.932,11.654,1.919,15.2-2.4C1207.945,638.883,1196.155,640.142,1196.8,644.205Z" transform="translate(-1192.194 -627.722)" fill="url(#linear-gradient-65)"/>
            </g>
            <g id="Group_42543" data-name="Group 42543" transform="translate(90.669 23.59)">
              <path id="Path_53756" data-name="Path 53756" d="M1206.227,599.694c-3.467,4.1-3.46,14.863.359,14.77C1210.533,614.367,1209.685,603.018,1206.227,599.694Z" transform="translate(-1203.673 -599.694)" fill="url(#linear-gradient-66)"/>
              <path id="Path_53757" data-name="Path 53757" d="M1212.994,630.565c.485,3.79,11.129,2.168,14.654-1.879C1223.84,625.772,1212.491,626.648,1212.994,630.565Z" transform="translate(-1208.79 -614.688)" fill="url(#linear-gradient-67)"/>
            </g>
            <g id="Group_42544" data-name="Group 42544" transform="translate(98.754 17.946)">
              <path id="Path_53758" data-name="Path 53758" d="M1224.187,587.153c-3.37,3.887-3.488,14.2.174,14.156C1228.144,601.262,1227.461,590.378,1224.187,587.153Z" transform="translate(-1221.637 -587.153)" fill="url(#linear-gradient-68)"/>
              <path id="Path_53759" data-name="Path 53759" d="M1230.389,616.88c.422,3.637,10.638,2.206,14.063-1.632C1240.838,612.412,1229.954,613.122,1230.389,616.88Z" transform="translate(-1226.443 -601.649)" fill="url(#linear-gradient-69)"/>
            </g>
            <g id="Group_42545" data-name="Group 42545" transform="translate(108.452 12.208)">
              <path id="Path_53760" data-name="Path 53760" d="M1247.068,574.406c-3.775,3.154-5.463,12.874-2,13.391C1248.646,588.332,1249.666,577.951,1247.068,574.406Z" transform="translate(-1243.183 -574.406)" fill="url(#linear-gradient-70)"/>
              <path id="Path_53761" data-name="Path 53761" d="M1249.567,604.024c-.157,3.5,9.707,3.71,13.527.611C1260.114,601.4,1249.73,600.408,1249.567,604.024Z" transform="translate(-1246.693 -589.43)" fill="url(#linear-gradient-71)"/>
            </g>
            <g id="Group_42546" data-name="Group 42546" transform="translate(117.127 7.707)">
              <path id="Path_53762" data-name="Path 53762" d="M1267.7,564.4c-4.038,2.395-7.112,11.295-3.928,12.311C1267.066,577.766,1269.611,568.141,1267.7,564.4Z" transform="translate(-1262.456 -564.405)" fill="url(#linear-gradient-72)"/>
              <path id="Path_53763" data-name="Path 53763" d="M1267.01,592.66c-.681,3.272,8.578,4.976,12.65,2.639C1277.346,591.8,1267.716,589.28,1267.01,592.66Z" transform="translate(-1264.941 -579.065)" fill="url(#linear-gradient-73)"/>
            </g>
            <g id="Group_42547" data-name="Group 42547" transform="translate(124.365 4.846)">
              <path id="Path_53764" data-name="Path 53764" d="M1284.561,558.049c-4.071,1.843-7.914,9.945-5.006,11.24C1282.558,570.627,1285.974,561.785,1284.561,558.049Z" transform="translate(-1278.537 -558.049)" fill="url(#linear-gradient-74)"/>
              <path id="Path_53765" data-name="Path 53765" d="M1281.978,584.392c-.989,3.024,7.6,5.607,11.7,3.823C1291.851,584.661,1283,581.266,1281.978,584.392Z" transform="translate(-1280.387 -571.858)" fill="url(#linear-gradient-75)"/>
            </g>
            <g id="Group_42548" data-name="Group 42548" transform="translate(132.172 2.235)">
              <path id="Path_53766" data-name="Path 53766" d="M1303.22,552.247c-4.129.992-9.159,7.864-6.679,9.591C1299.1,563.623,1303.872,555.984,1303.22,552.247Z" transform="translate(-1295.882 -552.247)" fill="url(#linear-gradient-76)"/>
              <path id="Path_53767" data-name="Path 53767" d="M1297.8,575.474c-1.464,2.645,6.084,6.589,10.226,5.656C1306.958,577.489,1299.308,572.741,1297.8,575.474Z" transform="translate(-1296.834 -564.573)" fill="url(#linear-gradient-77)"/>
            </g>
            <g id="Group_42549" data-name="Group 42549" transform="translate(139.367)">
              <path id="Path_53768" data-name="Path 53768" d="M1319.282,547.282c-3.96.7-9.112,6.908-6.868,8.684C1314.737,557.8,1319.682,550.854,1319.282,547.282Z" transform="translate(-1311.869 -547.282)" fill="url(#linear-gradient-78)"/>
              <path id="Path_53769" data-name="Path 53769" d="M1313.288,568.534c-1.535,2.417,5.375,6.579,9.345,5.936C1321.835,570.966,1314.875,566.037,1313.288,568.534Z" transform="translate(-1312.529 -558.595)" fill="url(#linear-gradient-79)"/>
            </g>
          </g>
          <g id="Group_42581" data-name="Group 42581" transform="translate(251.498)">
            <g id="Group_42551" data-name="Group 42551" transform="translate(0 8.778)">
              <path id="Path_53770" data-name="Path 53770" d="M1568.388,937.405l-.064-.447c95.829-13.453,168.093-96.057,168.093-192.143,0-76.848-45.839-146.567-116.78-177.618l.185-.413A196.013,196.013,0,0,1,1704.2,637.3a193.087,193.087,0,0,1-15.854,235.576A196.629,196.629,0,0,1,1568.388,937.405Z" transform="translate(-1568.324 -566.784)" fill="url(#linear-gradient-80)"/>
            </g>
            <path id="Path_53771" data-name="Path 53771" d="M1625.995,1281.724c6.772,16.269-3.963,49.944-15.821,45.851C1597.92,1323.347,1611.871,1288.684,1625.995,1281.724Zm-17.008,51.971c-4.02,11.882,29.717,22.415,45.946,15.546C1647.888,1335.16,1613.142,1321.416,1608.987,1333.695Z" transform="translate(-1588.749 -954.455)" fill="url(#linear-gradient-81)"/>
            <g id="Group_42552" data-name="Group 42552" transform="translate(41.913 320.93)">
              <path id="Path_53772" data-name="Path 53772" d="M1722.474,1376.346c-14.3,8.364-47.013,2.624-44.7-8.937C1680.161,1355.464,1714.208,1364.074,1722.474,1376.346Z" transform="translate(-1670.36 -1319.36)" fill="url(#linear-gradient-82)"/>
              <path id="Path_53773" data-name="Path 53773" d="M1666.178,1311.185c-11.261-3.488-.681-34.976,13.494-43.542C1686.507,1280.767,1677.816,1314.792,1666.178,1311.185Z" transform="translate(-1661.446 -1267.643)" fill="url(#linear-gradient-83)"/>
            </g>
            <g id="Group_42553" data-name="Group 42553" transform="translate(66.163 309.292)">
              <path id="Path_53774" data-name="Path 53774" d="M1774.941,1346.533c-13.725,8.288-45.468,3.176-43.387-8.045C1733.7,1326.894,1766.774,1334.766,1774.941,1346.533Z" transform="translate(-1724.195 -1291.835)" fill="url(#linear-gradient-84)"/>
              <path id="Path_53775" data-name="Path 53775" d="M1720.027,1284.112c-10.946-3.225-1.133-33.844,12.472-42.328C1739.292,1254.4,1731.338,1287.445,1720.027,1284.112Z" transform="translate(-1715.322 -1241.784)" fill="url(#linear-gradient-85)"/>
            </g>
            <g id="Group_42554" data-name="Group 42554" transform="translate(88.234 293.519)">
              <path id="Path_53776" data-name="Path 53776" d="M1826.618,1302.7c-12.167,9.6-43.239,8.524-42.595-2.491C1784.688,1288.825,1817.364,1292.392,1826.618,1302.7Z" transform="translate(-1775.167 -1254.266)" fill="url(#linear-gradient-86)"/>
              <path id="Path_53777" data-name="Path 53777" d="M1770.147,1248.851c-10.891-1.775-5.166-32.333,6.864-42.11C1785.048,1218.019,1781.4,1250.686,1770.147,1248.851Z" transform="translate(-1764.36 -1206.741)" fill="url(#linear-gradient-87)"/>
            </g>
            <g id="Group_42555" data-name="Group 42555" transform="translate(105.546 277.405)">
              <path id="Path_53778" data-name="Path 53778" d="M1867.753,1254.151c-10.4,10.767-40.282,13.75-41.089,3.124C1825.829,1246.295,1857.565,1245.485,1867.753,1254.151Z" transform="translate(-1815.925 -1212.813)" fill="url(#linear-gradient-88)"/>
              <path id="Path_53779" data-name="Path 53779" d="M1810.13,1210.682c-10.654-.292-9.123-30.278,1.125-41.192C1820.407,1179.246,1821.138,1210.983,1810.13,1210.682Z" transform="translate(-1802.823 -1169.49)" fill="url(#linear-gradient-89)"/>
            </g>
            <g id="Group_42556" data-name="Group 42556" transform="translate(119.519 259.993)">
              <path id="Path_53780" data-name="Path 53780" d="M1902.536,1199.56c-8.264,11.843-36.266,19.248-38.657,9.25C1861.406,1198.48,1891.508,1192.862,1902.536,1199.56Z" transform="translate(-1850.291 -1166.817)" fill="url(#linear-gradient-90)"/>
              <path id="Path_53781" data-name="Path 53781" d="M1843.686,1169.77c-10.19,1.35-13.314-27.443-5.221-39.405C1848.671,1138.26,1854.216,1168.374,1843.686,1169.77Z" transform="translate(-1833.868 -1130.365)" fill="url(#linear-gradient-91)"/>
            </g>
            <g id="Group_42557" data-name="Group 42557" transform="translate(131.07 244.586)">
              <path id="Path_53782" data-name="Path 53782" d="M1926.15,1153.193c-6.795,11.528-32.139,20.355-35.056,11.29C1888.076,1155.114,1915.487,1147.787,1926.15,1153.193Z" transform="translate(-1876.761 -1126.323)" fill="url(#linear-gradient-92)"/>
              <path id="Path_53783" data-name="Path 53783" d="M1870.2,1131.778c-9.319,1.971-14.248-24.41-7.62-36.034C1872.57,1102.313,1879.83,1129.742,1870.2,1131.778Z" transform="translate(-1859.532 -1095.744)" fill="url(#linear-gradient-93)"/>
            </g>
            <g id="Group_42558" data-name="Group 42558" transform="translate(138.858 227.203)">
              <path id="Path_53784" data-name="Path 53784" d="M1944.56,1103.2c-5.451,11.637-28.88,22.376-32.494,13.972C1908.332,1108.493,1933.876,1099,1944.56,1103.2Z" transform="translate(-1896.005 -1081.715)" fill="url(#linear-gradient-94)"/>
              <path id="Path_53785" data-name="Path 53785" d="M1889.2,1090.479c-8.73,2.729-15.834-22.046-10.549-33.76C1888.792,1062.093,1898.22,1087.658,1889.2,1090.479Z" transform="translate(-1876.834 -1056.718)" fill="url(#linear-gradient-95)"/>
            </g>
            <g id="Group_42559" data-name="Group 42559" transform="translate(143.108 210.151)">
              <path id="Path_53786" data-name="Path 53786" d="M1956.933,1048.649c-3.525,11.8-24.228,25.3-28.841,17.839C1923.325,1058.78,1946.207,1046.173,1956.933,1048.649Z" transform="translate(-1908.917 -1034.873)" fill="url(#linear-gradient-96)"/>
              <path id="Path_53787" data-name="Path 53787" d="M1901.708,1048.953c-7.9,3.821-18.13-18.671-14.774-30.526C1897.314,1022.092,1909.864,1045.005,1901.708,1048.953Z" transform="translate(-1886.278 -1018.428)" fill="url(#linear-gradient-97)"/>
            </g>
            <g id="Group_42560" data-name="Group 42560" transform="translate(146.449 192.886)">
              <path id="Path_53788" data-name="Path 53788" d="M1964.363,1000.069c-2.389,11.546-21.015,26.114-26.028,19.383C1933.156,1012.5,1953.934,998.593,1964.363,1000.069Z" transform="translate(-1917.797 -990.835)" fill="url(#linear-gradient-98)"/>
              <path id="Path_53789" data-name="Path 53789" d="M1910.577,1007.572c-7.212,4.293-18.822-16.307-16.6-27.886C1904.177,982.325,1918.03,1003.136,1910.577,1007.572Z" transform="translate(-1893.7 -979.686)" fill="url(#linear-gradient-99)"/>
            </g>
            <g id="Group_42561" data-name="Group 42561" transform="translate(147.139 176.302)">
              <path id="Path_53790" data-name="Path 53790" d="M1966.507,949.74c-.9,11.225-16.826,27.235-22.373,21.449C1938.4,965.208,1956.448,949.575,1966.507,949.74Z" transform="translate(-1921.52 -946.465)" fill="url(#linear-gradient-100)"/>
              <path id="Path_53791" data-name="Path 53791" d="M1914.292,966.93c-6.327,4.922-19.768-13.227-19.03-24.463C1905.238,943.761,1920.83,961.844,1914.292,966.93Z" transform="translate(-1895.233 -942.467)" fill="url(#linear-gradient-101)"/>
            </g>
            <g id="Group_42562" data-name="Group 42562" transform="translate(146.726 159.162)">
              <path id="Path_53792" data-name="Path 53792" d="M1961.993,904.027c.652,10.179-11.548,26.6-17.273,22.133C1938.806,921.544,1952.953,905.185,1961.993,904.027Z" transform="translate(-1921.262 -904.027)" fill="url(#linear-gradient-102)"/>
              <path id="Path_53793" data-name="Path 53793" d="M1914.551,929.935c-5.031,5.233-19.437-9.291-20.235-19.461C1903.429,910.34,1919.752,924.527,1914.551,929.935Z" transform="translate(-1894.316 -907.572)" fill="url(#linear-gradient-103)"/>
            </g>
            <g id="Group_42563" data-name="Group 42563" transform="translate(145.366 142.034)">
              <path id="Path_53794" data-name="Path 53794" d="M1956.487,865.639c1.375,9.572-8.929,26-14.673,22.206C1935.879,883.924,1948.03,867.408,1956.487,865.639Z" transform="translate(-1918.21 -865.639)" fill="url(#linear-gradient-104)"/>
              <path id="Path_53795" data-name="Path 53795" d="M1911.872,895.319c-4.366,5.322-19.064-7.33-20.577-16.881C1899.9,877.63,1916.383,889.821,1911.872,895.319Z" transform="translate(-1891.295 -872.656)" fill="url(#linear-gradient-105)"/>
            </g>
            <g id="Group_42564" data-name="Group 42564" transform="translate(143.475 127.822)">
              <path id="Path_53796" data-name="Path 53796" d="M1949.083,833.782c1.713,8.978-7.307,24.936-12.893,21.6C1930.417,851.938,1941.174,835.818,1949.083,833.782Z" transform="translate(-1913.192 -833.782)" fill="url(#linear-gradient-106)"/>
              <path id="Path_53797" data-name="Path 53797" d="M1907.252,864.539c-3.892,5.213-18.316-6.1-20.159-15.049C1895.181,848.355,1911.274,859.151,1907.252,864.539Z" transform="translate(-1887.093 -842.374)" fill="url(#linear-gradient-107)"/>
            </g>
            <g id="Group_42565" data-name="Group 42565" transform="translate(140.274 113.012)">
              <path id="Path_53798" data-name="Path 53798" d="M1938.6,800.584c2.034,8.366-5.7,23.8-11.115,20.929C1921.89,818.543,1931.255,802.871,1938.6,800.584Z" transform="translate(-1905.167 -800.584)" fill="url(#linear-gradient-108)"/>
              <path id="Path_53799" data-name="Path 53799" d="M1899.654,832.232c-3.417,5.088-17.521-4.875-19.674-13.211C1887.535,817.573,1903.184,826.975,1899.654,832.232Z" transform="translate(-1879.98 -810.641)" fill="url(#linear-gradient-109)"/>
            </g>
            <g id="Group_42566" data-name="Group 42566" transform="translate(135.867 99.202)">
              <path id="Path_53800" data-name="Path 53800" d="M1925.247,769.624c2.125,7.8-4.731,22.477-9.883,19.921C1910.041,786.9,1918.417,771.96,1925.247,769.624Z" transform="translate(-1894.104 -769.624)" fill="url(#linear-gradient-110)"/>
              <path id="Path_53801" data-name="Path 53801" d="M1888.987,800.668c-3.074,4.862-16.561-4.119-18.8-11.883C1877.239,787.232,1892.163,795.645,1888.987,800.668Z" transform="translate(-1870.19 -780.058)" fill="url(#linear-gradient-111)"/>
            </g>
            <g id="Group_42567" data-name="Group 42567" transform="translate(131.495 86.85)">
              <path id="Path_53802" data-name="Path 53802" d="M1911.924,741.936c2.17,7.231-3.883,21.109-8.756,18.844C1898.132,758.441,1905.6,744.282,1911.924,741.936Z" transform="translate(-1883.042 -741.936)" fill="url(#linear-gradient-112)"/>
              <path id="Path_53803" data-name="Path 53803" d="M1878.318,772.081c-2.755,4.614-15.567-3.452-17.842-10.651C1867.023,759.81,1881.165,767.313,1878.318,772.081Z" transform="translate(-1860.476 -752.532)" fill="url(#linear-gradient-113)"/>
            </g>
            <g id="Group_42568" data-name="Group 42568" transform="translate(125.26 74.167)">
              <path id="Path_53804" data-name="Path 53804" d="M1894.344,713.505c2.376,6.6-2.556,19.791-7.194,17.93C1882.359,729.513,1888.59,716,1894.344,713.505Z" transform="translate(-1867.971 -713.505)" fill="url(#linear-gradient-114)"/>
              <path id="Path_53805" data-name="Path 53805" d="M1863.718,743.649c-2.328,4.421-14.626-2.431-17.095-9C1852.621,732.817,1866.122,739.081,1863.718,743.649Z" transform="translate(-1846.623 -724.952)" fill="url(#linear-gradient-115)"/>
            </g>
            <g id="Group_42569" data-name="Group 42569" transform="translate(119.302 63.722)">
              <path id="Path_53806" data-name="Path 53806" d="M1872.1,707.351c4.462,1.192,7.523-11.457,4.61-17.255C1871.71,693.021,1867.494,706.119,1872.1,707.351Z" transform="translate(-1853.588 -690.096)" fill="url(#linear-gradient-116)"/>
              <path id="Path_53807" data-name="Path 53807" d="M1833.387,715.558c3,5.757,15.042,10.68,16.688,6.364C1851.776,717.461,1838.689,713.213,1833.387,715.558Z" transform="translate(-1833.387 -703.731)" fill="url(#linear-gradient-117)"/>
            </g>
            <g id="Group_42570" data-name="Group 42570" transform="translate(112.651 54.93)">
              <path id="Path_53808" data-name="Path 53808" d="M1860.785,669.323c2.58,5.709-.878,17.789-5.135,16.46C1851.25,684.411,1855.841,671.945,1860.785,669.323Z" transform="translate(-1838.004 -669.323)" fill="url(#linear-gradient-118)"/>
              <path id="Path_53809" data-name="Path 53809" d="M1834.451,698.81c-1.759,4.1-13.184-1.133-15.843-6.8C1823.816,689.956,1836.27,694.576,1834.451,698.81Z" transform="translate(-1818.608 -681.52)" fill="url(#linear-gradient-119)"/>
            </g>
            <g id="Group_42571" data-name="Group 42571" transform="translate(105.4 45.32)">
              <path id="Path_53810" data-name="Path 53810" d="M1842.349,647.972c2.962,5.264.666,17.16-3.535,16.246C1834.472,663.273,1837.823,650.911,1842.349,647.972Z" transform="translate(-1821.359 -647.972)" fill="url(#linear-gradient-120)"/>
              <path id="Path_53811" data-name="Path 53811" d="M1818.294,678.852c-1.342,4.085-12.759.032-15.794-5.189C1807.327,671.251,1819.682,674.631,1818.294,678.852Z" transform="translate(-1802.5 -661.657)" fill="url(#linear-gradient-121)"/>
            </g>
            <g id="Group_42572" data-name="Group 42572" transform="translate(96.931 36.127)">
              <path id="Path_53812" data-name="Path 53812" d="M1820.432,627.549c3.414,4.708,2.531,16.341-1.587,15.93C1814.587,643.055,1816.427,630.86,1820.432,627.549Z" transform="translate(-1801.68 -627.549)" fill="url(#linear-gradient-122)"/>
              <path id="Path_53813" data-name="Path 53813" d="M1799.364,659.773c-.833,4.055-12.2,1.44-15.682-3.22C1788.034,653.714,1800.224,655.582,1799.364,659.773Z" transform="translate(-1783.682 -642.752)" fill="url(#linear-gradient-123)"/>
            </g>
            <g id="Group_42573" data-name="Group 42573" transform="translate(90.225 29.339)">
              <path id="Path_53814" data-name="Path 53814" d="M1803.308,612.467c3.487,4.373,3.151,15.582-.823,15.369C1798.376,627.616,1799.608,615.823,1803.308,612.467Z" transform="translate(-1785.905 -612.467)" fill="url(#linear-gradient-124)"/>
              <path id="Path_53815" data-name="Path 53815" d="M1783.986,644.205c-.623,3.932-11.655,1.919-15.2-2.4C1772.838,638.883,1784.628,640.142,1783.986,644.205Z" transform="translate(-1768.784 -627.722)" fill="url(#linear-gradient-125)"/>
            </g>
            <g id="Group_42574" data-name="Group 42574" transform="translate(83.489 23.59)">
              <path id="Path_53816" data-name="Path 53816" d="M1786.405,599.694c3.467,4.1,3.46,14.863-.36,14.77C1782.1,614.367,1782.948,603.018,1786.405,599.694Z" transform="translate(-1770.102 -599.694)" fill="url(#linear-gradient-126)"/>
              <path id="Path_53817" data-name="Path 53817" d="M1768.472,630.565c-.486,3.79-11.129,2.168-14.655-1.879C1757.626,625.772,1768.974,626.648,1768.472,630.565Z" transform="translate(-1753.816 -614.688)" fill="url(#linear-gradient-127)"/>
            </g>
            <g id="Group_42575" data-name="Group 42575" transform="translate(76.252 17.946)">
              <path id="Path_53818" data-name="Path 53818" d="M1768.736,587.153c3.369,3.887,3.485,14.2-.174,14.156C1764.778,601.262,1765.462,590.378,1768.736,587.153Z" transform="translate(-1753.276 -587.153)" fill="url(#linear-gradient-128)"/>
              <path id="Path_53819" data-name="Path 53819" d="M1751.8,616.88c-.423,3.637-10.638,2.206-14.063-1.632C1741.354,612.412,1752.239,613.122,1751.8,616.88Z" transform="translate(-1737.739 -601.649)" fill="url(#linear-gradient-129)"/>
            </g>
            <g id="Group_42576" data-name="Group 42576" transform="translate(68.163 12.208)">
              <path id="Path_53820" data-name="Path 53820" d="M1745.8,574.406c3.775,3.154,5.463,12.874,2,13.391C1744.219,588.332,1743.2,577.951,1745.8,574.406Z" transform="translate(-1733.283 -574.406)" fill="url(#linear-gradient-130)"/>
              <path id="Path_53821" data-name="Path 53821" d="M1733.292,604.024c.157,3.5-9.705,3.71-13.526.611C1722.747,601.4,1733.13,600.408,1733.292,604.024Z" transform="translate(-1719.767 -589.43)" fill="url(#linear-gradient-131)"/>
            </g>
            <g id="Group_42577" data-name="Group 42577" transform="translate(61.169 7.707)">
              <path id="Path_53822" data-name="Path 53822" d="M1724.471,564.4c4.038,2.395,7.11,11.295,3.926,12.311C1725.109,577.766,1722.564,568.141,1724.471,564.4Z" transform="translate(-1714.999 -564.405)" fill="url(#linear-gradient-132)"/>
              <path id="Path_53823" data-name="Path 53823" d="M1716.878,592.66c.682,3.272-8.578,4.976-12.65,2.639C1706.542,591.8,1716.173,589.28,1716.878,592.66Z" transform="translate(-1704.228 -579.065)" fill="url(#linear-gradient-133)"/>
            </g>
            <g id="Group_42578" data-name="Group 42578" transform="translate(55.363 4.846)">
              <path id="Path_53824" data-name="Path 53824" d="M1707.064,558.049c4.073,1.843,7.915,9.945,5.006,11.24C1709.066,570.627,1705.651,561.785,1707.064,558.049Z" transform="translate(-1699.801 -558.049)" fill="url(#linear-gradient-134)"/>
              <path id="Path_53825" data-name="Path 53825" d="M1703.023,584.392c.99,3.024-7.6,5.607-11.7,3.823C1693.152,584.661,1702,581.266,1703.023,584.392Z" transform="translate(-1691.327 -571.858)" fill="url(#linear-gradient-135)"/>
            </g>
            <g id="Group_42579" data-name="Group 42579" transform="translate(49.652 2.235)">
              <path id="Path_53826" data-name="Path 53826" d="M1687.127,552.247c4.13.992,9.161,7.864,6.68,9.591C1691.244,563.623,1686.476,555.984,1687.127,552.247Z" transform="translate(-1683.274 -552.247)" fill="url(#linear-gradient-136)"/>
              <path id="Path_53827" data-name="Path 53827" d="M1688.869,575.474c1.462,2.645-6.085,6.589-10.229,5.656C1679.707,577.489,1687.356,572.741,1688.869,575.474Z" transform="translate(-1678.64 -564.573)" fill="url(#linear-gradient-137)"/>
            </g>
            <g id="Group_42580" data-name="Group 42580" transform="translate(43.544)">
              <path id="Path_53828" data-name="Path 53828" d="M1677.889,555.966c2.245-1.776-2.906-7.984-6.867-8.684C1670.622,550.854,1675.567,557.8,1677.889,555.966Z" transform="translate(-1668.331 -547.282)" fill="url(#linear-gradient-138)"/>
              <path id="Path_53829" data-name="Path 53829" d="M1665.07,574.47c3.97.643,10.879-3.519,9.344-5.936C1672.828,566.037,1665.867,570.966,1665.07,574.47Z" transform="translate(-1665.07 -558.595)" fill="url(#linear-gradient-139)"/>
            </g>
          </g>
        </g>
        <path id="Path_53830" data-name="Path 53830" d="M1477.539,1360.625l4.28,13.176h13.853l-11.208,8.142,4.281,13.176-11.207-8.142-11.208,8.142,4.28-13.176L1459.4,1373.8h13.853Z" transform="translate(-1255.282 -997.845)" fill="url(#linear-gradient-5)"/>
      </g>
    </g>
  </g>
</svg>
