<svg xmlns="http://www.w3.org/2000/svg" width="18.693" height="18.693" viewBox="0 0 18.693 18.693">
  <g id="add_cash" transform="translate(-704 -284)">
    <path id="Path_45260" data-name="Path 45260" d="M722.693,293.894c-.048.36-.085.722-.148,1.08a9.185,9.185,0,0,1-1.436,3.557.728.728,0,1,1-1.211-.808,7.529,7.529,0,0,0,1.192-2.934A7.7,7.7,0,0,0,718,287a7.505,7.505,0,0,0-5.026-1.531,7.883,7.883,0,0,0-1.984,15.4,7.727,7.727,0,0,0,6.348-.722.833.833,0,0,1,.606-.139.729.729,0,0,1,.218,1.349,8.486,8.486,0,0,1-2.479,1.035c-.531.124-1.076.183-1.615.272-.047.008-.093.021-.14.031h-1.168c-.047-.01-.093-.024-.14-.031-.438-.064-.882-.1-1.315-.195a9.349,9.349,0,0,1-7.163-7.492c-.057-.347-.1-.7-.144-1.045v-1.168c.011-.053.023-.106.031-.159.062-.42.1-.845.188-1.261a9.343,9.343,0,0,1,7.5-7.2c.347-.057.7-.1,1.045-.144h1.168c.047.01.093.023.141.03.48.074.966.119,1.438.227a9.328,9.328,0,0,1,7.042,7.478c.057.341.095.685.142,1.027Z" fill="#2bba46"/>
    <path id="Path_45261" data-name="Path 45261" d="M853.273,433.225c0-.865,0-1.7,0-2.542a.729.729,0,1,1,1.458.013c0,.766,0,1.533,0,2.3v.231h2.495a.732.732,0,1,1,.007,1.46c-.76,0-1.52,0-2.281,0h-.221v.205q0,1.14,0,2.281a.733.733,0,1,1-1.46.005c0-.821,0-1.641,0-2.491h-.2c-.784,0-1.569,0-2.354,0a.721.721,0,0,1-.714-.565.705.705,0,0,1,.363-.8.976.976,0,0,1,.4-.089c.76-.008,1.52,0,2.281,0Z" transform="translate(-140.657 -140.609)" fill="#2bba46"/>
  </g>
</svg>
