<svg xmlns="http://www.w3.org/2000/svg" width="41" height="42" viewBox="0 0 41 42">
  <g id="facebook" transform="translate(-0.477 0.067)">
    <ellipse id="Ellipse_3093" data-name="Ellipse 3093" cx="20.5" cy="21" rx="20.5" ry="21" transform="translate(0.477 -0.067)" fill="#2853fc" opacity="0.13"/>
    <path id="Facebook-2" data-name="Facebook" d="M305.092,275.343l-3.514-.078a5.15,5.15,0,0,0-5.264,5.148v3.333h-3.265a.243.243,0,0,0-.243.243v4.188a.243.243,0,0,0,.243.243h3.265v10.6a.243.243,0,0,0,.243.243h4.323a.242.242,0,0,0,.243-.243v-10.6h3.293a.242.242,0,0,0,.241-.212l.544-4.188a.243.243,0,0,0-.241-.274h-3.837v-2.118a2.419,2.419,0,0,1,.446-1.616,1.32,1.32,0,0,1,1.034-.4h2.484a.243.243,0,0,0,.243-.243v-3.781A.244.244,0,0,0,305.092,275.343Z" transform="translate(-278.091 -266.285)" fill="#2853fc"/>
  </g>
</svg>
