<svg xmlns="http://www.w3.org/2000/svg" width="43" height="42" viewBox="0 0 43 42">
  <g id="sms" transform="translate(-0.357 0.067)">
    <g id="Group_42374" data-name="Group 42374" transform="translate(0 0)">
      <g id="Group_42371" data-name="Group 42371">
        <ellipse id="Ellipse_3093" data-name="Ellipse 3093" cx="21.5" cy="21" rx="21.5" ry="21" transform="translate(0.357 -0.067)" fill="#36d4f4" opacity="0.13"/>
      </g>
    </g>
    <g id="Group_42375" data-name="Group 42375" transform="translate(10.653 8.99)">
      <path id="Path_53683" data-name="Path 53683" d="M54,187.567H52.63c-.27-.034-.54-.063-.809-.1a11.587,11.587,0,0,1-3.964-1.309.5.5,0,0,0-.345-.029c-.543.161-1.082.339-1.621.515q-1.415.46-2.828.924h-.354a1.078,1.078,0,0,1-.709-.709V186.5c.01-.01.025-.019.029-.031.467-1.458.931-2.918,1.4-4.374a.494.494,0,0,0-.035-.433,10.809,10.809,0,0,1-1.234-3.573c-.061-.384-.109-.771-.163-1.156v-1.373a1.513,1.513,0,0,0,.038-.191,10.682,10.682,0,0,1,1.293-4.467,11.177,11.177,0,0,1,8.033-5.838c.433-.083.874-.12,1.311-.179H54a1.2,1.2,0,0,0,.171.036,10.676,10.676,0,0,1,4.489,1.295,11.176,11.176,0,0,1,5.836,8.034c.083.432.12.872.179,1.309v1.329a1.508,1.508,0,0,0-.038.191,10.681,10.681,0,0,1-1.293,4.467,11.178,11.178,0,0,1-8.033,5.838C54.882,187.471,54.44,187.509,54,187.567Zm-9.742-2.261c.96-.308,1.884-.567,2.779-.9a1.8,1.8,0,0,1,1.663.175,9.559,9.559,0,1,0-3.04-14.027,9.309,9.309,0,0,0-1.687,7.623,8.972,8.972,0,0,0,1.183,3.009,1.092,1.092,0,0,1,.106,1.011c-.1.283-.19.573-.282.861C44.747,183.79,44.512,184.525,44.261,185.306Z" transform="translate(-42 -164.89)" fill="#0c5856"/>
      <path id="Path_53684" data-name="Path 53684" d="M42,660.89a1.078,1.078,0,0,0,.709.709H42Z" transform="translate(-42 -638.921)" fill="#0c5856"/>
      <path id="Path_53685" data-name="Path 53685" d="M174.148,398.137a1.106,1.106,0,1,1,1.1-1.1A1.115,1.115,0,0,1,174.148,398.137Z" transform="translate(-167.232 -385.693)" fill="#0c5856"/>
      <path id="Path_53686" data-name="Path 53686" d="M275.247,397.03a1.106,1.106,0,1,1-1.1-1.1A1.115,1.115,0,0,1,275.247,397.03Z" transform="translate(-262.803 -385.692)" fill="#0c5856"/>
      <path id="Path_53687" data-name="Path 53687" d="M375.247,397.025a1.106,1.106,0,1,1-1.1-1.1A1.115,1.115,0,0,1,375.247,397.025Z" transform="translate(-358.373 -385.693)" fill="#0c5856"/>
    </g>
  </g>
</svg>
