<svg xmlns="http://www.w3.org/2000/svg" width="22.313" height="27.861" viewBox="0 0 22.313 27.861">
  <g id="copy" transform="translate(-141.586 -226.534)">
    <path id="Path_53680" data-name="Path 53680" d="M143.491,317.779a2.556,2.556,0,0,1-1.349-.751,2.379,2.379,0,0,1-.557-1.631q0-6.12,0-12.239c0-2.022,0-4.043,0-6.065a2.184,2.184,0,0,1,1.705-2.229,2.8,2.8,0,0,1,.673-.066q6.3-.005,12.595,0a2.2,2.2,0,0,1,2.3,1.652,2.77,2.77,0,0,1,.082.726c0,6.074,0,12.149.009,18.223a2.265,2.265,0,0,1-1.867,2.352c-.016,0-.028.02-.043.031Zm-.373-11.509v5.3q0,1.918,0,3.835a.714.714,0,0,0,.412.757,1.4,1.4,0,0,0,.507.067q6.217.005,12.433,0c.711,0,.931-.218.931-.922q0-9.031,0-18.062c0-.7-.217-.916-.9-.916h-12.46c-.7,0-.919.219-.919.929Q143.118,301.769,143.118,306.271Z" transform="translate(0 -63.385)" fill="#2bba46"/>
    <path id="Path_53681" data-name="Path 53681" d="M228.379,238.045q0,4.57,0,9.139a2.142,2.142,0,0,1-1.24,2.093,2.827,2.827,0,0,1-.992.226.706.706,0,0,1-.729-.665.75.75,0,0,1,.531-.816,1.168,1.168,0,0,1,.159-.037c.56-.092.735-.288.735-.847q0-9.112,0-18.224c0-.586-.258-.841-.849-.841q-6.3,0-12.6,0a.717.717,0,0,0-.843.714.756.756,0,0,1-.856.709.772.772,0,0,1-.664-.924,2.178,2.178,0,0,1,2.221-2.032q6.447-.016,12.895,0a2.191,2.191,0,0,1,2.228,2.309Q228.384,233.448,228.379,238.045Z" transform="translate(-64.481 0)" fill="#2bba46"/>
  </g>
</svg>
