<svg xmlns="http://www.w3.org/2000/svg" width="32" height="32" viewBox="0 0 32 32">
  <g id="my_wallet" transform="translate(-18 -143)">
    <circle id="Ellipse_550" data-name="Ellipse 550" cx="16" cy="16" r="16" transform="translate(18 143)" opacity="0.05"/>
    <g id="Group_42068" data-name="Group 42068" transform="translate(-742.39 -198.782)">
      <path id="Path_45255" data-name="Path 45255" d="M768,469.142V458.566a.727.727,0,0,0,.031-.082,1.4,1.4,0,0,1,1.434-1.13q6.821,0,13.641,0a1.408,1.408,0,0,1,1.468,1.478q0,1.1,0,2.2c0,.051-.006.1-.01.167h-.2c-.763,0-1.526-.006-2.288,0a2.659,2.659,0,0,0-.048,5.318c.78.013,1.561,0,2.342,0h.188a.325.325,0,0,1,.019.067c0,.81.019,1.621-.008,2.43a1.324,1.324,0,0,1-.8,1.187,3.565,3.565,0,0,1-.4.142H769.207a4.492,4.492,0,0,1-.591-.258A1.464,1.464,0,0,1,768,469.142Z" transform="translate(0 -104.177)" fill="#fff"/>
      <path id="Path_45256" data-name="Path 45256" d="M818.188,348c.5.134.577.569.711.99-.23,0-.442-.005-.654,0a1.765,1.765,0,0,0-1.724,1.745c-.007.449,0,.9,0,1.375h-.2c-1.544,0-3.087,0-4.631,0a.218.218,0,0,1-.249-.18c-.072-.231-.166-.455-.246-.683a.71.71,0,0,1,.455-.967l6.191-2.251a.428.428,0,0,0,.06-.033Z" transform="translate(-41.102)" fill="#fff"/>
      <path id="Path_45257" data-name="Path 45257" d="M1037.69,563.859a.654.654,0,0,1-.691.4c-1.147-.013-2.294,0-3.441-.011a1.592,1.592,0,0,1,.031-3.184c1.182-.015,2.365-.005,3.547,0a.572.572,0,0,1,.554.419Zm-4.076-.67a.53.53,0,0,0,.527-.529.532.532,0,1,0-1.064.01A.53.53,0,0,0,1033.613,563.189Z" transform="translate(-251.518 -202.975)" fill="#fff"/>
      <path id="Path_45258" data-name="Path 45258" d="M768,706.5a1.464,1.464,0,0,0,.616.949,4.491,4.491,0,0,0,.591.258H768Z" transform="translate(0 -341.535)" fill="#fff"/>
      <path id="Path_45259" data-name="Path 45259" d="M953.467,393.416h-6.2c0-.491-.022-.976.007-1.457a.656.656,0,0,1,.67-.589q2.422-.007,4.844,0a.675.675,0,0,1,.676.646C953.478,392.477,953.467,392.938,953.467,393.416Z" transform="translate(-170.776 -41.314)" fill="#2bba46"/>
    </g>
  </g>
</svg>
