<svg xmlns="http://www.w3.org/2000/svg" width="43" height="43" viewBox="0 0 43 43">
  <g id="order" transform="translate(-30 -247)">
    <path id="Path_53196" data-name="Path 53196" d="M21.5,0A21.5,21.5,0,1,1,0,21.5,21.5,21.5,0,0,1,21.5,0Z" transform="translate(30 247)" fill="red" opacity="0.15"/>
    <g id="Group_42098" data-name="Group 42098" transform="translate(66.807 369.021)">
      <g id="Group_42096" data-name="Group 42096" transform="translate(-26.191 -111.709)">
        <path id="Path_53193" data-name="Path 53193" d="M-14.9-87.334a11.4,11.4,0,0,1-11.048-9.051A11.316,11.316,0,0,1-17.346-109.7a10.983,10.983,0,0,1,5.672.219.32.32,0,0,0,.422-.136,5.178,5.178,0,0,1,5.36-1.949,5.174,5.174,0,0,1,3.925,4.237,5.1,5.1,0,0,1-2.021,5,.311.311,0,0,0-.138.4,11.272,11.272,0,0,1-8.736,14.361C-13.534-87.442-14.223-87.411-14.9-87.334Zm2.761-20.459a9.461,9.461,0,0,0-10.534,3.574,9.574,9.574,0,0,0,.963,12.248A9.525,9.525,0,0,0-9.62-90.716,9.495,9.495,0,0,0-5.8-101.443a5.06,5.06,0,0,1-4.955-1.367A5.087,5.087,0,0,1-12.143-107.794ZM-7.1-103.02a3.373,3.373,0,0,0,3.463-3.463,3.532,3.532,0,0,0-3.47-3.483,3.516,3.516,0,0,0-3.464,3.457A3.471,3.471,0,0,0-7.1-103.02Z" transform="translate(26.191 111.709)" fill="#ff0e0e"/>
      </g>
      <g id="Group_42097" data-name="Group 42097" transform="translate(-18.917 -102.89)">
        <path id="Path_53195" data-name="Path 53195" d="M78.42,21.34c-.025-.03-.048-.063-.076-.09q-1.98-1.985-3.962-3.968a.279.279,0,0,1-.089-.221c0-.384,0-.767,0-1.151v-.137h.135c.795,0,1.59.011,2.385,0a2.067,2.067,0,0,0,1.909-1.225c.028-.054.047-.113.076-.183H74.3V12.944H78.8a1.977,1.977,0,0,0-.436-.729,2.045,2.045,0,0,0-1.522-.685c-.8-.008-1.6,0-2.4,0h-.135a.541.541,0,0,1-.013-.08q0-.636,0-1.272a.436.436,0,0,1,.009-.064H81.4c0,.248.008.5.009.744,0,.219,0,.437,0,.671H79.628a3.629,3.629,0,0,1,.635,1.415H81.4v1.417H80.291a3.637,3.637,0,0,1-3.957,2.84l3.135,3.141-1.027,1Z" transform="translate(-74.293 -10.111)" fill="#ff0e0e"/>
      </g>
      <path id="Path_53201" data-name="Path 53201" d="M825.51,514.93a.584.584,0,0,1-.17.41.61.61,0,0,1-.41.17h-1.28v.01h-1.16v-.01h-1.28a.58.58,0,0,1,0-1.16h1.28v-.01h1.16v.01h1.28A.58.58,0,0,1,825.51,514.93Z" transform="translate(-830.437 -621.362)" fill="#ff0e0e"/>
    </g>
  </g>
</svg>
