<svg xmlns="http://www.w3.org/2000/svg" xmlns:xlink="http://www.w3.org/1999/xlink" width="340.258" height="269.484" viewBox="0 0 340.258 269.484">
  <defs>
    <linearGradient id="linear-gradient" y1="0.5" x2="1" y2="0.5" gradientUnits="objectBoundingBox">
      <stop offset="0.003" stop-color="#5ac364"/>
      <stop offset="1" stop-color="#c2ef6a"/>
    </linearGradient>
    <linearGradient id="linear-gradient-3" y1="0.5" x2="1" y2="0.5" gradientUnits="objectBoundingBox">
      <stop offset="0.003" stop-color="#1a1e2d"/>
      <stop offset="0.997" stop-color="#1a305a"/>
    </linearGradient>
    <linearGradient id="linear-gradient-6" y1="0.5" x2="1" y2="0.5" gradientUnits="objectBoundingBox">
      <stop offset="0.003" stop-color="#ffca55"/>
      <stop offset="1" stop-color="#e28427"/>
    </linearGradient>
    <linearGradient id="linear-gradient-8" x1="0.396" y1="1.725" x2="0.515" y2="0.405" gradientUnits="objectBoundingBox">
      <stop offset="0.003" stop-color="#1d9c72"/>
      <stop offset="1" stop-color="#c2ef6a"/>
    </linearGradient>
    <linearGradient id="linear-gradient-10" x1="0.505" y1="2.152" x2="0.5" y2="0.372" xlink:href="#linear-gradient-8"/>
    <linearGradient id="linear-gradient-27" x1="0" y1="0.5" x2="1" y2="0.5" xlink:href="#linear-gradient-3"/>
  </defs>
  <g id="refer_img" transform="translate(-21.012 -251.5)">
    <g id="Group_42507" data-name="Group 42507" transform="translate(23.506 251.5)">
      <g id="Group_42475" data-name="Group 42475" transform="translate(0 163.445)">
        <g id="Group_42442" data-name="Group 42442" transform="translate(153.578 2.374)">
          <g id="Group_42415" data-name="Group 42415">
            <g id="Group_42414" data-name="Group 42414">
              <path id="Path_53204" data-name="Path 53204" d="M440.928,356.144c.689.906.006,2.19-.7,3.083-8.213,10.347-20.464,16.593-32.839,21.277H388.153v-.155a115.925,115.925,0,0,1-16.178-3.356c-3.343-.943-6.811-2.14-9.094-4.764a1.858,1.858,0,0,1-.589-1.408c.112-.689.875-1.042,1.538-1.265a43.647,43.647,0,0,1,32.479,2.022,114.08,114.08,0,0,1-30.8-37.436c-1.7-3.312-3.257-6.8-3.5-10.514a4.031,4.031,0,0,1,.769-3.1c1.11-1.172,3.039-.85,4.547-.273,5.465,2.1,9.8,6.358,13.541,10.855a93.237,93.237,0,0,1,18.3,35.333c-2.047-11.885-2.45-23.987-2.841-36.04-.292-8.945-.583-17.914.279-26.822.471-4.869,1.327-9.813,3.691-14.1a2.667,2.667,0,0,1,1.328-1.377c1.079-.366,2.115.627,2.742,1.569,2.2,3.325,3.182,7.295,3.933,11.215,4.162,21.729,2.394,44.265-2.382,65.864A78.045,78.045,0,0,1,426.029,338.3a6.982,6.982,0,0,1,2.568-1.656,2.513,2.513,0,0,1,2.773.782,3.456,3.456,0,0,1,.093,2.884,33.531,33.531,0,0,1-3.945,8.132,109.316,109.316,0,0,1-16.587,20.631,105.218,105.218,0,0,1,21.506-12.356c2.3-.98,4.814-1.892,7.233-1.284A2.193,2.193,0,0,1,440.928,356.144Z" transform="translate(-361.985 -288.025)" fill="url(#linear-gradient)"/>
            </g>
          </g>
          <g id="Group_42416" data-name="Group 42416" transform="translate(38.262 10.257)">
            <path id="Path_53205" data-name="Path 53205" d="M426.558,322.474c-.225-5.886-.637-11.765-1.28-17.62-.043-.393-.664-.395-.62,0a274.633,274.633,0,0,1,1.495,31.466c-.058,10.475-.568,20.941-1.241,31.392-.38,5.891-.811,11.778-1.243,17.666-.029.4.591.393.62,0,.771-10.5,1.54-21.008,2.015-31.53C426.776,343.4,426.958,332.929,426.558,322.474Z" transform="translate(-423.667 -304.56)" fill="#bbffc0"/>
          </g>
          <g id="Group_42417" data-name="Group 42417" transform="translate(40.594 52.908)">
            <path id="Path_53206" data-name="Path 53206" d="M451.067,373.469c-2.852,5.009-5.98,9.851-9.161,14.655-3.169,4.785-6.392,9.537-9.447,14.4-1.732,2.754-3.408,5.544-4.99,8.387a.31.31,0,0,0,.537.31c2.8-5.035,5.9-9.9,9.071-14.7,3.16-4.793,6.39-9.539,9.472-14.382,1.747-2.745,3.445-5.522,5.055-8.351A.31.31,0,0,0,451.067,373.469Z" transform="translate(-427.428 -373.317)" fill="#bbffc0"/>
          </g>
          <g id="Group_42418" data-name="Group 42418" transform="translate(42.309 70.356)">
            <path id="Path_53207" data-name="Path 53207" d="M461.353,401.493q-12.33,7.411-24.292,15.412-3.38,2.261-6.729,4.569c-.328.225-.022.766.307.539q11.847-8.161,24.078-15.743,3.457-2.143,6.943-4.238C462,401.825,461.7,401.287,461.353,401.493Z" transform="translate(-430.192 -401.447)" fill="#bbffc0"/>
          </g>
          <g id="Group_42419" data-name="Group 42419" transform="translate(4.4 37.053)">
            <path id="Path_53208" data-name="Path 53208" d="M403.2,400.393a195.2,195.2,0,0,0-24.777-41.934q-4.22-5.455-8.82-10.6c-.267-.3-.707.139-.442.435A194.73,194.73,0,0,1,396.8,388.368q3.144,6.061,5.858,12.333C402.819,401.067,403.356,400.756,403.2,400.393Z" transform="translate(-369.079 -347.758)" fill="#bbffc0"/>
          </g>
          <g id="Group_42420" data-name="Group 42420" transform="translate(4.347 83.724)">
            <path id="Path_53209" data-name="Path 53209" d="M402.388,429.468a120.678,120.678,0,0,0-25.608-5.842q-3.734-.433-7.49-.63c-.4-.022-.395.6,0,.62a119.95,119.95,0,0,1,25.906,4.251q3.55.992,7.033,2.2C402.608,430.2,402.764,429.6,402.388,429.468Z" transform="translate(-368.992 -422.996)" fill="#bbffc0"/>
          </g>
          <g id="Group_42421" data-name="Group 42421" transform="translate(5.447 38.594)">
            <path id="Path_53210" data-name="Path 53210" d="M377.275,350.467c-.081-.391-.679-.23-.6.161q.849,4.133,1.328,8.328l-6.861-2.085c-.382-.116-.538.484-.156.6l7.3,2.219a.312.312,0,0,0,.388-.3Q378.182,354.9,377.275,350.467Z" transform="translate(-370.766 -350.242)" fill="#bbffc0"/>
          </g>
          <g id="Group_42422" data-name="Group 42422" transform="translate(11.258 47.964)">
            <path id="Path_53211" data-name="Path 53211" d="M388.655,365.646a.31.31,0,0,0-.62,0q-.03,3.945.28,7.881-3.92-.719-7.885-1.135c-.4-.041-.391.579,0,.62q4.093.427,8.141,1.189a.314.314,0,0,0,.388-.3Q388.624,369.783,388.655,365.646Z" transform="translate(-380.135 -365.348)" fill="#bbffc0"/>
          </g>
          <g id="Group_42423" data-name="Group 42423" transform="translate(19.291 57.667)">
            <path id="Path_53212" data-name="Path 53212" d="M399.089,381.291q-.085,3.235-.168,6.47c0,.112.054.668-.019.736.084-.078-.206-.033-.263-.034l-.439,0q-.8-.009-1.609-.038-1.608-.06-3.212-.2c-.4-.034-.392.586,0,.62q1.786.153,3.577.21c.608.019,1.22.038,1.828.031.429-.006.7-.13.734-.592.076-1.171.061-2.355.092-3.529q.047-1.838.1-3.676A.31.31,0,0,0,399.089,381.291Z" transform="translate(-393.084 -380.99)" fill="#bbffc0"/>
          </g>
          <g id="Group_42424" data-name="Group 42424" transform="translate(24.731 67.039)">
            <path id="Path_53213" data-name="Path 53213" d="M407.437,396.4q-.276,2.517-.551,5.035c0,.03,0,.255-.03.269a1.4,1.4,0,0,1-.239-.052l-.6-.124-1.259-.258-2.518-.516c-.389-.08-.549.52-.156.6l2.847.583,1.424.292c.363.074.823.219,1.042-.19a1.524,1.524,0,0,0,.107-.553q.039-.36.079-.72.079-.719.158-1.438.161-1.466.321-2.933C408.1,396,407.479,396,407.437,396.4Z" transform="translate(-401.854 -396.099)" fill="#bbffc0"/>
          </g>
          <g id="Group_42425" data-name="Group 42425" transform="translate(10.811 80.95)">
            <path id="Path_53214" data-name="Path 53214" d="M384.237,421.961c-.217-.391-.468-.767-.718-1.138a23.223,23.223,0,0,0-1.684-2.2c-.262-.3-.7.135-.442.435a21.891,21.891,0,0,1,1.43,1.838q.319.461.614.937c.075.121.293.365.3.506s-.215.268-.306.349a10.217,10.217,0,0,1-3.8,2.09c-.382.115-.223.715.161.6a11.039,11.039,0,0,0,2.343-1,8.641,8.641,0,0,0,2.027-1.514A.7.7,0,0,0,384.237,421.961Z" transform="translate(-379.414 -418.524)" fill="#bbffc0"/>
          </g>
          <g id="Group_42426" data-name="Group 42426" transform="translate(18.786 82.309)">
            <path id="Path_53215" data-name="Path 53215" d="M396.949,424.313c-.286-.386-.574-.77-.862-1.154l-1.723-2.309c-.236-.316-.777-.012-.538.308l1.566,2.1.744,1c.067.09.369.394.375.5,0,.033.017.019-.1.047a1.529,1.529,0,0,0-.262.119,16.74,16.74,0,0,0-3.778,2.433c-.3.259.133.7.435.442a16.11,16.11,0,0,1,2.078-1.5q.541-.328,1.106-.612a3.6,3.6,0,0,0,1.016-.536C397.267,424.878,397.142,424.573,396.949,424.313Z" transform="translate(-392.271 -420.716)" fill="#bbffc0"/>
          </g>
          <g id="Group_42427" data-name="Group 42427" transform="translate(25.34 83.995)">
            <path id="Path_53216" data-name="Path 53216" d="M407.685,427.064a13.551,13.551,0,0,0-.721-1.167q-.761-1.184-1.584-2.327c-.231-.322-.772-.017-.539.307q.684.953,1.328,1.934.33.5.65,1.017c.1.163.213.324.3.494.105.2.038.3-.132.429-1.275.96-2.669,1.8-4.008,2.662-.334.216-.029.756.307.539q1.2-.776,2.388-1.568.566-.377,1.128-.759a3.01,3.01,0,0,0,.874-.691A.83.83,0,0,0,407.685,427.064Z" transform="translate(-402.836 -423.433)" fill="#bbffc0"/>
          </g>
          <g id="Group_42428" data-name="Group 42428" transform="translate(43.242 81.198)">
            <path id="Path_53217" data-name="Path 53217" d="M436.515,422.085l-1.782.306-.846.146c-.14.024-.284.058-.426.073-.119.012-.115.026-.172-.06a1.321,1.321,0,0,1-.1-.34q-.063-.219-.126-.438l-.253-.876q-.251-.876-.5-1.752a.31.31,0,0,0-.6.161l.579,2.015.277.964a1.693,1.693,0,0,0,.324.776.8.8,0,0,0,.725.151c.338-.053.675-.116,1.012-.174l2.048-.352C437.07,422.617,436.906,422.018,436.515,422.085Z" transform="translate(-431.696 -418.925)" fill="#bbffc0"/>
          </g>
          <g id="Group_42429" data-name="Group 42429" transform="translate(48.402 73.167)">
            <path id="Path_53218" data-name="Path 53218" d="M443.5,408.93a8.063,8.063,0,0,1-2.638,1.151c-.094-1.268-.174-2.536-.228-3.806-.017-.4-.638-.4-.621,0q.091,2.1.252,4.194a.316.316,0,0,0,.391.3,8.531,8.531,0,0,0,3.152-1.3C444.139,409.246,443.833,408.706,443.5,408.93Z" transform="translate(-440.014 -405.977)" fill="#bbffc0"/>
          </g>
          <g id="Group_42430" data-name="Group 42430" transform="translate(52.748 66.144)">
            <path id="Path_53219" data-name="Path 53219" d="M452.183,396.148q-2.084,1.357-4.237,2.6l-.3-3.8c-.032-.4-.653-.4-.621,0l.345,4.317a.314.314,0,0,0,.464.267q2.368-1.361,4.659-2.852C452.824,396.47,452.518,395.931,452.183,396.148Z" transform="translate(-447.021 -394.656)" fill="#bbffc0"/>
          </g>
          <g id="Group_42431" data-name="Group 42431" transform="translate(57.783 59.005)">
            <path id="Path_53220" data-name="Path 53220" d="M460.384,383.95a36.811,36.811,0,0,1-4.2,2.7q-.213-1.606-.427-3.212c-.052-.39-.674-.393-.621,0l.493,3.7a.314.314,0,0,0,.463.267,36.862,36.862,0,0,0,4.594-2.925C461.008,384.253,460.7,383.712,460.384,383.95Z" transform="translate(-455.138 -383.146)" fill="#bbffc0"/>
          </g>
          <g id="Group_42432" data-name="Group 42432" transform="translate(51.934 79.997)">
            <path id="Path_53221" data-name="Path 53221" d="M450.221,422.179q-1.051-.185-2.1-.4-.5-.1-.994-.213-.248-.054-.5-.111c-.075-.017-.28-.044-.313-.106a1.957,1.957,0,0,1,.134-.425l.148-.488.31-1.024.621-2.048c.116-.382-.484-.538-.6-.156q-.354,1.171-.71,2.34-.17.56-.34,1.122c-.094.311-.281.687-.1,1a.994.994,0,0,0,.692.386c.4.092.794.177,1.192.261q1.194.252,2.4.463C450.455,422.848,450.615,422.249,450.221,422.179Z" transform="translate(-445.708 -416.988)" fill="#bbffc0"/>
          </g>
          <g id="Group_42433" data-name="Group 42433" transform="translate(58.317 75.292)">
            <path id="Path_53222" data-name="Path 53222" d="M461.537,414.535q-2.376-.252-4.734-.65c-.047-.008-.111-.012-.17-.022a.8.8,0,0,0,.036-.118q.087-.269.174-.538l.378-1.175q.362-1.127.725-2.253c.122-.38-.478-.536-.6-.156l-.82,2.547q-.2.636-.41,1.273c-.112.347-.26.777.174.964a2.48,2.48,0,0,0,.561.113q.332.055.664.107.663.105,1.329.2,1.345.188,2.7.331C461.936,415.2,461.931,414.576,461.537,414.535Z" transform="translate(-455.998 -409.403)" fill="#bbffc0"/>
          </g>
          <g id="Group_42434" data-name="Group 42434" transform="translate(64.781 71.716)">
            <path id="Path_53223" data-name="Path 53223" d="M472.388,408.483a39.884,39.884,0,0,1-4.579-.792q-.268-.063-.535-.129a.947.947,0,0,1-.247-.063c-.055-.015-.045-.013.029.007l.03-.105a3.151,3.151,0,0,0,.161-.582l.146-.529.631-2.273a.31.31,0,0,0-.6-.156q-.352,1.268-.7,2.537-.087.317-.176.635a1.9,1.9,0,0,0-.124.565c.023.415.421.5.751.578a40.909,40.909,0,0,0,5.22.927C472.787,409.148,472.782,408.527,472.388,408.483Z" transform="translate(-466.42 -403.638)" fill="#bbffc0"/>
          </g>
          <g id="Group_42435" data-name="Group 42435" transform="translate(37.68 64.269)">
            <path id="Path_53224" data-name="Path 53224" d="M428.723,391.782q-1.661,2.735-3.452,5.389a18.711,18.711,0,0,1-2.012-1.8c-.278-.288-.719.148-.442.435a19.531,19.531,0,0,0,2.371,2.087.315.315,0,0,0,.424-.114q1.894-2.8,3.649-5.687C429.468,391.75,428.93,391.44,428.723,391.782Z" transform="translate(-422.729 -391.634)" fill="#bbffc0"/>
          </g>
          <g id="Group_42436" data-name="Group 42436" transform="translate(36.459 55.265)">
            <path id="Path_53225" data-name="Path 53225" d="M428.008,377.271l-2.85,5.086a2.922,2.922,0,0,1-.314.521c-.183.207-.337-.025-.482-.173l-1.006-1.02-2.063-2.091a.31.31,0,0,0-.442.435l2.415,2.448c.5.5,1.269,1.646,2.01.848a6.249,6.249,0,0,0,.737-1.224l.844-1.507,1.689-3.014A.31.31,0,0,0,428.008,377.271Z" transform="translate(-420.76 -377.118)" fill="#bbffc0"/>
          </g>
          <g id="Group_42437" data-name="Group 42437" transform="translate(36.539 46.602)">
            <path id="Path_53226" data-name="Path 53226" d="M428.056,363.3l-2.912,4.743a19.67,19.67,0,0,0-3.785-2.453c-.356-.176-.669.36-.31.537A19.081,19.081,0,0,1,425,368.72a.315.315,0,0,0,.489-.063l3.1-5.049C428.8,363.268,428.265,362.959,428.056,363.3Z" transform="translate(-420.889 -363.152)" fill="#bbffc0"/>
          </g>
          <g id="Group_42438" data-name="Group 42438" transform="translate(36.191 37.038)">
            <path id="Path_53227" data-name="Path 53227" d="M429.286,347.9a7.771,7.771,0,0,1-1.044,1.476l-1.1,1.4-2.093,2.678a18.6,18.6,0,0,1-4.2-3.472c-.267-.3-.708.14-.442.436a19.18,19.18,0,0,0,4.554,3.716.313.313,0,0,0,.373-.047l2.338-2.992,1.145-1.465a7.5,7.5,0,0,0,1-1.424C429.989,347.845,429.453,347.532,429.286,347.9Z" transform="translate(-420.329 -347.733)" fill="#bbffc0"/>
          </g>
          <g id="Group_42439" data-name="Group 42439" transform="translate(36.449 27.578)">
            <path id="Path_53228" data-name="Path 53228" d="M429.088,332.636l-3.908,6.87q-1.97-1.9-3.9-3.839a.311.311,0,0,0-.442.435q2.074,2.086,4.193,4.126a.314.314,0,0,0,.49-.063l4.106-7.219A.31.31,0,0,0,429.088,332.636Z" transform="translate(-420.746 -332.484)" fill="#bbffc0"/>
          </g>
          <g id="Group_42440" data-name="Group 42440" transform="translate(36.813 19.211)">
            <path id="Path_53229" data-name="Path 53229" d="M428.979,319.149q-1.729,3.2-3.7,6.257a42.662,42.662,0,0,1-3.43-3.9c-.244-.315-.684.124-.442.435a42.871,42.871,0,0,0,3.705,4.183.315.315,0,0,0,.49-.063q2.092-3.22,3.918-6.6C429.7,319.108,429.169,318.8,428.979,319.149Z" transform="translate(-421.332 -318.994)" fill="#bbffc0"/>
          </g>
          <g id="Group_42441" data-name="Group 42441" transform="translate(37.128 11.859)">
            <path id="Path_53230" data-name="Path 53230" d="M428.493,307.29l-1.667,2.69-.834,1.345-.382.617-.208.336-.084.136c-.09-.072-.179-.167-.241-.218l-.4-.331-.747-.621-1.545-1.283c-.3-.253-.749.181-.442.435l2.193,1.821.6.5a2.374,2.374,0,0,0,.435.347c.4.191.593-.187.77-.473l3.092-4.988C429.241,307.26,428.7,306.951,428.493,307.29Z" transform="translate(-421.84 -307.143)" fill="#bbffc0"/>
          </g>
        </g>
        <g id="Group_42474" data-name="Group 42474">
          <g id="Group_42444" data-name="Group 42444">
            <g id="Group_42443" data-name="Group 42443">
              <path id="Path_53231" data-name="Path 53231" d="M189.284,334.791c.986,1.3.633,3.133.18,4.7a76.686,76.686,0,0,1-27.058,39.483v.074H146.377a220.633,220.633,0,0,1-29.744-16.7,5.167,5.167,0,0,1-1.514-1.576l-.019-.025a2,2,0,0,1,1.805-3.04,47.557,47.557,0,0,1,22.79,7.506c-10.576-10.675-21.568-22.046-25.2-36.691a3.025,3.025,0,0,1,.174-2.035c.85-1.749,2.736-1.216,3.995-.713a18.719,18.719,0,0,1,3.281,1.706A51.713,51.713,0,0,1,141.408,351.1c-.961-19.54-1.917-39.2.676-58.588.366-2.754,1.011-5.812,2.922-7.673a2.188,2.188,0,0,1,2.68-.323c2.152,1.309,3.275,4.193,3.964,6.774,4.857,18.28,4.758,37.566,2.543,56.355a288.447,288.447,0,0,1,17.548-46.411,30.93,30.93,0,0,1,4.907-7.928c.577-.614,1.464-1.228,2.2-.806a1.921,1.921,0,0,1,.738,1.154c1.259,3.97.918,8.256.4,12.388-2.078,16.5-6.8,32.578-12.766,48.1q7.295-8,15.34-15.26C184.526,337.1,186.672,335.287,189.284,334.791Z" transform="translate(-114.401 -284.197)" fill="url(#linear-gradient)"/>
            </g>
          </g>
          <g id="Group_42445" data-name="Group 42445" transform="translate(32.078 8.405)">
            <path id="Path_53232" data-name="Path 53232" d="M168.947,349.447c-.754-10.964-1.237-21.945-1.623-32.927q-.326-9.237-.589-18.475a.31.31,0,0,0-.62,0c.332,10.986.664,21.973,1.169,32.952s1.184,21.941,2.207,32.879q.86,9.195,2.076,18.352c.052.39.673.392.62,0C170.725,371.343,169.7,360.4,168.947,349.447Z" transform="translate(-166.114 -297.748)" fill="#bbffc0"/>
          </g>
          <g id="Group_42446" data-name="Group 42446" transform="translate(38.58 16.994)">
            <path id="Path_53233" data-name="Path 53233" d="M200.011,311.81q-2.479,7.259-4.884,14.544-2.393,7.248-4.711,14.521-2.331,7.309-4.585,14.641-2.244,7.3-4.414,14.614-2.18,7.354-4.285,14.732-.261.917-.522,1.836a.31.31,0,0,0,.6.156q2.1-7.379,4.266-14.737,2.161-7.322,4.395-14.62,2.246-7.335,4.567-14.647,2.309-7.276,4.693-14.527,2.395-7.288,4.865-14.551.307-.9.615-1.806C200.74,311.588,200.14,311.433,200.011,311.81Z" transform="translate(-176.596 -311.593)" fill="#bbffc0"/>
          </g>
          <g id="Group_42447" data-name="Group 42447" transform="translate(41.324 60.294)">
            <path id="Path_53234" data-name="Path 53234" d="M208.146,381.54A157.041,157.041,0,0,1,187.733,406.7q-3.216,3.219-6.614,6.248c-.3.267.139.707.436.442a157.9,157.9,0,0,0,21.9-24.01q2.725-3.687,5.232-7.527C208.9,381.516,208.365,381.207,208.146,381.54Z" transform="translate(-181.019 -381.397)" fill="#bbffc0"/>
          </g>
          <g id="Group_42448" data-name="Group 42448" transform="translate(4.804 45.195)">
            <path id="Path_53235" data-name="Path 53235" d="M153.9,404.105q-5.179-9.748-11.1-19.077t-12.541-18.161q-3.7-4.933-7.6-9.7c-.253-.309-.692.129-.442.436q6.965,8.511,13.262,17.541,6.269,9,11.836,18.46,3.141,5.341,6.048,10.814C153.552,404.766,154.091,404.457,153.9,404.105Z" transform="translate(-122.145 -357.056)" fill="#bbffc0"/>
          </g>
          <g id="Group_42449" data-name="Group 42449" transform="translate(5.331 76.585)">
            <path id="Path_53236" data-name="Path 53236" d="M152.626,424.273a234.581,234.581,0,0,0-22.495-13.267q-3.307-1.709-6.667-3.312c-.358-.171-.671.365-.31.538a234.416,234.416,0,0,1,22.905,12.544q3.161,1.968,6.256,4.035C152.648,425.033,152.957,424.494,152.626,424.273Z" transform="translate(-122.994 -407.661)" fill="#bbffc0"/>
          </g>
          <g id="Group_42450" data-name="Group 42450" transform="translate(27.231 15.179)">
            <path id="Path_53237" data-name="Path 53237" d="M167.462,308.826q-1.719,3.478-3.594,6.876c-1.745-1.467-3.429-3-5.036-4.623a.311.311,0,0,0-.442.436q2.555,2.573,5.346,4.894a.315.315,0,0,0,.489-.063q1.969-3.562,3.773-7.21C168.175,308.78,167.64,308.467,167.462,308.826Z" transform="translate(-158.3 -308.667)" fill="#bbffc0"/>
          </g>
          <g id="Group_42451" data-name="Group 42451" transform="translate(27.943 27.337)">
            <path id="Path_53238" data-name="Path 53238" d="M168.84,328.412a75.615,75.615,0,0,0-3.966,7.036q-2.352-2.313-4.881-4.435c-.3-.254-.748.18-.442.435q2.7,2.251,5.189,4.729a.313.313,0,0,0,.49-.063,75.621,75.621,0,0,1,4.147-7.392C169.592,328.385,169.055,328.076,168.84,328.412Z" transform="translate(-159.448 -328.267)" fill="#bbffc0"/>
          </g>
          <g id="Group_42452" data-name="Group 42452" transform="translate(27.106 39.895)">
            <path id="Path_53239" data-name="Path 53239" d="M169.607,348.646a74.99,74.99,0,0,0-4.957,7.654q-2.953-2.575-6-5.035c-.308-.248-.752.186-.442.436q3.208,2.58,6.307,5.294a.314.314,0,0,0,.489-.063,75.112,75.112,0,0,1,5.145-7.977C170.381,348.636,169.842,348.329,169.607,348.646Z" transform="translate(-158.098 -348.513)" fill="#bbffc0"/>
          </g>
          <g id="Group_42453" data-name="Group 42453" transform="translate(28.179 55.857)">
            <path id="Path_53240" data-name="Path 53240" d="M169.833,374.392l-3.544,5.783-5.918-5.043c-.3-.257-.746.177-.442.436l6.214,5.295a.315.315,0,0,0,.489-.063l3.737-6.1C170.578,374.361,170.041,374.052,169.833,374.392Z" transform="translate(-159.828 -374.245)" fill="#bbffc0"/>
          </g>
          <g id="Group_42454" data-name="Group 42454" transform="translate(45.403 52.025)">
            <path id="Path_53241" data-name="Path 53241" d="M197.237,370.061q-3.147,2.237-6.06,4.778l-3.013-6.609c-.166-.364-.7-.053-.539.308l3.172,6.957a.313.313,0,0,0,.488.068,76.775,76.775,0,0,1,6.26-4.962C197.868,370.37,197.563,369.829,197.237,370.061Z" transform="translate(-187.594 -368.067)" fill="#bbffc0"/>
          </g>
          <g id="Group_42455" data-name="Group 42455" transform="translate(49.45 39.688)">
            <path id="Path_53242" data-name="Path 53242" d="M203.289,349.246q-2.9,2.079-5.637,4.382l-2.953-5.295a.31.31,0,0,0-.538.307l3.13,5.614a.314.314,0,0,0,.487.067q2.817-2.386,5.818-4.536C203.918,349.554,203.613,349.013,203.289,349.246Z" transform="translate(-194.119 -348.179)" fill="#bbffc0"/>
          </g>
          <g id="Group_42456" data-name="Group 42456" transform="translate(52.486 29.692)">
            <path id="Path_53243" data-name="Path 53243" d="M206.777,334.542l-2.3,1.8-1.119.875c-.2.153-.393.306-.589.461l-.118.092c-.047.071-.078.065-.1-.017a1.394,1.394,0,0,1-.184-.33q-1.433-2.576-2.785-5.2c-.184-.355-.721-.047-.538.308q.78,1.511,1.586,3.009.413.765.832,1.527.182.331.366.661a2.079,2.079,0,0,0,.4.628c.357.287.683-.014.97-.238l1.3-1.014,2.71-2.118C207.527,334.738,207.088,334.3,206.777,334.542Z" transform="translate(-199.014 -332.064)" fill="#bbffc0"/>
          </g>
          <g id="Group_42457" data-name="Group 42457" transform="translate(58.591 18.163)">
            <path id="Path_53244" data-name="Path 53244" d="M214.627,314.166a26.458,26.458,0,0,0-3.281,2.288,3.712,3.712,0,0,0-.353.293.489.489,0,0,0-.042.05v-.007a1.458,1.458,0,0,1-.118-.225q-.247-.481-.488-.966-.478-.97-.921-1.958c-.164-.365-.7-.054-.539.308q.5,1.11,1.041,2.2c.221.442.594,1.646,1.3,1.206a9.918,9.918,0,0,0,.837-.683q.448-.355.911-.689.953-.684,1.963-1.278A.31.31,0,0,0,214.627,314.166Z" transform="translate(-208.856 -313.478)" fill="#bbffc0"/>
          </g>
          <g id="Group_42458" data-name="Group 42458" transform="translate(41.574 62.107)">
            <path id="Path_53245" data-name="Path 53245" d="M191.294,387.7l-6.338,5.528a61.472,61.472,0,0,1-2.923-8.688.31.31,0,0,0-.6.161,62.4,62.4,0,0,0,3.131,9.2.314.314,0,0,0,.488.067l6.678-5.825C192.031,387.882,191.593,387.441,191.294,387.7Z" transform="translate(-181.422 -384.321)" fill="#bbffc0"/>
          </g>
          <g id="Group_42459" data-name="Group 42459" transform="translate(29.049 67.859)">
            <path id="Path_53246" data-name="Path 53246" d="M171.311,393.751q-1.526,3-3.332,5.846-3.21-1.9-6.3-4c-.331-.225-.639.314-.31.537q3.208,2.184,6.554,4.154a.315.315,0,0,0,.424-.114q1.9-2.969,3.5-6.116C172.028,393.707,171.492,393.394,171.311,393.751Z" transform="translate(-161.231 -393.593)" fill="#bbffc0"/>
          </g>
          <g id="Group_42460" data-name="Group 42460" transform="translate(24.53 73.814)">
            <path id="Path_53247" data-name="Path 53247" d="M159.456,403.491q-.27,2.76-.54,5.52c-.7-.03-1.4-.068-2.1-.126q-.578-.047-1.155-.109-.289-.031-.577-.064l-.288-.034-.15-.019c-.035-.017-.054-.015-.068-.007a.313.313,0,0,0-.61-.056c-.126.419.291.629.636.678.486.068.976.116,1.464.164q1.56.152,3.126.21a.318.318,0,0,0,.308-.312q.287-2.924.573-5.848C160.116,403.091,159.495,403.1,159.456,403.491Z" transform="translate(-153.946 -403.193)" fill="#bbffc0"/>
          </g>
          <g id="Group_42461" data-name="Group 42461" transform="translate(18.347 66.035)">
            <path id="Path_53248" data-name="Path 53248" d="M150.072,390.952c-.054.827-.1,1.656-.22,2.476-.055.384-.122.767-.208,1.145-.054.238-.089.807-.416.777-.387-.035-.782-.146-1.164-.218l-1.234-.233-2.469-.465c-.39-.074-.55.526-.156.6l2.821.531,1.411.266a2.042,2.042,0,0,0,1.2.073,1.114,1.114,0,0,0,.51-.782,12.363,12.363,0,0,0,.28-1.367c.141-.931.2-1.87.265-2.809C150.718,390.55,150.1,390.555,150.072,390.952Z" transform="translate(-143.977 -390.652)" fill="#bbffc0"/>
          </g>
          <g id="Group_42462" data-name="Group 42462" transform="translate(12.478 57.005)">
            <path id="Path_53249" data-name="Path 53249" d="M141.409,376.391c-.037-.395-.658-.4-.62,0q.14,1.523.166,3.052.012.78-.007,1.559-.009.375-.025.749c-.006.145.04.509-.063.634-.125.15-.5.066-.676.062l-.747-.016-1.492-.031-1.493-.031c-.386-.008-1.083.107-1.4-.177-.295-.267-.738.167-.442.436a1.9,1.9,0,0,0,1.344.35l1.741.037,1.866.038c.29.006.581.013.871.018a1.372,1.372,0,0,0,.66-.087c.419-.213.422-.7.442-1.113q.044-.935.043-1.871Q141.578,378.195,141.409,376.391Z" transform="translate(-134.516 -376.095)" fill="#bbffc0"/>
          </g>
          <g id="Group_42463" data-name="Group 42463" transform="translate(8.495 50.896)">
            <path id="Path_53250" data-name="Path 53250" d="M133.268,366.549c.018,1.813-.032,3.626-.139,5.435-1.575.147-3.154.246-4.736.287a.31.31,0,0,0,0,.62q2.521-.065,5.031-.31a.319.319,0,0,0,.308-.311q.181-2.858.152-5.724A.31.31,0,0,0,133.268,366.549Z" transform="translate(-128.095 -366.247)" fill="#bbffc0"/>
          </g>
          <g id="Group_42464" data-name="Group 42464" transform="translate(45.506 81.762)">
            <path id="Path_53251" data-name="Path 53251" d="M194.486,421.491c-.017.123-.5.141-.586.156l-.78.13q-.781.127-1.561.25t-1.563.239l-.782.115-.391.056a1.357,1.357,0,0,1-.43.056.048.048,0,0,0-.028,0c0-.043,0-.086.009-.129.011-.133.024-.266.036-.4l.073-.8q.073-.8.145-1.6l.3-3.265c.036-.4-.585-.392-.62,0l-.362,4-.169,1.866c-.042.463.007.941.584.948a11.735,11.735,0,0,0,1.8-.25q.913-.137,1.824-.28.976-.154,1.95-.317c.406-.068,1.086-.092,1.156-.621C195.139,421.257,194.539,421.095,194.486,421.491Z" transform="translate(-187.761 -416.006)" fill="#bbffc0"/>
          </g>
          <g id="Group_42465" data-name="Group 42465" transform="translate(51.417 76.238)">
            <path id="Path_53252" data-name="Path 53252" d="M204.222,410.05q-3.114,1.3-6.238,2.572l-.073-5.223a.31.31,0,0,0-.62,0l.079,5.68c0,.179.2.376.391.3q3.389-1.384,6.768-2.79C204.9,410.435,204.586,409.9,204.222,410.05Z" transform="translate(-197.291 -407.101)" fill="#bbffc0"/>
          </g>
          <g id="Group_42466" data-name="Group 42466" transform="translate(57.843 70.135)">
            <path id="Path_53253" data-name="Path 53253" d="M214.4,398.895,208.74,401.3q-.234-1.872-.468-3.745c-.049-.391-.67-.393-.62,0l.523,4.186a.316.316,0,0,0,.464.267l6.072-2.579C215.079,399.278,214.767,398.741,214.4,398.895Z" transform="translate(-207.649 -397.262)" fill="#bbffc0"/>
          </g>
          <g id="Group_42467" data-name="Group 42467" transform="translate(62.78 64.019)">
            <path id="Path_53254" data-name="Path 53254" d="M221.381,388.828a13.453,13.453,0,0,1-1.839.823l-2.02.821-.466.19c-.086.035-.172.071-.259.1-.029.012-.058.024-.087.034h0a2.134,2.134,0,0,1-.064-.459l-.089-.553-.345-2.159c-.063-.394-.661-.23-.6.161l.4,2.491c.051.323.027.857.319,1.071s.61.021.886-.091l2.279-.926a16.185,16.185,0,0,0,2.193-.967A.31.31,0,0,0,221.381,388.828Z" transform="translate(-215.609 -387.402)" fill="#bbffc0"/>
          </g>
          <g id="Group_42468" data-name="Group 42468" transform="translate(9.498 77.491)">
            <path id="Path_53255" data-name="Path 53255" d="M133.789,411.924c-.055-.288-.158-.574-.237-.857q-.241-.863-.481-1.724a.31.31,0,0,0-.6.16l.417,1.493q.106.382.213.762l.046.166.01.034c-.073.02-.163.047-.182.051q-1.466.316-2.954.518a.321.321,0,0,0-.308.312.311.311,0,0,0,.312.308c.579-.078,1.156-.166,1.731-.268.286-.05.571-.1.855-.162a6.776,6.776,0,0,0,.8-.174A.517.517,0,0,0,133.789,411.924Z" transform="translate(-129.713 -409.122)" fill="#bbffc0"/>
          </g>
          <g id="Group_42469" data-name="Group 42469" transform="translate(15.174 79.586)">
            <path id="Path_53256" data-name="Path 53256" d="M143.176,415.94q-.111-.561-.248-1.118-.261-1.066-.61-2.108c-.126-.377-.726-.219-.6.161.2.6.383,1.213.541,1.83q.119.462.22.929c.034.156.066.311.1.467.018.09.117.355.08.444-.02.047-.192.078-.252.094l-.473.126q-.449.118-.9.233-.971.249-1.947.48c-.389.092-.228.692.161.6q1.094-.261,2.184-.541.544-.141,1.088-.285a.984.984,0,0,0,.693-.409A1.41,1.41,0,0,0,143.176,415.94Z" transform="translate(-138.862 -412.498)" fill="#bbffc0"/>
          </g>
          <g id="Group_42470" data-name="Group 42470" transform="translate(20.699 82.578)">
            <path id="Path_53257" data-name="Path 53257" d="M152.032,421.02q-.126-.57-.251-1.141l-.512-2.333c-.086-.391-.685-.229-.6.16q.438,2,.876,3.993c.009.04.053.145.04.183-.017.054-.071.056-.132.076-.164.052-.336.089-.5.131q-.479.121-.962.23-.991.222-1.992.392c-.394.067-.231.666.161.6q1.129-.193,2.246-.45c.372-.086.743-.176,1.112-.275.3-.079.6-.189.68-.522A2.641,2.641,0,0,0,152.032,421.02Z" transform="translate(-147.77 -417.322)" fill="#bbffc0"/>
          </g>
          <g id="Group_42471" data-name="Group 42471" transform="translate(25.813 85.35)">
            <path id="Path_53258" data-name="Path 53258" d="M160.292,426.618a36.452,36.452,0,0,1-1.427-4.6.31.31,0,0,0-.6.16,36.335,36.335,0,0,0,1.331,4.343,26.336,26.336,0,0,1-3.36,1.094.31.31,0,0,0,.16.6,27.156,27.156,0,0,0,3.749-1.244A.309.309,0,0,0,160.292,426.618Z" transform="translate(-156.015 -421.79)" fill="#bbffc0"/>
          </g>
          <g id="Group_42472" data-name="Group 42472" transform="translate(31.719 76.511)">
            <path id="Path_53259" data-name="Path 53259" d="M172.662,407.691q-1.332,2.259-2.531,4.593l-4.155-3.18c-.316-.241-.623.3-.31.537l4.414,3.378a.311.311,0,0,0,.424-.114q1.273-2.493,2.7-4.9A.31.31,0,0,0,172.662,407.691Z" transform="translate(-165.535 -407.541)" fill="#bbffc0"/>
          </g>
          <g id="Group_42473" data-name="Group 42473" transform="translate(40.382 72.029)">
            <path id="Path_53260" data-name="Path 53260" d="M186.717,401.886l-2.205,1.731-1.047.822-.551.432-.275.217c-.043.034-.215.2-.228.2,0,.05-.019.041-.042-.025s-.069-.11-.1-.167c-.044-.074-.087-.151-.128-.227-.1-.191-.2-.386-.294-.583-.2-.415-.389-.834-.582-1.251l-1.19-2.559c-.169-.363-.707-.052-.539.307l1.368,2.943c.207.447.407.9.636,1.335.163.309.379.869.793.889.374.018.747-.426,1.019-.639l1.268-.995,2.536-1.989C187.467,402.082,187.028,401.642,186.717,401.886Z" transform="translate(-179.501 -400.315)" fill="#bbffc0"/>
          </g>
        </g>
      </g>
      <g id="Group_42483" data-name="Group 42483" transform="translate(88.245 22.975)">
        <g id="Group_42478" data-name="Group 42478" transform="translate(0 0.744)">
          <g id="Group_42477" data-name="Group 42477">
            <g id="Group_42476" data-name="Group 42476">
              <path id="Path_53261" data-name="Path 53261" d="M352.16,195l-39.687,9.36-17.623,4.156a7.986,7.986,0,0,1-9.6-5.93L256.875,82.27a7.986,7.986,0,0,1,5.93-9.6l6.234-1.47,51.076-12.046a7.986,7.986,0,0,1,9.6,5.93L358.09,185.4A7.986,7.986,0,0,1,352.16,195Z" transform="translate(-256.66 -58.943)" fill="#1a1e2d"/>
            </g>
          </g>
        </g>
        <g id="Group_42482" data-name="Group 42482" transform="translate(3.092)">
          <g id="Group_42481" data-name="Group 42481">
            <g id="Group_42480" data-name="Group 42480">
              <path id="Path_53262" data-name="Path 53262" d="M270.6,93.806l23.8,100.862a2.4,2.4,0,0,0,2.878,1.78l57.31-13.516a2.4,2.4,0,0,0,1.78-2.878l-10.539-44.674-16-67.793a2.393,2.393,0,0,0-2.878-1.78l-57.3,13.516a2.4,2.4,0,0,0-1.78,2.884Zm92.475,90.4a7.986,7.986,0,0,1-5.93,9.6l-57.31,13.516a7.986,7.986,0,0,1-9.6-5.93L261.859,81.071a7.986,7.986,0,0,1,5.93-9.6L325.1,57.959a7.986,7.986,0,0,1,9.6,5.93Zm-21.667,8.269a3.185,3.185,0,0,0-3.908-3.089l-22.064,5.2a3.177,3.177,0,1,0,1.458,6.184l22.064-5.211A3.182,3.182,0,0,0,341.407,192.472Zm-30.835-125.8a1.355,1.355,0,0,0-.031-.267,1.173,1.173,0,0,0-1.408-.868l-27.107,6.4a1.173,1.173,0,0,0-.9,1.141,1.355,1.355,0,0,0,.031.267,1.172,1.172,0,0,0,1.408.868l27.107-6.4A1.178,1.178,0,0,0,310.571,66.674Zm-33.509,7.717a1.937,1.937,0,0,0-.056-.459,2.013,2.013,0,0,0-1.96-1.545,1.877,1.877,0,0,0-.453.05,2.018,2.018,0,0,0-1.551,1.96,1.976,1.976,0,0,0,.056.459,2.009,2.009,0,0,0,3.964-.465Z" transform="translate(-261.644 -57.744)" fill="#445f77"/>
              <path id="Path_53263" data-name="Path 53263" d="M361.844,201.167a2.4,2.4,0,0,1-1.78,2.878l-57.31,13.516a2.4,2.4,0,0,1-2.878-1.78L276.08,114.92c2.016-1.78,5.173-1.929,7.754-1.03,4.181,1.452,7.3,5.2,8.784,9.373a28.528,28.528,0,0,1,.943,13.126,16.787,16.787,0,0,1,16.376,6.222,20.007,20.007,0,0,1,3.077,17.542,23.12,23.12,0,0,1,31.332,5.589,18.923,18.923,0,0,1,6.96-9.249Z" transform="translate(-267.125 -78.857)" fill="#c1eaf4"/>
              <path id="Path_53264" data-name="Path 53264" d="M333.593,72.481l16,67.793a18.923,18.923,0,0,0-6.96,9.249,23.12,23.12,0,0,0-31.332-5.589,20.007,20.007,0,0,0-3.077-17.542,16.787,16.787,0,0,0-16.376-6.222,28.526,28.526,0,0,0-.943-13.126c-1.483-4.175-4.6-7.921-8.784-9.373-2.58-.9-5.738-.751-7.754,1.03l-2.736-11.6a2.4,2.4,0,0,1,1.78-2.884l57.3-13.516A2.393,2.393,0,0,1,333.593,72.481Z" transform="translate(-265.411 -62.639)" fill="#e9faff"/>
              <g id="Group_42479" data-name="Group 42479" transform="translate(50.726 130.935)">
                <path id="Path_53265" data-name="Path 53265" d="M372.749,272.272a3.224,3.224,0,0,1,.087.726,3.182,3.182,0,0,1-2.45,3.089L348.322,281.3a3.177,3.177,0,0,1-1.458-6.184l22.064-5.2A3.192,3.192,0,0,1,372.749,272.272Z" transform="translate(-343.8 -269.205)" fill="#1a1e2d"/>
                <path id="Path_53266" data-name="Path 53266" d="M347.22,281.622a3.8,3.8,0,0,1-.88-7.492l22.066-5.205a3.811,3.811,0,0,1,4.567,2.824v0a3.779,3.779,0,0,1-2.826,4.559l-22.063,5.211A3.833,3.833,0,0,1,347.22,281.622Zm22.052-11.556a2.541,2.541,0,0,0-.582.068l-22.063,5.2a2.557,2.557,0,1,0,1.174,4.977l22.064-5.211a2.573,2.573,0,0,0,1.972-2.485,2.6,2.6,0,0,0-.071-.585A2.568,2.568,0,0,0,369.272,270.066Z" transform="translate(-343.42 -268.826)" fill="#a1a9bf"/>
              </g>
              <path id="Path_53267" data-name="Path 53267" d="M322.465,71.159a1.355,1.355,0,0,1,.031.267,1.178,1.178,0,0,1-.9,1.141l-27.107,6.4a1.173,1.173,0,0,1-1.408-.868,1.355,1.355,0,0,1-.031-.267,1.173,1.173,0,0,1,.9-1.141l27.107-6.4A1.172,1.172,0,0,1,322.465,71.159Z" transform="translate(-273.569 -62.496)" fill="#1a1e2d"/>
              <path id="Path_53268" data-name="Path 53268" d="M283.984,82.895a1.937,1.937,0,0,1,.056.459,2.009,2.009,0,0,1-3.964.465,1.976,1.976,0,0,1-.056-.459,2.018,2.018,0,0,1,1.551-1.96,1.877,1.877,0,0,1,.453-.05A2.013,2.013,0,0,1,283.984,82.895Z" transform="translate(-268.621 -66.707)" fill="#1a1e2d"/>
            </g>
          </g>
        </g>
      </g>
      <g id="Group_42490" data-name="Group 42490" transform="translate(116.388 38.769)">
        <g id="Group_42485" data-name="Group 42485" transform="translate(0)">
          <g id="Group_42484" data-name="Group 42484">
            <path id="Path_53269" data-name="Path 53269" d="M347.827,86.329a36.452,36.452,0,0,1-2.351,5.719c-.223-1.253-.447-2.506-.546-3.778a25.076,25.076,0,0,1-13.516,8.07l-.012-.068a3.642,3.642,0,0,0-3.226-1.042,2.923,2.923,0,0,0-1.985,2.667,4.82,4.82,0,0,0,1.2,3.25,9.015,9.015,0,0,0,.93.955c.546.5,1.141.937,1.731,1.377a7.033,7.033,0,0,1,1.507,4.392,6.585,6.585,0,0,1-1.774,4.59,8.6,8.6,0,0,1-2.587,1.78,22.882,22.882,0,0,1-2.971,1.1c-.986.3-1.985.6-2.934.955a11.926,11.926,0,0,0-6.619,5.39c-.627,1.228-.533,3.25-.546,4.621.006.019.019.031.019.043-.006-.006-.006-.012-.012-.019a78.576,78.576,0,0,0,4.324,10.533l-.037.019a5.03,5.03,0,0,1-2.6,4,6.685,6.685,0,0,1-1.4.6,9.263,9.263,0,0,1-3.405.316c-2.159-.18-4.417-1.067-5.521-2.928-1.346-2.277-.589-5.167-.949-7.791-.5-3.61-3.164-6.978-2.363-10.533a8.448,8.448,0,0,1,1.669-3.238c3.151-4.038,8.176-6.445,10.831-10.831,1.724-2.853,2.264-6.246,2.612-9.565.4-3.809.825-8.1,3.8-10.508,2.2-1.793,5.235-2.041,8.07-2.214q7.983-.484,15.967-.974c.986-.062,2.159-.031,2.7.788A2.764,2.764,0,0,1,347.827,86.329Z" transform="translate(-302.03 -83.207)" fill="url(#linear-gradient-3)"/>
          </g>
          <path id="Path_53270" data-name="Path 53270" d="M327.86,126.914c-.986.3-1.985.6-2.934.955a11.926,11.926,0,0,0-6.619,5.39c-.626,1.234-.532,3.27-.545,4.641.105.174-.175-.342-.057-.174a78.436,78.436,0,0,0,4.386,10.713l-.037.019a5.03,5.03,0,0,1-2.6,4,6.682,6.682,0,0,1-1.4.6,12.549,12.549,0,0,0-1.365-5.676c-1.358-2.667-3.66-4.832-4.615-7.673a10.331,10.331,0,0,1,.645-7.692,14.714,14.714,0,0,1,5.273-5.775c2.878-1.886,6.228-2.953,9.094-4.857,2.636-1.762,4.919-4.615,4.869-7.717.546.5,1.141.937,1.731,1.377h0a6.97,6.97,0,0,1-.267,8.982,8.6,8.6,0,0,1-2.587,1.78A22.881,22.881,0,0,1,327.86,126.914Z" transform="translate(-305.666 -94.774)" fill="#1a1e2d"/>
        </g>
        <g id="Group_42487" data-name="Group 42487" transform="translate(2.599 68.354)">
          <g id="Group_42486" data-name="Group 42486">
            <path id="Path_53271" data-name="Path 53271" d="M354.933,238.422l-11.24,2.611-6.544,1.52a127.994,127.994,0,0,1-3.641-25.1c-5.012,10.055-10.136,20.055-15.886,29.7l-3.424.806a2.442,2.442,0,0,1-2.928-1.973l-2.487-10.558-2.562-10.843q1.982-6.8,3.97-13.61a95.191,95.191,0,0,1,3.945-11.643,37.473,37.473,0,0,1,3.213-5.93l.31.2a44.779,44.779,0,0,0,5.961,3.6,46.111,46.111,0,0,0,25.277,4.714q.884,3.815,1.669,7.648Q353.469,223.873,354.933,238.422Z" transform="translate(-306.22 -193.4)" fill="#1a1e2d"/>
          </g>
          <path id="Path_53272" data-name="Path 53272" d="M357.561,221.67q1.414,15.055,2.835,30.1l-6.544,1.52a127.994,127.994,0,0,1-3.641-25.1q1.6-3.21,3.188-6.42l.174.087C354.906,221.825,356.233,221.769,357.561,221.67Z" transform="translate(-322.923 -204.134)" fill="url(#linear-gradient-3)"/>
          <path id="Path_53273" data-name="Path 53273" d="M317.659,193.6a44.779,44.779,0,0,0,5.961,3.6,225.306,225.306,0,0,0-14.838,38.217l-2.562-10.843q1.982-6.8,3.97-13.61a95.191,95.191,0,0,1,3.945-11.643,37.473,37.473,0,0,1,3.213-5.93Z" transform="translate(-306.22 -193.4)" fill="url(#linear-gradient-3)"/>
        </g>
        <g id="Group_42488" data-name="Group 42488" transform="translate(24.154 5.064)">
          <path id="Path_53274" data-name="Path 53274" d="M360.261,95.148c.186,1,.366,2,.5,3.015a13.657,13.657,0,0,1-.527,6.842,16.23,16.23,0,0,1-1.805,3.133,5.369,5.369,0,0,1-1.358,1.532c-1.2.819-2.785.6-4.224.273a11.789,11.789,0,0,0,.44,3.374c.4,1.687.85,3.356,1.371,5.006.019.062.037.118.056.18l.074.093a5.9,5.9,0,0,1-5.273,2.332,12.121,12.121,0,0,1-5.738-2.2,11.758,11.758,0,0,1-1.8-1.383,8.6,8.6,0,0,0,2.587-1.78,6.97,6.97,0,0,0,.267-8.982h0c-.589-.44-1.185-.881-1.731-1.377a9.005,9.005,0,0,1-.93-.955,4.82,4.82,0,0,1-1.2-3.25,2.923,2.923,0,0,1,1.985-2.667,3.642,3.642,0,0,1,3.226,1.042l.012.068a25.076,25.076,0,0,0,13.517-8.07C359.814,92.642,360.038,93.895,360.261,95.148Z" transform="translate(-340.969 -91.37)" fill="url(#linear-gradient-6)"/>
          <path id="Path_53275" data-name="Path 53275" d="M367.053,106.089a40.228,40.228,0,0,0-.351-4.4c-.053-.39-.674-.393-.62,0q.253,1.881.331,3.78.018.453.025.906c0,.151,0,.3,0,.453,0,.093-.008.19,0,.283a.45.45,0,0,1-.006.086,1.981,1.981,0,0,1-.411,0c-.149,0-.3,0-.449,0-.337,0-.673-.011-1.009-.025-.4-.018-.4.6,0,.62.374.016.747.026,1.122.026a4.054,4.054,0,0,0,.986-.038.538.538,0,0,0,.385-.56C367.081,106.847,367.062,106.465,367.053,106.089Z" transform="translate(-349.817 -95.176)" fill="#bc691e"/>
          <path id="Path_53276" data-name="Path 53276" d="M362.723,117c-1.774-.174-2.76-4.15-2.5-4.069a12.025,12.025,0,0,0,5.508.49C366,113.382,364.509,117.178,362.723,117Z" transform="translate(-348.264 -99.555)" fill="#fff"/>
          <path id="Path_53277" data-name="Path 53277" d="M355.349,110.144a2.28,2.28,0,0,1-2.655-.93,2.347,2.347,0,0,1,.037-2.37,2.516,2.516,0,0,1,.236-.391,1.836,1.836,0,0,1,1.569-.837,2.708,2.708,0,0,1,1.5.763,2.631,2.631,0,0,1,.813,1.321,2.109,2.109,0,0,1-.2,1.514A2.2,2.2,0,0,1,355.349,110.144Z" transform="translate(-345.305 -96.777)" fill="#e28427"/>
          <path id="Path_53278" data-name="Path 53278" d="M345.682,107.511a.78.78,0,0,0-.995-.29c-.359.177-.05.715.307.538.074-.037.172.086.2.138a.449.449,0,0,1,.025.321.753.753,0,0,1-.424.49c-.523.226-1.079-.213-1.3-.658a2.8,2.8,0,0,1-.11-1.849,3.128,3.128,0,0,1,.347-.888c.128-.218.316-.48.594-.487a.31.31,0,0,0,0-.62c-.767.019-1.192.8-1.419,1.432a3.884,3.884,0,0,0-.135,2.228,1.987,1.987,0,0,0,1.388,1.473,1.374,1.374,0,0,0,1.6-.773A1.085,1.085,0,0,0,345.682,107.511Z" transform="translate(-341.611 -96.244)" fill="#e28427"/>
          <path id="Path_53279" data-name="Path 53279" d="M356.789,118.927a12.409,12.409,0,0,1-5.473-2.411c-.311-.243-.756.191-.442.435a13.06,13.06,0,0,0,5.758,2.576C357.022,119.6,357.183,119,356.789,118.927Z" transform="translate(-344.689 -100.891)" fill="#e28427"/>
          <path id="Path_53280" data-name="Path 53280" d="M371.167,100.815a1.934,1.934,0,0,0-.517-1.168.769.769,0,0,0-1.168.1,1.284,1.284,0,0,0-.187.722,3.227,3.227,0,0,0-.024.847,1.34,1.34,0,0,0,.61,1.109.834.834,0,0,0,1.1-.326A1.969,1.969,0,0,0,371.167,100.815Z" transform="translate(-351.708 -94.428)" fill="#1a1e2d"/>
          <path id="Path_53281" data-name="Path 53281" d="M361.21,100.612a1.93,1.93,0,0,0-.517-1.167.767.767,0,0,0-1.167.1,1.278,1.278,0,0,0-.187.722,3.226,3.226,0,0,0-.024.847,1.338,1.338,0,0,0,.61,1.108.833.833,0,0,0,1.1-.326A1.969,1.969,0,0,0,361.21,100.612Z" transform="translate(-347.927 -94.352)" fill="#1a1e2d"/>
          <path id="Path_53282" data-name="Path 53282" d="M371.054,96.24a1.5,1.5,0,0,0-.974-.662,2.758,2.758,0,0,0-1.1,0h0a1.374,1.374,0,0,0-1.067.542.657.657,0,0,0-.087.646.587.587,0,0,0,.492.323,4.622,4.622,0,0,0,.6-.015,6.461,6.461,0,0,1,.658.022,5.717,5.717,0,0,1,.649.095,1.565,1.565,0,0,0,.623.083C371.34,97.165,371.255,96.568,371.054,96.24Z" transform="translate(-351.147 -92.947)" fill="#1a1e2d"/>
          <path id="Path_53283" data-name="Path 53283" d="M357.622,96.24a1.5,1.5,0,0,1,.974-.662,2.758,2.758,0,0,1,1.1,0h0a1.374,1.374,0,0,1,1.067.542.659.659,0,0,1,.088.646.588.588,0,0,1-.492.323,4.625,4.625,0,0,1-.6-.015,6.46,6.46,0,0,0-.658.022,5.739,5.739,0,0,0-.649.095,1.564,1.564,0,0,1-.623.083C357.336,97.165,357.421,96.568,357.622,96.24Z" transform="translate(-347.232 -92.947)" fill="#1a1e2d"/>
        </g>
        <g id="Group_42489" data-name="Group 42489" transform="translate(11.949 30.967)">
          <path id="Path_53284" data-name="Path 53284" d="M352.449,170.316q1.154,4.364,2.171,8.765a46.111,46.111,0,0,1-25.277-4.714,44.783,44.783,0,0,1-5.961-3.6l-.31-.2a26.74,26.74,0,0,1,3.523-4.268,8.689,8.689,0,0,1,3.765-2.388,79.81,79.81,0,0,1-8.976-18.746s-1.755-8.083,10.154-10.812a22.879,22.879,0,0,0,2.971-1.1,11.756,11.756,0,0,0,1.8,1.383,12.121,12.121,0,0,0,5.738,2.2,5.9,5.9,0,0,0,5.273-2.332,97.194,97.194,0,0,1,6.687,10.006,6.938,6.938,0,0,1,1.079,2.68,2.488,2.488,0,0,1-1.129,2.494l-.037.056-3.542,1.582-1.724,9.348c.068.093.124.186.186.279A32.834,32.834,0,0,1,352.449,170.316Z" transform="translate(-321.293 -133.171)" fill="url(#linear-gradient)"/>
          <path id="Path_53285" data-name="Path 53285" d="M435.214,163.5a16.255,16.255,0,0,1-.006,2.332,2.749,2.749,0,0,1-2.221,2.773,20.579,20.579,0,0,1-9,.794l-.006-.062a1.524,1.524,0,0,0,.168-.012l.019-.031a25.109,25.109,0,0,0,.465-8.151l.285-.056q1.6-.5,3.2-1a26.907,26.907,0,0,1,2.686-.744,4.1,4.1,0,0,1,2.258.025,3.129,3.129,0,0,1,1.675,1.724A7.383,7.383,0,0,1,435.214,163.5Z" transform="translate(-360.283 -143.025)" fill="#e28427"/>
          <path id="Path_53286" data-name="Path 53286" d="M348.687,161.333q-9.454-4.941-19.043-9.621a30.362,30.362,0,0,1-5.93-3.455,11.66,11.66,0,0,1-2.3-2.425c-.118-.167.105.174,0,0a10.917,10.917,0,0,1,.6-4.466,11.926,11.926,0,0,1,6.619-5.39c.949-.36,1.948-.651,2.934-.955a19.137,19.137,0,0,1,3.784,2.059q8.179,5.322,15.861,11.352a25.065,25.065,0,0,0,2.736,1.973c.211.13.434.254.658.366.031.019.068.031.1.05l6.439.217c.924.031,1.855.068,2.779.093l1.383.043q10.068.3,20.135.285l.13-.025a4.939,4.939,0,0,1,.1.527,25.11,25.11,0,0,1-.465,8.151l-.019.031a1.523,1.523,0,0,1-.167.012c-11.128,1.073-22.312,1.644-33.49,1.712a11.1,11.1,0,0,1-2.035-.112Z" transform="translate(-321.327 -133.847)" fill="url(#linear-gradient-8)"/>
          <path id="Path_53287" data-name="Path 53287" d="M363.17,135.093,363.1,135c-.019-.062-.037-.118-.056-.18,3.455.025,6.712,1.737,9.46,3.846,2.5,1.929,4.7,4.218,7.158,6.2l1.47,6.228-1.383-.043-2.779-.093c-2.177-.081-4.361-.167-6.538-.267-.223-.112-.447-.236-.658-.366l.037-.056a2.488,2.488,0,0,0,1.129-2.494,6.938,6.938,0,0,0-1.079-2.68A97.2,97.2,0,0,0,363.17,135.093Z" transform="translate(-337.144 -133.771)" fill="#51af77"/>
          <path id="Path_53288" data-name="Path 53288" d="M354.951,134.292c-.84,2.311-4.012,2.354-6.019,2a10.659,10.659,0,0,1-5.776-3.066c-.279-.287-.72.149-.442.435a11.235,11.235,0,0,0,6.556,3.307c2.29.3,5.368,0,6.282-2.517C355.688,134.074,355.087,133.919,354.951,134.292Z" transform="translate(-329.393 -133.128)" fill="#bbffc0"/>
          <path id="Path_53289" data-name="Path 53289" d="M355.807,197.769a45.5,45.5,0,0,1-23.484-3.577,15.7,15.7,0,0,1-5.361-3.441c-.271-.294-.712.143-.442.435a14.692,14.692,0,0,0,4.684,3.174,45.316,45.316,0,0,0,5.645,2.2,46.2,46.2,0,0,0,12,2.086,45.387,45.387,0,0,0,6.962-.256C356.2,198.345,356.2,197.724,355.807,197.769Z" transform="translate(-323.246 -154.97)" fill="#bbffc0"/>
          <path id="Path_53290" data-name="Path 53290" d="M355.955,193.6c-7.2,1.532-14.754.043-21.357-3.025a15.3,15.3,0,0,1-4.946-3.235c-.272-.294-.713.143-.442.435a14.342,14.342,0,0,0,4.343,2.987,43.228,43.228,0,0,0,5.244,2.149,35.78,35.78,0,0,0,11.04,1.919,29.211,29.211,0,0,0,6.279-.632C356.507,194.112,356.345,193.513,355.955,193.6Z" transform="translate(-324.267 -153.674)" fill="#bbffc0"/>
        </g>
      </g>
      <g id="Group_42494" data-name="Group 42494" transform="translate(186.669 43.246)">
        <g id="Group_42493" data-name="Group 42493" transform="translate(0 0)">
          <g id="Group_42492" data-name="Group 42492">
            <path id="Path_53291" data-name="Path 53291" d="M538.036,203.069c-.31.2-.62.391-.937.577a73,73,0,0,1-9.565,4.876q-2.056.865-4.15,1.607a74.48,74.48,0,0,1-23.516,4.243c-.4.006-.788.012-1.185.012a103.868,103.868,0,0,0-1.973-22.015c-.155-.825-.323-1.662-.5-2.518l-2.035-17.071a52.1,52.1,0,0,1,.893-7.8c.4-1.9.986-3.759,1.569-5.614q1-3.173,2-6.352l-.037-.1a31.96,31.96,0,0,1,3.815-1.2,13.664,13.664,0,0,1,.651,2.543c.292,1.613.515,3.226.664,4.857,2.494-2.208,4.919-4.5,7.233-6.892l.366-.453a2.924,2.924,0,0,1-.459-2.159c.881-3.542,7.431-6.377,7.431-6.377a14.309,14.309,0,0,1,2.2.837l.279.13c6.873,3.17,8.169,8.343,8.374,10.874.068.484.124.98.149,1.5a154.812,154.812,0,0,0,8.7,46.436Z" transform="translate(-445.269 -110.478)" fill="url(#linear-gradient)"/>
            <path id="Path_53292" data-name="Path 53292" d="M473.957,190.689a6.192,6.192,0,0,1-3.25.986,7.724,7.724,0,0,1-3.53-1.371q-4.057-2.428-8.008-5.037a204.7,204.7,0,0,1-23.609-18.225,7.938,7.938,0,0,0,5.483-3.424,6.015,6.015,0,0,0,.732-1.551l.261.081q11.975,6.4,24.391,11.922c1.284.577,2.58,1.141,3.877,1.7q.8-1.079,1.619-2.152,8.532-11.305,18.132-21.767,1.693-1.852,3.424-3.672a8.148,8.148,0,0,1,3.592-2.587,6.582,6.582,0,0,1,3.877.422,10.181,10.181,0,0,1,4.882,3.492,9.574,9.574,0,0,1,1.073,7.9c-.081.323-.18.633-.285.943a25.7,25.7,0,0,1-4.913,7.741,120.452,120.452,0,0,1-26.71,23.95C474.652,190.261,474.311,190.485,473.957,190.689Z" transform="translate(-423.011 -111.317)" fill="url(#linear-gradient-10)"/>
            <g id="Group_42491" data-name="Group 42491" transform="translate(44.364 93.168)">
              <path id="Path_53293" data-name="Path 53293" d="M570.591,338.318c-.6.577-1.2,1.135-1.8,1.687q-1.405,1.3-2.829,2.562-2.038,1.814-4.131,3.561l-.093.074a7.937,7.937,0,0,1-2.3,1.489l-.043.037c-10.132-13.349-20.74-36.17-30.945-51.025a25.255,25.255,0,0,1-3.674-8.2q-.481-1.928-.968-3.8c-.043,20.855-.081,48.551-.124,68.525l.006.056a55.276,55.276,0,0,1-13.392-.056v-.081c-.54-20.445-4.3-79.66-6.457-98.12-.18-1.52-.341-2.76-.5-3.685a74.481,74.481,0,0,0,23.516-4.243q2.094-.744,4.15-1.607a73,73,0,0,0,9.565-4.876l.254.422a435.489,435.489,0,0,0,3.064,45.81C551.97,301.125,561.324,324.988,570.591,338.318Z" transform="translate(-493.115 -240.62)" fill="#1a1e2d"/>
              <path id="Path_53294" data-name="Path 53294" d="M593.829,403.4q1.424-1.256,2.829-2.562l.074.081q3.071,2.484,5.893,5.248a1.217,1.217,0,0,1,.471.806,1.255,1.255,0,0,1-.26.639q-4.931,7.453-9.857,14.906a1.629,1.629,0,0,1-.416.478,1.6,1.6,0,0,1-.819.192c-1.2.062-2.4.056-3.6.05q-5.7-.037-11.4-.062a7.761,7.761,0,0,1,8.25-5.88.71.71,0,0,0,.44-.05.649.649,0,0,0,.223-.341c1.321-3.294,2.636-6.575,3.951-9.869l.093-.074Q591.792,405.213,593.829,403.4Z" transform="translate(-520.98 -301.454)" fill="#494991"/>
              <path id="Path_53295" data-name="Path 53295" d="M561.74,349.187a7.936,7.936,0,0,1-2.3,1.489l-.043.037c-10.132-13.349-20.74-36.17-30.945-51.025a25.254,25.254,0,0,1-3.674-8.2q-.481-1.928-.968-3.8c-2.593-10.018-5.322-19.136-8.169-30.166l-.037-.341q-5.769.577-11.556.806l-.2.025c-.18-1.52-.341-2.76-.5-3.685a74.48,74.48,0,0,0,23.516-4.243q2.094-.744,4.15-1.607l.1.248q1.368,18.721,2.748,37.454a13.917,13.917,0,0,0,1.849,6.947,533,533,0,0,0,30.252,52.422q-2.038,1.814-4.131,3.561Z" transform="translate(-493.115 -243.604)" fill="url(#linear-gradient-3)"/>
              <path id="Path_53296" data-name="Path 53296" d="M486.962,431.7c.056,0-.025.143-.081.087s-.019-.155.019-.229a15.964,15.964,0,0,1,4.863-5.056,27.143,27.143,0,0,1,6.346-3.071,25.712,25.712,0,0,1,5.93-1.4v.081a55.276,55.276,0,0,0,13.392.056.047.047,0,0,0,.025-.006v.019a72.735,72.735,0,0,1,.515,9.652Z" transform="translate(-486.85 -309.5)" fill="#494991"/>
            </g>
            <path id="Path_53297" data-name="Path 53297" d="M520.46,139.016c.3-.267.589-.533.881-.794,1.092-.155,2.059,1.055,2.022,2.19a5.6,5.6,0,0,1-1.526,3.133c-1.507,1.886-3.089,3.7-4.739,5.471-2.686,2.872-5.533,5.589-8.48,8.194-.149-1.631-.372-3.244-.664-4.857a13.66,13.66,0,0,0-.651-2.543c-.081-.211-.174-.416-.273-.614.713-.385,1.414-.782,2.1-1.21A78.438,78.438,0,0,0,520.46,139.016Z" transform="translate(-450.148 -108.567)" fill="#fff"/>
            <path id="Path_53298" data-name="Path 53298" d="M519.278,98.537a6.463,6.463,0,0,1,.211,3.319c-.639,4.23-3.188,7.971-4.057,12.158-.267-.738-.509-1.4-.707-1.929a2.371,2.371,0,0,1-.2-.844,2.934,2.934,0,0,1,.2-.85,8.162,8.162,0,0,0,.341-3.585,1.93,1.93,0,0,0-.509-1.216,1.485,1.485,0,0,0-1.824.074,4.385,4.385,0,0,0-1.117,1.607q-1.293,2.642-2.593,5.285c-1.086-.682-1.216-2.183-1.234-3.468q-.037-2.977-.068-5.955a.868.868,0,0,0-.161-.589.852.852,0,0,0-.521-.192l-.174-.019a10.282,10.282,0,0,1-3.263-3.412,25.606,25.606,0,0,1-2.152-4.882,6.052,6.052,0,0,0,4.919.1,11.611,11.611,0,0,1,2.27-.664,2.6,2.6,0,0,1,2.19.639c.67.695.732,1.855,1.495,2.45a2.669,2.669,0,0,0,2.227.267,7.086,7.086,0,0,1,2.283-.366A3.193,3.193,0,0,1,519.278,98.537Z" transform="translate(-448.029 -91.573)" fill="url(#linear-gradient-3)"/>
            <path id="Path_53299" data-name="Path 53299" d="M494.51,106.293c2.363.236,4.758.347,7.115.626l.174.019a.852.852,0,0,1,.521.192.868.868,0,0,1,.161.589q.028,2.977.068,5.955c.019,1.284.149,2.785,1.234,3.468q1.293-2.642,2.593-5.285a4.385,4.385,0,0,1,1.117-1.607,1.485,1.485,0,0,1,1.824-.074,1.93,1.93,0,0,1,.509,1.216,8.161,8.161,0,0,1-.341,3.585,2.934,2.934,0,0,0-.2.85,2.371,2.371,0,0,0,.2.844c.2.533.44,1.191.707,1.929.906,2.481,2.1,5.825,2.909,8.008a78.44,78.44,0,0,1-11.333,8.97c.074-2,.043-6.488.012-9.4a63.225,63.225,0,0,0-7.251.707,3.913,3.913,0,0,1-2.149-.255c-.682-.335-.654-.905-.878-1.631a29.125,29.125,0,0,1-1.52-6.116,16.761,16.761,0,0,1-2.09-.174.288.288,0,0,1-.192-.081.325.325,0,0,1-.05-.23A81.35,81.35,0,0,1,489.6,105.53a35.02,35.02,0,0,0,4.9.763Z" transform="translate(-442.789 -96.16)" fill="url(#linear-gradient-6)"/>
            <path id="Path_53300" data-name="Path 53300" d="M498.913,97.8a10.282,10.282,0,0,0,3.263,3.412c-2.357-.279-4.752-.391-7.115-.627h-.006A14.849,14.849,0,0,1,489.1,91.7c.149-.031.3-.074.447-.118,1.514-.465,3.071-1.507,4.534-.906.955.4,1.507,1.389,2.332,2.01a3.048,3.048,0,0,0,.347.23A25.6,25.6,0,0,0,498.913,97.8Z" transform="translate(-443.34 -90.451)" fill="#1a1e2d"/>
            <path id="Path_53301" data-name="Path 53301" d="M495.245,158.84l.037.1q-1,3.173-2,6.352c-.583,1.855-1.166,3.709-1.569,5.614a52.111,52.111,0,0,0-.893,7.8q-.819,1.07-1.619,2.152c-1.3-.558-2.593-1.123-3.877-1.7l.186-.416a136.386,136.386,0,0,1,5.62-16.085,7.2,7.2,0,0,1,1.253-2.184,6.513,6.513,0,0,1,2.481-1.483Z" transform="translate(-441.905 -116.401)" fill="#51af77"/>
            <path id="Path_53302" data-name="Path 53302" d="M432.932,221.159a44.318,44.318,0,0,1-1.135-5.527c-.05-.347-.093-.689-.136-1.036,5.347-1.414,10.886-1.929,16.345-2.86q4.885-.828,9.683-2.1,3.945,2.605,8.008,5.037a7.724,7.724,0,0,0,3.53,1.371,6.192,6.192,0,0,0,3.25-.986c.174.856.341,1.693.5,2.518a7.438,7.438,0,0,1-1.3,2.438,4.681,4.681,0,0,1-2.773,1.737c-11.594,1.476-23.292,1.991-34.973,2.407l-.074.025C433.509,223.188,433.2,222.183,432.932,221.159Z" transform="translate(-421.53 -135.689)" fill="#51af77"/>
            <path id="Path_53303" data-name="Path 53303" d="M485.6,99.794a21.092,21.092,0,0,1-2.035-.577,11.7,11.7,0,0,1-4.33-2.444,6.457,6.457,0,0,1-2.128-4.392,1.9,1.9,0,0,1,.825-1.836c.769-.372,1.631.192,2.388.583a6.265,6.265,0,0,0,4.224.546,14.849,14.849,0,0,0,5.955,8.883A35.018,35.018,0,0,1,485.6,99.794Z" transform="translate(-438.787 -90.424)" fill="url(#linear-gradient-3)"/>
            <path id="Path_53304" data-name="Path 53304" d="M432.133,174.52a7.311,7.311,0,0,1-1.948.025,4.083,4.083,0,0,1-3.405-2.171,5.341,5.341,0,0,1-.211-2.37,4.683,4.683,0,0,1,.409-1.973,2.438,2.438,0,0,1,.93-.788,6.7,6.7,0,0,1,2.208-.5,10.833,10.833,0,0,0,2.357-.49c1.272-.447,2.518-1.321,3.846-1.061a2.96,2.96,0,0,1,2.2,2.525,4.169,4.169,0,0,1-.174,1.83,6.017,6.017,0,0,1-.732,1.551A7.938,7.938,0,0,1,432.133,174.52Z" transform="translate(-419.584 -118.794)" fill="url(#linear-gradient-6)"/>
            <path id="Path_53305" data-name="Path 53305" d="M428.683,157.342a5.65,5.65,0,0,1,3.226-1.458,2.989,2.989,0,0,1,1.532.18,2.075,2.075,0,0,1,1.21,1.867,2.666,2.666,0,0,1-.825,1.818,6.669,6.669,0,0,1-1.681,1.148,5.733,5.733,0,0,1-3.257.837,2.025,2.025,0,0,1-1.135-.478,2.334,2.334,0,0,1-.248-2.593,2.663,2.663,0,0,1,1.179-1.321Z" transform="translate(-419.85 -115.269)" fill="url(#linear-gradient-6)"/>
            <path id="Path_53306" data-name="Path 53306" d="M426.731,224.672c-2.245,1.154-4.479,2.308-6.718,3.461-.782.4-1.569.806-2.382,1.148l-2.3-9.745a2.023,2.023,0,0,1,.819-.5,5.112,5.112,0,0,1,1.712-.136q3.759.13,7.524.267l.211-.025A44.335,44.335,0,0,0,426.731,224.672Z" transform="translate(-415.33 -139.202)" fill="url(#linear-gradient-6)"/>
          </g>
        </g>
        <path id="Path_53307" data-name="Path 53307" d="M499.95,110.372c-.112.478-.608.5-.992.378-.409-.118-.775-.354-1.172-.5a6.679,6.679,0,0,0-1.309-.248.836.836,0,0,1-.806-.751.891.891,0,0,1,.149-.509.792.792,0,0,1,.18-.292,1.513,1.513,0,0,1,1.29-.4,4.041,4.041,0,0,1,1.278.4,2.793,2.793,0,0,1,1.048.763A1.433,1.433,0,0,1,499.95,110.372Z" transform="translate(-445.834 -97.113)" fill="#1a1e2d"/>
        <path id="Path_53308" data-name="Path 53308" d="M498.445,114.076a2.083,2.083,0,0,1-.639,1.88.93.93,0,0,1-.912.13,1.094,1.094,0,0,1-.608-.713,2.25,2.25,0,0,1-.068-.707.287.287,0,0,1,.012-.143v-.012a3.046,3.046,0,0,1,.3-1.024c.006-.019.012-.043.019-.062a.9.9,0,0,1,.782-.645,1.013,1.013,0,0,1,.837.434A1.774,1.774,0,0,1,498.445,114.076Z" transform="translate(-446.041 -98.912)" fill="#1a1e2d"/>
        <path id="Path_53309" data-name="Path 53309" d="M515.517,132.965a35.693,35.693,0,0,1-4.9,3.188c-.352.19-.043.729.307.539a36.629,36.629,0,0,0,5.029-3.285C516.268,133.162,515.829,132.723,515.517,132.965Z" transform="translate(-451.451 -106.55)" fill="#e28427"/>
        <path id="Path_53310" data-name="Path 53310" d="M519,117.1a.321.321,0,0,0-.378.222.313.313,0,0,0,.222.378.212.212,0,0,1,.195.216.463.463,0,0,1-.21.393,1.11,1.11,0,0,1-.595.272c-.155,0-.231-.163-.27-.293-.3-1,.491-2,1.059-2.737a.312.312,0,0,0-.114-.424.318.318,0,0,0-.424.114,3.939,3.939,0,0,0-1.151,3.094.953.953,0,0,0,1.042.852,1.633,1.633,0,0,0,1.22-.9A.876.876,0,0,0,519,117.1Z" transform="translate(-454.041 -99.787)" fill="#e28427"/>
        <path id="Path_53311" data-name="Path 53311" d="M506.2,127.59a2.759,2.759,0,0,1-3.6-1.148,2.665,2.665,0,0,1,.484-2.86,1.9,1.9,0,0,1,.186-.2l.13-.13a1.785,1.785,0,0,1,.242-.186,1.3,1.3,0,0,0,.105-.087.643.643,0,0,1,.062-.025,2.64,2.64,0,1,1,2.388,4.634Z" transform="translate(-448.381 -102.625)" fill="#e28427"/>
        <path id="Path_53312" data-name="Path 53312" d="M497.005,129.923a6.654,6.654,0,0,1-3.884,1.648c-.323.025-.324.532,0,.507a7.224,7.224,0,0,0,4.237-1.795C497.6,130.067,497.248,129.707,497.005,129.923Z" transform="translate(-444.775 -105.396)" fill="#1a1e2d"/>
      </g>
      <g id="Group_42498" data-name="Group 42498" transform="translate(169.002 17.37)">
        <path id="Path_53313" data-name="Path 53313" d="M429.615,61.118a3.657,3.657,0,0,1,3.747,4.342L429.1,87.45a3.655,3.655,0,0,1-3.951,2.94l-5.856-.583a40.873,40.873,0,0,1-10.3,7.1c.906-1.793,2.053-3.443,2.971-5.229A15.009,15.009,0,0,0,413,89.174l-12.127-1.21a3.648,3.648,0,0,1-3.188-2.767L393.234,67.06a3.653,3.653,0,0,1,3.393-4.522Z" transform="translate(-389.232 -53.419)" fill="#bdf38d"/>
        <g id="Group_42497" data-name="Group 42497">
          <g id="Group_42495" data-name="Group 42495">
            <path id="Path_53314" data-name="Path 53314" d="M388.085,56.061a13.072,13.072,0,0,0,.093,11.29A10.652,10.652,0,0,0,390.4,70.39a12.881,12.881,0,0,0,6.277,2.959,21.548,21.548,0,0,0,3.933.422,12.731,12.731,0,0,1-6.65-7.841,14.118,14.118,0,0,1,1.011-10.316c1.774-3.486,5.161-6.284,9.05-6.668l.006-.025a20.534,20.534,0,0,0-2.965-.211,18.849,18.849,0,0,0-4.131.354A13.054,13.054,0,0,0,388.085,56.061Z" transform="translate(-386.849 -48.709)" fill="url(#linear-gradient-6)"/>
            <path id="Path_53315" data-name="Path 53315" d="M404.747,73.907A21.569,21.569,0,0,0,412.4,72.6a11.47,11.47,0,0,0,4.59-2.835,10.072,10.072,0,0,0,2.332-5.006,13.057,13.057,0,0,0-2.035-9.77,11.468,11.468,0,0,0-.918-1.135,13.177,13.177,0,0,0-7.133-4.572c-.391-.093-.782-.167-1.179-.23l-.006.025c-3.889.385-7.276,3.182-9.05,6.668a14.119,14.119,0,0,0-1.011,10.316,12.731,12.731,0,0,0,6.65,7.841A.674.674,0,0,0,404.747,73.907Z" transform="translate(-390.869 -48.839)" fill="#ffca55"/>
          </g>
          <g id="Group_42496" data-name="Group 42496" transform="translate(2.124 4.821)">
            <path id="Path_53316" data-name="Path 53316" d="M417.109,58.386a4.641,4.641,0,0,0,1.466,3.364,2.069,2.069,0,0,0,1.528.638,1.474,1.474,0,0,0,1.309-.966,3.819,3.819,0,0,0-.466-3.343,2.717,2.717,0,0,0-1.6-1.522,1.648,1.648,0,0,0-1.569.322A2.232,2.232,0,0,0,417.109,58.386Z" transform="translate(-400.46 -56.482)" fill="#1a1e2d"/>
            <path id="Path_53317" data-name="Path 53317" d="M401.187,60.357a4.642,4.642,0,0,1-1.466,3.365,2.067,2.067,0,0,1-1.528.637,1.474,1.474,0,0,1-1.309-.966,3.821,3.821,0,0,1,.466-3.344,2.714,2.714,0,0,1,1.6-1.521,1.65,1.65,0,0,1,1.569.322A2.234,2.234,0,0,1,401.187,60.357Z" transform="translate(-392.705 -57.23)" fill="#1a1e2d"/>
            <circle id="Ellipse_562" data-name="Ellipse 562" cx="2.228" cy="2.228" r="2.228" transform="translate(21.158 5.845)" fill="#ef5e5e"/>
            <circle id="Ellipse_563" data-name="Ellipse 563" cx="2.228" cy="2.228" r="2.228" transform="translate(0 7.394)" fill="#ef5e5e"/>
            <path id="Path_53318" data-name="Path 53318" d="M405.223,71.235a3.725,3.725,0,0,0,3.442,3.17c1.906,0,3.928-1.382,3.887-3.431a.343.343,0,0,1,.685,0c.047,2.378-2.2,4.033-4.428,4.11a4.384,4.384,0,0,1-4.25-3.681C404.469,70.978,405.131,70.8,405.223,71.235Z" transform="translate(-395.695 -61.859)" fill="#1a1e2d"/>
          </g>
        </g>
      </g>
      <g id="Group_42502" data-name="Group 42502" transform="translate(212.218 0)">
        <path id="Path_53319" data-name="Path 53319" d="M520.651,23.16a2.782,2.782,0,0,1,2.735,3.523l-7.419,26.8a2.783,2.783,0,0,1-2.915,2.028l-5.484-.459c-5.2,6.482-16.178,6.172-16.178,6.172,3.951-1.861,5.5-7.071,5.5-7.071l-20.377-1.706a2.782,2.782,0,0,1-2.487-2.2l-4.745-22.79a2.78,2.78,0,0,1,2.667-3.35Z" transform="translate(-461.342 -21.638)" fill="#bdf38d"/>
        <g id="Group_42501" data-name="Group 42501">
          <g id="Group_42499" data-name="Group 42499">
            <path id="Path_53320" data-name="Path 53320" d="M490.979,28.06a13.015,13.015,0,0,1-.093,11.283,10.658,10.658,0,0,1-2.221,3.046,12.875,12.875,0,0,1-6.284,2.959,21.556,21.556,0,0,1-3.939.422,12.727,12.727,0,0,0,6.656-7.841,14.164,14.164,0,0,0-1-10.322,11.959,11.959,0,0,0-9.05-6.668V20.92A20.425,20.425,0,0,1,478,20.709a18.089,18.089,0,0,1,4.131.354A13.027,13.027,0,0,1,490.979,28.06Z" transform="translate(-463.552 -20.707)" fill="url(#linear-gradient-6)"/>
            <path id="Path_53321" data-name="Path 53321" d="M471.309,45.907a21.454,21.454,0,0,1-7.648-1.309,11.441,11.441,0,0,1-4.59-2.841,9.971,9.971,0,0,1-2.332-5.006,13.069,13.069,0,0,1,2.035-9.77,10.846,10.846,0,0,1,.98-1.21,13.176,13.176,0,0,1,7.071-4.491c.391-.093.788-.167,1.185-.23v.019a11.959,11.959,0,0,1,9.05,6.668,14.164,14.164,0,0,1,1,10.322,12.727,12.727,0,0,1-6.656,7.841A.567.567,0,0,1,471.309,45.907Z" transform="translate(-456.518 -20.837)" fill="#ffca55"/>
          </g>
          <g id="Group_42500" data-name="Group 42500" transform="translate(0.865 5.1)">
            <path id="Path_53322" data-name="Path 53322" d="M469.608,30.832a4.647,4.647,0,0,1-1.466,3.365,2.07,2.07,0,0,1-1.528.637,1.473,1.473,0,0,1-1.308-.966,3.82,3.82,0,0,1,.466-3.344,2.714,2.714,0,0,1,1.6-1.521,1.648,1.648,0,0,1,1.569.322A2.233,2.233,0,0,1,469.608,30.832Z" transform="translate(-460.641 -28.928)" fill="#1a1e2d"/>
            <path id="Path_53323" data-name="Path 53323" d="M485.529,32.8A4.644,4.644,0,0,0,487,36.168a2.07,2.07,0,0,0,1.528.637,1.475,1.475,0,0,0,1.309-.966,3.819,3.819,0,0,0-.466-3.343,2.718,2.718,0,0,0-1.6-1.522,1.649,1.649,0,0,0-1.569.323A2.229,2.229,0,0,0,485.529,32.8Z" transform="translate(-468.396 -29.677)" fill="#1a1e2d"/>
            <circle id="Ellipse_564" data-name="Ellipse 564" cx="2.228" cy="2.228" r="2.228" transform="translate(0 5.844)" fill="#ef5e5e"/>
            <circle id="Ellipse_565" data-name="Ellipse 565" cx="2.228" cy="2.228" r="2.228" transform="translate(21.158 7.394)" fill="#ef5e5e"/>
            <path id="Path_53324" data-name="Path 53324" d="M480.1,44.4a6.3,6.3,0,0,1-.72,2.494,10.752,10.752,0,0,1-1.2,2.27,5.933,5.933,0,0,1-3.4,2.394,7.1,7.1,0,0,1-4.125-.3,5.481,5.481,0,0,1-3.083-2.636,6.816,6.816,0,0,1-.6-4.472c.006-.019.019-.031.025-.05a.308.308,0,0,1,.372-.36,26.765,26.765,0,0,0,12.319.347.326.326,0,0,1,.192.025A.291.291,0,0,1,480.1,44.4Z" transform="translate(-461.293 -34.55)" fill="#fff"/>
          </g>
        </g>
      </g>
      <g id="Group_42506" data-name="Group 42506" transform="translate(0.485 51.687)">
        <g id="Group_42503" data-name="Group 42503" transform="translate(0 77.662)">
          <path id="Path_53325" data-name="Path 53325" d="M209.4,342.548c-.155.006-.3.006-.459.006a50.147,50.147,0,0,1-7.22-.428c-1-.13-2.01-.292-3-.49a.191.191,0,0,1-.081-.019q-1.21-21.661-2.419-43.316a26.742,26.742,0,0,1,.149-6.34,9.153,9.153,0,0,1,2.736-5.248,147.063,147.063,0,0,1-3.374-17.418q-1.8,7.63-3.889,15.185a4.113,4.113,0,0,1-.744,1.669,4.2,4.2,0,0,1-1.613.974c-16.655,6.861-33.242,14.348-47.807,24.949a.189.189,0,0,0-.043.031,18.3,18.3,0,0,1-4.6-5.707,17.534,17.534,0,0,1-1.327-3.288c-.05-.143-.093-.292-.13-.44l-.062-.087q15.148-11.4,30.29-22.8a32.42,32.42,0,0,1,5.031-3.306,16.143,16.143,0,0,1,7.394-1.638c.18-9.652-1.731-19.261-1.47-28.913a25.618,25.618,0,0,1,.968-7c1.172-3.753,3.641-6.861,6.433-9.7.782.583,1.582,1.154,2.388,1.706a70.562,70.562,0,0,0,6.761,4.075,27.778,27.778,0,0,0,8.467,3.151,17.571,17.571,0,0,0,12.933-3.071q.335,4.476.471,8.97C216.234,276.677,210.54,309.944,209.4,342.548Z" transform="translate(-122.904 -229.23)" fill="#1a1e2d"/>
          <path id="Path_53326" data-name="Path 53326" d="M239.805,417.5l-.037.006c-.676,3.281-1.352,6.575-2.028,9.857-.806.025-1.619.019-2.425-.031l-.192-.05q.53-7.5,1.346-14.98a8.892,8.892,0,0,0,.074-1.861c.992.2,2,.36,3,.49a50.143,50.143,0,0,0,7.22.428c.118,2.053.3,4.106.546,6.147h.149c1.88,3.35,3.9,6.631,6.054,9.813-4.175-.3-8.387.31-12.567-.05C240.674,424.007,240.3,420.744,239.805,417.5Z" transform="translate(-160.722 -298.035)" fill="#494991"/>
          <path id="Path_53327" data-name="Path 53327" d="M235.966,296.818a147.066,147.066,0,0,1-3.374-17.418q2.763-11.705,4.814-23.559a13.73,13.73,0,0,0,2.2.136,18.489,18.489,0,0,0,1.855-.124l.056.533q-.419,47.937-2.934,95.825v.019c-1-.13-2.01-.292-3-.49a.191.191,0,0,1-.081-.019q-1.21-21.661-2.419-43.316a26.74,26.74,0,0,1,.149-6.34A9.153,9.153,0,0,1,235.966,296.818Z" transform="translate(-159.762 -239.334)" fill="url(#linear-gradient-3)"/>
          <path id="Path_53328" data-name="Path 53328" d="M178.236,274.842c.18-9.652-1.731-19.261-1.47-28.913a25.619,25.619,0,0,1,.968-7c1.172-3.753,3.641-6.861,6.433-9.7.782.583,1.582,1.154,2.388,1.706a363.374,363.374,0,0,0-1.979,47.832q-2.94,1.461-5.874,2.922c-14.484,7.214-29.1,14.515-41.66,24.707a17.533,17.533,0,0,1-1.327-3.288c-.05-.143-.093-.292-.13-.44l-.062-.087q15.148-11.4,30.29-22.8a32.42,32.42,0,0,1,5.031-3.306A16.143,16.143,0,0,1,178.236,274.842Z" transform="translate(-122.905 -229.23)" fill="url(#linear-gradient-3)"/>
          <path id="Path_53329" data-name="Path 53329" d="M133.915,357.325a.006.006,0,0,0,.006.006q-3.005,2.959-5.949,5.98H127.9l-.335,8.728-.136-.006q-4.727-5.145-8.926-10.737l-.112-.13a73.1,73.1,0,0,0,6.191-5.974l-.068-.062A61.557,61.557,0,0,0,116.6,358.6l-.012.006c-.465-.862-.937-1.718-1.4-2.581q6.355-3.833,12.729-7.673l.081-.025a17.536,17.536,0,0,0,1.327,3.288A18.3,18.3,0,0,0,133.915,357.325Z" transform="translate(-115.182 -274.452)" fill="#494991"/>
        </g>
        <g id="Group_42504" data-name="Group 42504" transform="translate(42.3 0)">
          <path id="Path_53330" data-name="Path 53330" d="M205.926,147.913l-.019-.006q-4.736,3.294-9.329,6.811c-.006,0-.012.006-.019.006a4.773,4.773,0,0,0-.751.521,2.522,2.522,0,0,0-.261.254,3.6,3.6,0,0,0-.465.552,5.91,5.91,0,0,0-1,2.537,6.761,6.761,0,0,0-.074.788l-.378-.012a9.252,9.252,0,0,1-8.7-3.567,7.252,7.252,0,0,1-.664-7.915c1.805-2.909,5.725-3.678,8.163-6.091a8,8,0,0,0,2.159-3.939c.409-1.9.118-3.97.9-5.756a7.451,7.451,0,0,1,4-3.585,4.775,4.775,0,0,1,3.374-.385c.043.186.087.372.143.552a2.5,2.5,0,0,0-.93,2.339,5.261,5.261,0,0,0,1.718,3.232c.025.025.05.043.074.068a11.474,11.474,0,0,0,2.711,1.755A44.855,44.855,0,0,1,205.926,147.913Z" transform="translate(-183.374 -113.115)" fill="#1a1e2d"/>
          <path id="Path_53331" data-name="Path 53331" d="M213.768,119.043q-.81-3.117-1.445-6.278a5.837,5.837,0,0,1-.087-2.81,4.066,4.066,0,0,1,1.172-1.749,8.12,8.12,0,0,1,3.9-1.849,24.849,24.849,0,0,1,4.348-.378c3.759-.105,7.6-.248,11.116-1.6a2.644,2.644,0,0,1,1.749-.279,1.9,1.9,0,0,1,1.11,1.445,5.136,5.136,0,0,1-1.172,4.336,8.325,8.325,0,0,1-1.483,1.4,14.918,14.918,0,0,1-2.239,1.352,27.98,27.98,0,0,1-9.435,2.841,1.636,1.636,0,0,0-1.141.44,1.475,1.475,0,0,0-.242.6,31.936,31.936,0,0,0-.3,5.67c-.006.161-.056.372-.223.385a.366.366,0,0,1-.155-.043,9.219,9.219,0,0,1-2.289-2.109,2.706,2.706,0,0,0-2.8-.943,1.134,1.134,0,0,0-.242.13C213.854,119.415,213.811,119.229,213.768,119.043Z" transform="translate(-194.279 -104.031)" fill="url(#linear-gradient-3)"/>
          <path id="Path_53332" data-name="Path 53332" d="M226.67,134.55a22.465,22.465,0,0,0,4.733,9.838,27.031,27.031,0,0,1,.968,5.347.224.224,0,0,1-.031.167c-.037.056-.118.062-.192.068a15.215,15.215,0,0,1-6.315-1.576,37.5,37.5,0,0,1-8.529-4.851l.019-.025c.019-.087.031-.167.043-.254a44.855,44.855,0,0,0,.651-11.842,11.474,11.474,0,0,1-2.711-1.755c-.025-.025-.05-.043-.074-.068a5.261,5.261,0,0,1-1.718-3.232,2.5,2.5,0,0,1,.93-2.339,1.134,1.134,0,0,1,.242-.13,2.706,2.706,0,0,1,2.8.943,9.218,9.218,0,0,0,2.289,2.109.366.366,0,0,0,.155.043c.167-.012.217-.223.223-.385a31.934,31.934,0,0,1,.3-5.67,1.475,1.475,0,0,1,.242-.6,1.636,1.636,0,0,1,1.141-.44,27.981,27.981,0,0,0,9.435-2.841,14.92,14.92,0,0,0,2.239-1.352q.428,2.252.856,4.51c.292,1.551.583,3.1.8,4.665a13.056,13.056,0,0,1,.149,2.99,9.938,9.938,0,0,1-3.052,5.936A4.341,4.341,0,0,1,230.491,135a4.522,4.522,0,0,1-2.1-.031C227.811,134.854,227.234,134.717,226.67,134.55Z" transform="translate(-194.812 -108.466)" fill="url(#linear-gradient-6)"/>
          <path id="Path_53333" data-name="Path 53333" d="M203.868,134.317a6.434,6.434,0,0,1-1.228,5.242,15.793,15.793,0,0,1-4.6,3.852,28.694,28.694,0,0,0-4.956,3.436,6.242,6.242,0,0,0-1.47,1.966,5.052,5.052,0,0,0,.478,4.634,7.3,7.3,0,0,0,3,2.605,5.91,5.91,0,0,0-1,2.537,6.764,6.764,0,0,0-.074.788l-.378-.012a9.253,9.253,0,0,1-8.7-3.567,7.252,7.252,0,0,1-.664-7.915c1.805-2.909,5.725-3.678,8.163-6.091a8,8,0,0,0,2.159-3.939c.409-1.9.118-3.97.9-5.756a7.451,7.451,0,0,1,4-3.585,4.775,4.775,0,0,1,3.374-.385c.043.186.087.372.143.552a2.5,2.5,0,0,0-.93,2.339,5.261,5.261,0,0,0,1.718,3.232C203.819,134.274,203.844,134.292,203.868,134.317Z" transform="translate(-183.375 -113.115)" fill="url(#linear-gradient-3)"/>
          <path id="Path_53334" data-name="Path 53334" d="M242.98,128.678a7.635,7.635,0,0,0-.725-.781c-.272-.288-.54-.577-.8-.875a13.456,13.456,0,0,1-1.433-1.924c-.206-.342-.745-.035-.539.307a18.482,18.482,0,0,0,2.536,3.142c.109.114.219.228.328.342.163.171.14.3.025.5a9.223,9.223,0,0,1-1.871,2.29c-.3.268.14.708.435.442a10.283,10.283,0,0,0,1.483-1.662C242.751,129.99,243.391,129.26,242.98,128.678Z" transform="translate(-204.66 -111.974)" fill="#bc691e"/>
          <path id="Path_53335" data-name="Path 53335" d="M230.935,135.722a2.453,2.453,0,0,1-3.083-.707,2.1,2.1,0,0,1-.05-2.326,2.251,2.251,0,0,1,1.365-1.216,2.639,2.639,0,0,1,3.058,1.21A2.407,2.407,0,0,1,230.935,135.722Z" transform="translate(-200.119 -114.408)" fill="#e28427"/>
          <path id="Path_53336" data-name="Path 53336" d="M232.559,123.039a2.726,2.726,0,0,0-1.191-.017,2.975,2.975,0,0,0-1.208.542.2.2,0,0,0-.07.026,3.776,3.776,0,0,0-.86.787,1.123,1.123,0,0,0-.222,1.1c.275.483.824.09,1.156-.084a11.521,11.521,0,0,1,1.223-.555,12.464,12.464,0,0,1,1.251-.405c.352-.093.9-.184.831-.677C233.415,123.346,232.9,123.129,232.559,123.039Z" transform="translate(-200.673 -111.22)" fill="url(#linear-gradient-3)"/>
          <path id="Path_53337" data-name="Path 53337" d="M244.031,121.019a2.487,2.487,0,0,0-.989-.216,3.236,3.236,0,0,0-.8.069.287.287,0,0,0-.114-.012,3.231,3.231,0,0,0-1.139.319c-.321.159-.766.414-.787.818-.025.481.56.486.9.473a11.323,11.323,0,0,0,1.3-.192,7.44,7.44,0,0,1,1.271-.057c.336.006.848.067.953-.364C244.727,121.491,244.321,121.158,244.031,121.019Z" transform="translate(-204.953 -110.399)" fill="url(#linear-gradient-3)"/>
          <path id="Path_53338" data-name="Path 53338" d="M233.855,126.883a.7.7,0,0,0-.785.166,1.139,1.139,0,0,0-.091.151.281.281,0,0,0-.16.194,2.5,2.5,0,0,0,.056,1.381c.185.473.638.959,1.186.685a.994.994,0,0,0,.473-.63,2.245,2.245,0,0,0,.1-.772A1.3,1.3,0,0,0,233.855,126.883Z" transform="translate(-202.122 -112.688)" fill="url(#linear-gradient-27)"/>
          <path id="Path_53339" data-name="Path 53339" d="M245.14,125.429a2.008,2.008,0,0,0-.456-1.164,1.089,1.089,0,0,0-.566-.342.761.761,0,0,0-.7.232,1.311,1.311,0,0,0-.217,1.184,1.594,1.594,0,0,0,.261.931.976.976,0,0,0,1.251.341A1.144,1.144,0,0,0,245.14,125.429Z" transform="translate(-206.07 -111.578)" fill="url(#linear-gradient-27)"/>
          <path id="Path_53340" data-name="Path 53340" d="M241,139.613a2.063,2.063,0,0,1-1.235,1.162,1.818,1.818,0,0,1-1.539-.456c-.47-.4-1.043-2.127-.818-2.127a11.568,11.568,0,0,0,4.013-.764A4.614,4.614,0,0,1,241,139.613Z" transform="translate(-203.873 -116.711)" fill="#fff"/>
          <path id="Path_53341" data-name="Path 53341" d="M231.425,144.341a14.094,14.094,0,0,1-4.924-2.153.31.31,0,0,0-.31.537,14.572,14.572,0,0,0,5.078,2.216C231.659,145,231.82,144.4,231.425,144.341Z" transform="translate(-199.575 -118.502)" fill="#e28427"/>
          <path id="Path_53342" data-name="Path 53342" d="M219.056,134.528a7.773,7.773,0,0,0-.645-1.615A3.5,3.5,0,0,0,217.4,131.6a1.027,1.027,0,0,0-1.455.257.31.31,0,0,0,.537.31c.213-.367.687.009.857.21a5.65,5.65,0,0,1,.769,1.32,6.611,6.611,0,0,1,.275.734c.04.127.076.255.109.384.023.089.082.241.038.332s-.212.126-.314.109a1.241,1.241,0,0,1-.592-.406c-.285-.279-.728.156-.442.435a1.432,1.432,0,0,0,1.4.55.816.816,0,0,0,.533-.488A1.375,1.375,0,0,0,219.056,134.528Z" transform="translate(-195.724 -114.427)" fill="#e28427"/>
        </g>
        <path id="Path_53343" data-name="Path 53343" d="M253.414,232.572a.31.31,0,0,0-.62,0q.057.753.113,1.5a.31.31,0,1,0,.62,0Q253.471,233.325,253.414,232.572Z" transform="translate(-167.432 -152.72)" fill="#bbffc0"/>
        <path id="Path_53344" data-name="Path 53344" d="M242.418,232.983a.317.317,0,0,0-.308.311q-.057.836-.113,1.673a.312.312,0,0,0,.312.308.318.318,0,0,0,.308-.311q.057-.836.113-1.673A.312.312,0,0,0,242.418,232.983Z" transform="translate(-163.333 -152.993)" fill="#bbffc0"/>
        <path id="Path_53345" data-name="Path 53345" d="M231.6,230.118a.314.314,0,0,0-.378.222,9.828,9.828,0,0,1-.44,1.73.312.312,0,0,0,.222.378.318.318,0,0,0,.378-.222,9.825,9.825,0,0,0,.44-1.73A.317.317,0,0,0,231.6,230.118Z" transform="translate(-159.07 -151.903)" fill="#bbffc0"/>
        <g id="Group_42505" data-name="Group 42505" transform="translate(52.923 33.986)">
          <path id="Path_53346" data-name="Path 53346" d="M242.483,175.746a6.592,6.592,0,0,1-1.2,2.891,26.82,26.82,0,0,1-3,3.84l-.143.006c.037,1.011.068,2.016.1,3.021l.316,7.859c.825,5.142,1.4,10.31,1.78,15.489a17.571,17.571,0,0,1-12.933,3.071,27.778,27.778,0,0,1-8.467-3.151,70.562,70.562,0,0,1-6.761-4.075c-.806-.552-1.607-1.123-2.388-1.706,1.023-1.048,2.09-2.059,3.157-3.046a61.76,61.76,0,0,0,.912-9.522L203,167.713l1.03-.782q4.587-3.517,9.329-6.811l.019.006c-.012.087-.025.167-.043.254l-.019.025a37.5,37.5,0,0,0,8.529,4.851,15.215,15.215,0,0,0,6.315,1.576c.074-.006.155-.012.192-.068a.223.223,0,0,0,.031-.167,27.029,27.029,0,0,0-.968-5.347c-.012-.062-.031-.13-.05-.192l.211-.23c3.821,3.517,8.424,6.122,12.189,9.7a11.962,11.962,0,0,1,1.724,1.979,1.308,1.308,0,0,1,.112.167A4.8,4.8,0,0,1,242.483,175.746Z" transform="translate(-201.449 -159.314)" fill="url(#linear-gradient)"/>
          <path id="Path_53347" data-name="Path 53347" d="M217.518,199.908c-2.7-2.339-4.82-4.175-4.82-4.175l-.056-.149a18.025,18.025,0,0,0,4.243-2.419,50.326,50.326,0,0,0,6.191-5.291c3.35,3.871,8.145,10.154,8.145,10.154l.031.093q5.285-1.693,10.651-3.133c2.891-.788,5.8-1.507,8.728-2.177l-.012-.062c.521-.93,1.042-1.855,1.588-2.773a11.151,11.151,0,0,1,3.815-4.3,3.525,3.525,0,0,1,4.063.143,3.718,3.718,0,0,1,.968,2.252c.105.825.081,1.669.223,2.487.174,1,.6,1.954.751,2.965a2.531,2.531,0,0,1-.087,1.327,3.116,3.116,0,0,1-1.966,1.495c-1.755.651-4.572-.4-6.433-.23l-.068.037s-5.173,3.449-11.252,6.7a59.157,59.157,0,0,1-11.941,5.124,4.961,4.961,0,0,1-3.126.093,5.145,5.145,0,0,1-1.377-.961C223.473,205.081,220.216,202.246,217.518,199.908Z" transform="translate(-205.11 -168.799)" fill="url(#linear-gradient-6)"/>
          <path id="Path_53348" data-name="Path 53348" d="M268.948,162.868l2.326,9.863c-2.444.267-4.553.453-6.966.7-.31-3.629-.806-7.245-1.476-10.824V162.6C264.823,162.762,266.845,162.855,268.948,162.868Z" transform="translate(-224.167 -160.256)" fill="url(#linear-gradient-6)"/>
          <path id="Path_53349" data-name="Path 53349" d="M241.515,160.756l-.05-.192c.019.062.037.13.05.192a22.4,22.4,0,0,1-1.383-1.849l.136-.087a87.429,87.429,0,0,0,13.944,2.345v.006c.67,3.579,1.166,7.2,1.476,10.824-.031.006-.068.006-.1.012a11.962,11.962,0,0,0-1.724-1.979C250.1,166.457,245.336,164.273,241.515,160.756Z" transform="translate(-215.548 -158.821)" fill="#51af77"/>
          <path id="Path_53350" data-name="Path 53350" d="M201.587,172.04a3.6,3.6,0,0,1,.465-.552c.335-.261.67-.515,1.011-.775.006,0,.012-.006.019-.006a5.383,5.383,0,0,1,2.649-.645,8.572,8.572,0,0,1,3.554.868,17.2,17.2,0,0,1,5.682,4.441,50.316,50.316,0,0,1,4.243,5.893l.062.062c-.267.279-.533.558-.806.837a50.323,50.323,0,0,1-6.191,5.291,18.025,18.025,0,0,1-4.243,2.419,8.773,8.773,0,0,1-1.681.465l-.019-.118a25.724,25.724,0,0,1-5.57-11.823,13.129,13.129,0,0,1-.248-3.033,6.76,6.76,0,0,1,.074-.788A5.911,5.911,0,0,1,201.587,172.04Z" transform="translate(-200.5 -163.089)" fill="#51af77"/>
          <path id="Path_53351" data-name="Path 53351" d="M238.892,218.473c-.153-.189-.254-.413-.392-.611a2.1,2.1,0,0,0-.547-.541,4.284,4.284,0,0,0-1.494-.587,3.545,3.545,0,0,0-3,.6c-.313.247.126.687.436.442a2.964,2.964,0,0,1,2.583-.4,3.411,3.411,0,0,1,1.194.506,5.2,5.2,0,0,1,.774,1.027C238.7,219.219,239.141,218.78,238.892,218.473Z" transform="translate(-212.975 -180.773)" fill="#e28427"/>
          <path id="Path_53352" data-name="Path 53352" d="M230.69,177.381a.31.31,0,1,0-.62,0l.067,2.009a.31.31,0,1,0,.62,0Z" transform="translate(-211.728 -165.751)" fill="#bbffc0"/>
          <path id="Path_53353" data-name="Path 53353" d="M240.1,178.2a.311.311,0,0,0-.38-.219.32.32,0,0,0-.219.38c.019.129.03.213.046.362s.026.273.035.41q.027.41.02.822a.31.31,0,0,0,.621,0A10.894,10.894,0,0,0,240.1,178.2Z" transform="translate(-215.307 -166.092)" fill="#bbffc0"/>
          <path id="Path_53354" data-name="Path 53354" d="M249.046,178.1a.318.318,0,0,0-.312-.309.314.314,0,0,0-.309.312q.091.922.182,1.844a.31.31,0,0,0,.62,0Q249.136,179.019,249.046,178.1Z" transform="translate(-218.697 -166.022)" fill="#bbffc0"/>
          <path id="Path_53355" data-name="Path 53355" d="M257.928,179.431q-.146-.974-.292-1.95a.31.31,0,0,0-.38-.219.32.32,0,0,0-.22.38q.146.975.292,1.95a.311.311,0,0,0,.38.22A.32.32,0,0,0,257.928,179.431Z" transform="translate(-221.965 -165.819)" fill="#bbffc0"/>
          <path id="Path_53356" data-name="Path 53356" d="M253.594,185.7a.317.317,0,0,0-.308.312l-.056,1.784a.313.313,0,0,0,.312.308.316.316,0,0,0,.308-.311l.056-1.785A.313.313,0,0,0,253.594,185.7Z" transform="translate(-220.521 -169.027)" fill="#bbffc0"/>
          <path id="Path_53357" data-name="Path 53357" d="M243.439,187.769a.317.317,0,0,0-.308.312,9.6,9.6,0,0,1-.208,1.65.31.31,0,1,0,.6.156,10.951,10.951,0,0,0,.228-1.809A.313.313,0,0,0,243.439,187.769Z" transform="translate(-216.605 -169.812)" fill="#bbffc0"/>
          <path id="Path_53358" data-name="Path 53358" d="M234.184,188.4a.316.316,0,0,0-.308.311l-.057,1.45a.313.313,0,0,0,.312.309.317.317,0,0,0,.309-.312l.056-1.45A.312.312,0,0,0,234.184,188.4Z" transform="translate(-213.151 -170.051)" fill="#bbffc0"/>
          <path id="Path_53359" data-name="Path 53359" d="M239.929,195.449a.312.312,0,0,0-.312-.308.318.318,0,0,0-.309.312,12.677,12.677,0,0,0,.029,1.674.31.31,0,0,0,.62,0A12.567,12.567,0,0,1,239.929,195.449Z" transform="translate(-215.229 -172.611)" fill="#bbffc0"/>
          <path id="Path_53360" data-name="Path 53360" d="M248.647,196.348a.312.312,0,0,0-.312-.308.318.318,0,0,0-.309.311,11.469,11.469,0,0,0,.03,1.619.31.31,0,1,0,.62,0A11.461,11.461,0,0,1,248.647,196.348Z" transform="translate(-218.54 -172.953)" fill="#bbffc0"/>
          <path id="Path_53361" data-name="Path 53361" d="M257.155,195.782a.314.314,0,0,0-.378.222,8.542,8.542,0,0,0-.122,1.7.31.31,0,0,0,.62,0q-.012-.4.014-.8c.009-.13.021-.259.036-.389l0-.023,0-.021.013-.092c.011-.073.022-.145.034-.216A.316.316,0,0,0,257.155,195.782Z" transform="translate(-221.82 -172.852)" fill="#bbffc0"/>
          <path id="Path_53362" data-name="Path 53362" d="M225.918,219.781a.314.314,0,0,0-.378.222q-.168.892-.336,1.784a.31.31,0,0,0,.6.156l.336-1.784A.317.317,0,0,0,225.918,219.781Z" transform="translate(-209.878 -181.964)" fill="#bbffc0"/>
          <path id="Path_53363" data-name="Path 53363" d="M237.328,224.443a.317.317,0,0,0-.308.312l-.058,1.282a.313.313,0,0,0,.312.309.317.317,0,0,0,.308-.312l.058-1.282A.313.313,0,0,0,237.328,224.443Z" transform="translate(-214.344 -183.737)" fill="#bbffc0"/>
          <path id="Path_53364" data-name="Path 53364" d="M247.823,225.113a.31.31,0,1,0-.62,0l.1,1.45a.31.31,0,1,0,.62,0Z" transform="translate(-218.233 -183.874)" fill="#bbffc0"/>
          <path id="Path_53365" data-name="Path 53365" d="M259.044,225.573c-.027-.133-.052-.266-.073-.4,0-.027-.008-.054-.012-.081l-.007-.058c-.008-.068-.016-.135-.022-.2a7.454,7.454,0,0,1-.029-.8.313.313,0,0,0-.312-.308.316.316,0,0,0-.308.312,7.612,7.612,0,0,0,.164,1.7.312.312,0,0,0,.38.22A.317.317,0,0,0,259.044,225.573Z" transform="translate(-222.439 -183.464)" fill="#bbffc0"/>
          <path id="Path_53366" data-name="Path 53366" d="M254.047,219.089a.31.31,0,1,0-.62,0l.112,1.45a.31.31,0,1,0,.62,0Z" transform="translate(-220.596 -181.587)" fill="#bbffc0"/>
          <path id="Path_53367" data-name="Path 53367" d="M221.222,227.871a.317.317,0,0,0-.378.222,7.715,7.715,0,0,0-.239,1.7.313.313,0,0,0,.312.308.317.317,0,0,0,.308-.312c0-.133.011-.267.022-.4.006-.066.012-.133.019-.2,0-.011.014-.11.007-.058,0-.031.008-.061.013-.092a7.237,7.237,0,0,1,.158-.787A.314.314,0,0,0,221.222,227.871Z" transform="translate(-208.133 -185.036)" fill="#bbffc0"/>
          <path id="Path_53368" data-name="Path 53368" d="M250.448,169.831a.317.317,0,0,0-.312-.309.314.314,0,0,0-.308.312l.2,1.979a.317.317,0,0,0,.312.308.313.313,0,0,0,.308-.312Z" transform="translate(-219.229 -162.884)" fill="#bbffc0"/>
          <path id="Path_53369" data-name="Path 53369" d="M233.107,171.448a.31.31,0,1,0-.62,0l.112,1.84a.31.31,0,1,0,.62,0Z" transform="translate(-212.645 -163.498)" fill="#bbffc0"/>
          <path id="Path_53370" data-name="Path 53370" d="M224.861,169.561a.31.31,0,0,0-.62,0q.037,1.13-.029,2.259a.31.31,0,1,0,.621,0Q224.9,170.691,224.861,169.561Z" transform="translate(-209.503 -162.782)" fill="#bbffc0"/>
          <path id="Path_53371" data-name="Path 53371" d="M217.505,166.01a.31.31,0,0,0-.62,0q.046.961.024,1.924a.313.313,0,0,0,.312.308.316.316,0,0,0,.308-.311Q217.551,166.972,217.505,166.01Z" transform="translate(-206.721 -161.433)" fill="#bbffc0"/>
        </g>
      </g>
    </g>
    <g id="Group_42508" data-name="Group 42508" transform="translate(21.012 509.284)">
      <path id="Path_53372" data-name="Path 53372" d="M50.91,436.31H391.168s-61.892,11.7-168.025,11.7S50.91,436.31,50.91,436.31Z" transform="translate(-50.91 -436.31)" fill="url(#linear-gradient)"/>
    </g>
  </g>
</svg>
