<svg xmlns="http://www.w3.org/2000/svg" width="43" height="42" viewBox="0 0 43 42">
  <g id="twtter" transform="translate(-0.17 0.067)">
    <ellipse id="Ellipse_3093" data-name="Ellipse 3093" cx="21.5" cy="21" rx="21.5" ry="21" transform="translate(0.17 -0.067)" fill="#66cdff" opacity="0.13"/>
    <path id="Twitter" d="M304.888,60.746a5.723,5.723,0,0,0,1.816-2.466,9.683,9.683,0,0,1-2.936.873,4.843,4.843,0,0,0-8.392,4.533l-.037,0c-7.174-.494-10.088-5.1-10.088-5.1a5.9,5.9,0,0,0,1.106,6.516,2.883,2.883,0,0,1-1.642-.418s-.6,3.109,3.316,4.783a5.413,5.413,0,0,1-1.712.187,5.235,5.235,0,0,0,4.432,3.31s-1.465,1.854-6.576,2.212a13.627,13.627,0,0,0,20.713-11.083l2.444-3.907Z" transform="translate(-272.53 -46.258)" fill="#0d90f5"/>
  </g>
</svg>
