<svg xmlns="http://www.w3.org/2000/svg" width="43" height="42" viewBox="0 0 43 42">
  <g id="whtas" transform="translate(0.27 0.067)">
    <ellipse id="Ellipse_3093" data-name="Ellipse 3093" cx="21.5" cy="21" rx="21.5" ry="21" transform="translate(-0.27 -0.067)" fill="#0a6510" opacity="0.13"/>
    <g id="Whatsapp" transform="translate(8.82 8.054)">
      <g id="Group_8627" data-name="Group 8627" transform="translate(7.163 7.05)">
        <path id="Path_14381" data-name="Path 14381" d="M414.424,72.53l-2.266-1.041a.618.618,0,0,0-.618.06l-.892.64a.874.874,0,0,1-.921.063,28.369,28.369,0,0,1-3.2-3.2.873.873,0,0,1,.063-.921l.64-.892a.618.618,0,0,0,.06-.618l-1.041-2.265a.748.748,0,0,0-.679-.436h-.751a.713.713,0,0,0-.277.052,2.5,2.5,0,0,0-1.314,2.336c0,2.575,2.132,4.952,3.152,5.943.885.941,3.378,3.305,6.089,3.305a2.5,2.5,0,0,0,2.336-1.314.7.7,0,0,0,.053-.278v-.75A.748.748,0,0,0,414.424,72.53Z" transform="translate(-403.229 -63.915)" fill="#0d6816"/>
      </g>
      <g id="Group_8628" data-name="Group 8628" transform="translate(0 0)">
        <path id="Path_14382" data-name="Path 14382" d="M393.3,79.985l2.25-7.02a12.618,12.618,0,1,1,4.774,4.773Zm7.317-4.71.444.276a10.359,10.359,0,1,0-3.325-3.323l.277.443L396.782,76.5Z" transform="translate(-393.296 -54.139)" fill="#0d6816"/>
      </g>
    </g>
  </g>
</svg>
